<svg xmlns="http://www.w3.org/2000/svg" viewBox="0 0 918.39 163.16"><defs><style>.cls-1{fill:#e6e6e6;}.cls-2{fill:#bc8a39;}.cls-3{fill:#188059;}.cls-4{fill:#b44e3a;}.cls-5{fill:#f5f5f5;}</style></defs><title>logo</title><g id="Layer_2" data-name="Layer 2"><g id="Layer_1-2" data-name="Layer 1"><path class="cls-1" d="M893.39,50a25,25,0,1,1,25-25A25,25,0,0,1,893.39,50Zm0-42.42A17.42,17.42,0,1,0,910.81,25,17.44,17.44,0,0,0,893.39,7.58Z"/><path class="cls-1" d="M901.36,20.36a5.47,5.47,0,0,1-1.15,3.52A6.77,6.77,0,0,1,896.67,26v.06l5.89,8.14h-4.35l-5.39-7.67h-2.49v7.67h-3.63V14.41h6a21.72,21.72,0,0,1,2.78.17,10.42,10.42,0,0,1,2.21.51,5.74,5.74,0,0,1,2.69,2A5.48,5.48,0,0,1,901.36,20.36Zm-9.24,3.15a17,17,0,0,0,2.11-.11,6.58,6.58,0,0,0,1.46-.33,2.81,2.81,0,0,0,1.52-1.13,3.19,3.19,0,0,0,.42-1.65,2.92,2.92,0,0,0-.33-1.41,2.29,2.29,0,0,0-1.13-1,4.86,4.86,0,0,0-1.3-.35,14.19,14.19,0,0,0-1.94-.11h-2.59v6.07Z"/><path class="cls-1" d="M115.85,41.62H74.28v119H41.36v-119H0V14.89H115.85Z"/><path class="cls-1" d="M160.46,163.16q-26,0-40.9-14.58T104.67,109q0-25.81,15.45-40.39T161.88,54q25.91,0,40.65,14.58t14.73,38.56q0,25.91-15.19,41T160.46,163.16Zm.81-84.55q-11.38,0-17.68,7.82t-6.3,22.15q0,30,24.19,30,23.07,0,23.07-30.79Q184.54,78.61,161.27,78.61Z"/><path class="cls-1" d="M301,159.4q-7.11,3.76-21.44,3.76-33.94,0-33.94-35.26V80.23H228.75V56.56h16.87V34.1l32-9.15v31.6H301V80.23H277.62V122.3q0,16.26,12.91,16.26A21.75,21.75,0,0,0,301,135.62Z"/><path class="cls-1" d="M405.66,160.62H375.28V145.68h-.41q-10.47,17.48-31,17.48-15.14,0-23.83-8.59t-8.69-22.92q0-30.28,35.87-35l28.25-3.76q0-17.07-18.5-17.07T321.63,86.94V62.76q6.71-3.45,18.34-6.1A96.47,96.47,0,0,1,361.16,54q44.51,0,44.51,44.41Zm-30.18-42.27v-7l-18.9,2.44q-15.65,2-15.65,14.13a11.67,11.67,0,0,0,3.81,9q3.81,3.51,10.31,3.51a19,19,0,0,0,14.73-6.25Q375.48,127.89,375.48,118.34Z"/><path class="cls-1" d="M463.18,160.62H431.07V6.56h32.11Z"/><path class="cls-1" d="M569.07,156.86q-10.87,6.3-31.4,6.3-24,0-38.82-14.53T484,111.13q0-26.52,15.9-41.82T542.44,54q18.39,0,26.62,4.88V86.13a36.61,36.61,0,0,0-22.46-7.52q-13.82,0-21.9,8.08T516.63,109q0,13.82,7.72,21.7t21.24,7.88q12,0,23.47-7.52Z"/><path class="cls-1" d="M710.52,157.87v-26a68.31,68.31,0,0,0,15.8,7.11,52.37,52.37,0,0,0,14.89,2.34q8.54,0,13.46-2.34t4.93-7.11a6.58,6.58,0,0,0-2.24-5.08,20.78,20.78,0,0,0-5.74-3.56,65,65,0,0,0-7.67-2.74q-4.17-1.22-8-2.74a76.89,76.89,0,0,1-10.92-5,31.54,31.54,0,0,1-7.93-6.25,24.53,24.53,0,0,1-4.88-8.23,32.83,32.83,0,0,1-1.68-11.08,28.52,28.52,0,0,1,3.81-15A31.15,31.15,0,0,1,724.5,61.79,46.46,46.46,0,0,1,739,55.9,75.79,75.79,0,0,1,756,54a94.51,94.51,0,0,1,14,1.07,104.88,104.88,0,0,1,14,3.1V83A50.76,50.76,0,0,0,771,77.64a55.14,55.14,0,0,0-13.67-1.78,30.32,30.32,0,0,0-5.95.56A19.56,19.56,0,0,0,746.5,78a9.05,9.05,0,0,0-3.35,2.74,6.31,6.31,0,0,0-1.22,3.81,7,7,0,0,0,1.83,4.88A15.84,15.84,0,0,0,748.53,93a46.86,46.86,0,0,0,6.55,2.64q3.61,1.17,7.17,2.39a93.38,93.38,0,0,1,11.58,4.88,37.12,37.12,0,0,1,8.89,6.2,24.37,24.37,0,0,1,5.69,8.33,29.64,29.64,0,0,1,2,11.38,29.69,29.69,0,0,1-4,15.8,32.16,32.16,0,0,1-10.67,10.67,48.34,48.34,0,0,1-15.34,6,85.09,85.09,0,0,1-18,1.88A93,93,0,0,1,710.52,157.87Z"/><path class="cls-1" d="M871.79,159.4q-7.11,3.76-21.44,3.76-33.94,0-33.94-35.26V80.23H799.54V56.56h16.87V34.1l32-9.15v31.6h23.37V80.23H848.42V122.3q0,16.26,12.91,16.26a21.75,21.75,0,0,0,10.47-2.95Z"/><path class="cls-2" d="M682.46,134.69a4.31,4.31,0,0,1-3.9-6.13A44.89,44.89,0,0,0,611.91,73a4.3,4.3,0,0,1-5-7,53.52,53.52,0,0,1,79.42,66.26A4.3,4.3,0,0,1,682.46,134.69Z"/><path class="cls-3" d="M637.85,163.12a53.62,53.62,0,0,1-25-6.18,4.3,4.3,0,0,1,4-7.61,44.93,44.93,0,0,0,50.36-5.79,4.3,4.3,0,0,1,5.64,6.5A53.48,53.48,0,0,1,637.85,163.12Z"/><path class="cls-4" d="M600.23,145.62a4.3,4.3,0,0,1-3.29-1.53,53.44,53.44,0,0,1-1.89-66.59,4.3,4.3,0,1,1,6.88,5.17,44.9,44.9,0,0,0,1.59,55.86,4.3,4.3,0,0,1-3.29,7.08Z"/><path class="cls-5" d="M613.64,134A34.44,34.44,0,0,1,652.1,78.25a33.85,33.85,0,0,1,3.7,1.94A3.69,3.69,0,0,1,652,86.5,26.67,26.67,0,0,0,649.08,85a27.06,27.06,0,1,0,13.06,12.46,26.94,26.94,0,0,0-2.19-3.59,3.69,3.69,0,1,1,6-4.32A34.44,34.44,0,0,1,613.64,134Z"/></g></g></svg>