<svg xmlns="http://www.w3.org/2000/svg" xmlns:xlink="http://www.w3.org/1999/xlink" viewBox="-204.4 -120 1370.3 800">
  <g opacity=".8">
    <defs>
      <path id="a" d="M-204.4-118.9h1368.8v797.8H-204.4z"/>
    </defs>
    <clipPath id="b">
      <use xlink:href="#a" overflow="visible"/>
    </clipPath>
    <g clip-path="url(#b)" fill="none" stroke="#736459" stroke-miterlimit="10">
      <path d="M377.9 572.6L336 557.7l23.9 23.5z"/>
      <path d="M377.9 572.6L336 557.7l73.8-4.3zM184.4 106.9L146.5 139l-4-64.1zM58.7 4.3L6.9 164.6l135.6-89.7z"/>
      <path d="M184.4 106.9l-41.9-32 33.9 6.4zm149.6-267l-239.4-47 420.9 8.6zm-149.6 267L146.5 139l51.8-2.2zm-2 83.3L146.5 139l51.8-2.2zm177.5 391L336 557.7l-45.9 53.4zm18-8.6l-18 8.6 71.8 76.9z"/>
      <path d="M359.9 581.2l-69.8 29.9 141.6 47zM6.9 164.6l-105.7 27.8 35.9-164.6zm87.7-371.7v29.9l-45.8-6.4zm0 29.9L52.7-128l-3.9-55.6z"/>
      <path d="M-62.9 27.8l-35.9 164.6-51.9-38.5z"/>
      <path d="M-62.9 27.8L-198.6 15l47.9 138.9zm614.3 617.5l-27.9 23.5 25.9-64.1zm-2 156l-37.9-23.5 79.8-23.5z"/>
      <path d="M523.5 668.8l-12 109 79.8-23.5zm287 44.9l-65.7 81.2 83.7-32.1zm-295-912.2L334-160.1l115.7 23.5zM334-160.1l-239.4-47 93.8 47zm-75.8 55.6L136.5-128l51.9-32.1zM136.5-128l-41.9-49.2 93.8 17.1z"/>
      <path d="M94.6-177.2v-29.9l93.8 47zM36.8 489.3L-15.1 547l22-6.4zm825.6 294.9l-33.9-21.4 33.9-4.3zm-1001.1-91.9l-10-59.8-29.9 42.7zm11.9-382.4l-5.9-38.4 41.8-8.6zM950.1 444.4l-23.9 72.7-67.8-17.1zm0 0l-33.9-68.2L858.4 500zM832.5 213.8l-18-25.7 67.8-8.5z"/>
      <path d="M950.1 444.4l-23.9 72.7 27.9-8.6zM453.6-74.7L399.8-32l4 15z"/>
      <path d="M399.8-32L322-4.2 403.8-17zm662 668.7l-81.7 32.1 47.8 79.1zM-62.9 27.8L-198.6 15l59.9-66.2zm-91.8-168.6l-31.9 83.2 47.9 6.4zm-31.9 83.2l-12 72.6 59.9-66.2zM882.3 179.6l-8-70.6-27.7 6.5z"/>
      <path d="M882.3 179.6l-67.8 8.5 32.1-72.6zm139.6-77L982 183.8l135.7-2.1z"/>
      <path d="M1061.8 91.9l-39.9 10.7 95.8 79.1zM728.9 66.3l-77.8 113.3-61.8-115.4zm15.9 728.6L663.1 703l21.9-17.1zM960.1 27.8L874.3 109 950.1-6.4zm-81.8-89.7l-29.9 27.8L950.1-6.4zm47.9 579L846.4 641l103.7 36.3zm27.9-8.6l-27.9 8.6L996 547zm67.8-405.9L982 183.8l-17.9-57.7z"/>
      <path d="M1021.9 102.6l-61.8-74.8 4 98.3zM982 183.8l-17.9-21.3v-36.4zm-17.9-21.3l-81.8 17.1 81.8-53.5zm-4-134.7L874.3 109l89.8 17.1zm-77.8 151.8l-8-70.6 89.8 17.1zM334-160.1l-75.8 55.6-8-40.6z"/>
      <path d="M334-160.1H188.4l61.8 15zm-75.8 55.6l-69.8-55.6 61.8 15zm-412.9-36.3l-31.9 83.2-107.7-147.3zm-31.9 83.2l-12 72.6-133.6-98.3z"/>
      <path d="M-186.6-57.6l-107.7-147.3-37.9 121.6zm-12 72.6l-77.7 47-55.9-145.3zm1250.5 346.2l-8-34.2 51.8-6.4zM152.5 786.3L-19.1 750l-41.8 59.8zm21.9-156l-61.8 91.9 31.9-121.8zm283.2-519.1L403.8-17l-27.9 156zM403.8-17L322-4.2 375.9 139zm-57.9 190.2l-3.9 64.1 33.9-98.3z"/>
      <path d="M1095.7 320.6l-51.8 6.4 35.9-38.5zM182.4 190.2l-21.9 59.9-28-40.6zm-95.7 59.9L6.9 164.6l125.6 44.9zm775.7 508.4l-33.9 4.3 19.9-47zm-16-117.5l-35.9 72.7 37.9 2.1z"/>
      <path d="M828.5 762.8l-18-49.1 37.9 2.1zM-276.3 62l-55.9-145.3-25.9 158.2zm0 0l-61.9 23.5-19.9-10.6zm811.7 44.9l-77.8 4.3 65.9-68.4zm-77.8 4.3L403.8-17l119.7 59.8z"/>
      <path d="M453.6-74.7L403.8-17l119.7 59.8zM-198.6 15l-77.7 47 33.9 83.4z"/>
      <path d="M-276.3 62l-61.9 23.5 95.8 59.9zm7.9 286.4l-71.8 6.4 75.8-12.8z"/>
      <path d="M-316.2 211.6l-24 143.2 75.8-12.8zM701 354.8l-87.8 85.3-6-74.6zm281-171l-17.9-21.3-37.9 96.1zm-1.9 94.1l-63.9 98.3 10-117.6z"/>
      <path d="M964.1 162.5l-81.8 17.1 43.9 79zm-47.9 213.7l-115.5-38.5 125.5-79.1zm-33.9-196.6l-49.8 34.2 93.7 44.8z"/>
      <path d="M832.5 213.8l-31.8 123.9 125.5-79.1zM-15.1 547l-49.8 12.8L-55 579zm-115.6 8.5l-18 77L-55 579zm167.5-66.2l-4-87.5-17.9-21.4zm-4-87.5l-6-83.3-11.9 61.9zM996 547l-69.8-29.9 83.8 64.1z"/>
      <path d="M980.1 668.8l-30 8.5 59.9-96.1z"/>
      <path d="M950.1 677.3l-23.9-160.2 83.8 64.1z"/>
      <path d="M1109.7 491.4L996 547l14 34.2zm0 0l-47.9 145.3-51.8-55.5zm-47.9 145.3l-81.7 32.1 29.9-87.6zM862.4 784.2l-33.9-21.4-67.7 79.1zm-33.9-21.4l-83.7 32.1 16 47zM14.9 380.4l-145.6 30 35.9-87.7zM-90.9 262.9l-35.9 47 32 12.8z"/>
      <path d="M-126.8 309.9l-9.9 44.9 41.9-32.1zm-3.9 100.5l-6-55.6 41.9-32.1zm67.8-382.6l-75.8-79 53.8-59.7zm0-160.1l-91.8-8.5 69.8 29.9z"/>
      <path d="M-138.7-51.2l-16-89.6 69.8 29.9zm291.2 837.5l-39.9-64.1-93.8 6.4zm0 0L-19.1 750l37.9-21.4zm-283.2-230.8l-18 77-29.9-21.4z"/>
      <path d="M-148.7 632.5l-29.9 42.7v-64.1zm664.2-831l-65.8 61.9 53.8-4.2zM345.9 173.2l-3.9 64.1-95.8-51.3z"/>
      <path d="M284.1 132.5l-85.8 4.3 47.9 49.2zm-85.8 4.3l-15.9 53.4 63.8-4.2zm-466.7 211.6l-71.8 6.4 43.9 44.9zm-29.9 59.8l-35.9 10.7 37.9-19.2z"/>
      <path d="M-334.2 418.9l-6-64.1 43.9 44.9zM176.4 81.3l-33.9-6.4-8-66.3zm-33.9-6.4L58.7 4.3l75.8 4.3zm630.1-36.4l-43.7 27.8-12-57.7zm-43.7 27.8l-139.6-2.1L716.9 8.6zM178.4 309.9l-17.9-59.8 49.8 32zM589.3 64.2l-53.9 42.7 43.9-59.8z"/>
      <path d="M535.4 106.9l-11.9-64.1 55.8 4.3zM431.7 658.1L359.9 812 252.2 675.2z"/>
      <path d="M431.7 658.1l-141.6-47-37.9 64.1zm171.5-203l-21.9 72.6 33.9-2.1zM1004 777.8l-16-6.4 31.9-17.1z"/>
      <path d="M988 771.4l-17.9-27.8 49.8 10.7z"/>
      <path d="M1063.8 809.8l-59.8-32 15.9-23.5z"/>
      <path d="M1063.8 809.8l-35.9-61.9-8 6.4zM178.4 309.9l-17.9-59.8-20 21.4zm997.1-149.6l-25.9-128.2-39.9 17.1z"/>
      <path d="M1175.5 160.3l-57.8 21.4-8-132.5zm-25.9-128.2l-16-47-23.9 64.1z"/>
      <path d="M1117.7 181.7l-55.9-89.8 47.9-42.7zm-1031 68.4l-59.9 68.4-51.8-44.9zm0 0L6.9 164.6l-31.9 109zm-59.9 68.4l-11.9 61.9L-25 273.6z"/>
      <path d="M14.9 380.4l-109.7-57.7 69.8-49.1z"/>
      <path d="M6.9 164.6l-105.7 27.8 73.8 81.2z"/>
      <path d="M-90.9 262.9l-3.9 59.8 69.8-49.1zm1266.4-102.6l-6 153.9 55.9-292.8zm0 0l-25.9-128.2 75.8-10.7zm41.9 356.8l-47.9-202.9 55.9-292.8zm-197.5 237.2l-49.8-10.7v-2.2z"/>
      <path d="M1027.9 747.9l-8 6.4-49.8-12.9zM-178.6 611.1l-71.8-57.7 27.9 53.4zm0 0v64.1l-43.9-68.4zm79.8-418.7l-51.9-38.5 25.9 57.7zm-28 117.5l-5.9-38.4-103.8-10.7zm-115.6-164.5l-73.8 66.2 79.7 49.2z"/>
      <path d="M-264.4 342l-51.8-130.4 79.7 49.2zM792.7-29.9l-20.1 68.4-37.7-57.7zm0 0L691-119.5l43.9 100.3z"/>
      <path d="M772.6 38.5L716.9 8.6l18-27.8zM651.1 179.6L589.3 64.2l-51.9 89.7z"/>
      <path d="M589.3 64.2l-53.9 42.7 2 47z"/>
      <path d="M535.4 106.9l-77.8 4.3 79.8 42.7zm380.8 269.3L858.4 500l-37.9-34.2zm0 0l-115.5-38.5 19.8 128.1z"/>
      <path d="M858.4 500l-27.8 6.4-10.1-40.6zm121.7-222.1l-63.9 98.3 75.8-77zm99.7 10.6l-2-34.1-85.8 44.8z"/>
      <path d="M1079.8 288.5l-35.9 38.5-51.9-27.8zM-156.7 831.2l-83.7-10.7 147.5 29.9zM-294.3-204.9l-37.9 121.6 14-111z"/>
      <path d="M-332.2-83.3l-25.9 158.2 39.9-269.2zM950.1 677.3L846.4 641l43.9 59.8zm-87.7 81.2l-14-42.7 41.9-15z"/>
      <path d="M848.4 715.8l-2-74.8 43.9 59.8zM258.2-104.5L136.5-128 242.2 2.2z"/>
      <path d="M176.4 81.3L134.5 8.6l107.7-6.4zM136.5-128l-2 136.6 107.7-6.4zm103.7 957.1l-333.1 21.3 251.4-57.7z"/>
      <path d="M152.5 786.3l-213.4 23.5 219.4-17.1z"/>
      <path d="M-60.9 809.8l-32 40.6 251.4-57.7zm646.2-557.6l-61.8 4.3 3.9-8.6zm-47.9-98.3l-79.8-42.7 69.8 136.7zm-628.3 109l-41.8 8.6-4-25.7zm-39.8 147.5l-6-55.6-4 55.6z"/>
      <path d="M158.5 792.7l-6-6.4 73.8-117.5zm-6-6.4l-39.9-64.1 113.7-53.4zM992 299.2l-11.9-21.3v-32.1z"/>
      <path d="M982 183.8l-55.8 74.8 53.9-12.8z"/>
      <path d="M980.1 277.9l-53.9-19.3 53.9-12.8zm97.7-23.5L992 299.2l-11.9-53.4zm27.9 538.3l-14 15 2 8.5zm-14 15l-27.9 2.1 29.9 6.4zM-124.8 211.6l-11.9 34.2-37.9-10.7zm0 0l-25.9-57.7-23.9 81.2z"/>
      <path d="M-132.7 271.5l-4-25.7-37.9-10.7z"/>
      <path d="M-132.7 271.5l-103.8-10.7 61.9-25.7zm-103.8-10.7l-5.9-115.4 67.8 89.7zM52.7-128l-3.9-55.6-57.9 53.4z"/>
      <path d="M20.8-83.3l-105.7-27.6 75.8-19.3z"/>
      <path d="M-62.9-132.3l-22 21.4 75.8-19.3zM1133.6-14.9L1067.8-143l101.7-12.8zM375.9 139l-30 34.2-43.8-30z"/>
      <path d="M345.9 173.2L246.2 186l55.9-42.8z"/>
      <path d="M284.1 132.5L246.2 186l55.9-42.8zM336 557.7l-33.9-128.1-41.9 123.8zm0 0l-45.9 53.4-29.9-57.7zm-472.7-202.9l-4 55.6-53.9-6.5zm1354.1 162.3V626l-75.8-138.9zm0 0l-47.9-202.9-27.9 172.9z"/>
      <path d="M1109.7 491.4l-6-47 37.9 42.7zM1004 777.8l-16-6.4-99.7 79z"/>
      <path d="M988 771.4l-17.9-27.8-81.8 106.8zm-17.9-27.8l-107.7 40.6 25.9 66.2z"/>
      <path d="M862.4 784.2l-101.6 57.7 127.5 8.5zm231.3 32l-29.9-6.4-175.5 40.6zm-29.9-6.4l-59.8-32-115.7 72.6zm41.9-17.1l-14 15 10-55.6z"/>
      <path d="M1091.7 807.7l-27.9 2.1 37.9-57.7zm-27.9 2.1l-35.9-61.9 73.8 4.2z"/>
      <path d="M1061.8 636.7l-33.9 111.2 73.8 4.2zM375.9 139L322-4.2l-35.9 106.8zm0 0l-73.8 4.2-16-40.6z"/>
      <path d="M302.1 143.2l-18-10.7 2-29.9z"/>
      <path d="M284.1 132.5l-85.8 4.3 87.8-34.2zM242.2 2.2l-65.8 79.1 109.7 21.3z"/>
      <path d="M198.3 136.8l-13.9-29.9 101.7-4.3z"/>
      <path d="M184.4 106.9l-8-25.6 109.7 21.3zm406.9 647.4l-67.8-85.5 83.7 4.3z"/>
      <path d="M551.4 645.3l-27.9 23.5 83.7 4.3zm29.9-117.6l-31.9 77-81.8-25.7z"/>
      <path d="M549.4 604.7l-25.9 64.1-55.9-89.8z"/>
      <path d="M523.5 668.8l-91.8-10.7 35.9-79.1z"/>
      <path d="M441.7 467.9l-31.9 85.5 57.8 25.6zM322-4.2l-35.9 106.8-10-96.1zm-35.9 106.8L242.2 2.2l33.9 4.3zM792.7-29.9L691-119.5l49.9-42.7zm229.2 132.5l-61.8-74.8L994-14.9zm-61.8-74.8l-10-34.2 43.9-8.5zm149.6 21.4l-47.9 42.7L994-14.9z"/>
      <path d="M1061.8 91.9l-39.9 10.7L994-14.9zm-967.2-299l-45.8 23.5-2-23.5z"/>
      <path d="M48.8-183.6l-57.9 53.4 55.9-76.9z"/>
      <path d="M-9.1-130.2l-53.8-2.1 109.7-74.8zm-53.8-2.1l-91.8-8.5 201.5-66.3zm-91.8-8.5l-139.6-64.1 341.1-2.2zm682.1 388.7l-3.9 8.6-77.8 47zm0 0l-69.8-136.7-11.9 192.3z"/>
      <path d="M501.5 337.7l-13.9-32.1-41.9-2.1zm-43.9-226.5L375.9 139l69.8 164.5z"/>
      <path d="M375.9 139L342 237.3l103.7 66.2zm365 74.8l-89.8-34.2 103.7-32.1zm-12-147.5l-77.8 113.3 103.7-32.1zm-554.5 564l-29.9-29.9 55.8-29.9zm-301.2-320.4l-9.9 44.9-91.8 17.1z"/>
      <path d="M-126.8 309.9l-109.7-49.1 8 111.1zm-9.9 44.9l-57.9 49.1-33.9-32z"/>
      <path d="M-194.6 403.9l-103.7 4.3 69.8-36.3zm-41.9-143.1l-27.9 81.2 35.9 29.9zm-27.9 81.2l-4 6.4 39.9 23.5z"/>
      <path d="M-268.4 348.4l-27.9 51.3 67.8-27.8z"/>
      <path d="M-296.3 399.7l-2 8.5 69.8-36.3zm598.4 29.9l-41.9 123.8-27.9-136.6zm-41.9 123.8l-59.9 17.1 32-153.7zm355-27.8l-12-70.5 71.8 36.3z"/>
      <path d="M613.2 440.1l-10 15 71.8 36.3zm-855.6-294.7l-73.8 66.2-35.9-38.4zm0 0l-95.8-59.9-13.9 87.7z"/>
      <path d="M-316.2 211.6l-24 143.2-11.9-181.6zM-55 579l-93.7 53.5 47.9 36.3z"/>
      <path d="M-138.7 692.3l-10-59.8 47.9 36.3zm371-275.5l-32 153.7-69.8-55.6zM158.5 389L32.8 401.8l97.7 113.1z"/>
      <path d="M36.8 489.3l-4-87.5 97.7 113.1zM792.7-29.9l-51.8-132.3 61.6-4.3zM505.5-136.6l-2-4.2-19.9 12.8z"/>
      <path d="M505.5-136.6l-51.9 61.9 30-53.3zm-2-4.2l-53.8 4.2 33.9 8.6zm-49.9 66.1l-3.9-61.9 33.9 8.6zM290.1 611.1l-29.9-57.7 9.9 55.6z"/>
      <path d="M290.1 611.1l-37.9 64.1 17.9-66.2zm-63.8 57.7l-113.7 53.4 73.8-76.9zm-26-98.3l-25.9 59.8 12 15z"/>
      <path d="M174.4 630.3l-61.8 91.9 73.8-76.9zm327.1-292.6l-37.9 87.6-39.9-53.4zm0 0l-55.8-34.2-22 68.4zm-37.9 87.6l-21.9 42.6-18-96z"/>
      <path d="M445.7 303.5L342 237.3l81.7 134.6zm-4 164.4l-69.8-12.8 51.8-83.2z"/>
      <path d="M371.9 455.1l-69.8-25.5 121.6-57.7zm733.8 337.6l-4-40.6 33.9-32zm119.7-771.3l-22-53.4-37.9 10.7z"/>
      <path d="M1225.4 21.4l-75.8 10.7 15.9-53.4zm-22-53.4l-13.9-117.4-24 128.1z"/>
      <path d="M1189.5-149.4l-20-6.4-4 134.5z"/>
      <path d="M1169.5-155.8l-35.9 140.9 31.9-6.4zm-19.9 187.9l-16-47 31.9-6.4zM-334.2 418.9l-6-64.1-21.9 78.9zm1503.7-104.7l-27.9 172.9-25.9-125.9z"/>
      <path d="M1169.5 314.2l-73.8 6.4 20 40.6zm-27.9 172.9l-37.9-42.7 12-83.2z"/>
      <path d="M1103.7 444.4l-51.8-83.2h63.8z"/>
      <path d="M1095.7 320.6l-43.8 40.6h63.8zM136.5-128l-2 136.6-39.9-111z"/>
      <path d="M136.5-128l-41.9-49.2v74.8z"/>
      <path d="M134.5 8.6L58.7 4.3l35.9-106.7zM94.6-177.2L52.7-128l41.9 25.6z"/>
      <path d="M58.7 4.3L20.8-83.3l73.8-19.1zm921.4 664.5l-30 8.5 10 25.7zm47.8 79.1l-47.8-79.1-20 34.2z"/>
      <path d="M1027.9 747.9l-57.8-6.5-10-38.4zm-1178.6-594l-23.9 81.2v-85.5zm0 0L-198.6 15l24 134.6z"/>
      <path d="M-174.6 235.1l-67.8-89.7 67.8 4.2z"/>
      <path d="M-198.6 15l-43.8 130.4 67.8 4.2zM-55 579l-9.9-19.2-18-12.8z"/>
      <path d="M-55 579l-75.7-23.5 47.8-8.5zM94.6-102.4L52.7-128l-25.9 27.8zm0 0L20.8-83.3l6-16.9z"/>
      <path d="M52.7-128l-61.8-2.2 35.9 30zM20.8-83.3l-29.9-46.9 35.9 30zm-151.5 638.8l-47.9 55.6 33.9-100.4zm-47.9 55.6l-71.8-57.7 105.7-42.7zm0 64.1l-61.8 145.3-115.7-98.3zm1314.2 44.9l-29.9 72.6 91.8-94zm-29.9 72.6l-12 23.5 103.8-117.5zM613.2 440.1l-6-74.6-15.9 19.2zm0 0l-10 15-11.9-70.4zM270.1 609l-9.9-55.6-2 51.3zm0 0l-17.9 66.2 6-70.5zm-9.9-55.6l-59.9 17.1 57.9 34.2zm-8 121.8l-25.9-6.4 31.9-64.1z"/>
      <path d="M226.3 668.8l-39.9-23.5 71.8-40.6z"/>
      <path d="M200.3 570.5l-13.9 74.8 71.8-40.6zm933.3-585.4l-23.9 64.1-79.8-100.4zm0 0L1067.8-143l-37.9 91.8z"/>
      <path d="M1109.7 49.2L994-14.9l35.9-36.3zM1067.8-143l-49.9-8.5 12 100.3zM-82.9 547l-47.8 8.5-10-44.8z"/>
      <path d="M-130.7 555.5l-14-44.8h4zM1225.4 21.4l-22-53.4 2-164.4z"/>
      <path d="M1203.4-32l-13.9-117.4 15.9-47z"/>
      <path d="M1189.5-149.4l-20-6.4 35.9-40.6zm-20-6.4L1067.8-143l137.6-53.4z"/>
      <path d="M1067.8-143l-49.9-8.5 187.5-44.9zM-194.6 403.9l-55.8 149.5-65.8-87.6z"/>
      <path d="M-194.6 403.9l-103.7 4.3-17.9 57.6zm-103.7 4.3l-35.9 10.7 18 46.9zm-35.9 10.7l-27.9 14.8 45.9 32.1zM992 299.2l-75.8 77 43.9 8.5z"/>
      <path d="M950.1 444.4l-33.9-68.2 43.9 8.5zM178.4 309.9L158.5 389l-85.8-81.2z"/>
      <path d="M178.4 309.9l-37.9-38.4-67.8 36.3zM158.5 389L32.8 401.8l39.9-94z"/>
      <path d="M86.7 250.1l-59.9 68.4 45.9-10.7z"/>
      <path d="M32.8 401.8l-6-83.3 45.9-10.7zM579.3 47.1l-55.8-4.3 27.9-47zm-55.8-4.3L453.6-74.7l97.8 70.5z"/>
      <path d="M505.5-136.6l-51.9 61.9 97.8 70.5zm18 805.4l-12 109-63.8-36.4zm0 0l-91.8-10.7 16 83.3zm-91.8-10.7L359.9 812l87.8-70.6zM-25 273.6l-65.9-10.7 2-12.8z"/>
      <path d="M-25 273.6l-73.8-81.2 9.9 57.7z"/>
      <path d="M-90.9 262.9l-45.8-17.1 47.8 4.3z"/>
      <path d="M-98.8 192.4l-26 19.2 35.9 38.5zm-26 19.2l-11.9 34.2 47.8 4.3zm307.2-21.4L146.5 139l-12 14.9z"/>
      <path d="M182.4 190.2l-49.9 19.3 2-55.6zM146.5 139l-4-64.1-8 79z"/>
      <path d="M142.5 74.9L6.9 164.6l127.6-10.7z"/>
      <path d="M132.5 209.5L6.9 164.6l127.6-10.7zM36.8 489.3L14.9 380.4l-77.8 153.8zm0 0L-15.1 547l-47.8-12.8zM14.9 380.4l-145.6 30 67.8 123.8z"/>
      <path d="M-15.1 547l-49.8 12.8 2-25.6zm-49.8 12.8l-18-12.8 20-12.8z"/>
      <path d="M-82.9 547l-57.8-36.3 77.8 23.5zm-57.8-36.3l-6-19.3 83.8 42.8zM846.4 641l-35.9 72.7-75.6-47.1zm-35.9 72.7l-65.7 81.2-9.9-128.3z"/>
      <path d="M744.8 794.9l-59.8-109 49.9-19.3z"/>
      <path d="M685 685.9l-47.9-21.4 97.8 2.1zm241.2-168.8L858.4 500l-31.9 29.9z"/>
      <path d="M858.4 500l-27.8 6.4-4.1 23.5z"/>
      <path d="M830.6 506.4l-10.1-40.6 6 64.1zm-10.1-40.6L675 491.4l151.5 38.5zM950.1-6.4L874.3 109l-57.7-66.2z"/>
      <path d="M950.1-6.4L848.4-34.1l-31.8 76.9zM874.3 109l-27.7 6.5-30-72.7zM848.4-34.1l-55.7 4.2 23.9 72.7z"/>
      <path d="M792.7-29.9l-20.1 68.4 44 4.3zM144.5 600.4l-31.9 121.8L56.7 609zm-14-85.5l-93.7-25.6L56.7 609zm-17.9 207.3l-93.8 6.4L56.7 609zM36.8 489.3L6.9 540.6 56.7 609zM6.9 540.6l-22 6.4 71.8 62zM453.6-74.7l-3.9-61.9-63.9 10.7zm0 0L399.8-32l-14-93.9z"/>
      <path d="M449.7-136.6L334-160.1l51.8 34.2zm153.5 591.7l-11.9-70.4-39.9 78.9zm0 0l-21.9 72.6-29.9-64.1zm-21.9 72.6L467.6 579l83.8-115.4z"/>
      <path d="M467.6 579l-25.9-111.1 109.7-4.3z"/>
      <path d="M463.6 425.3l-21.9 42.6 109.7-4.3zm368.9-211.5l-18-25.7 8 23.5zm137.6 527.6v2.2l-59.9-19.3zm0 2.2l-107.7 40.6 47.8-59.9zm0-2.2l-10-38.4-49.9 21.3zm-10-38.4l-10-25.7-39.9 47z"/>
      <path d="M950.1 677.3l-59.8 23.5 19.9 23.5zm-59.8 23.5l-27.9 57.7 47.8-34.2zm-27.9 57.7v25.7l47.8-59.9zM996 547l-41.9-38.5 49.9-76.8zm-35.9-162.3l-10 59.7 53.9-12.7z"/>
      <path d="M954.1 508.5l-4-64.1 53.9-12.7zm155.6-17.1L996 547l8-115.3z"/>
      <path d="M1109.7 491.4l-6-47-99.7-12.7zm-6-47l-51.8-83.2-47.9 70.5zm65.8-130.2l-73.8 6.4-4-27.8zm-73.8 6.4l-15.9-32.1 11.9 4.3z"/>
      <path d="M1079.8 288.5l-2-34.1 13.9 38.4zM359.9 812L252.2 675.2l12 98.3z"/>
      <path d="M359.9 812l-119.7 17.1 24-55.6z"/>
      <path d="M252.2 675.2l-25.9-6.4 37.9 104.7z"/>
      <path d="M240.2 829.1l-81.7-36.4 105.7-19.2zm-13.9-160.3l-67.8 123.9 105.7-19.2zm534.5 173.1l-16-47-81.7 27.7z"/>
      <path d="M744.8 794.9L663.1 703v119.6zM663.1 703l-71.8 51.3 71.8 68.3z"/>
      <path d="M591.3 754.3l-41.9 47 113.7 21.3zm155.5-493.5l-5.9-47-73.8 55.5z"/>
      <path d="M740.9 213.8l-89.8-34.2 16 89.7zm-39.9 141l-93.8 10.7 59.9-96.2z"/>
      <path d="M607.2 365.5l-21.9-113.3 81.8 17.1zM685 685.9L663.1 703l-22-25.7z"/>
      <path d="M685 685.9l-47.9-21.4 4 12.8zM663.1 703l-71.8 51.3 49.8-77z"/>
      <path d="M637.1 664.5l-29.9 8.6 33.9 4.2z"/>
      <path d="M607.2 673.1l-15.9 81.2 49.8-77zM734.9-19.2l-18 27.8-69.8-36.3zm0 0L691-119.5l-43.9 91.8z"/>
      <path d="M716.9 8.6L589.3 64.2l57.8-91.9zM691-119.5l-185.5-17.1L647.1-27.7z"/>
      <path d="M589.3 64.2l-10-17.1 67.8-74.8z"/>
      <path d="M579.3 47.1L551.4-4.2l95.7-23.5zM423.7 371.9L342 237.3l-91.8 130.3z"/>
      <path d="M423.7 371.9l-121.6 57.7-51.9-62z"/>
      <path d="M342 237.3l-131.7 44.8 39.9 85.5zm-39.9 192.3l-69.8-12.8 17.9-49.2zm-91.8-147.5l-31.9 27.8 71.8 57.7zm524.6 384.5L675 491.4 605.2 579zm0 0l-97.8-2.1-31.9-85.5z"/>
      <path d="M675 491.4l-59.8 34.2-10 53.4zm-37.9 173.1l-29.9 8.6-2-94.1z"/>
      <path d="M615.2 525.6l-33.9 2.1 23.9 51.3zm-8 147.5l-55.8-27.8 53.8-66.3zm-25.9-145.4l-31.9 77 55.8-25.7z"/>
      <path d="M551.4 645.3l-2-40.6 55.8-25.7zM160.5 250.1l-20 21.4-2-2.2z"/>
      <path d="M160.5 250.1l-28-40.6 6 59.8zm-20 21.4l-67.8 36.3 65.8-38.5z"/>
      <path d="M132.5 209.5l-45.8 40.6 51.8 19.2z"/>
      <path d="M86.7 250.1l-14 57.7 65.8-38.5zM399.8-32l-14-93.9-99.7 40.5zm0 0L322-4.2l-35.9-81.2z"/>
      <path d="M385.8-125.9L334-160.1l-47.9 74.7zM334-160.1l-75.8 55.6 27.9 19.1z"/>
      <path d="M322-4.2L276.1 6.5l10-91.9z"/>
      <path d="M276.1 6.5l-33.9-4.3 43.9-87.6zm-17.9-111l-16 106.7 43.9-87.6zm183.5 572.4l-31.9 85.5-33.9-89.8z"/>
      <path d="M441.7 467.9l-69.8-12.8 4 8.5z"/>
      <path d="M409.8 553.4l-73.8 4.3 39.9-94.1z"/>
      <path d="M371.9 455.1l-69.8-25.5 73.8 34z"/>
      <path d="M336 557.7l-33.9-128.1 73.8 34zm510.6-442.2l-30-72.7-35.9 68.4z"/>
      <path d="M846.6 115.5l-32.1 72.6-33.8-76.9z"/>
      <path d="M816.6 42.8l-44-4.3 8.1 72.7zm-2.1 145.3l-59.7-40.6 25.9-36.3zM772.6 38.5l-43.7 27.8 51.8 44.9z"/>
      <path d="M754.8 147.5l-25.9-81.2 51.8 44.9zM467.6 579l-35.9 79.1 4-57.7zm0 0l-57.8-25.6 25.9 47zm-35.9 79.1l-53.8-85.5 57.8 27.8z"/>
      <path d="M409.8 553.4l-31.9 19.2 57.8 27.8zm257.3-284.1l-16-89.7-55.8 40.6z"/>
      <path d="M667.1 269.3l-81.8-17.1 10-32zm-16-89.7l-113.7-25.7 57.9 66.3zm-65.8 72.6l-57.9-4.3 67.9-27.7z"/>
      <path d="M537.4 153.9l-10 94 67.9-27.7zm668-350.3l-187.5 44.9-123.6-55.6zm-402.9 29.9l-61.6 4.3 153.4-44.9zm-287-32l-420.9-8.6h799.7zM982 183.8l-1.9 62 103.7-8.5z"/>
      <path d="M1117.7 181.7L982 183.8l101.8 53.5zm-39.9 72.7l-97.7-8.6 103.7-8.5zM926.2 517.1L846.4 641l-29.9-64.1z"/>
      <path d="M926.2 517.1l-99.7 12.8-10 47zM846.4 641l-111.5 25.6 81.6-89.7z"/>
      <path d="M826.5 529.9L675 491.4l141.5 85.5z"/>
      <path d="M734.9 666.6L675 491.4l141.5 85.5zm382.8-484.9l-33.9 55.6 17.9-8.6zm-26 111.1l-13.9-38.4 23.9-25.7z"/>
      <path d="M1083.8 237.3l-6 17.1 23.9-25.7zM200.3 570.5l-55.8 29.9-4-17.1z"/>
      <path d="M200.3 570.5l-69.8-55.6 10 68.4zm-55.8 29.9L56.7 609l83.8-25.7z"/>
      <path d="M130.5 514.9L56.7 609l83.8-25.7zm887.4-666.4l-123.6-55.6 95.7 83.4z"/>
      <path d="M994-14.9l-43.9 8.5L990-123.7z"/>
      <path d="M950.1-6.4l-71.8-55.5L990-123.7zm-55.8-200.7l-16 145.2L990-123.7zm135.6 155.9l-12-100.3-27.9 27.8zm0 0L994-14.9l-4-108.8zM58.7 4.3L20.8-83.3 8.9-6.4z"/>
      <path d="M58.7 4.3L6.9 164.6l2-171z"/>
      <path d="M20.8-83.3l-105.7-27.6L8.9-6.4zM6.9 164.6L-62.9 27.8 8.9-6.4z"/>
      <path d="M-62.9 27.8l-22-138.7L8.9-6.4zm885.4 183.8l-8-23.5-49.7 27.8zm-8-23.5l-59.7-40.6 10 68.4z"/>
      <path d="M754.8 147.5l-13.9 66.3 23.9 2.1zm-8 113.3l-5.9-47 23.9 2.1zm141.5 589.6l-127.5-8.5H365.9z"/>
      <path d="M888.3 850.4H-92.9l458.8-8.5zm-127.5-8.5l-97.7-19.3-297.2 19.3z"/>
      <path d="M663.1 822.6l-113.7-21.3-183.5 40.6zm-113.7-21.3l-37.9-23.5-145.6 64.1zm-37.9-23.5l-63.8-36.4-81.8 100.5zm-63.8-36.4L359.9 812l6 29.9z"/>
      <path d="M359.9 812l-119.7 17.1 125.7 12.8z"/>
      <path d="M240.2 829.1l-333.1 21.3 458.8-8.5zM1004 431.7l-43.9-47 41.9-34.2z"/>
      <path d="M992 299.2l-31.9 85.5 41.9-34.2zm59.9 62l-47.9 70.5-2-81.2z"/>
      <path d="M1051.9 361.2l-8-34.2-41.9 23.5zm-8-34.2L992 299.2l10 51.3zm-1063 423l-41.8 59.8-71.8-36.3zm0 0l-81.7-81.2-31.9 104.7zm-41.8 59.8l-32 40.6-39.8-76.9zm-32 40.6l-63.8-19.2 24-57.7zm-7.9-181.6l-37.9 23.5 6 81.2zm-37.9 23.5l-39.9-17.1 45.9 98.3zm-18 138.9l-83.7-10.7 107.7-47z"/>
      <path d="M-178.6 675.2l-61.8 145.3 107.7-47zm0 0l-43.9-68.4-135.6 66.3zm0 0l-177.5 47-2-49.1zm-43.9-68.4l-27.9-53.4-107.7 119.7zm-27.9-53.4l-65.8-87.6-41.9 207.3z"/>
      <path d="M-316.2 465.8l-45.9-32.1 4 239.4zm1491.7-305.5l-6 153.9-19.9-87.6z"/>
      <path d="M1175.5 160.3l-57.8 21.4 31.9 44.9zm-6 153.9l-77.8-21.4 57.9-66.2z"/>
      <path d="M1117.7 181.7l-16 47 47.9-2.1z"/>
      <path d="M1101.7 228.7l-10 64.1 57.9-66.2zM342 237.3L246.2 186l-29.9 55.5zm0 0l-131.7 44.8 6-40.6z"/>
      <path d="M246.2 186l-63.8 4.2 33.9 51.3zm-35.9 96.1l-49.8-32 55.8-8.6z"/>
      <path d="M182.4 190.2l-21.9 59.9 55.8-8.6zm424.8 175.3l-15.9 19.2-71.8-38.5z"/>
      <path d="M607.2 365.5l-21.9-113.3-65.8 94zm-15.9 19.2l-39.9 78.9-31.9-117.4zm-39.9 78.9l-87.8-38.3 55.9-79.1zm-49.9-125.9l-37.9 87.6 55.9-79.1zm696 361l-61.9 21.4 43.9-27.8z"/>
      <path d="M1217.4 626l-19.9 72.7-18-6.4zM585.3 252.2l-61.8 4.3-10 19.2zm0 0l-65.8 94-6-70.5z"/>
      <path d="M523.5 256.5l-77.8 47 67.8-27.8zm-4 89.7l-18-8.5 12-62z"/>
      <path d="M501.5 337.7l-13.9-32.1 25.9-29.9z"/>
      <path d="M487.6 305.6l-41.9-2.1 67.8-27.8zM-338.2 85.5l-13.9 87.7-14-21.4z"/>
      <path d="M-338.2 85.5l-19.9-10.6-8 76.9zm-2 269.3l-11.9-181.6-14-21.4zm0 0l-21.9 78.9-4-281.9zm1160.7 111l-19.8-128.1-69.8 44.9zm0 0L675 491.4l55.9-108.8z"/>
      <path d="M701 354.8l-87.8 85.3 117.7-57.5z"/>
      <path d="M675 491.4l-61.8-51.3 117.7-57.5zM250.2 367.6l-17.9 49.2-34-10.7z"/>
      <path d="M250.2 367.6l-71.8-57.7 19.9 96.2z"/>
      <path d="M232.3 416.8l-101.8 98.1 67.8-108.8z"/>
      <path d="M178.4 309.9L158.5 389l39.8 17.1z"/>
      <path d="M158.5 389l-28 125.9 67.8-108.8zM-62.9 534.2l-67.8-123.8-14 53.2z"/>
      <path d="M-62.9 534.2l-83.8-42.8 2-27.8zm-67.8-123.8h-10l-4 53.2zm-10 0l-53.9-6.5 49.9 59.7zm1035-617.5l-16 145.2-17.9-12.8z"/>
      <path d="M894.3-207.1l-91.8 40.6 57.9 91.8zm-16 145.2l-29.9 27.8 12-40.6zm-29.9 27.8l-55.7 4.2 67.7-44.8z"/>
      <path d="M802.5-166.5l-9.8 136.6 67.7-44.8zm-943.2 677.2h-4l-4-17.1z"/>
      <path d="M-140.7 510.7l-6-19.3-2 2.2zm-4 0l-105.7 42.7 101.7-59.8z"/>
      <path d="M-144.7 463.6l-2 27.8-2 2.2z"/>
      <path d="M-144.7 463.6l-49.9-59.7 45.9 89.7z"/>
      <path d="M-194.6 403.9l-55.8 149.5 101.7-59.8zM56.7 609L18.8 728.6l-59.8-94z"/>
      <path d="M56.7 609l-71.8-62-25.9 87.6zM18.8 728.6L-19.1 750-41 634.6zM-15.1 547L-55 579l14 55.6z"/>
      <path d="M-19.1 750l-81.7-81.2 59.8-34.2z"/>
      <path d="M-55 579l-45.8 89.8 59.8-34.2zm887.5-365.2l-10-2.2-63.7 70.5zm0 0l-31.8 123.9-41.9-55.6zm-10-2.2l-57.7 4.3-6 66.2z"/>
      <path d="M800.7 337.7l-69.8 44.9 27.9-100.5zm-35.9-121.8l-18 44.9 12 21.3zm-18 44.9l-79.7 8.5 91.7 12.8zm-15.9 121.8L701 354.8l57.8-72.7z"/>
      <path d="M701 354.8l-33.9-85.5 91.7 12.8zm478.5 337.5l-43.9 27.8-8-47z"/>
      <path d="M1217.4 626l-37.9 66.3-51.9-19.2z"/>
      <path d="M1217.4 626l-75.8-138.9-14 186zm-75.8-138.9l-31.9 4.3 17.9 181.7zm-6 233l-33.9 32 25.9-79z"/>
      <path d="M1109.7 491.4l-47.9 145.3 65.8 36.4z"/>
      <path d="M1101.7 752.1l-39.9-115.4 65.8 36.4zM894.3-207.1l-153.4 44.9-221.4-36.3z"/>
      <path d="M894.3-207.1l-378.8 8.6h4zm-153.4 44.9L691-119.5l-171.5-79z"/>
      <path d="M691-119.5l-185.5-17.1 14-61.9zm-175.5-79l-12 57.7 16-57.7z"/>
      <path d="M505.5-136.6l-2-4.2 16-57.7z"/>
    </g>
  </g>
</svg>
