<svg xmlns="http://www.w3.org/2000/svg" viewBox="0 0 1280 720">
  <g fill-rule="evenodd" clip-rule="evenodd">
    <path d="M1237 283.8s.8-2.1 3.8-3.4c3-1.3 4.9-.9 4.9-.9l-2-6.4s-3.8.1-6.6 2-3.4 3.4-3.4 3.4l3.3 5.3zm-13.8 68.7s-1.2-2-.3-5.2c.8-3.2 2.3-4.5 2.3-4.5l-6.2-2.2s-2.3 3.2-2.5 6.6c-.2 3.4.6 4.8.6 4.8l6.1.5zm12.2 187.9s-1.2-2-.3-5.2c.8-3.2 2.3-4.5 2.3-4.5l-6.2-2.2s-2.3 3.2-2.5 6.6c-.2 3.4.6 4.8.6 4.8l6.1.5zm-135.2 40.5s-2.2.1-4.6-2.1c-2.4-2.3-2.8-4.1-2.8-4.1l-4.8 4.5s1.7 3.5 4.5 5.3c2.9 1.8 4.5 1.7 4.5 1.7l3.2-5.3zm-8.4-213.6s-2.2 0-4.5-2.4c-2.2-2.4-2.5-4.3-2.5-4.3l-5.1 4.2s1.4 3.6 4.2 5.6c2.7 2 4.3 2 4.3 2l3.6-5.1zM749.4 119.4s-2.1.9-5.1-.4c-3-1.3-4-3-4-3l-3.1 5.9s2.7 2.8 6 3.5c3.3.7 4.8.1 4.8.1l1.4-6.1zM874.2 83s-.2-2.3 2-4.8 4-3 4-3l-4.5-4.9s-3.4 1.8-5.1 4.7c-1.7 3-1.6 4.6-1.6 4.6l5.2 3.4zM693 77.9s.6-2.2 3.5-3.8c2.9-1.6 4.8-1.3 4.8-1.3l-2.6-6.2s-3.8.4-6.4 2.6c-2.6 2.2-3.1 3.7-3.1 3.7l3.8 5zm-547.9 156s-.8-2.2-3.7-3.6c-3-1.4-4.8-1-4.8-1l2.2-6.3s3.8.2 6.6 2.2c2.7 2 3.3 3.5 3.3 3.5l-3.6 5.2zM30.7 333s-1.2-2-.3-5.2c.8-3.2 2.3-4.5 2.3-4.5l-6.2-2.2s-2.3 3.2-2.5 6.6c-.2 3.4.6 4.8.6 4.8l6.1.5zm99.2 92.5s1.2-2 .3-5.2c-.8-3.2-2.3-4.5-2.3-4.5l6.2-2.2s2.3 3.2 2.5 6.6c.2 3.4-.6 4.8-.6 4.8l-6.1.5zM16.7 521.3s-2.2.4-4.8-1.7c-2.6-2-3.2-3.9-3.2-3.9l-4.4 5s2 3.3 5 4.8 4.6 1.3 4.6 1.3l2.8-5.5zm85.2 12.9s.4-2.3 3.1-4.1c2.7-1.8 4.6-1.8 4.6-1.8l-3.1-5.9s-3.7.8-6.1 3.2c-2.4 2.4-2.7 4-2.7 4l4.2 4.6zM83.6 674.6s-2.2-.3-4.1-3.1c-1.9-2.7-1.9-4.7-1.9-4.7l-5.6 3.4s.9 3.8 3.4 6.2c2.4 2.4 4 2.6 4 2.6l4.2-4.4zm101.6 3s-1.2-2-.3-5.2c.8-3.2 2.3-4.5 2.3-4.5l-6.2-2.2s-2.3 3.2-2.5 6.6c-.2 3.4.6 4.8.6 4.8l6.1.5zM19.5 84.2s0-2.3 2.4-4.6 4.3-2.6 4.3-2.6l-4-5.3s-3.6 1.4-5.5 4.2c-2 2.8-2 4.4-2 4.4l4.8 3.9zm686.7-46s-.5-2.2-3.3-4c-2.8-1.7-4.7-1.6-4.7-1.6l2.9-6s3.8.7 6.3 3 2.8 3.9 2.8 3.9l-4 4.7z" fill="#EC4E6E"/>
    <path d="M234.1 216.6s-1.4-2.4-.4-6.3c1-3.9 2.7-5.4 2.7-5.4l-7.5-2.7s-2.7 3.8-3 8c-.2 4.2.7 5.9.7 5.9l7.5.5zM46.5 297.7s1.4-2.4.4-6.3c-1-3.9-2.7-5.4-2.7-5.4l7.5-2.7s2.7 3.8 3 8c.2 4.2-.7 5.9-.7 5.9l-7.5.5zM19.7 414.3s1.1-2.5 4.9-3.9c3.7-1.3 5.9-.7 5.9-.7l-2-7.9s-4.6-.2-8.1 1.9-4.3 3.9-4.3 3.9l3.6 6.7zM64 627.1s1.3-2.5 5-3.6c3.8-1.1 6-.4 6-.4l-1.6-7.9s-4.6-.4-8.2 1.5c-3.6 1.9-4.5 3.7-4.5 3.7l3.3 6.7zm1202.2-296.9s-1.4-2.4-.4-6.3c1-3.9 2.7-5.4 2.7-5.4l-7.5-2.7s-2.7 3.8-3 8c-.2 4.2.7 5.9.7 5.9l7.5.5zM1006.6 56.5s-1.4-2.4-.4-6.3c1-3.9 2.7-5.4 2.7-5.4l-7.5-2.7s-2.7 3.8-3 8c-.2 4.2.7 5.9.7 5.9l7.5.5zm-169.2 5.1s-2.6-.6-4.7-4.1c-2-3.5-1.9-5.8-1.9-5.8l-7.1 3.6s.8 4.7 3.5 7.8c2.7 3.1 4.6 3.5 4.6 3.5l5.6-5zM655.6 91.5s-2.6-.7-4.6-4.2c-1.9-3.5-1.7-5.9-1.7-5.9l-7.2 3.4s.6 4.7 3.3 7.9c2.7 3.2 4.5 3.7 4.5 3.7l5.7-4.9zM282.2 260.3s-1.4-2.4-.4-6.3c1-3.9 2.7-5.4 2.7-5.4l-7.5-2.7s-2.7 3.8-3 8c-.2 4.2.7 5.9.7 5.9l7.5.5zm-93.5 253.2s-1.4-2.4-.4-6.3c1-3.9 2.7-5.4 2.7-5.4l-7.5-2.7s-2.7 3.8-3 8c-.2 4.2.7 5.9.7 5.9l7.5.5zm999.4 72.2s1.4-2.4.4-6.3c-1-3.9-2.7-5.4-2.7-5.4l7.5-2.7s2.7 3.8 3 8c.2 4.2-.7 5.9-.7 5.9l-7.5.5zM72.7 104.4s-2.5-1.1-3.9-4.8c-1.4-3.8-.9-6-.9-6l-7.6 2.3s0 4.7 2.1 8.3c2.2 3.5 4 4.3 4 4.3l6.3-4.1zm602.1-91.1s-2.7-.4-5-3.7c-2.3-3.3-2.3-5.7-2.3-5.7L660.7 8s1.1 4.6 4 7.5 4.8 3.2 4.8 3.2l5.3-5.4zm600.8 238.1s-1.4-2.4-.4-6.3c1-3.9 2.7-5.4 2.7-5.4l-7.5-2.7s-2.7 3.8-3 8c-.2 4.2.7 5.9.7 5.9l7.5.5z" fill="#E88D49"/>
    <path d="M182.9 265s-.1-2.5 2.4-5.2 4.5-3.1 4.5-3.1l-4.8-5.5s-3.8 1.8-5.8 5-1.9 5-1.9 5l5.6 3.8zM39.7 370s1.3-2.2.4-5.7c-.9-3.6-2.5-4.9-2.5-4.9l6.8-2.5s2.5 3.5 2.7 7.3c.2 3.8-.7 5.3-.7 5.3l-6.7.5zm.7 138.2s.3-2.5 3.1-4.7c2.9-2.2 4.9-2.3 4.9-2.3l-3.9-6.2s-4.1 1.2-6.5 4c-2.5 2.8-2.7 4.6-2.7 4.6l5.1 4.6zm1235.1 55.6s-.5-2.5-3.6-4.4c-3-1.9-5.1-1.8-5.1-1.8l3.3-6.6s4.1.8 6.9 3.3c2.7 2.6 3.1 4.3 3.1 4.3l-4.6 5.2zm-528.8-549s.6-2.4 3.8-4.2c3.1-1.8 5.2-1.6 5.2-1.6l-2.9-6.7s-4.2.5-7 3c-2.8 2.4-3.3 4.2-3.3 4.2l4.2 5.3zm268.6 90.2s-1.3-2.2-.4-5.7c.9-3.6 2.5-4.9 2.5-4.9l-6.8-2.5s-2.5 3.5-2.7 7.3c-.2 3.8.7 5.3.7 5.3l6.7.5zM53.5 27.6s-1.3-2.2-.4-5.7c.9-3.6 2.5-4.9 2.5-4.9l-6.8-2.5s-2.5 3.5-2.7 7.3c-.2 3.8.7 5.3.7 5.3l6.7.5zm136.4 389.2s-1.3-2.2-.4-5.7c.9-3.6 2.5-4.9 2.5-4.9l-6.8-2.5s-2.5 3.5-2.7 7.3c-.2 3.8.7 5.3.7 5.3l6.7.5zM707 115.2s-.1-2.5 2.4-5.2 4.5-3.1 4.5-3.1l-4.8-5.5s-3.8 1.8-5.8 5-1.9 5-1.9 5l5.6 3.8zm256.2 19.7s-.1-2.5 2.4-5.2 4.5-3.1 4.5-3.1l-4.8-5.5s-3.8 1.8-5.8 5-1.9 5-1.9 5l5.6 3.8zM1078.7 280s1.3-2.2.4-5.7c-.9-3.6-2.5-4.9-2.5-4.9l6.8-2.5s2.5 3.5 2.7 7.3c.2 3.8-.7 5.3-.7 5.3l-6.7.5zm.7 138.2s.3-2.5 3.1-4.7c2.9-2.2 4.9-2.3 4.9-2.3l-3.9-6.2s-4.1 1.2-6.5 4c-2.5 2.8-2.7 4.6-2.7 4.6l5.1 4.6zm198.1 235.1s-.5-2.5-3.6-4.4c-3-1.9-5.1-1.8-5.1-1.8l3.3-6.6s4.1.8 6.9 3.3c2.7 2.6 3.1 4.3 3.1 4.3l-4.6 5.2zm-10.2-638.8s.6-2.4 3.8-4.2c3.1-1.8 5.2-1.6 5.2-1.6l-2.9-6.7s-4.2.5-7 3c-2.8 2.4-3.3 4.2-3.3 4.2l4.2 5.3zm8.7 220.1s-1.3-2.2-.4-5.7c.9-3.6 2.5-4.9 2.5-4.9l-6.8-2.5s-2.5 3.5-2.7 7.3c-.2 3.8.7 5.3.7 5.3l6.7.5zM574.1 27.3s-1.3-2.2-.4-5.7c.9-3.6 2.5-4.9 2.5-4.9l-6.8-2.5s-2.5 3.5-2.7 7.3c-.2 3.8.7 5.3.7 5.3l6.7.5zm654.8 299.4s-1.3-2.2-.4-5.7c.9-3.6 2.5-4.9 2.5-4.9l-6.8-2.5s-2.5 3.5-2.7 7.3c-.2 3.8.7 5.3.7 5.3l6.7.5zm-1.4-211.7s-.1-2.5 2.4-5.2 4.5-3.1 4.5-3.1l-4.8-5.5s-3.8 1.8-5.8 5-1.9 5-1.9 5l5.6 3.8z" fill="#3EA1A4"/>
    <path d="M1239 373.3s.8-2.1 3.8-3.4c3-1.3 4.9-.9 4.9-.9l-2-6.4s-3.8.1-6.6 2-3.4 3.4-3.4 3.4l3.3 5.3zm-13.7 68.7s-1.2-2-.3-5.2c.8-3.2 2.3-4.5 2.3-4.5l-6.2-2.2s-2.3 3.2-2.5 6.6c-.2 3.4.6 4.8.6 4.8l6.1.5zm12.1 188s-1.2-2-.3-5.2c.8-3.2 2.3-4.5 2.3-4.5l-6.2-2.2s-2.3 3.2-2.5 6.6c-.2 3.4.6 4.8.6 4.8l6.1.5zm-135.1 40.4s-2.2.1-4.6-2.1c-2.4-2.3-2.8-4.1-2.8-4.1l-4.8 4.5s1.7 3.5 4.5 5.3c2.9 1.8 4.5 1.7 4.5 1.7l3.2-5.3zm-8.4-213.5s-2.2 0-4.5-2.4c-2.2-2.4-2.5-4.3-2.5-4.3l-5.1 4.2s1.4 3.6 4.2 5.6c2.7 2 4.3 2 4.3 2l3.6-5.1zM1270 119.1s-2.1.9-5.1-.4c-3-1.3-4-3-4-3l-3.1 5.9s2.7 2.8 6 3.5c3.3.7 4.8.1 4.8.1l1.4-6.1zm-135 93.5s-.2-2.3 2-4.8 4-3 4-3l-4.5-4.9s-3.4 1.8-5.1 4.7c-1.7 3-1.6 4.6-1.6 4.6l5.2 3.4zm78.5-134.9s.6-2.2 3.5-3.8c2.9-1.6 4.8-1.3 4.8-1.3l-2.6-6.2s-3.8.4-6.4 2.6c-2.6 2.2-3.1 3.7-3.1 3.7l3.8 5zm-288.1 26.1s-.8-2.2-3.7-3.6c-3-1.4-4.8-1-4.8-1l2.2-6.3s3.8.2 6.6 2.2c2.7 2 3.3 3.5 3.3 3.5l-3.6 5.2zm144.3 139.1s-1.2-2-.3-5.2c.8-3.2 2.3-4.5 2.3-4.5l-6.2-2.2s-2.3 3.2-2.5 6.6c-.2 3.4.6 4.8.6 4.8l6.1.5zm99.2 92.6s1.2-2 .3-5.2c-.8-3.2-2.3-4.5-2.3-4.5l6.2-2.2s2.3 3.2 2.5 6.6c.2 3.4-.6 4.8-.6 4.8l-6.1.5zm-113.2 95.7s-2.2.4-4.8-1.7c-2.6-2-3.2-3.9-3.2-3.9l-4.4 5s2 3.3 5 4.8 4.6 1.3 4.6 1.3l2.8-5.5zm85.2 12.9s.4-2.3 3.1-4.1c2.7-1.8 4.6-1.8 4.6-1.8l-3.1-5.9s-3.7.8-6.1 3.2c-2.4 2.4-2.7 4-2.7 4l4.2 4.6zm-18.3 140.4s-2.2-.3-4.1-3.1c-1.9-2.7-1.9-4.7-1.9-4.7l-5.6 3.4s.9 3.8 3.4 6.2c2.4 2.4 4 2.6 4 2.6l4.2-4.4zm101.6 3s-1.2-2-.3-5.2c.8-3.2 2.3-4.5 2.3-4.5l-6.2-2.2s-2.3 3.2-2.5 6.6c-.2 3.4.6 4.8.6 4.8l6.1.5zM540 83.9s0-2.3 2.4-4.6 4.3-2.6 4.3-2.6l-4-5.3s-3.6 1.4-5.5 4.2c-2 2.8-2 4.4-2 4.4l4.8 3.9zM1226.7 38s-.5-2.2-3.3-4c-2.8-1.7-4.7-1.6-4.7-1.6l2.9-6s3.8.7 6.3 3 2.8 3.9 2.8 3.9l-4 4.7z" fill="#EC4E6E"/>
    <path d="M1014.4 86.5s-1.4-2.4-.4-6.3c1-3.9 2.7-5.4 2.7-5.4l-7.5-2.7s-2.7 3.8-3 8c-.2 4.2.7 5.9.7 5.9l7.5.5zm-187.6 81.1s1.4-2.4.4-6.3c-1-3.9-2.7-5.4-2.7-5.4l7.5-2.7s2.7 3.8 3 8c.2 4.2-.7 5.9-.7 5.9l-7.5.5zm231.9 156.6s1.1-2.5 4.9-3.9c3.7-1.3 5.9-.7 5.9-.7l-2-7.9s-4.6-.2-8.1 1.9-4.3 3.9-4.3 3.9l3.6 6.7zM1103 537s1.3-2.5 5-3.6c3.8-1.1 6-.4 6-.4l-1.6-7.9s-4.6-.4-8.2 1.5c-3.6 1.9-4.5 3.7-4.5 3.7l3.3 6.7zm165.2-117.3s-1.4-2.4-.4-6.3c1-3.9 2.7-5.4 2.7-5.4l-7.5-2.7s-2.7 3.8-3 8c-.2 4.2.7 5.9.7 5.9l7.5.5zm-.8-233.6s-1.4-2.4-.4-6.3c1-3.9 2.7-5.4 2.7-5.4l-7.5-2.7s-2.7 3.8-3 8c-.2 4.2.7 5.9.7 5.9l7.5.5zm-169.3 5.1s-2.6-.6-4.7-4.1c-2-3.5-1.9-5.8-1.9-5.8l-7.1 3.6s.8 4.7 3.5 7.8c2.7 3.1 4.6 3.5 4.6 3.5l5.6-5zm78-100s-2.6-.7-4.6-4.2c-1.9-3.5-1.7-5.9-1.7-5.9l-7.2 3.4s.6 4.7 3.3 7.9c2.7 3.2 4.5 3.7 4.5 3.7l5.7-4.9zm-113.6 39s-1.4-2.4-.4-6.3c1-3.9 2.7-5.4 2.7-5.4l-7.5-2.7s-2.7 3.8-3 8c-.2 4.2.7 5.9.7 5.9l7.5.5z" fill="#E88D49"/>
    <path d="M153.5 137.6s-2.1.9-5.1-.4c-3-1.3-4-3-4-3l-3.1 5.9s2.7 2.8 6 3.5c3.3.7 4.8.1 4.8.1l1.4-6.1zm124.7-36.5s-.2-2.3 2-4.8 4-3 4-3l-4.5-4.9s-3.4 1.8-5.1 4.7c-1.7 3-1.6 4.6-1.6 4.6l5.2 3.4zm-181.1-5s.6-2.2 3.5-3.8c2.9-1.6 4.8-1.3 4.8-1.3l-2.6-6.2s-3.8.4-6.4 2.6c-2.6 2.2-3.1 3.7-3.1 3.7l3.8 5z" fill="#EC4E6E"/>
    <path d="M410.7 74.7s-1.4-2.4-.4-6.3c1-3.9 2.7-5.4 2.7-5.4l-7.5-2.7s-2.7 3.8-3 8c-.2 4.2.7 5.9.7 5.9l7.5.5zm-169.3 5.1s-2.6-.6-4.7-4.1c-2-3.5-1.9-5.8-1.9-5.8l-7.1 3.6s.8 4.7 3.5 7.8c2.7 3.1 4.6 3.5 4.6 3.5l5.6-5zM59.6 109.7s-2.6-.7-4.6-4.2c-1.9-3.5-1.7-5.9-1.7-5.9l-7.2 3.4s.6 4.7 3.3 7.9c2.7 3.2 4.5 3.7 4.5 3.7l5.7-4.9z" fill="#E88D49"/>
    <path d="M419.3 123.1s-1.3-2.2-.4-5.7c.9-3.6 2.5-4.9 2.5-4.9l-6.8-2.5s-2.5 3.5-2.7 7.3c-.2 3.8.7 5.3.7 5.3l6.7.5zM111 133.4s-.1-2.5 2.4-5.2 4.5-3.1 4.5-3.1l-4.8-5.5s-3.8 1.8-5.8 5-1.9 5-1.9 5l5.6 3.8zm256.2 19.7s-.1-2.5 2.4-5.2 4.5-3.1 4.5-3.1l-4.8-5.5s-3.8 1.8-5.8 5-1.9 5-1.9 5l5.6 3.8zm264.4-20s-.1-2.5 2.4-5.2 4.5-3.1 4.5-3.1l-4.8-5.5s-3.8 1.8-5.8 5-1.9 5-1.9 5l5.6 3.8z" fill="#3EA1A4"/>
    <path d="M674 137.3s-2.1.9-5.1-.4c-3-1.3-4-3-4-3l-3.1 5.9s2.7 2.8 6 3.5c3.3.7 4.8.1 4.8.1l1.4-6.1zm-56.4-41.5s.6-2.2 3.5-3.8c2.9-1.6 4.8-1.3 4.8-1.3l-2.6-6.2s-3.8.4-6.4 2.6c-2.6 2.2-3.1 3.7-3.1 3.7l3.8 5zM329.5 122s-.8-2.2-3.7-3.6c-3-1.4-4.8-1-4.8-1l2.2-6.3s3.8.2 6.6 2.2c2.7 2 3.3 3.5 3.3 3.5l-3.6 5.2z" fill="#EC4E6E"/>
    <path d="M418.5 104.6s-1.4-2.4-.4-6.3c1-3.9 2.7-5.4 2.7-5.4l-7.5-2.7s-2.7 3.8-3 8c-.2 4.2.7 5.9.7 5.9l7.5.5zm-187.6 81.1s1.4-2.4.4-6.3c-1-3.9-2.7-5.4-2.7-5.4l7.5-2.7s2.7 3.8 3 8c.2 4.2-.7 5.9-.7 5.9l-7.5.5zm349.3-76.3s-2.6-.7-4.6-4.2c-1.9-3.5-1.7-5.9-1.7-5.9l-7.2 3.4s.6 4.7 3.3 7.9c2.7 3.2 4.5 3.7 4.5 3.7l5.7-4.9zm-113.7 39s-1.4-2.4-.4-6.3c1-3.9 2.7-5.4 2.7-5.4l-7.5-2.7s-2.7 3.8-3 8c-.2 4.2.7 5.9.7 5.9l7.5.5zm761.2 275s-1.4-2.4-.4-6.3c1-3.9 2.7-5.4 2.7-5.4l-7.5-2.7s-2.7 3.8-3 8c-.2 4.2.7 5.9.7 5.9l7.5.5zm-37.6 251.8s1.4-2.4.4-6.3c-1-3.9-2.7-5.4-2.7-5.4l7.5-2.7s2.7 3.8 3 8c.2 4.2-.7 5.9-.7 5.9l-7.5.5zM593.3 104.1s-2.5-1.1-3.9-4.8c-1.4-3.8-.9-6-.9-6l-7.6 2.3s0 4.7 2.1 8.3c2.2 3.5 4 4.3 4 4.3l6.3-4.1zm602-91.1s-2.7-.4-5-3.7c-2.3-3.3-2.3-5.7-2.3-5.7l-6.9 4.1s1.1 4.6 4 7.5c2.9 2.9 4.8 3.2 4.8 3.2l5.4-5.4zm82.4 327.9s-1.4-2.4-.4-6.3c1-3.9 2.7-5.4 2.7-5.4l-7.5-2.7s-2.7 3.8-3 8c-.2 4.2.7 5.9.7 5.9l7.5.5z" fill="#E88D49"/>
  </g>
  <path d="M903.4 87.3l-6.6 1.8-2.5.7c.2.8.5 1.5.9 2.1l2.3-1.3 5.9-3.3zm0 0l-5.9-3.4-2.3-1.3c-.4.7-.7 1.4-.9 2.1l2.5.7 6.6 1.9z" fill="#C23747"/>
  <path d="M903.4 87.3l6.6-1.8 2.5-.7c-.2-.8-.5-1.5-.9-2.1l-2.3 1.3-5.9 3.3zm0 0l-3.4 5.9-1.3 2.3c.7.4 1.4.7 2.1.9l.7-2.5 1.9-6.6zm0 0l-1.8-6.6-.7-2.5c-.8.2-1.5.5-2.1.9l1.3 2.3 3.3 5.9z" fill="#C23747"/>
  <path d="M903.4 87.3l3.4-5.9 1.3-2.3c-.7-.4-1.4-.7-2.1-.9l-.7 2.5-1.9 6.6zm0 0l5.9 3.4 2.3 1.3c.4-.7.7-1.4.9-2.1l-2.5-.7-6.6-1.9z" fill="#C23747"/>
  <path d="M903.4 87.3l1.8 6.6.7 2.5c.8-.2 1.5-.5 2.1-.9l-1.3-2.3-3.3-5.9z" fill="#C23747"/>
  <path d="M903.4 87.3l-1.8 6.6-.7 2.5c.8.2 1.6.3 2.5.3s1.7-.1 2.5-.3l-.7-2.5-1.8-6.6z" fill="#F3E3EE"/>
  <path d="M903.4 87.3l3.4 5.9 1.3 2.3c1.5-.8 2.7-2.1 3.6-3.6l-2.3-1.3-6-3.3zm9.1-2.5l-2.5.7-6.6 1.8 6.6 1.8 2.5.7c.2-.8.3-1.6.3-2.5.1-.9-.1-1.7-.3-2.5zm-9.1 2.5l5.9-3.4 2.3-1.3c-.8-1.5-2.1-2.7-3.6-3.6l-1.3 2.3-3.3 6zm0 0l1.8-6.6.7-2.5c-.8-.2-1.6-.3-2.5-.3s-1.7.1-2.5.3l.7 2.5 1.8 6.6z" fill="#F3E3EE"/>
  <path d="M903.4 87.3l-3.4-5.9-1.3-2.3c-1.5.8-2.7 2.1-3.6 3.6l2.3 1.3 6 3.3zm0 0l-6.6-1.8-2.5-.7c-.2.8-.3 1.6-.3 2.5 0 .9.1 1.7.3 2.5l2.5-.7 6.6-1.8zm0 0l-5.9 3.4-2.3 1.3c.8 1.5 2.1 2.7 3.6 3.6l1.3-2.3 3.3-6z" fill="#F3E3EE"/>
  <path d="M715.5 149.8l-12.5 3.5-4.8 1.3c.4 1.4 1 2.8 1.7 4.1l4.4-2.5 11.2-6.4zm0 0l-11.3-6.4-4.4-2.5c-.7 1.3-1.3 2.6-1.7 4.1l4.8 1.3 12.6 3.5z" fill="#C23747"/>
  <path d="M715.5 149.8l12.5-3.5 4.8-1.3c-.4-1.4-1-2.8-1.7-4.1l-4.4 2.5-11.2 6.4zm0 0l-6.4 11.3-2.5 4.4c1.3.7 2.6 1.3 4.1 1.7l1.3-4.8 3.5-12.6z" fill="#C23747"/>
  <path d="M715.5 149.8l-3.5-12.5-1.3-4.8c-1.4.4-2.8 1-4.1 1.7l2.5 4.4 6.4 11.2zm0 0l6.4-11.3 2.5-4.4c-1.3-.7-2.6-1.3-4.1-1.7l-1.3 4.8-3.5 12.6zm0 0l11.3 6.4 4.4 2.5c.7-1.3 1.3-2.6 1.7-4.1l-4.8-1.3-12.6-3.5zm0 0l3.5 12.5 1.3 4.8c1.4-.4 2.8-1 4.1-1.7l-2.5-4.4-6.4-11.2z" fill="#C23747"/>
  <path d="M715.5 149.8l-3.5 12.5-1.3 4.8c1.5.4 3.1.7 4.8.7 1.7 0 3.3-.2 4.8-.7l-1.3-4.8-3.5-12.5zm0 0l6.4 11.3 2.5 4.4c2.8-1.6 5.2-4 6.8-6.8l-4.4-2.5-11.3-6.4zm17.4-4.9l-4.8 1.3-12.5 3.5 12.5 3.5 4.8 1.3c.4-1.5.7-3.1.7-4.8 0-1.6-.3-3.2-.7-4.8z" fill="#F3E3EE"/>
  <path d="M715.5 149.8l11.3-6.4 4.4-2.5c-1.6-2.8-4-5.2-6.8-6.8l-2.5 4.4-6.4 11.3zm0 0l3.5-12.5 1.3-4.8c-1.5-.4-3.1-.7-4.8-.7-1.7 0-3.3.2-4.8.7l1.3 4.8 3.5 12.5zm0 0l-6.4-11.3-2.5-4.4c-2.8 1.6-5.2 4-6.8 6.8l4.4 2.5 11.3 6.4zm0 0l-12.5-3.5-4.8-1.3c-.4 1.5-.7 3.1-.7 4.8 0 1.7.2 3.3.7 4.8l4.8-1.3 12.5-3.5zm0 0l-11.3 6.4-4.4 2.5c1.6 2.8 4 5.2 6.8 6.8l2.5-4.4 6.4-11.3z" fill="#F3E3EE"/>
  <path d="M162.5 306.3l-8.6 2.4-3.3.9c.3 1 .7 1.9 1.2 2.8l3-1.7 7.7-4.4zm0 0l-7.8-4.4-3-1.7c-.5.9-.9 1.8-1.2 2.8l3.3.9 8.7 2.4zm0 0l8.6-2.4 3.3-.9c-.3-1-.7-1.9-1.2-2.8l-3 1.7-7.7 4.4zm0 0l-4.4 7.8-1.7 3c.9.5 1.8.9 2.8 1.2l.9-3.3 2.4-8.7zm0 0l-2.4-8.6-.9-3.3c-1 .3-1.9.7-2.8 1.2l1.7 3 4.4 7.7z" fill="#C23747"/>
  <path d="M162.5 306.3l4.4-7.8 1.7-3c-.9-.5-1.8-.9-2.8-1.2l-.9 3.3-2.4 8.7zm0 0l7.8 4.4 3 1.7c.5-.9.9-1.8 1.2-2.8l-3.3-.9-8.7-2.4zm0 0l2.4 8.6.9 3.3c1-.3 1.9-.7 2.8-1.2l-1.7-3-4.4-7.7z" fill="#C23747"/>
  <path d="M162.5 306.3l-2.4 8.6-.9 3.3c1.1.3 2.2.5 3.3.5 1.1 0 2.3-.2 3.3-.5l-.9-3.3-2.4-8.6z" fill="#F3E3EE"/>
  <path d="M162.5 306.3l4.4 7.8 1.7 3c2-1.1 3.6-2.7 4.7-4.7l-3-1.7-7.8-4.4zm11.9-3.3l-3.3.9-8.6 2.4 8.6 2.4 3.3.9c.3-1.1.5-2.2.5-3.3 0-1.2-.2-2.3-.5-3.3z" fill="#F3E3EE"/>
  <path d="M162.5 306.3l7.8-4.4 3-1.7c-1.1-2-2.7-3.6-4.7-4.7l-1.7 3-4.4 7.8zm0 0l2.4-8.6.9-3.3c-1.1-.3-2.2-.5-3.3-.5-1.1 0-2.3.2-3.3.5l.9 3.3 2.4 8.6z" fill="#F3E3EE"/>
  <path d="M162.5 306.3l-4.4-7.8-1.7-3c-2 1.1-3.6 2.7-4.7 4.7l3 1.7 7.8 4.4zm0 0l-8.6-2.4-3.3-.9c-.3 1.1-.5 2.2-.5 3.3 0 1.1.2 2.3.5 3.3l3.3-.9 8.6-2.4z" fill="#F3E3EE"/>
  <path d="M162.5 306.3l-7.8 4.4-3 1.7c1.1 2 2.7 3.6 4.7 4.7l1.7-3 4.4-7.8z" fill="#F3E3EE"/>
  <path d="M1236.3 37.7l-9 .3-3.5.1c0 1 .2 2 .5 3l3.3-1 8.7-2.4zm0 0l-6.6-6.1-2.5-2.4c-.7.7-1.3 1.6-1.8 2.5l3 1.7 7.9 4.3z" fill="#1C95CF"/>
  <path d="M1236.3 37.7l9-.3 3.5-.1c0-1-.2-2-.5-3l-3.3 1-8.7 2.4zm0 0l-6.1 6.6-2.4 2.5c.7.7 1.6 1.3 2.5 1.8l1.7-3 4.3-7.9z" fill="#1C95CF"/>
  <path d="M1236.3 37.7l-.3-9-.1-3.5c-1 0-2 .2-3 .5l1 3.3 2.4 8.7z" fill="#1C95CF"/>
  <path d="M1236.3 37.7l6.1-6.6 2.4-2.5c-.7-.7-1.6-1.3-2.5-1.8l-1.7 3-4.3 7.9zm0 0l6.6 6.1 2.5 2.4c.7-.7 1.3-1.6 1.8-2.5l-3-1.7-7.9-4.3z" fill="#1C95CF"/>
  <path d="M1236.3 37.7l.3 9 .1 3.5c1 0 2-.2 3-.5l-1-3.3-2.4-8.7z" fill="#1C95CF"/>
  <path d="M1236.3 37.7l-4.3 7.8-1.7 3c1 .5 2 .9 3.1 1.2 1.1.3 2.2.4 3.3.3l-.1-3.5-.3-8.8zm0 0l2.5 8.6 1 3.3c2.2-.6 4.1-1.8 5.7-3.5l-2.5-2.4-6.7-6z" fill="#96C6D9"/>
  <path d="M1248.7 37.3l-3.5.1-9 .3 7.8 4.3 3 1.7c.5-1 .9-2 1.2-3.1.4-1.1.5-2.3.5-3.3z" fill="#96C6D9"/>
  <path d="M1236.3 37.7l8.6-2.5 3.3-1c-.6-2.2-1.8-4.1-3.5-5.7l-2.4 2.5-6 6.7z" fill="#96C6D9"/>
  <path d="M1236.3 37.7l4.3-7.8 1.7-3c-1-.5-2-.9-3.1-1.2-1.1-.3-2.2-.4-3.3-.3l.1 3.5.3 8.8zm0 0l-2.5-8.6-1-3.3c-2.2.6-4.1 1.8-5.7 3.5l2.5 2.4 6.7 6zm0 0l-7.8-4.3-3-1.7c-.5 1-.9 2-1.2 3.1-.3 1.1-.4 2.2-.3 3.3l3.5-.1 8.8-.3zm0 0l-8.6 2.5-3.3 1c.6 2.2 1.8 4.1 3.5 5.7l2.4-2.5 6-6.7z" fill="#96C6D9"/>
  <path d="M1215.1 149.1l-9 .3-3.5.1c0 1 .2 2 .5 3l3.3-1 8.7-2.4zm0 0l-6.6-6.1-2.5-2.4c-.7.7-1.3 1.6-1.8 2.5l3 1.7 7.9 4.3z" fill="#1C95CF"/>
  <path d="M1215.1 149.1l9-.3 3.5-.1c0-1-.2-2-.5-3l-3.3 1-8.7 2.4zm0 0l-6.1 6.6-2.4 2.5c.7.7 1.6 1.3 2.5 1.8l1.7-3 4.3-7.9z" fill="#1C95CF"/>
  <path d="M1215.1 149.1l-.3-9-.1-3.5c-1 0-2 .2-3 .5l1 3.3 2.4 8.7z" fill="#1C95CF"/>
  <path d="M1215.1 149.1l6.1-6.6 2.4-2.5c-.7-.7-1.6-1.3-2.5-1.8l-1.7 3-4.3 7.9zm0 0l6.6 6.1 2.5 2.4c.7-.7 1.3-1.6 1.8-2.5l-3-1.7-7.9-4.3z" fill="#1C95CF"/>
  <path d="M1215.1 149.1l.3 9 .1 3.5c1 0 2-.2 3-.5l-1-3.3-2.4-8.7z" fill="#1C95CF"/>
  <path d="M1215.1 149.1l-4.3 7.8-1.7 3c1 .5 2 .9 3.1 1.2 1.1.3 2.2.4 3.3.3l-.1-3.5-.3-8.8zm0 0l2.5 8.6 1 3.3c2.2-.6 4.1-1.8 5.7-3.5l-2.5-2.4-6.7-6z" fill="#96C6D9"/>
  <path d="M1227.5 148.7l-3.5.1-9 .3 7.8 4.3 3 1.7c.5-1 .9-2 1.2-3.1.5-1.1.6-2.2.5-3.3z" fill="#96C6D9"/>
  <path d="M1215.1 149.1l8.6-2.5 3.3-1c-.6-2.2-1.8-4.1-3.5-5.7l-2.4 2.5-6 6.7z" fill="#96C6D9"/>
  <path d="M1215.1 149.1l4.3-7.8 1.7-3c-1-.5-2-.9-3.1-1.2-1.1-.3-2.2-.4-3.3-.3l.1 3.5.3 8.8zm0 0l-2.5-8.6-1-3.3c-2.2.6-4.1 1.8-5.6 3.5l2.5 2.4 6.6 6zm0 0l-7.8-4.3-3-1.7c-.5 1-.9 2-1.2 3.1-.3 1.1-.4 2.2-.3 3.3l3.5-.1 8.8-.3zm0 0l-8.6 2.5-3.3 1c.6 2.2 1.8 4.1 3.5 5.7l2.4-2.5 6-6.7z" fill="#96C6D9"/>
  <path d="M55.6 383.4l-3.6 1-1.4.4c.1.4.3.8.5 1.2l1.3-.7 3.2-1.9zm0 0l-3.3-1.9-1.3-.7c-.2.4-.4.8-.5 1.2l1.4.4 3.7 1z" fill="#1C95CF"/>
  <path d="M55.6 383.4l3.6-1 1.4-.4c-.1-.4-.3-.8-.5-1.2l-1.3.7-3.2 1.9zm0 0l-1.9 3.3-.7 1.3c.4.2.8.4 1.2.5l.4-1.4 1-3.7zm0 0l-1-3.6-.4-1.4c-.4.1-.8.3-1.2.5l.7 1.3 1.9 3.2zm0 0l1.9-3.3.7-1.3c-.4-.2-.8-.4-1.2-.5l-.4 1.4-1 3.7zm0 0l3.3 1.9 1.3.7c.2-.4.4-.8.5-1.2l-1.4-.4-3.7-1z" fill="#1C95CF"/>
  <path d="M55.6 383.4l1 3.6.4 1.4c.4-.1.8-.3 1.2-.5l-.7-1.3-1.9-3.2z" fill="#1C95CF"/>
  <path d="M55.6 383.4l-1 3.6-.4 1.4c.4.1.9.2 1.4.2.5 0 1-.1 1.4-.2l-.4-1.4-1-3.6z" fill="#96C6D9"/>
  <path d="M55.6 383.4l1.9 3.3.7 1.3c.8-.5 1.5-1.2 2-2l-1.3-.7-3.3-1.9zm5-1.4l-1.4.4-3.6 1 3.6 1 1.4.4c.1-.4.2-.9.2-1.4 0-.5 0-.9-.2-1.4z" fill="#96C6D9"/>
  <path d="M55.6 383.4l3.3-1.9 1.3-.7c-.5-.8-1.2-1.5-2-2l-.7 1.3-1.9 3.3zm0 0l1-3.6.4-1.4c-.4-.1-.9-.2-1.4-.2-.5 0-1 .1-1.4.2l.4 1.4 1 3.6z" fill="#96C6D9"/>
  <path d="M55.6 383.4l-1.9-3.3-.7-1.3c-.8.5-1.5 1.2-2 2l1.3.7 3.3 1.9zm0 0l-3.6-1-1.4-.4c-.1.4-.2.9-.2 1.4 0 .5.1 1 .2 1.4l1.4-.4 3.6-1z" fill="#96C6D9"/>
  <path d="M55.6 383.4l-3.3 1.9-1.3.7c.5.8 1.2 1.5 2 2l.7-1.3 1.9-3.3z" fill="#96C6D9"/>
  <path d="M76.1 45l-8.6 2.4-3.3.9c.3 1 .7 1.9 1.2 2.8l3-1.7 7.7-4.4z" fill="#C23747"/>
  <path d="M76.1 45l-7.8-4.4-3-1.7c-.5.9-.9 1.8-1.2 2.8l3.3.9 8.7 2.4z" fill="#C23747"/>
  <path d="M76.1 45l8.6-2.4 3.3-.9c-.3-1-.7-1.9-1.2-2.8l-3 1.7-7.7 4.4z" fill="#C23747"/>
  <path d="M76.1 45l-4.4 7.8-1.7 3c.9.5 1.8.9 2.8 1.2l.9-3.3 2.4-8.7z" fill="#C23747"/>
  <path d="M76.1 45l-2.4-8.6-.9-3.3c-1 .3-1.9.7-2.8 1.2l1.7 3 4.4 7.7zm0 0l4.4-7.8 1.7-3c-.9-.5-1.8-.9-2.8-1.2l-.9 3.3-2.4 8.7zm0 0l7.8 4.4 3 1.7c.5-.9.9-1.8 1.2-2.8l-3.3-.9-8.7-2.4z" fill="#C23747"/>
  <path d="M76.1 45l2.4 8.6.9 3.3c1-.3 1.9-.7 2.8-1.2l-1.7-3-4.4-7.7z" fill="#C23747"/>
  <path d="M76.1 45l-2.4 8.6-1 3.4c1.1.3 2.2.5 3.3.5 1.1 0 2.3-.2 3.3-.5l-.9-3.3-2.3-8.7zm0 0l4.4 7.8 1.7 3c2-1.1 3.6-2.7 4.7-4.7l-3-1.7-7.8-4.4z" fill="#F3E3EE"/>
  <path d="M88 41.7l-3.3.9-8.6 2.4 8.6 2.4 3.3.9c.3-1.1.5-2.2.5-3.3 0-1.1-.2-2.3-.5-3.3zM76.1 45l7.8-4.4 3-1.7c-1.1-2-2.7-3.6-4.7-4.7l-1.7 3-4.4 7.8z" fill="#F3E3EE"/>
  <path d="M76.1 45l2.4-8.6.9-3.3c-1.1-.3-2.2-.5-3.3-.5-1.1 0-2.3.2-3.3.5l.9 3.3 2.4 8.6zm0 0l-4.4-7.8-1.7-3c-2 1.1-3.6 2.7-4.7 4.7l3 1.7 7.8 4.4z" fill="#F3E3EE"/>
  <path d="M76.1 45l-8.6-2.4-3.3-.9c-.3 1.1-.5 2.2-.5 3.3 0 1.1.2 2.3.5 3.3l3.3-.9 8.6-2.4zm0 0l-7.8 4.4-3 1.7c1.1 2 2.7 3.6 4.7 4.7l1.7-3 4.4-7.8z" fill="#F3E3EE"/>
  <path d="M741.5 97.6l-9.3 2.6-3.6 1c.3 1.1.7 2.1 1.3 3l3.2-1.8 8.4-4.8zm0 0l-8.4-4.8-3.2-1.8c-.5.9-1 2-1.3 3l3.6 1 9.3 2.6zm0 0l9.3-2.6 3.6-1c-.3-1.1-.7-2.1-1.3-3l-3.2 1.8-8.4 4.8zm0 0l-4.8 8.4-1.8 3.2c.9.5 2 1 3 1.3l1-3.6 2.6-9.3z" fill="#1C95CF"/>
  <path d="M741.5 97.6l-2.6-9.3-1-3.6c-1.1.3-2.1.7-3 1.3l1.8 3.2 4.8 8.4z" fill="#1C95CF"/>
  <path d="M741.5 97.6l4.8-8.4 1.8-3.2c-.9-.5-2-1-3-1.3l-1 3.6-2.6 9.3zm0 0l8.4 4.8 3.2 1.8c.5-.9 1-2 1.3-3l-3.6-1-9.3-2.6z" fill="#1C95CF"/>
  <path d="M741.5 97.6l2.6 9.3 1 3.6c1.1-.3 2.1-.7 3-1.3l-1.8-3.2-4.8-8.4z" fill="#1C95CF"/>
  <path d="M741.5 97.6l-2.6 9.3-1 3.6c1.1.3 2.3.5 3.6.5 1.2 0 2.4-.2 3.6-.5l-1-3.6-2.6-9.3z" fill="#96C6D9"/>
  <path d="M741.5 97.6l4.8 8.4 1.8 3.2c2.1-1.2 3.9-2.9 5.1-5.1l-3.2-1.8-8.5-4.7zm12.9-3.6l-3.6 1-9.3 2.6 9.3 2.6 3.6 1c.3-1.1.5-2.3.5-3.6 0-1.2-.1-2.4-.5-3.6z" fill="#96C6D9"/>
  <path d="M741.5 97.6l8.4-4.8 3.2-1.8c-1.2-2.1-2.9-3.9-5.1-5.1l-1.8 3.2-4.7 8.5zm0 0l2.6-9.3 1-3.6c-1.1-.3-2.3-.5-3.6-.5-1.2 0-2.4.2-3.6.5l1 3.6 2.6 9.3z" fill="#96C6D9"/>
  <path d="M741.5 97.6l-4.8-8.4-1.8-3.2c-2.1 1.2-3.9 2.9-5.1 5.1l3.2 1.8 8.5 4.7zm0 0l-9.3-2.6-3.6-1c-.3 1.1-.5 2.3-.5 3.6 0 1.2.2 2.4.5 3.6l3.6-1 9.3-2.6z" fill="#96C6D9"/>
  <path d="M741.5 97.6l-8.4 4.8-3.2 1.8c1.2 2.1 2.9 3.9 5.1 5.1l1.8-3.2 4.7-8.5z" fill="#96C6D9"/>
</svg>
