<svg xmlns="http://www.w3.org/2000/svg" viewBox="0 0 54.74 64"><defs><style>.cls-1{fill:#736459;}</style></defs><title>Decoration</title><g id="Layer_2" data-name="Layer 2"><g id="Merchant_home"><g id="Services"><g id="Row_4"><g id="Decoration"><path class="cls-1" d="M51.22,51.88a6.23,6.23,0,0,1-.42-3.29l0-.47a10.9,10.9,0,0,0-.18-3.76,5.11,5.11,0,0,0-.47-1.13,4.74,4.74,0,0,0-.9-1.15,7.3,7.3,0,0,0,.06-3.68,7.49,7.49,0,0,0-2.93-4.24C49.69,32.52,52,28.59,52,24c0-5.9-3.83-10.72-8.61-11C42.06,8.79,38.77,6,35,6a7.54,7.54,0,0,0-1,.07C32.53,2.36,29.43,0,26,0s-6.53,2.36-8,6.07A7.54,7.54,0,0,0,17,6c-3.77,0-7.06,2.79-8.39,7C3.83,13.28,0,18.1,0,24c0,5.3,3.09,9.74,7.18,10.77a26.3,26.3,0,0,1,.53,3.64,11.25,11.25,0,0,1-1.55,7.18,3.64,3.64,0,0,0-2.28-2.75,2.64,2.64,0,0,0-2.2.39A3,3,0,0,0,.35,45.41,3.81,3.81,0,0,0,2.4,49a3.21,3.21,0,0,0,2.5.35l.07,0,.25,1.1a7.45,7.45,0,0,0,1.73,3.83,3.64,3.64,0,0,0,2.5,1h.28a2.67,2.67,0,0,0,2-1.08L10.09,53a.69.69,0,0,1-.53.26,1.62,1.62,0,0,1-1.21-.44A5.61,5.61,0,0,1,7.17,50l-.43-1.94a12.5,12.5,0,0,0,3-9.84c-.06-.61-.13-1.25-.21-1.89L22.31,53.7a8.09,8.09,0,0,0-3-.7C16.46,53,15,54.35,15,57s1.46,4,4.33,4a8.64,8.64,0,0,0,3.38-.87l-1.54,2.31,1.66,1.11L25,60.3V64h2V60.3l2.17,3.25,1.66-1.11-1.54-2.31a8.66,8.66,0,0,0,3.38.87C35.54,61,37,59.65,37,57s-1.46-4-4.33-4a8.12,8.12,0,0,0-3,.7L43.53,35h.13v0a5.56,5.56,0,0,1,3.76,3.89,5.24,5.24,0,0,1,0,2.25A3,3,0,0,0,44,44a2.34,2.34,0,0,0,.25,1.18,1.82,1.82,0,0,0,1.19.94,2.18,2.18,0,0,0,2-.75,7.87,7.87,0,0,0,1-1.26l0,.08a3.06,3.06,0,0,1,.28.68A9.26,9.26,0,0,1,48.84,48l0,.48a7.93,7.93,0,0,0,.66,4.36,5,5,0,0,0,4.36,2.57,4.62,4.62,0,0,0,.92-.09l-.4-2A3,3,0,0,1,51.22,51.88ZM4.31,47.46a1.3,1.3,0,0,1-.94-.19,1.85,1.85,0,0,1-1-1.65,1.06,1.06,0,0,1,.46-.72.76.76,0,0,1,.41-.14l.13,0c.59.17.89,1.21,1.06,2l.14.6A1.08,1.08,0,0,1,4.31,47.46ZM17,21a6.41,6.41,0,0,1,5.22,3C19.14,25.78,17,29.59,17,34a12.94,12.94,0,0,0,1,4.91A5.48,5.48,0,0,1,17,39c-3.86,0-7-4-7-9S13.14,21,17,21Zm9-6c2.54,0,4.86,1.8,6.09,4.62a9.27,9.27,0,0,0-4.19,3.64,7.29,7.29,0,0,0-3.8,0,9.29,9.29,0,0,0-4.19-3.65C21.15,16.79,23.46,15,26,15Zm9,6c3.86,0,7,4,7,9s-3.14,9-7,9a5.5,5.5,0,0,1-1-.09A12.92,12.92,0,0,0,35,34c0-4.41-2.14-8.21-5.21-10A6.48,6.48,0,0,1,35,21Zm-9,4c3.86,0,7,4,7,9s-3.14,9-7,9-7-4-7-9S22.14,25,26,25ZM25,44.93v7l-3.46-8.4A7.87,7.87,0,0,0,25,44.93Zm2,0a7.86,7.86,0,0,0,3.46-1.39L27,51.94ZM17,41a7.44,7.44,0,0,0,1.28-.12l3.71,9-6.73-9.11A7.44,7.44,0,0,0,17,41Zm16.72-.12a7.15,7.15,0,0,0,3-.09L30,49.9ZM50,24c0,4.68-2.79,8.53-6.34,9A13.23,13.23,0,0,0,44,30c0-5.2-3-9.57-7-10.7,1.27-2.64,3.51-4.3,6-4.3C46.86,15,50,19,50,24ZM41.34,13.19A9.39,9.39,0,0,0,35,19a7.4,7.4,0,0,0-.93.08,9.7,9.7,0,0,0-5.48-5.62C29.67,10.16,32.17,8,35,8S40.2,10,41.34,13.19ZM26,2c2.53,0,4.84,1.78,6.08,4.59A10,10,0,0,0,26.61,13L26,13l-.61,0a10,10,0,0,0-5.47-6.44C21.16,3.78,23.47,2,26,2ZM17,8c2.83,0,5.33,2.16,6.43,5.46A9.69,9.69,0,0,0,18,19.07,7.27,7.27,0,0,0,17,19a9.39,9.39,0,0,0-6.36-5.81C11.8,10,14.25,8,17,8ZM2,24c0-5,3.14-9,7-9,2.44,0,4.69,1.66,6,4.3C11,20.43,8,24.8,8,30a13.23,13.23,0,0,0,.34,3C4.79,32.53,2,28.68,2,24ZM17,57c0-1.17.17-2,2.33-2,1.47,0,3.54,1.11,4.92,2-1.38.89-3.44,2-4.92,2C17.17,59,17,58.17,17,57Zm18,0c0,1.17-.17,2-2.33,2-1.47,0-3.54-1.11-4.92-2,1.38-.89,3.44-2,4.92-2C34.83,55,35,55.83,35,57ZM46,44h0a1.06,1.06,0,0,1,.33-.68,1,1,0,0,1,.37-.22A6,6,0,0,1,46,44Z"/></g></g></g></g></g></svg>