<svg xmlns="http://www.w3.org/2000/svg" viewBox="0 0 64 64.47"><defs><style>.cls-1{fill:#bc8a39;}.cls-2{fill:#00a99d;}.cls-3{fill:#b44e3a;}</style></defs><title>Ease_of_use</title><g id="Layer_2" data-name="Layer 2"><g id="Merchant_home"><g id="Features"><path class="cls-1" d="M59.91,32.64l-6.83-.1.32-4.16c0-.11,0-.22,0-.33L52,24.37l-.18-.18-.14-.13-.14-.12-.1-.08-.2-.15-2.9-.94A5.2,5.2,0,0,0,43,28.23l.2,4.17-11-.16.41-27.67A4.15,4.15,0,0,0,28.56.35L5,0A4.15,4.15,0,0,0,.82,4.09l-.1,6.83,4.17-.2h.33A5.2,5.2,0,1,1,4.73,21.1L.57,20.78,0,59.44a4.15,4.15,0,0,0,4.09,4.21l55.35.82a4.15,4.15,0,0,0,4.21-4.09L64,36.86A4.15,4.15,0,0,0,59.91,32.64ZM25.46,22.45v-.28a1.38,1.38,0,0,1,2.77,0v.28a1.38,1.38,0,0,1-2.77,0ZM20.19,4.38l4.15.06a4.16,4.16,0,0,1,4.09,4.21l-.1,6.92a1.38,1.38,0,1,1-2.77,0l.1-6.92a1.39,1.39,0,0,0-1.36-1.4l-4.15-.06a1.38,1.38,0,0,1,0-2.77ZM16.61,59.68l-8.3-.12a4.16,4.16,0,0,1-4.09-4.21l.08-5.53a1.38,1.38,0,0,1,2.77,0L7,55.39a1.39,1.39,0,0,0,1.36,1.4l8.3.12a1.38,1.38,0,0,1,0,2.77Zm6.92.1h-.28a1.38,1.38,0,0,1,0-2.77h.28a1.38,1.38,0,1,1,0,2.77Zm36-3.62a4.16,4.16,0,0,1-4.21,4.09L51.2,60.2a1.38,1.38,0,0,1,0-2.77l4.15.06a1.39,1.39,0,0,0,1.4-1.36l.1-6.92a1.38,1.38,0,1,1,2.77,0Zm.2-13.56a1.38,1.38,0,0,1-2.77,0v-.28a1.38,1.38,0,0,1,2.77,0Z"/><path class="cls-2" d="M59.91,32.64l-6.83-.1.32-4.16c0-.11,0-.22,0-.33A5.18,5.18,0,0,0,52,24.37l-.18-.18-.14-.13-.14-.12-.1-.08-.2-.15A5.2,5.2,0,0,0,43,28.23l.2,4.17-22-.32.2,4.17a5.2,5.2,0,1,1-10.38-.15l.32-4.16-11-.16L0,59.44a4.15,4.15,0,0,0,4.09,4.21l55.35.82a4.15,4.15,0,0,0,4.21-4.09L64,36.86A4.15,4.15,0,0,0,59.91,32.64Zm-43.3,27-8.3-.12a4.16,4.16,0,0,1-4.09-4.21l.08-5.53a1.38,1.38,0,0,1,2.77,0L7,55.39a1.39,1.39,0,0,0,1.36,1.4l8.3.12a1.38,1.38,0,0,1,0,2.77Zm6.92.1h-.28a1.38,1.38,0,0,1,0-2.77h.28a1.38,1.38,0,1,1,0,2.77Zm36-3.62a4.16,4.16,0,0,1-4.21,4.09L51.2,60.2a1.38,1.38,0,0,1,0-2.77l4.15.06a1.39,1.39,0,0,0,1.4-1.36l.1-6.92a1.38,1.38,0,1,1,2.77,0Zm.2-13.56a1.38,1.38,0,0,1-2.77,0v-.28a1.38,1.38,0,0,1,2.77,0Z"/><path class="cls-3" d="M36.24,43l-4.17.2.16-11-11-.16.2,4.17a5.2,5.2,0,1,1-10.38-.15l.32-4.16-11-.16L0,59.44a4.15,4.15,0,0,0,4.09,4.21l27.67.41.16-11,4.16.32h.33A5.2,5.2,0,1,0,36.24,43ZM16.61,59.68l-8.3-.12a4.16,4.16,0,0,1-4.09-4.21l.08-5.53a1.38,1.38,0,0,1,2.77,0L7,55.39a1.39,1.39,0,0,0,1.36,1.4l8.3.12a1.38,1.38,0,0,1,0,2.77Zm6.92.1h-.28a1.38,1.38,0,0,1,0-2.77h.28a1.38,1.38,0,1,1,0,2.77Z"/></g></g></g></svg>