<svg xmlns="http://www.w3.org/2000/svg" viewBox="0 0 76.31 64"><defs><style>.cls-1{fill:#736459;}</style></defs><title>Photographer</title><g id="Layer_2" data-name="Layer 2"><g id="Merchant_home"><g id="Services"><g id="Row_1"><g id="Photography"><path class="cls-1" d="M70.89,13l-24.75-3a1.24,1.24,0,0,1-1-.92L44,4.66A6.14,6.14,0,0,0,38,0H21.07a6.15,6.15,0,0,0-6,4.66L13.92,9.38a1.24,1.24,0,0,1-.87.89L4.54,12.59A6.17,6.17,0,0,0,0,18.53V57.85A6.16,6.16,0,0,0,6.15,64h64a6.16,6.16,0,0,0,6.15-6.15V19.14A6.16,6.16,0,0,0,70.89,13Zm3,44.82a3.7,3.7,0,0,1-3.69,3.69h-64a3.7,3.7,0,0,1-3.69-3.69V18.53A3.7,3.7,0,0,1,5.18,15l8.52-2.32A3.7,3.7,0,0,0,16.31,10l1.18-4.72a3.69,3.69,0,0,1,3.58-2.8H38a3.69,3.69,0,0,1,3.58,2.8L42.7,9.73a3.71,3.71,0,0,0,3.14,2.77l24.75,3a3.7,3.7,0,0,1,3.25,3.67Z"/><path class="cls-1" d="M22.15,17.23H36.92a2.46,2.46,0,0,0,2.46-2.46V7.38a2.46,2.46,0,0,0-2.46-2.46H22.15a2.46,2.46,0,0,0-2.46,2.46v7.38A2.46,2.46,0,0,0,22.15,17.23Zm0-9.85H36.92v7.38H22.15Z"/><path class="cls-1" d="M60.31,28.31A11.08,11.08,0,1,0,71.38,39.38,11.09,11.09,0,0,0,60.31,28.31Zm0,19.69a8.62,8.62,0,1,1,8.62-8.62A8.63,8.63,0,0,1,60.31,48Z"/><path class="cls-1" d="M60.31,34.46a4.92,4.92,0,1,0,4.92,4.92A4.93,4.93,0,0,0,60.31,34.46Zm0,7.38a2.46,2.46,0,1,1,2.46-2.46A2.46,2.46,0,0,1,60.31,41.85Z"/><rect class="cls-1" x="50.46" y="54.15" width="4.92" height="2.46"/><rect class="cls-1" x="57.85" y="54.15" width="4.92" height="2.46"/><rect class="cls-1" x="65.23" y="54.15" width="4.92" height="2.46"/><polygon class="cls-1" points="51.69 7.38 66.46 7.38 66.46 9.85 68.92 9.85 68.92 4.92 49.23 4.92 49.23 8.62 51.69 8.62 51.69 7.38"/><path class="cls-1" d="M43.08,24.62H8.62a3.7,3.7,0,0,0-3.69,3.69V55.38a3.7,3.7,0,0,0,3.69,3.69H43.08a3.7,3.7,0,0,0,3.69-3.69V28.31A3.7,3.7,0,0,0,43.08,24.62Zm1.23,30.77a1.23,1.23,0,0,1-1.23,1.23H8.62a1.23,1.23,0,0,1-1.23-1.23V28.31a1.23,1.23,0,0,1,1.23-1.23H43.08a1.23,1.23,0,0,1,1.23,1.23Z"/><path class="cls-1" d="M36.33,45.58A8.6,8.6,0,1,0,24.23,34.49a9.51,9.51,0,0,0-8,4.94L11.58,48H9.85v2.46h32V48H37.65ZM14.38,48l4-7.4a7.06,7.06,0,0,1,12.4,0l4,7.4ZM33,39.43a9.5,9.5,0,0,0-6.08-4.67,6.14,6.14,0,1,1,8.26,8.67Z"/><path class="cls-1" d="M67.08,24.37,53.07,20a5.44,5.44,0,0,1-3.84-5.22H46.77a7.89,7.89,0,0,0,5.56,7.57l14,4.38a7.93,7.93,0,0,0,2.36.36h2.67V24.62H68.71A5.46,5.46,0,0,1,67.08,24.37Z"/></g></g></g></g></g></svg>