<svg xmlns="http://www.w3.org/2000/svg" viewBox="0 0 43.7 64"><defs><style>.cls-1{fill:#736459;}</style></defs><title>Speaker</title><g id="Layer_2" data-name="Layer 2"><g id="Merchant_home"><g id="Services"><g id="Row_4"><g id="Media"><path class="cls-1" d="M38.75,64a.83.83,0,0,1-.83-.83V61.79H5.79v1.37a.83.83,0,1,1-1.67,0V61.79H2.92A2.92,2.92,0,0,1,0,58.88v-56A2.92,2.92,0,0,1,2.92,0H40.78A2.92,2.92,0,0,1,43.7,2.92v56a2.92,2.92,0,0,1-2.92,2.92h-1.2v1.37A.83.83,0,0,1,38.75,64Zm0-3.87h2A1.25,1.25,0,0,0,42,58.88v-56a1.25,1.25,0,0,0-1.25-1.25H2.92A1.25,1.25,0,0,0,1.67,2.92v56a1.25,1.25,0,0,0,1.25,1.25Zm-16.9-4A15.47,15.47,0,1,1,37.32,40.66,15.49,15.49,0,0,1,21.85,56.13Zm0-29.27a13.8,13.8,0,1,0,13.8,13.8A13.82,13.82,0,0,0,21.85,26.86Zm0,18.55a4.75,4.75,0,1,1,4.75-4.75A4.76,4.76,0,0,1,21.85,45.41Zm0-7.84a3.08,3.08,0,1,0,3.08,3.08A3.09,3.09,0,0,0,21.85,37.58Zm0-15.77A7.86,7.86,0,1,1,29.71,14,7.87,7.87,0,0,1,21.85,21.81Zm0-14A6.19,6.19,0,1,0,28,14,6.2,6.2,0,0,0,21.85,7.76Zm0,9.22a3,3,0,1,1,3-3A3,3,0,0,1,21.85,17Zm0-4.39A1.36,1.36,0,1,0,23.21,14,1.36,1.36,0,0,0,21.85,12.59Z"/></g></g></g></g></g></svg>