<svg xmlns="http://www.w3.org/2000/svg" viewBox="0 0 61.12 64"><defs><style>.cls-1{fill:#736459;}</style></defs><title>Ushers</title><g id="Layer_2" data-name="Layer 2"><g id="Merchant_home"><g id="Services"><g id="Row_3"><g id="Ushering"><path class="cls-1" d="M30.56,28.3A14.15,14.15,0,1,1,44.71,14.15,14.17,14.17,0,0,1,30.56,28.3Zm0-24.23A10.08,10.08,0,1,0,40.64,14.15,10.09,10.09,0,0,0,30.56,4.07Z"/><path class="cls-1" d="M30.56,64C19.29,64,8.73,58.77.82,49.28l-.82-1L.19,47C1.74,37,7,28.83,15.11,24.17L17,23.07l1.53,1.61a16.52,16.52,0,0,0,24,0l1.53-1.6L46,24.17C54.08,28.84,59.38,37,60.92,47l.2,1.26-.83,1C52.39,58.77,41.83,64,30.56,64ZM4.31,47.1c7.09,8.28,16.38,12.82,26.25,12.82s19.17-4.55,26.25-12.82c-1.4-8.24-5.64-14.9-12-18.91a20.59,20.59,0,0,1-28.45,0C10,32.2,5.71,38.86,4.31,47.1Z"/><path class="cls-1" d="M36.55,46.49a2.37,2.37,0,0,1-1.17-.31L32.7,44.65a5.14,5.14,0,0,1-4.29,0l-2.67,1.53a2.42,2.42,0,0,1-2.18.09,2,2,0,0,1-1.22-1.82V37.61a2,2,0,0,1,1.23-1.83,2.42,2.42,0,0,1,2.17.1l2.67,1.53a5.16,5.16,0,0,1,4.29,0l2.67-1.53a2.42,2.42,0,0,1,2.17-.1,2,2,0,0,1,1.23,1.83v6.83a2,2,0,0,1-1.24,1.83A2.31,2.31,0,0,1,36.55,46.49Zm-3.86-4.2,3.7,2.12a.37.37,0,0,0,.3,0l.05-6.77a.38.38,0,0,0-.35,0l-3.7,2.12-.52-.33a3.07,3.07,0,0,0-3.21,0l-.52.33-3.7-2.12a.36.36,0,0,0-.31,0l0,6.81c.18,0,.27,0,.35,0l3.7-2.12.52.33a3.07,3.07,0,0,0,3.22,0Z"/></g></g></g></g></g></svg>