<svg xmlns="http://www.w3.org/2000/svg" viewBox="0 0 14 14.02"><defs><style>.cls-1{fill:#00a99d;}</style></defs><title>verified</title><g id="Layer_2" data-name="Layer 2"><g id="Layer_4" data-name="Layer 4"><g id="Service_categories"><path class="cls-1" d="M13.91,8.1,13.05,7l.84-1.13A.5.5,0,0,0,14,5.41a.52.52,0,0,0-.26-.34L12.44,4.4,12.67,3a.48.48,0,0,0-.11-.41.5.5,0,0,0-.39-.19l-1.45-.06L10.35,1A.55.55,0,0,0,9.62.67L9.19.86A1.37,1.37,0,0,1,8.66,1a1.36,1.36,0,0,1-1-.44L7.35.18A.54.54,0,0,0,7,0a.52.52,0,0,0-.4.18L6.24.54a1.34,1.34,0,0,1-1,.45,1.46,1.46,0,0,1-.5-.1L4.29.7l-.2,0a.52.52,0,0,0-.51.38L3.2,2.43l-1.43.06a.55.55,0,0,0-.39.2.48.48,0,0,0-.11.41l.26,1.36-1.26.7A.52.52,0,0,0,0,5.5a.54.54,0,0,0,.09.42L1,7.08.12,8.2A.52.52,0,0,0,.3,9l.43.22a1.3,1.3,0,0,1,.68,1.35L1.33,11a.52.52,0,0,0,.12.41.49.49,0,0,0,.38.19l1.44.06L3.66,13a.53.53,0,0,0,.51.37.51.51,0,0,0,.2,0l.45-.19a1.36,1.36,0,0,1,.52-.11,1.33,1.33,0,0,1,1,.44l.32.35a.55.55,0,0,0,.8,0l.31-.35a1.34,1.34,0,0,1,1-.45,1.3,1.3,0,0,1,.51.1l.45.18a.44.44,0,0,0,.19,0,.53.53,0,0,0,.52-.38l.13-.46a1.3,1.3,0,0,1,1.2-.94l.48,0a.52.52,0,0,0,.39-.2.48.48,0,0,0,.11-.41l-.09-.47a1.29,1.29,0,0,1,.66-1.37l.42-.22A.54.54,0,0,0,14,8.52.57.57,0,0,0,13.91,8.1ZM10.24,5.65,6.42,9.43a.77.77,0,0,1-1.07,0l-1.6-1.6A.75.75,0,0,1,4.82,6.78L5.89,7.84,9.18,4.59a.77.77,0,0,1,1.07,0A.75.75,0,0,1,10.24,5.65Z"/></g></g></g></svg>