<svg xmlns="http://www.w3.org/2000/svg" viewBox="0 0 112.58 64">
	<defs><style>.cls-1{fill:#736459;}</style></defs><title>Band</title>
	<g id="Layer_2" data-name="Layer 2">
		<g id="Merchant_home"><g id="Services"><g id="Row_2"><g id="Musicals">
		<path class="cls-1" d="M55.21,11.55c-.06.08-.1.16-.17.24a6,6,0,0,1-1.06.9A11.9,11.9,0,0,1,52,13.78a8.66,8.66,0,0,1-1.46.75v-.31a2.89,2.89,0,0,0-.17-.8,2.76,2.76,0,0,0-.45-.83,14.89,14.89,0,0,0,2.36-1,5.69,5.69,0,0,0,1.13-.81,1.62,1.62,0,0,0,.63-1.32c0-.28-.09-.55-.14-.81s-.15-.63-.24-.92l-.28.25a7.77,7.77,0,0,1-1.17.84A12.48,12.48,0,0,1,51,9.42c-6.92,3-21.12,3.17-23.2,3.17S12.09,12.48,5,9.61A14.07,14.07,0,0,1,3.61,9a8.7,8.7,0,0,1-1.2-.77C2.26,8.07,2.13,8,2,7.84a11.86,11.86,0,0,0-.56,1.58s0,.07,0,.1c-.08.49.21,1,.81,1.47a7.07,7.07,0,0,0,1.2.75,17.54,17.54,0,0,0,2.51,1,2.81,2.81,0,0,0-.5,1.47l0,.34v.2a9.5,9.5,0,0,1-2.14-1,12.12,12.12,0,0,1-1.75-.94,5.78,5.78,0,0,1-1.17-1c-.1.3-.21.6-.3.93a2.56,2.56,0,0,0,.41,2.13c.16,4.38,1.36,27.61,9.37,32.7h0a2.81,2.81,0,0,0,3.24,2,2.76,2.76,0,0,0,.32-.1,35.84,35.84,0,0,0,11.86,3,2.58,2.58,0,0,0,4.91,0,35.6,35.6,0,0,0,12-3.09,3,3,0,0,0,.68.24,2.82,2.82,0,0,0,3.31-2.23l.07-.37c7.29-6.07,8.47-27.9,8.63-32.11a2.76,2.76,0,0,0,.55-1.93A12.08,12.08,0,0,0,55.21,11.55ZM45,14a2.65,2.65,0,0,0,0,.52l0,.45,0,.95v.29A80,80,0,0,1,30.95,17.8V16.2a3.21,3.21,0,0,0-.07-.65A84.19,84.19,0,0,0,45,14ZM11,16l0-.94,0-.55a2.86,2.86,0,0,0,0-.41,87,87,0,0,0,13.55,1.48,3.22,3.22,0,0,0-.07.65v1.6A82.15,82.15,0,0,1,11,16.28Zm-7.6,1c.56.26,1.2.5,1.88.73l-.16,3.59a2.8,2.8,0,0,0,1.32,2.5A49,49,0,0,0,9,38.14a2.8,2.8,0,0,0-.54,2.25l.34,1.76C5.32,36.11,3.85,24,3.43,16.94ZM15.34,46.24,14,39.32a2.81,2.81,0,0,0-2.38-2.24A46.75,46.75,0,0,1,9.3,23.87a2.81,2.81,0,0,0,1.48-2.34l.11-2.4a90.11,90.11,0,0,0,13.67,1.5v3.56A3.18,3.18,0,0,0,26.34,27V42.9a2.59,2.59,0,0,0-1.19,2.18v4.48a33.63,33.63,0,0,1-9.8-2.36A2.82,2.82,0,0,0,15.34,46.24Zm15,3.31V45.08a2.6,2.6,0,0,0-1.19-2.18V27a3.18,3.18,0,0,0,1.78-2.85V20.62A87.6,87.6,0,0,0,45.13,19l.11,2.51a2.81,2.81,0,0,0,1.48,2.34,47,47,0,0,1-2.31,13.21A2.81,2.81,0,0,0,42,39.31l-1.35,6.92a2.84,2.84,0,0,0,0,.69A33.21,33.21,0,0,1,30.35,49.55Zm17.24-9.48A2.79,2.79,0,0,0,47,38.14a49,49,0,0,0,2.53-14.37,2.81,2.81,0,0,0,1.32-2.5l-.17-3.78q.68-.25,1.27-.52C51.58,23.26,50.34,33.63,47.59,40.07Z"/>
		<path class="cls-1" d="M36.68.36C33.9.13,30.9,0,27.75,0s-6.11.13-8.88.35a74.92,74.92,0,0,0-7.7,1A22.22,22.22,0,0,0,4,3.64a3.47,3.47,0,0,0-1,.94,1.42,1.42,0,0,0-.28.77,1.39,1.39,0,0,0,.28.76,3.13,3.13,0,0,0,.83.82,8.84,8.84,0,0,0,1.41.75,16.5,16.5,0,0,0,1.74.65c4.51,1.43,12.15,2.37,20.83,2.37,8.92,0,16.74-1,21.19-2.5a15.5,15.5,0,0,0,1.72-.68A6.57,6.57,0,0,0,52,6.68a2.16,2.16,0,0,0,.72-.95,1.26,1.26,0,0,0,.09-.38c0-1.64-3.45-3.1-8.86-4.08C41.82.88,39.36.58,36.68.36Z"/>
		<path class="cls-1" d="M112.32,21.37a2.87,2.87,0,0,1-.17.24,6,6,0,0,1-1.06.9,11.6,11.6,0,0,1-1.94,1.08,8.77,8.77,0,0,1-1.46.75V24a2.86,2.86,0,0,0-.17-.79,2.79,2.79,0,0,0-.46-.83,14.76,14.76,0,0,0,2.36-1,5.69,5.69,0,0,0,1.13-.81,1.63,1.63,0,0,0,.63-1.32c0-.28-.09-.55-.14-.81a9.35,9.35,0,0,0-.24-.92l-.28.25a7.65,7.65,0,0,1-1.17.84,11.94,11.94,0,0,1-1.27.65c-6.91,3-21.12,3.17-23.2,3.17s-15.66-.11-22.73-3a13.88,13.88,0,0,1-1.41-.66,8.57,8.57,0,0,1-1.2-.77c-.15-.11-.27-.24-.41-.35a12.42,12.42,0,0,0-.56,1.58s0,.07,0,.1c-.08.49.21,1,.81,1.47a7.24,7.24,0,0,0,1.19.75,17.66,17.66,0,0,0,2.51,1,2.86,2.86,0,0,0-.5,1.47l0,.34v.2a9.53,9.53,0,0,1-2.14-1,12.22,12.22,0,0,1-1.74-.94,5.8,5.8,0,0,1-1.17-1c-.1.3-.21.6-.3.93a2.55,2.55,0,0,0,.41,2.13C57.75,29,59,52.27,67,57.35h0a2.81,2.81,0,0,0,3.24,2l.32-.1a35.91,35.91,0,0,0,11.86,3,2.58,2.58,0,0,0,4.91,0,35.76,35.76,0,0,0,12-3.1,2.87,2.87,0,0,0,.68.24,2.82,2.82,0,0,0,3.31-2.23l.07-.37c7.29-6.07,8.46-27.9,8.62-32.11a2.77,2.77,0,0,0,.55-1.93A11.92,11.92,0,0,0,112.32,21.37Zm-10.26,2.39a2.67,2.67,0,0,0,0,.53l0,.45,0,.95V26a80,80,0,0,1-14.05,1.64V26a3.19,3.19,0,0,0-.07-.65A83.69,83.69,0,0,0,102.06,23.76Zm-33.92,2,0-.94,0-.55a2.86,2.86,0,0,0,0-.41,86.76,86.76,0,0,0,13.55,1.48,3.24,3.24,0,0,0-.07.65v1.6a82.17,82.17,0,0,1-13.54-1.52Zm-7.6,1c.56.26,1.2.5,1.88.73l-.16,3.59a2.81,2.81,0,0,0,1.32,2.5A49.06,49.06,0,0,0,66.1,48a2.81,2.81,0,0,0-.54,2.25L65.9,52C62.42,45.92,61,33.79,60.53,26.76ZM72.45,56.05,71.1,49.13a2.81,2.81,0,0,0-2.38-2.24,46.83,46.83,0,0,1-2.32-13.21,2.8,2.8,0,0,0,1.48-2.34l.11-2.4a89.88,89.88,0,0,0,13.67,1.5V34a3.18,3.18,0,0,0,1.78,2.85V52.72a2.58,2.58,0,0,0-1.19,2.18v4.48A33.67,33.67,0,0,1,72.46,57,2.91,2.91,0,0,0,72.45,56.05Zm15,3.31V54.89a2.6,2.6,0,0,0-1.19-2.18V36.85A3.18,3.18,0,0,0,88.05,34V30.44a87.65,87.65,0,0,0,14.18-1.61l.11,2.51a2.81,2.81,0,0,0,1.48,2.34,47,47,0,0,1-2.32,13.21,2.81,2.81,0,0,0-2.38,2.24l-1.35,6.92a2.82,2.82,0,0,0,0,.68A33.37,33.37,0,0,1,87.46,59.36Zm17.24-9.48a2.79,2.79,0,0,0-.57-1.93,49.07,49.07,0,0,0,2.53-14.37A2.81,2.81,0,0,0,108,31.08l-.17-3.78c.45-.17.87-.34,1.26-.52C108.68,33.07,107.45,43.44,104.7,49.89Z"/>
		<path class="cls-1" d="M60.89,16.75a8.92,8.92,0,0,0,1.41.75,17.52,17.52,0,0,0,1.74.66c4.51,1.43,12.15,2.37,20.82,2.37,8.92,0,16.74-1,21.19-2.5a15.15,15.15,0,0,0,1.72-.68,6.64,6.64,0,0,0,1.37-.85,2.19,2.19,0,0,0,.72-.95,1.32,1.32,0,0,0,.09-.38c0-1.64-3.44-3.1-8.86-4.08-2.15-.39-4.62-.7-7.3-.92S88,9.82,84.85,9.82s-6.11.13-8.88.35a75,75,0,0,0-7.7,1,22.33,22.33,0,0,0-7.18,2.3,3.38,3.38,0,0,0-1,.94,1.39,1.39,0,0,0-.29.77,1.39,1.39,0,0,0,.28.76A3.21,3.21,0,0,0,60.89,16.75Z"/>
	</g></g></g></g></g>
</svg>