<svg xmlns="http://www.w3.org/2000/svg" viewBox="0 0 64 64"><defs><style>.cls-1{fill:#736459;}</style></defs><title>Cakes</title><g id="Layer_2" data-name="Layer 2"><g id="Merchant_home"><g id="Services"><g id="Row_3"><g id="Cakes"><path class="cls-1" d="M61,53.09H57V48.76a1,1,0,0,0-2,0v4.33H9V43.75l2.36,1.53a4.11,4.11,0,0,0,4.41.14l0,0,3-1.92,0,0a1.8,1.8,0,0,1,1-.31,1.83,1.83,0,0,1,.88.24L23.9,45.5l0,0a3.87,3.87,0,0,0,1.58.51h.71a3.9,3.9,0,0,0,1.51-.47l.27-.14,0,0,3-1.93a1.8,1.8,0,0,1,1-.32h0a1.8,1.8,0,0,1,1,.32h0l3,1.92,0,0,.27.14a3.89,3.89,0,0,0,1.51.47h.71a3.89,3.89,0,0,0,1.59-.51l0,0,3.24-2.11a1.83,1.83,0,0,1,.88-.24,1.8,1.8,0,0,1,1,.32l3,1.93,0,0a4.11,4.11,0,0,0,4.41-.14L55,43.75v1.78a1,1,0,0,0,2,0V40A4.07,4.07,0,0,0,53,35.95H51.32V31.38a1,1,0,1,0-2,0v4.57H14.7V26.77l2.78,1.8a4.11,4.11,0,0,0,4.41.14l0,0,3-1.93a1.8,1.8,0,0,1,1-.32,1.83,1.83,0,0,1,.88.24L30,28.79l0,0a3.89,3.89,0,0,0,1.59.51h.7a3.9,3.9,0,0,0,1.59-.51l0,0,3.24-2.11a1.83,1.83,0,0,1,.88-.24,1.8,1.8,0,0,1,1,.32h0l3,1.92,0,0a4.21,4.21,0,0,0,2.09.57h0a4.2,4.2,0,0,0,2.31-.72l2.78-1.8V28.1a1,1,0,0,0,2,0v-5a3.36,3.36,0,0,0,0-.38l0-.13v0l0-.11v0l0-.11v0l0-.08v0l-.07-.22,0-.06L51,21.67v0l-.11-.2v0l-.14-.21h0a3.34,3.34,0,0,0-2.44-1.41H43.45V18.12a2.34,2.34,0,0,0-2.34-2.34h-4.8V12.29a3.24,3.24,0,0,0-2.36-3.15l-.07,0a7.15,7.15,0,0,0-2-.28,5.82,5.82,0,0,0-1.68.24,3.28,3.28,0,0,0-2.55,3.22v3.49h-4.8a2.34,2.34,0,0,0-2.34,2.34v1.66H15.74a3.34,3.34,0,0,0-2.44,1.4h0l-.14.21,0,0-.1.19,0,0-.09.21,0,.06-.07.21v0l0,.09v0l0,.12v0l0,.11v0l0,.15h0V23c0,.06,0,.11,0,.17V35.95H11A4.07,4.07,0,0,0,7,40V53.09H3a3,3,0,0,0-.21,6.06l5,4.59a1,1,0,0,0,.68.27h47a1,1,0,0,0,.68-.27l5-4.59A3,3,0,0,0,61,53.09ZM29.71,12.29c0-.46.14-1,1.13-1.29a3.79,3.79,0,0,1,1.08-.14,5.12,5.12,0,0,1,1.37.19c.87.33,1,.79,1,1.24v3.49H29.71V12.29Zm-7.14,5.83a.32.32,0,0,1,.32-.32H41.11a.32.32,0,0,1,.32.32v1.66H22.57Zm-7.87,5a1.32,1.32,0,0,1,0-.27h0a1.32,1.32,0,0,1,.07-.24h0l0-.1v0l.05-.08v0L15,22.3v0l.07-.08.05,0,0,0,.06-.05,0,0,.07-.05h0a1.34,1.34,0,0,1,.27-.13h0l.07,0H48.32l.07,0h0a1.33,1.33,0,0,1,.27.13h0l.08.05h0l.07.05,0,0,.06.05,0,.05,0,.05.05.07,0,0,0,.08v0l0,.09v0l0,.1h0l0,.11h0a1.31,1.31,0,0,1,0,.13s0,.09,0,.13v1.24l-3.88,2.52a2.22,2.22,0,0,1-1.21.39h0A2.16,2.16,0,0,1,43.15,27l-2.95-1.92h0a3.8,3.8,0,0,0-2.09-.64,3.85,3.85,0,0,0-1.92.53l0,0L32.9,27.08a1.89,1.89,0,0,1-.73.23h-.34a1.89,1.89,0,0,1-.73-.23L27.85,25l0,0a3.85,3.85,0,0,0-1.92-.53,3.81,3.81,0,0,0-2.1.65L20.85,27a2.15,2.15,0,0,1-1.05.28,2.22,2.22,0,0,1-1.21-.39L14.7,24.36V23.12ZM11,38H53a2.05,2.05,0,0,1,2,2v1.32l-3.46,2.25a2.22,2.22,0,0,1-1.21.39,2.15,2.15,0,0,1-1.05-.28l-2.95-1.92a3.81,3.81,0,0,0-2.1-.65,3.85,3.85,0,0,0-1.92.53l0,0L39,43.79a1.91,1.91,0,0,1-.74.23H38a1.9,1.9,0,0,1-.73-.23l-.06,0L37,43.69l-2.95-1.91h0A3.82,3.82,0,0,0,32,41.13h0a3.81,3.81,0,0,0-2.06.65L27,43.69l-.13.07-.06,0A1.9,1.9,0,0,1,26,44h-.33a1.89,1.89,0,0,1-.73-.23l-3.24-2.11,0,0a3.85,3.85,0,0,0-1.92-.53,3.81,3.81,0,0,0-2.09.64h0l-2.95,1.91a2.15,2.15,0,0,1-1.05.28,2.22,2.22,0,0,1-1.21-.39L9,41.34V40H9A2.05,2.05,0,0,1,11,38ZM61,57.13H42.17a1,1,0,0,0,0,2h16L55.11,62H8.89L5.82,59.15H38.67a1,1,0,1,0,0-2H3a1,1,0,1,1,0-2H61a1,1,0,1,1,0,2Z"/><path class="cls-1" d="M31.6,8.29a1,1,0,0,0,.8,0,4.47,4.47,0,0,0,0-8.21,1,1,0,0,0-.8,0,4.47,4.47,0,0,0,0,8.21ZM32,2.16a2.45,2.45,0,0,1,0,4.06,2.45,2.45,0,0,1,0-4.06Z"/><circle class="cls-1" cx="22.06" cy="33.07" r="1.31"/><circle class="cls-1" cx="35.27" cy="30.91" r="1.31"/><circle class="cls-1" cx="44.15" cy="32.25" r="1.31"/><path class="cls-1" d="M39.46,32.63l-1.82.86a1,1,0,1,0,.86,1.83l1.82-.86a1,1,0,0,0-.86-1.83Z"/><path class="cls-1" d="M27,30.76A1,1,0,0,0,26,32.48l1.72,1a1,1,0,0,0,1.05-1.72Z"/><circle class="cls-1" cx="40.01" cy="50.16" r="1.31"/><circle class="cls-1" cx="26.81" cy="48.01" r="1.31"/><circle class="cls-1" cx="17.92" cy="49.35" r="1.31"/><path class="cls-1" d="M22.61,49.73a1,1,0,1,0-.86,1.83l1.82.86a1,1,0,0,0,.86-1.83Z"/><path class="cls-1" d="M47.77,49.73l-1.82-.86a1,1,0,0,0-.86,1.83l1.82.86a1,1,0,1,0,.86-1.83Z"/><path class="cls-1" d="M35,47.86l-1.72,1a1,1,0,1,0,1.05,1.72l1.72-1A1,1,0,0,0,35,47.86Z"/></g></g></g></g></g></svg>