<?xml version="1.0" encoding="utf-8"?>
<!-- Generator: Adobe Illustrator 19.1.0, SVG Export Plug-In . SVG Version: 6.00 Build 0)  -->
<svg version="1.1" id="Layer_1" xmlns="http://www.w3.org/2000/svg" xmlns:xlink="http://www.w3.org/1999/xlink" x="0px" y="0px"
	 viewBox="0 0 56.7 56.7" style="enable-background:new 0 0 56.7 56.7;" xml:space="preserve">
<g>
	<path style="fill:#C23747;" d="M28.3,28.3L8.6,33.8L1,35.9c0.6,2.3,1.5,4.4,2.7,6.4l6.9-3.9L28.3,28.3z"/>
	<path style="fill:#C23747;" d="M28.3,28.3L10.6,18.3l-6.9-3.9c-1.1,2-2,4.1-2.7,6.4l7.6,2.1L28.3,28.3z"/>
	<path style="fill:#C23747;" d="M28.3,28.3L48,22.9l7.6-2.1c-0.6-2.3-1.5-4.4-2.7-6.4l-6.9,3.9L28.3,28.3z"/>
	<path style="fill:#C23747;" d="M28.3,28.3L18.3,46.1L14.4,53c2,1.1,4.1,2,6.4,2.7l2.1-7.6L28.3,28.3z"/>
	<path style="fill:#C23747;" d="M28.3,28.3L22.9,8.6L20.8,1c-2.3,0.6-4.4,1.5-6.4,2.6l3.9,6.9L28.3,28.3z"/>
	<path style="fill:#C23747;" d="M28.3,28.3l10.1-17.8l3.9-6.9c-2-1.1-4.1-2-6.4-2.6l-2.1,7.6L28.3,28.3z"/>
	<path style="fill:#C23747;" d="M28.3,28.3l17.8,10.1l6.9,3.9c1.1-2,2-4.1,2.7-6.4L48,33.8L28.3,28.3z"/>
	<path style="fill:#C23747;" d="M28.3,28.3L33.8,48l2.1,7.6c2.3-0.6,4.4-1.5,6.4-2.6l-3.9-6.9L28.3,28.3z"/>
	<path style="fill:#F3E3EE;" d="M28.3,28.3L22.9,48l-2.1,7.6c2.4,0.7,4.9,1,7.6,1s5.2-0.4,7.6-1L33.8,48L28.3,28.3z"/>
	<path style="fill:#F3E3EE;" d="M28.3,28.3l10.1,17.8l3.9,6.9c4.5-2.5,8.2-6.2,10.7-10.7l-6.9-3.9L28.3,28.3z"/>
	<path style="fill:#F3E3EE;" d="M55.6,20.8L48,22.9l-19.7,5.5L48,33.8l7.6,2.1c0.7-2.4,1-4.9,1-7.6C56.7,25.7,56.3,23.2,55.6,20.8z"
		/>
	<path style="fill:#F3E3EE;" d="M28.3,28.3l17.8-10.1l6.9-3.9c-2.5-4.5-6.2-8.2-10.7-10.7l-3.9,6.9L28.3,28.3z"/>
	<path style="fill:#F3E3EE;" d="M28.3,28.3l5.5-19.7L35.9,1c-2.4-0.7-4.9-1-7.6-1s-5.2,0.4-7.6,1l2.1,7.6L28.3,28.3z"/>
	<path style="fill:#F3E3EE;" d="M28.3,28.3L18.3,10.6l-3.9-6.9C9.9,6.2,6.2,9.9,3.7,14.4l6.9,3.9L28.3,28.3z"/>
	<path style="fill:#F3E3EE;" d="M28.3,28.3L8.6,22.9L1,20.8c-0.7,2.4-1,4.9-1,7.6c0,2.6,0.4,5.2,1,7.6l7.6-2.1L28.3,28.3z"/>
	<path style="fill:#F3E3EE;" d="M28.3,28.3L10.6,38.4l-6.9,3.9c2.5,4.5,6.2,8.2,10.7,10.7l3.9-6.9L28.3,28.3z"/>
</g>
</svg>
