<?xml version="1.0" encoding="utf-8"?>
<!-- Generator: Adobe Illustrator 19.1.0, SVG Export Plug-In . SVG Version: 6.00 Build 0)  -->
<svg version="1.1" id="Layer_1" xmlns="http://www.w3.org/2000/svg" xmlns:xlink="http://www.w3.org/1999/xlink" x="0px" y="0px"
	 viewBox="0 0 56.7 56.7" style="enable-background:new 0 0 56.7 56.7;" xml:space="preserve">
<g>
	<path style="fill:#1C95CF;" d="M28.3,28.3l-17.8,0.7l-6.9,0.3c0.1,2.1,0.4,4.1,0.9,6.1l6.6-2L28.3,28.3z"/>
	<path style="fill:#1C95CF;" d="M28.3,28.3L15.4,16l-5-4.8c-1.4,1.5-2.6,3.2-3.6,5l6,3.4L28.3,28.3z"/>
	<path style="fill:#1C95CF;" d="M28.3,28.3l17.8-0.7l6.9-0.3c-0.1-2.1-0.4-4.1-0.9-6.1l-6.6,2L28.3,28.3z"/>
	<path style="fill:#1C95CF;" d="M28.3,28.3L16.1,41.7l-4.7,5.2c1.5,1.4,3.1,2.6,4.9,3.6l3.4-6.2L28.3,28.3z"/>
	<path style="fill:#1C95CF;" d="M28.3,28.3l-0.5-18.2l-0.2-7c-2,0.1-4,0.4-6,1l1.9,6.7L28.3,28.3z"/>
	<path style="fill:#1C95CF;" d="M28.3,28.3L40.5,15l4.7-5.2c-1.5-1.4-3.1-2.6-4.9-3.6L37,12.4L28.3,28.3z"/>
	<path style="fill:#1C95CF;" d="M28.3,28.3l13,12.3l5,4.8c1.4-1.5,2.6-3.2,3.6-5l-6-3.4L28.3,28.3z"/>
	<path style="fill:#1C95CF;" d="M28.3,28.3l0.5,18.2l0.2,7c2-0.1,4-0.4,6-1l-1.9-6.7L28.3,28.3z"/>
	<path style="fill:#96C6D9;" d="M28.3,28.3l-8.7,16l-3.4,6.2c1.9,1.1,4,1.9,6.2,2.4c2.2,0.5,4.4,0.7,6.6,0.6l-0.2-7L28.3,28.3z"/>
	<path style="fill:#96C6D9;" d="M28.3,28.3l4.8,17.5l1.9,6.7c4.3-1.3,8.2-3.8,11.3-7.1l-5-4.8L28.3,28.3z"/>
	<path style="fill:#96C6D9;" d="M53,27.3l-6.9,0.3l-17.8,0.7l15.5,8.7l6,3.4c1.1-2,1.9-4.1,2.4-6.3C52.9,31.8,53.1,29.5,53,27.3z"/>
	<path style="fill:#96C6D9;" d="M28.3,28.3l17.1-5.1l6.6-2c-1.2-4.4-3.6-8.3-6.8-11.4L40.5,15L28.3,28.3z"/>
	<path style="fill:#96C6D9;" d="M28.3,28.3l8.7-16l3.4-6.2c-1.9-1.1-4-1.9-6.2-2.4C32,3.2,29.8,3,27.6,3.1l0.2,7L28.3,28.3z"/>
	<path style="fill:#96C6D9;" d="M28.3,28.3l-4.8-17.5l-1.9-6.7c-4.3,1.3-8.2,3.8-11.3,7.1l5,4.8L28.3,28.3z"/>
	<path style="fill:#96C6D9;" d="M28.3,28.3l-15.5-8.7l-6-3.4c-1.1,2-1.9,4.1-2.4,6.3c-0.5,2.3-0.8,4.5-0.7,6.8l6.9-0.3L28.3,28.3z"
		/>
	<path style="fill:#96C6D9;" d="M28.3,28.3l-17.1,5.1l-6.6,2c1.2,4.4,3.6,8.3,6.8,11.4l4.7-5.2L28.3,28.3z"/>
</g>
</svg>
