<?xml version="1.0" encoding="utf-8"?>
<!-- Generator: Adobe Illustrator 19.1.0, SVG Export Plug-In . SVG Version: 6.00 Build 0)  -->
<svg version="1.1" id="Layer_1" xmlns="http://www.w3.org/2000/svg" xmlns:xlink="http://www.w3.org/1999/xlink" x="0px" y="0px"
	 viewBox="0 0 56.7 56.7" style="enable-background:new 0 0 56.7 56.7;" xml:space="preserve">
<g>
	<path style="fill:#00A99D;" d="M28.3,28.3l-17.8,4.9l-6.9,1.9c0.6,2,1.4,4,2.4,5.8l6.2-3.5L28.3,28.3z"/>
	<path style="fill:#00A99D;" d="M28.3,28.3l-16.1-9.1L6,15.7c-1,1.8-1.8,3.7-2.4,5.8l6.9,1.9L28.3,28.3z"/>
	<path style="fill:#00A99D;" d="M28.3,28.3l17.8-4.9l6.9-1.9c-0.6-2-1.4-4-2.4-5.8l-6.2,3.5L28.3,28.3z"/>
	<path style="fill:#00A99D;" d="M28.3,28.3l-9.1,16.1l-3.5,6.2c1.8,1,3.7,1.8,5.8,2.4l1.9-6.9L28.3,28.3z"/>
	<path style="fill:#00A99D;" d="M28.3,28.3l-4.9-17.8l-1.9-6.9c-2,0.6-4,1.4-5.8,2.4l3.5,6.2L28.3,28.3z"/>
	<path style="fill:#00A99D;" d="M28.3,28.3l9.1-16.1L41,6c-1.8-1-3.7-1.8-5.8-2.4l-1.9,6.9L28.3,28.3z"/>
	<path style="fill:#00A99D;" d="M28.3,28.3l16.1,9.1l6.2,3.5c1-1.8,1.8-3.7,2.4-5.8l-6.9-1.9L28.3,28.3z"/>
	<path style="fill:#00A99D;" d="M28.3,28.3l4.9,17.8l1.9,6.9c2-0.6,4-1.4,5.8-2.4l-3.5-6.2L28.3,28.3z"/>
	<path style="fill:#F3E3EE;" d="M28.3,28.3l-4.9,17.8L21.5,53c2.2,0.6,4.5,0.9,6.8,0.9s4.7-0.3,6.8-0.9l-1.9-6.9L28.3,28.3z"/>
	<path style="fill:#F3E3EE;" d="M28.3,28.3l9.1,16.1l3.5,6.2c4-2.3,7.4-5.6,9.7-9.7l-6.2-3.5L28.3,28.3z"/>
	<path style="fill:#F3E3EE;" d="M53,21.5l-6.9,1.9l-17.8,4.9l17.8,4.9l6.9,1.9c0.6-2.2,0.9-4.5,0.9-6.8C54,26,53.6,23.7,53,21.5z"/>
	<path style="fill:#F3E3EE;" d="M28.3,28.3l16.1-9.1l6.2-3.5C48.3,11.7,45,8.3,41,6l-3.5,6.2L28.3,28.3z"/>
	<path style="fill:#F3E3EE;" d="M28.3,28.3l4.9-17.8l1.9-6.9C33,3,30.7,2.7,28.3,2.7S23.7,3,21.5,3.6l1.9,6.9L28.3,28.3z"/>
	<path style="fill:#F3E3EE;" d="M28.3,28.3l-9.1-16.1L15.7,6c-4,2.3-7.4,5.6-9.7,9.7l6.2,3.5L28.3,28.3z"/>
	<path style="fill:#F3E3EE;" d="M28.3,28.3l-17.8-4.9l-6.9-1.9C3,23.7,2.7,26,2.7,28.3c0,2.4,0.3,4.7,0.9,6.8l6.9-1.9L28.3,28.3z"/>
	<path style="fill:#F3E3EE;" d="M28.3,28.3l-16.1,9.1L6,41c2.3,4,5.6,7.4,9.7,9.7l3.5-6.2L28.3,28.3z"/>
</g>
</svg>
