<svg xmlns="http://www.w3.org/2000/svg" viewBox="0 0 64 66.38"><defs><style>.cls-1{fill:#736459;}.cls-2{fill:#00a99d;}.cls-3{fill:#e6e6e6;}.cls-4{fill:#f5f5f5;}.cls-5{fill:#2e0d20;}</style></defs><title>Communication</title><g id="Layer_2" data-name="Layer 2"><g id="Merchant_home"><g id="Features"><path class="cls-1" d="M31.63,52l2.75,5.28L35.51,56a.79.79,0,0,0,.11-.9L35,54l-1-1.86a.78.78,0,0,0-.81-.42Z"/><path class="cls-2" d="M33.67,66.07h0A4.41,4.41,0,0,1,28,63.53L21.43,47.18l6.4-2.56,8,15.26A4.43,4.43,0,0,1,33.67,66.07Z"/><path class="cls-3" d="M41.86,3l17,42.5A34.6,34.6,0,0,0,50,42.94c-.8-.12-1.59-.21-2.4-.27a33.57,33.57,0,0,0-5.75,0c-.88.07-1.77.19-2.65.34a33.48,33.48,0,0,0-6.48,1.81l-17.57,7a5,5,0,0,1-1.95.36,5.11,5.11,0,0,1-2.28-.56,5.38,5.38,0,0,1-2.58-2.83L3,35.51a5.27,5.27,0,0,1,2.84-6.89l17.49-7a33.17,33.17,0,0,0,3.1-1.45,33.61,33.61,0,0,0,7.94-5.86l.37-.38a33.75,33.75,0,0,0,5.82-8h0C41,5,41.46,4,41.86,3Z"/><path class="cls-4" d="M26.41,20.17,13.17,52.26a5.11,5.11,0,0,1-2.28-.56L23.3,21.62A33.17,33.17,0,0,0,26.41,20.17Z"/><path class="cls-4" d="M40.53,5.88,22.83,48.81l-3,1.2,14.89-36.1A33.75,33.75,0,0,0,40.53,5.88Z"/><polygon class="cls-4" points="44.61 9.91 45.84 13 32.69 44.87 29.7 46.07 44.61 9.91"/><path class="cls-4" d="M48.66,20.05l1.23,3.08L41.82,42.72c-.88.07-1.77.19-2.65.34Z"/><path class="cls-4" d="M52.72,30.19,54,33.29l-4,9.66c-.8-.12-1.59-.21-2.4-.27Z"/><path class="cls-5" d="M44.69.12,42.85.86a1.76,1.76,0,0,0-.95,2.3L58.82,45.43a1.76,1.76,0,0,0,2.27,1l1.84-.73a1.76,1.76,0,0,0,.95-2.3L47,1.13A1.76,1.76,0,0,0,44.69.12Z"/><path class="cls-2" d="M5.81,28.61A5.27,5.27,0,0,0,3,35.51L8.31,48.86a5.27,5.27,0,0,0,6.81,3l10.12-4L15.93,24.57Z"/><path class="cls-5" d="M8.5,49.24,6.6,50a1.55,1.55,0,0,1-2-.89L.12,37.88a1.55,1.55,0,0,1,.83-2l1.9-.76Z"/></g></g></g></svg>