<svg xmlns="http://www.w3.org/2000/svg" viewBox="0 0 50.65 64"><defs><style>.cls-1{fill:#736459;}</style></defs><title>Compare</title><g id="Layer_2" data-name="Layer 2"><g id="Merchant_home"><g id="Services"><g id="Row_4"><g id="MC"><path class="cls-1" d="M47.06,3.6A12.28,12.28,0,0,0,31.13,2.37l-.95-.95L27.53,4.07l1,1a12.25,12.25,0,0,0-2.36,7.4L4.67,36l3.66,3.66L2.58,45.43A8.8,8.8,0,0,0,15,57.87L24.87,48A5,5,0,0,1,32,55.14l-6.2,6.2L28.45,64l6.2-6.2A8.8,8.8,0,0,0,22.21,45.36l-9.85,9.85a5,5,0,1,1-7.13-7.13L11,42.33,14.65,46,38.23,24.54h.15a12.25,12.25,0,0,0,7.25-2.36l1,1,2.66-2.66-1-1A12.29,12.29,0,0,0,47.06,3.6ZM14.77,40.8,9.85,35.89,27,17a12.25,12.25,0,0,0,6.62,6.62Zm23.61-20a8.52,8.52,0,0,1-7.2-13.07L42.93,19.48A8.46,8.46,0,0,1,38.38,20.8Zm7.2-4L33.84,5.07A8.52,8.52,0,0,1,45.59,16.82Z"/></g></g></g></g></g></svg>