<svg xmlns="http://www.w3.org/2000/svg" viewBox="0 0 64 61.37"><defs><style>.cls-1{fill:#e6e6e6;}.cls-2{fill:#46738c;}.cls-3{fill:#3c5064;}.cls-4{fill:#00a99d;}.cls-5{fill:#e9ebee;}.cls-6{fill:#b44e3a;}</style></defs><title>Customize</title><g id="Layer_2" data-name="Layer 2"><g id="Merchant_home"><g id="Features"><path class="cls-1" d="M26.35,13.17A13.17,13.17,0,1,1,13.17,0,13.17,13.17,0,0,1,26.35,13.17Z"/><path class="cls-2" d="M17,15.4l13.86,8.47a.36.36,0,0,1-.14.67l-7,1a.36.36,0,0,0-.27.18L20,31.87a.36.36,0,0,1-.68-.11l-2.89-16A.36.36,0,0,1,17,15.4Z"/><path class="cls-3" d="M23.61,25.56a.36.36,0,0,0-.18.16L20,31.87a.36.36,0,0,1-.68-.11l-2.89-16a.36.36,0,0,1,.22-.4Z"/><path class="cls-4" d="M64,48.2A13.17,13.17,0,1,1,50.83,35,13.17,13.17,0,0,1,64,48.2Z"/><path class="cls-5" d="M58,41.25a42.06,42.06,0,0,0-9.6,8.26L44.84,46.7a12.46,12.46,0,0,0-2,1.73l6.53,6.63a.24.24,0,0,0,.19.08h.05a.26.26,0,0,0,.19-.16,39.93,39.93,0,0,1,9-12.4.26.26,0,0,0,.06-.29A7.29,7.29,0,0,0,58,41.25Z"/><path class="cls-4" d="M64,13.17A13.17,13.17,0,1,1,50.83,0,13.17,13.17,0,0,1,64,13.17Z"/><path class="cls-5" d="M58,6.23a42.06,42.06,0,0,0-9.6,8.26l-3.58-2.81a12.46,12.46,0,0,0-2,1.73L49.36,20a.24.24,0,0,0,.19.08h.05a.26.26,0,0,0,.19-.16,39.93,39.93,0,0,1,9-12.4.26.26,0,0,0,.06-.29A7.29,7.29,0,0,0,58,6.23Z"/><path class="cls-6" d="M26.35,48.2A13.17,13.17,0,1,1,13.17,35,13.17,13.17,0,0,1,26.35,48.2Z"/><path class="cls-5" d="M14,48.2l5.81-5.81a.59.59,0,0,0-.84-.84l-5.81,5.81L7.36,41.54a.59.59,0,0,0-.84.84l5.81,5.81L6.52,54a.59.59,0,1,0,.84.84L13.17,49,19,54.85a.59.59,0,0,0,.84-.84Z"/></g></g></g></svg>