<svg xmlns="http://www.w3.org/2000/svg" viewBox="0 0 50.34 62.25">
	<path d="M43.23,7.46H33.54a8.42,8.42,0,0,0-16.74,0H7.11A7.12,7.12,0,0,0,0,14.57v.36a7.12,7.12,0,0,0,4.49,6.61v33.6a7.12,7.12,0,0,0,7.11,7.11H38.73a7.12,7.12,0,0,0,7.11-7.11V21.54a7.12,7.12,0,0,0,4.49-6.61v-.36A7.12,7.12,0,0,0,43.23,7.46ZM25.17,3.37a5.06,5.06,0,0,1,5,4.09H20.21A5.06,5.06,0,0,1,25.17,3.37Zm17.3,51.77a3.74,3.74,0,0,1-3.74,3.74H11.61a3.74,3.74,0,0,1-3.74-3.74V22H42.47ZM47,14.94h0a3.74,3.74,0,0,1-3.74,3.74H7.11a3.74,3.74,0,0,1-3.74-3.74v-.36a3.74,3.74,0,0,1,3.74-3.74H43.23A3.74,3.74,0,0,1,47,14.57Z"/>
	<path d="M16.13,54.56a1.69,1.69,0,0,0,1.69-1.69v-19a1.69,1.69,0,1,0-3.37,0v19A1.69,1.69,0,0,0,16.13,54.56Z"/>
	<path d="M25.17,54.56a1.69,1.69,0,0,0,1.69-1.69v-19a1.69,1.69,0,1,0-3.37,0v19A1.69,1.69,0,0,0,25.17,54.56Z"/>
	<path d="M34.21,54.56a1.69,1.69,0,0,0,1.69-1.69v-19a1.69,1.69,0,1,0-3.37,0v19A1.69,1.69,0,0,0,34.21,54.56Z"/>
</svg>