<svg xmlns="http://www.w3.org/2000/svg" viewBox="0 0 76.72 64"><defs><style>.cls-1{fill:#736459;}</style></defs><title>Dj</title><g id="Layer_2" data-name="Layer 2"><g id="Merchant_home"><g id="Services"><g id="Row_1"><g id="DJ"><path class="cls-1" d="M75.94,64H.77A.77.77,0,0,1,0,63.23V49.46a.77.77,0,0,1,.77-.77h14.3L26.2,27.38a7.86,7.86,0,0,1,7-4.24H43.53a7.86,7.86,0,0,1,7,4.24h0L61.64,48.69h14.3a.77.77,0,0,1,.77.77V63.23A.77.77,0,0,1,75.94,64ZM1.55,62.45H75.17V50.23H1.55ZM54.11,48.69h5.8L49.15,28.09a6.32,6.32,0,0,0-5.62-3.41H33.19a6.32,6.32,0,0,0-5.62,3.41L16.82,48.69h5.8l5.57-11.3a.77.77,0,0,1,1.47.34v11H47.07v-11a.77.77,0,0,1,1.47-.34Zm-5.49,0h3.77L48.61,41Zm-24.28,0H28.1V41Zm44.1,12.05a4.4,4.4,0,1,1,4.4-4.4A4.4,4.4,0,0,1,68.44,60.74Zm0-7.25a2.85,2.85,0,1,0,2.85,2.85A2.85,2.85,0,0,0,68.44,53.49Zm-12,7.25a4.4,4.4,0,1,1,4.4-4.4A4.4,4.4,0,0,1,56.41,60.74Zm0-7.25a2.85,2.85,0,1,0,2.85,2.85A2.85,2.85,0,0,0,56.41,53.49Zm-12,7.25a4.4,4.4,0,1,1,4.4-4.4A4.4,4.4,0,0,1,44.37,60.74Zm0-7.25a2.85,2.85,0,1,0,2.85,2.85A2.85,2.85,0,0,0,44.37,53.49Zm-12,7.25a4.4,4.4,0,1,1,4.4-4.4A4.4,4.4,0,0,1,32.34,60.74Zm0-7.25a2.85,2.85,0,1,0,2.85,2.85A2.85,2.85,0,0,0,32.34,53.49Zm-12,7.25a4.4,4.4,0,1,1,4.4-4.4A4.4,4.4,0,0,1,20.31,60.74Zm0-7.25a2.85,2.85,0,1,0,2.85,2.85A2.85,2.85,0,0,0,20.31,53.49Zm-12,7.25a4.4,4.4,0,1,1,4.4-4.4A4.4,4.4,0,0,1,8.28,60.74Zm0-7.25a2.85,2.85,0,1,0,2.85,2.85A2.85,2.85,0,0,0,8.28,53.49Zm30.08-31.3a9.46,9.46,0,0,1-8.61-5.56,1.73,1.73,0,0,1-1,.34H27.43a1.74,1.74,0,0,1-1.74-1.74V9.45a1.74,1.74,0,0,1,1.74-1.74h.1C28.27,5.86,31.17,0,38.36,0S48.45,5.86,49.18,7.71h.1A1.74,1.74,0,0,1,51,9.45v5.78A1.74,1.74,0,0,1,49.28,17H48a1.73,1.73,0,0,1-1-.34A9.46,9.46,0,0,1,38.36,22.19Zm0-17.35a7.9,7.9,0,1,0,7.9,7.9A7.91,7.91,0,0,0,38.36,4.84Zm9.45,7.9v2.49a.19.19,0,0,0,.19.19h1.28a.19.19,0,0,0,.19-.19V9.45a.19.19,0,0,0-.19-.19H48a.19.19,0,0,0-.19.19ZM27.43,9.26a.19.19,0,0,0-.19.19v5.78a.19.19,0,0,0,.19.19h1.28a.19.19,0,0,0,.19-.19V9.45a.19.19,0,0,0-.19-.19H27.43Zm1.75-1.48A1.74,1.74,0,0,1,30,8.3a9.45,9.45,0,0,1,16.68,0,1.74,1.74,0,0,1,.85-.53,9.88,9.88,0,0,0-18.37,0Z"/></g></g></g></g></g></svg>