<svg xmlns="http://www.w3.org/2000/svg" viewBox="0 0 63 64"><defs><style>.cls-1{fill:#736459;}</style></defs><title>Drinks</title><g id="Layer_2" data-name="Layer 2"><g id="Merchant_home"><g id="Services"><g id="Row_3"><g id="Drinks"><path class="cls-1" d="M33.94,21.48A2.45,2.45,0,0,0,31.5,19h-.95a.94.94,0,0,0-.09-.23,13.4,13.4,0,0,0-3.64-4.14l-2.9-2.17V4.95A5,5,0,0,0,19,0H15A5,5,0,0,0,10,4.95v7.55l-2.9,2.17A13.57,13.57,0,0,0,3.35,19H2.44a2.44,2.44,0,0,0-.61,4.8c0,.42-.08.84-.09,1.26-.13,5,0,10,.27,15A172.46,172.46,0,0,0,4.15,58.54,6.55,6.55,0,0,0,10.62,64h12.7a6.55,6.55,0,0,0,6.47-5.46,172.47,172.47,0,0,0,2.15-18.47c0-.6.07-1.21.1-1.81a.94.94,0,0,0-1.88-.1c0,.59-.06,1.19-.1,1.79a170.55,170.55,0,0,1-2.12,18.27,4.68,4.68,0,0,1-4.62,3.9H10.62A4.68,4.68,0,0,1,6,58.23,170.56,170.56,0,0,1,3.88,40c-.3-4.91-.39-9.89-.27-14.81a11.62,11.62,0,0,1,.1-1.22H30.23a11.65,11.65,0,0,1,.1,1.22c.08,3.17.07,6.38,0,9.55a.94.94,0,0,0,.91,1h0a.94.94,0,0,0,.94-.91c.1-3.2.11-6.45,0-9.66,0-.42,0-.84-.09-1.26A2.44,2.44,0,0,0,33.94,21.48ZM11.9,4.95A3.07,3.07,0,0,1,15,1.88h4A3.07,3.07,0,0,1,22,4.95V6H11.9Zm0,2.94H22V9H11.9Zm0,3H22V12H11.9ZM8.25,16.17l3-2.27h11.4l3,2.27A11.52,11.52,0,0,1,28.4,19H5.54A11.68,11.68,0,0,1,8.25,16.17ZM31.5,22H2.44a.56.56,0,0,1,0-1.13H31.5a.56.56,0,0,1,0,1.13Z"/><path class="cls-1" d="M62.76,37.39a.94.94,0,0,0-.7-.32h-4.3a7.95,7.95,0,0,0-1.17-12,.94.94,0,0,0-1.08,0A8,8,0,0,0,52.2,30.3a8,8,0,0,0-6-.15.94.94,0,0,0-.61.88,8,8,0,0,0,2.82,6H34a1,1,0,0,0-.93,1.05l3,25A.94.94,0,0,0,37,64h22a.94.94,0,0,0,.93-.83l3-25A.94.94,0,0,0,62.76,37.39ZM56,27a6.06,6.06,0,0,1,.64,8.46A8,8,0,0,0,54,31.37,6.08,6.08,0,0,1,56,27ZM47.56,31.7a6.07,6.07,0,0,1,7.51,5.19,6.07,6.07,0,0,1-7.51-5.19ZM58.22,62.12H37.84L36.51,51H43.7l-.26.09-3.72,1.5a3,3,0,0,0-1.63,3.83l1.5,3.72a2.94,2.94,0,0,0,3.83,1.63l3.72-1.5a3,3,0,0,0,1.63-3.83l-1.5-3.72a2.92,2.92,0,0,0-1.58-1.61L45.36,51h3.49l-.42.79a3,3,0,0,0,1.23,4l3.55,1.87a3,3,0,0,0,4-1.23l1.87-3.55a2.94,2.94,0,0,0,.3-1.85h.2Zm-15.69-15a1.07,1.07,0,0,1-.45-1.44l1.87-3.55a1.07,1.07,0,0,1,1.44-.45l3.55,1.87A1.07,1.07,0,0,1,49.38,45l-1.87,3.55a1.07,1.07,0,0,1-1.44.45Zm3,6.33L47,57.16a1.07,1.07,0,0,1-.59,1.39L42.71,60a1.07,1.07,0,0,1-1.38-.59l-1.5-3.72a1.07,1.07,0,0,1,.59-1.39l3.72-1.5A1.07,1.07,0,0,1,45.52,53.44ZM57.4,51a1.06,1.06,0,0,1,0,1l-1.87,3.55a1.06,1.06,0,0,1-1.44.45l-3.55-1.87a1.07,1.07,0,0,1-.45-1.44L51,51ZM52,49.14h0a1.07,1.07,0,0,1,1.44-.45l.85.45Zm7.82,0H58.2a2.89,2.89,0,0,0-.38-.24L54.27,47a2.94,2.94,0,0,0-4,1.23l-.46.88h-.53L51,45.86a3,3,0,0,0-1.23-4L46.26,40a2.94,2.94,0,0,0-4,1.23l-1.87,3.55a3,3,0,0,0,1.23,4l.7.37H36.28L35.06,39H61Z"/></g></g></g></g></g></svg>