<svg xmlns="http://www.w3.org/2000/svg" viewBox="0 0 472.9 358.5">
  <circle cx="272.5" cy="75.6" r="4.5" fill="#F16D76"/>
  <circle cx="410.9" cy="51.6" r="4.5" fill="#83B0DE"/>
  <circle cx="60.1" cy="196.4" r="4.5" fill="#7FB46B"/>
  <circle cx="291.9" cy="161.4" r="4.5" fill="#F17FB1"/>
  <path fill="#F8DE6B" d="M254.5 90.5h4v12.7h-4z"/>
  <path fill="#FFF" d="M276.5 34.8h4v12.7h-4z"/>
  <path fill="#83B0DE" d="M72.5 150.9h4v12.7h-4z"/>
  <path fill="#F16D76" d="M281.572 235.67l-8.98-8.98 2.828-2.83 8.98 8.98z"/>
  <path fill="#7FB46B" d="M335.076 92.59l-8.98-8.982 2.83-2.828 8.98 8.98z"/>
  <path fill="#83B0DE" d="M294.165 262.458l8.98-8.98 2.83 2.83-8.98 8.98z"/>
  <path fill="#7FB46B" d="M324.848 256.066l8.98-8.98 2.83 2.828-8.982 8.98z"/>
  <path fill="#F16D76" d="M184.648 159.055l8.54-9.402 2.96 2.69-8.538 9.4zM73.918 44.543l8.538-9.402 2.96 2.69-8.537 9.41z"/>
  <path fill="#7FB46B" d="M248.278 129.643l8.538-9.402 2.96 2.69-8.537 9.41zM163.48 140.9l8.537-9.403 2.96 2.69-8.537 9.4z"/>
  <path fill="#F17FB1" d="M453.715 259.86l8.538-9.403 2.96 2.69-8.537 9.4zM154.6 67.895l-9.03-8.932 2.814-2.843 9.028 8.93zm99.405 154.755l9.028-8.933 2.813 2.844-9.028 8.94z"/>
  <path fill="#FFF" d="M179.505 112.646l8.538-9.402 2.96 2.69-8.537 9.4z"/>
  <path d="M42.1 93.7H42c-1-.1-1.7-.9-1.7-1.9l.6-10.4c.1-1 .9-1.7 1.9-1.7 1 .1 1.7.9 1.7 1.9L43.8 92c0 1-.8 1.7-1.7 1.7z" fill="#4D1D35"/>
  <path d="M57.5 105.1c-.3 0-.7-.1-1-.3-.8-.5-1.1-1.6-.5-2.5l4.6-7.1c.5-.8 1.6-1.1 2.5-.5.8.5 1.1 1.6.5 2.5l-4.6 7.1c-.4.5-1 .8-1.5.8z" fill="#F16D76"/>
  <path d="M72.7 80.7c-.4 0-.8-.1-1.1-.4-.8-.6-.9-1.7-.3-2.5l5.1-6.7c.6-.8 1.7-.9 2.5-.3.8.6.9 1.7.3 2.5l-5 6.7c-.4.5-.9.7-1.5.7z" fill="#F8DE6B"/>
  <path d="M74.1 113.7c-.7 0-1.3-.4-1.6-1.1-.4-.9 0-2 .9-2.4l11.8-5.2c.9-.4 2 0 2.4.9.4.9 0 2-.9 2.4l-11.8 5.2c-.3.1-.5.2-.8.2z" fill="#F16D76"/>
  <path d="M55.3 78.4c-.1 0-.3 0-.4-.1-1-.2-1.5-1.2-1.3-2.2l2.8-11.3c.2-1 1.2-1.5 2.2-1.3 1 .2 1.5 1.2 1.3 2.2L57.1 77c-.2.8-1 1.4-1.8 1.4z" fill="#7FB46B"/>
  <path d="M77.7 95.2c-.6 0-1.1-.3-1.5-.8-.5-.8-.3-1.9.5-2.5l8.9-6c.8-.5 1.9-.3 2.5.5.5.8.3 1.9-.5 2.5l-8.9 6c-.3.2-.7.3-1 .3z" fill="#83B0DE"/>
  <path fill="#F8DE6B" d="M128.657 100.818l-8.98-8.98 2.828-2.828 8.98 8.98z"/>
  <path fill="#EFC7AF" d="M361.3 291.8l-21 50.7 18 4.1 19.6-59"/>
  <path d="M358.3 348.4h-.4l-17.9-4.2c-.5-.1-.9-.5-1.2-.9-.2-.5-.3-1-.1-1.5l21-50.6c.2-.5.7-.9 1.2-1l16.6-4.2c.6-.2 1.3 0 1.7.5.4.5.6 1.2.4 1.8l-19.7 59c-.2.6-.9 1.1-1.6 1.1zm-15.5-7.2l14.3 3.3 18.1-54.3-12.6 3.2-19.8 47.8z" fill="#4D1D35"/>
  <path fill="#83B0DE" d="M374.5 248.4l-19.1 45.1 26 12.3"/>
  <path d="M381.4 307.6c-.3 0-.5-.1-.8-.2l-26-12.3c-.9-.4-1.3-1.4-.9-2.3l17.8-41.8c.4-.9 1.4-1.3 2.3-.9.9.4 1.3 1.4.9 2.3l-17.1 40.3 24.5 11.6c.9.4 1.3 1.5.9 2.4-.3.5-1 .9-1.6.9z" fill="#4D1D35"/>
  <path d="M365.7 339.5h57v-83c0-6.7-5.6-12.1-12.6-12.1h-22.2c-12.2 0-22.2 9.9-22.2 22.2v72.9z" fill="#83B0DE"/>
  <path d="M422.6 341.3h-57c-1 0-1.8-.8-1.8-1.8v-73c0-13.2 10.8-24 24-24H410c7.9 0 14.4 6.2 14.4 13.9v83c0 1.1-.8 1.9-1.8 1.9zm-55.1-3.6h53.4v-81.2c0-5.7-4.9-10.3-10.8-10.3h-22.2c-11.2 0-20.4 9.1-20.4 20.4v71.1z" fill="#4D1D35"/>
  <path d="M391.1 325.5c-1.3-3.8-4.3-7.7-6-8.6s-6.4-.5-8.1 3.1c-1.7 3.6 6.7 7.3 6.7 7.3l7.4-1.8z" fill="#EFC7AF"/>
  <path d="M383.7 329c-.2 0-.5 0-.7-.1-1.1-.5-6.4-2.9-7.7-6.4-.4-1.1-.4-2.3.1-3.3.9-2 2.7-3.5 4.9-4.2 2.1-.7 4.3-.6 5.7.2 2.4 1.3 5.5 5.7 6.8 9.6.2.5.1 1-.1 1.4-.2.4-.7.8-1.1.9l-7.4 1.8c-.2.1-.4.1-.5.1zm-.7-10.8c-.5 0-1.1.1-1.7.3-.9.3-2.1.9-2.7 2.3-.1.1-.1.3 0 .6.5 1.4 3.2 3.1 5.3 4.1l4.8-1.2c-1.4-2.9-3.5-5.3-4.4-5.8-.3-.2-.7-.3-1.3-.3z" fill="#4D1D35"/>
  <path d="M442.5 314.5c-.5-2-1.2-4.9-1.9-7.9-1.1-4.9-2.4-10.4-3.5-14.4-1.3-4.4-5.9-7-10.3-5.7-4.4 1.3-7 5.9-5.7 10.3 1 3.5 2.2 8.8 3.3 13.5.7 3 1.3 5.8 1.9 7.9-1.1 1.1-7.4 7.8-34.2 7.5-2.4 0-4.2-5.5-14.6-5.5-8.5 0-14.5 23.8 12.4 20.2 1.8 0 3.6.1 5.3.1 23.7 0 37.8-3.9 44.3-12 3.1-4 4.3-9.1 3-14z" fill="#EFC7AF"/>
  <path d="M384.7 342.6c-8.2 0-12.2-3-14.1-5.8-2.5-3.6-2.7-8.8-.5-13.1 1.7-3.3 4.5-5.3 7.4-5.3 7.7 0 11.2 2.8 13.3 4.5.5.4 1.1.9 1.4 1 21.2.3 29.3-3.9 32.1-6.3-.5-2-1-4.4-1.6-6.9v-.1c-1.1-4.6-2.3-9.9-3.3-13.4-.8-2.6-.5-5.3.9-7.7 1.3-2.4 3.5-4.1 6.1-4.8 5.4-1.6 11 1.5 12.5 6.9 1.2 4 2.4 9.6 3.6 14.5.7 3 1.4 5.9 1.9 7.9 1.4 5.4.2 11.1-3.4 15.6-6.9 8.6-21.4 12.7-45.7 12.7-1.5 0-3.2 0-5.2-.1-2 .3-3.8.4-5.4.4zm-7.2-20.6c-1.5 0-3.1 1.3-4.2 3.4-1.2 2.4-1.9 6.3.2 9.4 2.5 3.6 8.2 4.9 16.1 3.9h.3c2 0 3.7.1 5.2.1 22.8 0 36.8-3.7 42.9-11.3 2.9-3.6 3.9-8.1 2.7-12.5-.5-2-1.2-4.9-1.9-8-1.1-4.8-2.4-10.3-3.5-14.3-1-3.5-4.6-5.5-8.1-4.5-1.7.5-3.1 1.6-3.9 3.1s-1 3.3-.6 5c1 3.6 2.3 8.9 3.3 13.5v.1c.7 2.9 1.3 5.7 1.9 7.8.2.6 0 1.3-.5 1.7-5.3 5.4-17.9 8.2-35.5 8-1.4 0-2.4-.9-3.5-1.8-1.8-1.4-4.5-3.6-10.9-3.6z" fill="#4D1D35"/>
  <path d="M406 258.8l13.6 51.5 22.8-5.4s-7.5-44.4-22.9-56.5c-1.3-1-13.5 10.4-13.5 10.4z" fill="#83B0DE"/>
  <path d="M419.5 312.1c-.8 0-1.5-.5-1.7-1.3l-11-41.5c-.3-1 .3-1.9 1.3-2.2 1-.3 1.9.3 2.2 1.3l10.5 39.9 19.5-4.6c-1.5-8.1-8.9-43.5-22-53.8-.8-.6-.9-1.7-.3-2.5.6-.8 1.7-.9 2.5-.3 15.8 12.4 23.3 55.8 23.6 57.6.2.9-.4 1.8-1.4 2L420 312c-.2.1-.3.1-.5.1zm-38.1 10.2c-1 0-1.8-.8-1.8-1.8v-36.6c0-1 .8-1.8 1.8-1.8s1.8.8 1.8 1.8v36.6c0 1-.8 1.8-1.8 1.8z" fill="#4D1D35"/>
  <path fill="#F16D76" d="M371.4 293.5l-23.2 12.7 26.3 6.8v-19.5"/>
  <path d="M374.5 314.8c-.1 0-.3 0-.4-.1l-26.4-6.8c-.7-.2-1.2-.8-1.3-1.5-.1-.7.3-1.4.9-1.8l23.3-12.7c.3-.1.6-.2.9-.2h3.1c1 0 1.8.8 1.8 1.8V313c0 .6-.3 1.1-.7 1.4-.4.2-.8.4-1.2.4zm-21.5-9.2l19.7 5.1v-15.3h-.8L353 305.6z" fill="#4D1D35"/>
  <path fill="#F16D76" d="M369.4 284.3h12v21.5h-12z"/>
  <path d="M381.4 307.6h-12c-1 0-1.8-.8-1.8-1.8v-21.5c0-1 .8-1.8 1.8-1.8h12c1 0 1.8.8 1.8 1.8v21.5c0 1-.8 1.8-1.8 1.8zm-10.2-3.6h8.4v-17.9h-8.4V304z" fill="#4D1D35"/>
  <path d="M374.5 314.8c-.6 0-1.1-.3-1.5-.7l-5.1-7.1c-.4-.5-.4-1.3-.1-1.9.3-.6.9-1 1.6-1h5.1c1 0 1.8.8 1.8 1.8v7.1c0 .8-.5 1.5-1.2 1.7-.2 0-.4.1-.6.1z" fill="#4D1D35"/>
  <path d="M351.8 158.8l-6.5 38.5c-3.5 20.6 10.3 40.1 30.9 43.6l7.8 1.3-1.1 6.5c-.7 3.9 2 7.6 5.9 8.3l7.8 1.3c3.9.7 7.6-2 8.3-5.9l1.1-6.5 1.4-8.5 11.4-67.3-67-11.3z" fill="#EFC7AF"/>
  <path d="M397.8 260.2c-.5 0-1 0-1.5-.1l-7.8-1.3c-4.9-.8-8.2-5.5-7.3-10.4l.8-4.7-6.1-1c-10.4-1.8-19.5-7.5-25.6-16.1-6.1-8.6-8.5-19.1-6.7-29.5l6.5-38.5c.1-.5.3-.9.7-1.2.4-.3.9-.4 1.3-.3l67.1 11.4c.5.1.9.3 1.2.7.3.4.4.9.3 1.3l-14 82.2c-.4 2.4-1.7 4.4-3.7 5.8-1.5 1.1-3.3 1.7-5.2 1.7zm-44.5-99.3l-6.2 36.7c-1.6 9.5.6 19 6.1 26.9 5.6 7.8 13.8 13 23.3 14.7l7.8 1.3c.5.1.9.3 1.2.7.3.4.4.9.3 1.3l-1.1 6.5c-.5 2.9 1.5 5.7 4.4 6.2l7.8 1.3c1.4.2 2.9-.1 4-.9 1.2-.8 2-2.1 2.2-3.5l13.7-80.4-63.5-10.8z" fill="#4D1D35"/>
  <circle cx="354.4" cy="190.1" r="4.6" fill="#4D1D35"/>
  <circle cx="379" cy="196.4" r="4.6" fill="#4D1D35"/>
  <path d="M390.4 194.7c-.6 0-1.2-.3-1.5-.8-2.8-4.3-8.1-6.9-14.1-7-1 0-1.8-.8-1.8-1.8s.8-1.8 1.8-1.8c7.2.1 13.6 3.3 17 8.6.5.8.3 1.9-.5 2.5-.2.2-.6.3-.9.3zm-42.7-9.7c-.7 0-1.3-.4-1.6-1.1-.4-.9 0-2 .9-2.4 4.6-2 10-2.1 15.3-.3.9.3 1.4 1.3 1.1 2.3-.3.9-1.3 1.4-2.3 1.1-4.4-1.5-8.9-1.4-12.7.2-.3.2-.5.2-.7.2z" fill="#4D1D35"/>
  <path d="M399.7 178.9l-4.4 25.9 5.6 1 5.6 1 1 23.3 6.1 1s36.7-49.3 12.9-73.7c4.5-30.8-21.3-32.3-35.3-32.5-22.9-.3-37.5-27-38.9-27.6-3.2 8.2-4.2 26.8-2 33-5.7-2.4-13.2-9.7-13.2-9.7s-4.7 22.4 5 30.3c-6.4-1-9.9-1.7-9.9-1.7s2.5 12.8 22.8 10.1c14.6 2.5 45.7 11.2 45.7 11.2l-1 8.4z" fill="#706F6E"/>
  <path d="M413.6 232.9h-.3l-6.1-1c-.8-.1-1.5-.8-1.5-1.7l-.9-21.9-9.8-1.7c-.5-.1-.9-.3-1.2-.7-.3-.4-.4-.9-.3-1.3l4.4-25.9.9-6.8c-6.3-1.7-31.2-8.5-43.8-10.7-21.4 2.8-24.4-11.4-24.5-11.6-.1-.6.1-1.2.5-1.6.4-.4 1-.6 1.6-.5 0 0 1.8.4 5.1.9-6-10-2.5-27.3-2.3-28.1.1-.6.6-1.2 1.2-1.3.6-.2 1.3 0 1.8.4.1.1 4.8 4.6 9.4 7.6-1.1-8.5.1-23.2 2.9-30.2.2-.5.5-.8 1-1 .4-.2 1-.2 1.4 0 .7.3 1.1.8 2.5 2.9 4.8 6.7 17.5 24.4 35.7 24.6 11.6.1 24.5 1.5 32 10.2 4.8 5.6 6.5 13.4 5.2 23.4 9.7 10.5 10.4 26.8 2.2 47.2-6.2 15.4-15.2 27.6-15.6 28.1-.4.4-.9.7-1.5.7zm-4.4-4.4l3.6.6c4.7-6.7 33.2-49.2 12.4-70.5-.4-.4-.6-1-.5-1.5 1.4-9.3-.1-16.5-4.3-21.4-6.6-7.7-18.5-8.9-29.3-9-19.5-.2-33.3-18.8-38.2-25.6-2.3 8.9-2.7 23.8-1 28.6.2.7.1 1.4-.5 1.9-.5.5-1.3.6-1.9.3-3.9-1.7-8.5-5.4-11.3-7.8-.8 6.2-1.8 19.9 4.9 25.4.6.5.8 1.4.5 2.1-.3.7-1.1 1.2-1.9 1-2.8-.4-5-.8-6.7-1.1 2 3.1 7.1 7.7 19.6 6h.5c14.5 2.5 45.6 11.1 45.9 11.2.9.2 1.4 1.1 1.3 1.9l-1.1 8.3v.1l-4.1 24.2 9.5 1.6c.8.1 1.4.8 1.5 1.7l1.1 22zm-9.5-49.6z" fill="#4D1D35"/>
  <path d="M396.3 212.8c.9 2.5 3 4.5 5.7 4.9 4.1.7 8.1-2.4 8.9-7 .8-4.5-1.9-8.8-6.1-9.5-1.5-.3-3.1 0-4.4.7-2.3 1.1-4.7 9.5-4.1 10.9z" fill="#EFC7AF"/>
  <path d="M403.1 219.6c-.5 0-1 0-1.5-.1-3.2-.5-5.9-2.8-7.1-6-.3-.9.1-2 1.1-2.3.9-.3 2 .1 2.3 1.1.7 2 2.4 3.4 4.3 3.8 1.5.3 3-.2 4.3-1.2 1.3-1 2.2-2.6 2.5-4.3.7-3.9.1-5.9-4.9-7.5-1-.3-3.3 1-5.4 5-.5.9-1.5 1.2-2.4.7-.9-.5-1.2-1.5-.7-2.4 2.8-5.2 6.4-7.8 9.6-6.8 7.7 2.5 8.1 7 7.3 11.5-.4 2.6-1.8 5-3.8 6.6-1.6 1.2-3.6 1.9-5.6 1.9zm-32.6 11.6c-.5 0-1-.2-1.4-.6-6.9-8.1-4.3-15.6-3.1-18.8.1-.3.2-.5.2-.7.3-.9 1.3-1.4 2.3-1.1.9.3 1.4 1.3 1.1 2.3-.1.2-.2.5-.3.8-1.1 3-3.1 8.7 2.5 15.3.6.7.6 1.9-.2 2.5-.3.1-.7.3-1.1.3z" fill="#4D1D35"/>
  <path fill="#83B0DE" d="M358.3 222.6l-19.7-2.1 1.2-6.8 19.3 4.5"/>
  <path d="M358.3 224.4h-.2l-19.7-2.1c-.5-.1-.9-.3-1.2-.7-.3-.4-.4-.9-.3-1.4l1.2-6.8c.1-.5.4-.9.8-1.2.4-.3.9-.4 1.4-.3l19.3 4.5c.9.2 1.5 1.1 1.4 2l-.7 4.4c-.3 1-1.1 1.6-2 1.6zm-17.6-5.5l16.2 1.8.2-1.1-15.8-3.7-.6 3z" fill="#4D1D35"/>
  <path d="M316.9 209.8c-2.6-.5-5.5-.7-8.1-1.1-5.3-.9-11-1-14.3-5.9-1.6-2.6-2.2-6.9-.8-9.7 1.4-3 4.7-5.4 8-5.6 5.7-.4 12.3 7.5 5.7 11.5-1.2.6-3.7.8-5.1-.5-1.9-1.9.9-4.7-2-5.5-4-1.2-3.3 6.3-1.1 8.6 8.3 8.5 18.6-4.1 14-12.6-5.3-9.6-19.4-7.3-24 1.8-5 10.1.6 21.3 13.4 23.5 3.5.6 13 2.4 13 2.4l22.9 3.9 1.1-6.8-22.7-4z" fill="#F8DE6B"/>
  <path d="M338.6 222.3h-.3l-22.9-3.9c-.1 0-9.5-1.8-13-2.4-6.8-1.2-12.2-4.9-14.9-10.2-2.5-4.9-2.4-10.7.2-15.9 2.6-5.3 8.3-8.9 14.5-9 5.5-.1 10.1 2.5 12.6 7.1 3.2 5.8.5 12.8-3.9 16-4.1 3.1-9.1 2.6-12.9-1.4-2-2.1-3.1-7.3-1.5-10 .9-1.5 2.6-2.1 4.4-1.6 3 .9 2.7 3.4 2.6 4.5-.1 1-.1 1.2.1 1.4.7.7 2.2.6 3 .3 1.6-1 2.1-2.2 1.7-3.7-.8-2.4-3.9-4.6-6.4-4.4-2.6.1-5.3 2-6.5 4.6-1.2 2.3-.6 5.9.6 8 2.4 3.6 6.6 4.2 11 4.8l2.1.3c1 .2 2 .3 3 .4 1.6.2 3.2.4 4.7.7h.3l22.9 3.9c.5.1.9.3 1.2.7.3.4.4.9.3 1.3l-1.2 6.8c-.1 1.1-.8 1.7-1.7 1.7zm-36.1-37.8h-.3c-4.8.1-9.3 2.9-11.4 7-2.1 4.2-2.2 8.8-.2 12.7 2.2 4.3 6.7 7.3 12.3 8.3 3.5.6 12.9 2.4 13 2.4l21.1 3.6.6-3.2-20.7-3.5h-.5c-1.5-.3-3.2-.5-4.8-.7-1.1-.1-2.1-.3-3.2-.4-.7-.1-1.4-.2-2-.3-4.8-.7-10.2-1.5-13.5-6.4v-.1c-1.8-2.9-2.7-7.9-.8-11.5 1.7-3.7 5.7-6.4 9.5-6.5 4.1-.3 8.7 2.9 10 6.9 1 3.1-.2 6.1-3.3 7.9 0 0-.1 0-.1.1-2 1-5.3 1-7.2-.8-1.5-1.5-1.3-3.3-1.2-4.4 0-.2.1-.5.1-.7h-.1c-.2-.1-.3-.1-.3-.1s-.2.4-.3 1.3c-.1 1.7.6 3.6 1.3 4.3 3.5 3.6 6.7 2.2 8.2 1 3.1-2.3 5.1-7.5 2.9-11.4-1.8-3.6-5.1-5.5-9.1-5.5zm-2.4 10.2z" fill="#4D1D35"/>
  <path d="M287.3 285.6c-3.4-5.1-5.2-11-5.2-17.1v-9.2h-11.8v9.2c0 6.1-1.8 12.1-5.2 17.1l-1.1 1.6c-2.3 3.4-3.5 7.5-3.5 11.6v41.3h31.4v-41.3c0-4.1-1.2-8.2-3.5-11.6l-1.1-1.6z" fill="#7FB46B"/>
  <path d="M291.9 341.9h-31.4c-1 0-1.8-.8-1.8-1.8v-41.3c0-4.5 1.3-8.9 3.8-12.6l1.1-1.6c3.2-4.8 4.9-10.4 4.9-16.1v-9.2c0-1 .8-1.8 1.8-1.8H282c1 0 1.8.8 1.8 1.8v9.2c0 5.8 1.7 11.3 4.9 16.1l1.1 1.6c2.5 3.7 3.8 8.1 3.8 12.6v41.3c.1 1-.7 1.8-1.7 1.8zm-29.7-3.6h27.9v-39.5c0-3.8-1.1-7.5-3.2-10.6l-1.1-1.6c-3.6-5.4-5.5-11.6-5.5-18.1v-7.4h-8.2v7.4c0 6.5-1.9 12.8-5.5 18.1l-1.1 1.6c-2.1 3.1-3.2 6.8-3.2 10.6v39.5z" fill="#4D1D35"/>
  <path fill="#EFC7AF" d="M270 253h12.3v12.6H270z"/>
  <path d="M282.3 267.3H270c-1 0-1.8-.8-1.8-1.8V253c0-1 .8-1.8 1.8-1.8h12.3c1 0 1.8.8 1.8 1.8v12.6c0 .9-.8 1.7-1.8 1.7zm-10.5-3.5h8.8v-9h-8.8v9z" fill="#4D1D35"/>
  <path fill="#F8DE6B" d="M260.4 300.9h31.4v15.6h-31.4z"/>
  <path d="M291.9 318.3h-31.4c-1 0-1.8-.8-1.8-1.8v-15.6c0-1 .8-1.8 1.8-1.8h31.4c1 0 1.8.8 1.8 1.8v15.6c0 1-.8 1.8-1.8 1.8zm-29.7-3.6h27.9v-12h-27.9v12z" fill="#4D1D35"/>
  <path d="M98.2 271.9c4.5 0 8.3-3.3 8.9-7.9.6-4.9-2.9-9.4-7.8-10-36.1-4.4-57.1-31.2-64.1-82-.7-4.9-6.3-13.9-11.1-13.2-3.1.4-12.8 2.6-12.8 5.5-.1 7 6 8.3 6.3 10.2 4.4 32 14.5 56.5 29.9 72.9 12.9 13.7 29.7 22 49.8 24.4.2.1.5.1.9.1z" fill="#F0D0B3"/>
  <path d="M98.2 273.7c-.4 0-.9 0-1.3-.1-20.6-2.5-37.7-10.9-50.9-25-15.6-16.6-25.8-41.4-30.3-73.7-.2-.2-.7-.6-1-.9-2-1.5-5.3-4.1-5.3-9.8 0-5.2 13.8-7.2 14.4-7.2 1.8-.2 3.6.3 5.5 1.7 3.9 3 7.2 9.1 7.7 13 6.9 49.9 27.4 76.2 62.6 80.5 5.9.7 10.1 6.1 9.3 11.9-.7 5.5-5.3 9.6-10.7 9.6zM13 164.4c0 3.8 2.2 5.4 3.9 6.8 1.1.9 2.2 1.7 2.3 3 4.4 31.6 14.3 55.8 29.4 71.9 12.6 13.4 29 21.5 48.7 23.9.3 0 .6.1.9.1 3.6 0 6.6-2.7 7.1-6.3.5-3.9-2.3-7.5-6.2-8-37-4.5-58.5-31.9-65.7-83.6-.4-3.1-3.2-8.3-6.3-10.6-.7-.6-1.8-1.2-2.8-1.1-4.4.7-10.6 2.7-11.3 3.9z" fill="#4D1D35"/>
  <path fill="#83B0DE" d="M33.3 123.4L4.4 173.1l7.4 5 35.5-45.3"/>
  <g fill="#F8DE6B">
    <path d="M12.7 166.5c1.3-2 .9-4.6-.8-6.1l-4.6 7.9c1.9.7 4.2 0 5.4-1.8z"/>
    <circle cx="31.9" cy="132" r="2.7"/>
    <circle cx="23.2" cy="154.5" r="2.7"/>
    <path d="M37.5 138.3c-2.1-1.4-5-.9-6.4 1.2-1.4 2.1-.9 5 1.2 6.4 1.3.9 2.9 1 4.3.5l2.9-3.7c.2-1.6-.5-3.3-2-4.4zm-15.2 26.4c-.2-.5-.5-.9-1-1.2-1.3-.8-3-.5-3.8.7-.8 1.3-.5 3 .7 3.8.3.2.7.4 1.1.4l3-3.7z"/>
  </g>
  <path d="M11.8 179.9c-.3 0-.7-.1-1-.3l-7.3-5c-.8-.5-1-1.6-.5-2.4l28.9-49.7c.2-.4.7-.7 1.1-.8.5-.1 1 0 1.4.3l13.9 9.4c.4.3.7.7.8 1.2.1.5-.1 1-.4 1.4l-35.5 45.3c-.3.3-.9.6-1.4.6zm-5-7.3l4.6 3.1 33.3-42.5-10.7-7.3-27.2 46.7z" fill="#4D1D35"/>
  <path d="M21.9 147l7.6 6.7-14.2 16.2c-1.7 1.9-4.3 2.3-6 .8l-4.7-4.1c-2.3-2-2.2-5.7.1-8.4l8.8-10.1c2.4-2.6 6.1-3.1 8.4-1.1z" fill="#F0D0B3"/>
  <path d="M11.7 173.3c-1.3 0-2.6-.5-3.6-1.3l-4.7-4.1c-1.5-1.3-2.3-3.2-2.3-5.3 0-2 .8-4 2.2-5.6l8.8-10.1c1.4-1.6 3.3-2.6 5.3-2.9 2.1-.3 4.1.3 5.6 1.6l7.6 6.7c.4.3.6.8.6 1.2 0 .5-.1.9-.4 1.3L16.6 171c-1.1 1.2-2.5 2-4.1 2.3h-.8zm6.8-25.8h-.6c-1.1.2-2.2.8-3.1 1.7L6 159.3c-.8 1-1.3 2.1-1.3 3.3 0 1.1.4 2 1.1 2.6l4.7 4.1c.5.5 1.2.5 1.5.4.7-.1 1.4-.5 1.9-1.1l13-14.8-6.3-5.5c-.5-.5-1.2-.8-2.1-.8z" fill="#4D1D35"/>
  <path d="M35 171.4c.9-7.5 1.9-17 1.1-17.8-.5-.5-5-1.8-8.4-2.8-2-.6-4.2.5-4.8 2.6-.7 2.2.6 4.5 2.8 5.1l3.3.8v2.4s-8.5 2.3-5.6 11.8c3 9.5 10.6 5.4 11.6-2.1z" fill="#F0D0B3"/>
  <path d="M23.4 175.3c-.8 0-1.5-.5-1.7-1.3-1.1-3.5-.9-6.6.5-9.1 1.3-2.3 3.3-3.6 4.7-4.3l-1.6-.4c-1.5-.4-2.9-1.4-3.7-2.8-.8-1.4-.9-3.1-.4-4.6 1-2.9 4.1-4.6 7-3.7 8.2 2.3 8.7 2.9 9.1 3.3 1.1 1.1 1.2 2.9-.9 19.9-.1 1-1 1.7-2 1.6-1-.1-1.7-1-1.6-2 .6-4.8 1.8-14.3 1.6-16.9-.8-.3-2.7-1-7.3-2.3-1.1-.3-2.3.3-2.6 1.4-.2.6-.1 1.2.2 1.7.3.5.8.9 1.4 1.1l3.3.8c.8.2 1.4.9 1.4 1.8v2.4c0 .8-.5 1.5-1.3 1.7 0 0-2.8.8-4.1 3.3-.9 1.7-1 3.8-.2 6.3.3.9-.2 1.9-1.2 2.2-.3-.1-.4-.1-.6-.1z" fill="#4D1D35"/>
  <path d="M151.4 271.9c-4.5 0-8.3-3.3-8.9-7.9-.6-4.9 2.9-9.4 7.8-10 36.1-4.4 57.1-31.2 64.1-82 .7-4.9 6.3-13.9 11.1-13.2 3.1.4 12.8 2.6 12.8 5.5.1 7-6 8.3-6.3 10.2-4.4 32-14.5 56.5-29.9 72.9-12.9 13.7-29.7 22-49.8 24.4-.2.1-.6.1-.9.1z" fill="#F0D0B3"/>
  <path d="M151.4 273.7c-5.4 0-10-4.1-10.6-9.4-.7-5.9 3.5-11.2 9.3-11.9 35.2-4.3 55.7-30.6 62.6-80.5.5-3.9 3.8-10 7.7-13 1.9-1.4 3.7-2 5.5-1.7.6.1 14.3 2 14.3 7.2 0 5.6-3.3 8.2-5.3 9.8-.4.3-.8.7-1 .9-4.5 32.3-14.7 57.1-30.3 73.7-13.2 14.1-30.3 22.5-50.9 25-.5-.2-.9-.1-1.3-.1zM225 160.6c-.9 0-1.9.6-2.5 1.1-3.1 2.3-5.9 7.5-6.3 10.6-7.2 51.7-28.7 79-65.7 83.6-3.9.5-6.7 4.1-6.2 8 .4 3.6 3.5 6.3 7.1 6.3.3 0 .6 0 .9-.1 19.7-2.4 36.1-10.4 48.7-23.9 15.1-16.1 25-40.3 29.4-71.9.2-1.3 1.2-2.1 2.3-3 1.7-1.3 3.9-3 3.9-6.8-.8-1.3-6.9-3.2-11.3-3.8-.1-.1-.2-.1-.3-.1z" fill="#4D1D35"/>
  <path d="M227.7 147l-7.6 6.7 14.2 16.2c1.7 1.9 4.3 2.3 6 .8l4.7-4.1c2.3-2 2.2-5.7-.1-8.4l-8.8-10.1c-2.4-2.6-6.2-3.1-8.4-1.1z" fill="#F0D0B3"/>
  <path d="M237.9 173.3c-.3 0-.6 0-.8-.1-1.6-.2-3-1-4.1-2.3l-14.2-16.2c-.3-.4-.5-.8-.4-1.3 0-.5.2-.9.6-1.2l7.6-6.7c3-2.6 7.9-2.1 10.8 1.3l8.8 10.1c1.4 1.6 2.2 3.6 2.2 5.6 0 2.1-.8 4-2.3 5.3l-4.7 4.1c-1 1-2.2 1.4-3.5 1.4zm-15.3-19.5l13 14.8c.5.6 1.2 1 1.9 1.1.4.1 1 .1 1.5-.4l4.7-4.1c.7-.6 1.1-1.5 1.1-2.6 0-1.2-.5-2.3-1.3-3.3l-8.8-10.1c-1.7-1.9-4.3-2.3-5.8-1l-6.3 5.6z" fill="#4D1D35"/>
  <path d="M214.6 171.4c-.9-7.5-1.9-17-1.1-17.8.5-.5 5-1.8 8.4-2.8 2-.6 4.2.5 4.8 2.6.7 2.2-.6 4.5-2.8 5.1l-3.3.8v2.4s8.5 2.3 5.6 11.8c-3 9.5-10.7 5.4-11.6-2.1z" fill="#F0D0B3"/>
  <path d="M226.2 175.3c-.2 0-.4 0-.5-.1-.9-.3-1.5-1.3-1.2-2.2.8-2.5.7-4.7-.2-6.3-1.3-2.4-4.1-3.2-4.1-3.2-.8-.2-1.3-.9-1.3-1.7v-2.4c0-.8.6-1.6 1.4-1.8l3.3-.8c.6-.1 1.1-.5 1.4-1.1.3-.5.4-1.2.2-1.7-.4-1.1-1.5-1.7-2.6-1.4-4.7 1.3-6.6 2-7.3 2.3-.2 2.6 1 12.2 1.6 16.9.1 1-.6 1.9-1.6 2-1 .1-1.9-.6-2-1.6-2.1-17-1.9-18.8-.9-19.9.4-.4.9-.9 9.1-3.3 3-.8 6.1.8 7 3.7.5 1.5.3 3.2-.4 4.6-.8 1.4-2.1 2.4-3.7 2.8l-1.6.4c1.4.7 3.4 2 4.7 4.3 1.4 2.6 1.6 5.6.5 9.1-.4.9-1.1 1.4-1.8 1.4z" fill="#4D1D35"/>
  <path d="M189.2 261.8l-12.6-19.5c-7.6 4.9-16.4 7.9-26.7 9.2v.3h-48.8v-.3c-10.3-1.3-19-4.3-26.7-9.2L62 261.8c10.1 6.5 21.9 10.7 35 12.5.9 19.3.7 41.6 0 65.3h57.2c-1.4-22.6-1.7-44.5 0-65.3 13.1-1.8 24.9-6 35-12.5z" fill="#F16D76"/>
  <path d="M154.2 341.3H97c-.5 0-.9-.2-1.3-.5-.3-.3-.5-.8-.5-1.3.8-26.2.8-46.5.1-63.6-12.8-1.9-24.3-6.2-34.2-12.5-.8-.5-1.1-1.6-.5-2.5l12.6-19.5c.3-.4.7-.7 1.1-.8.5-.1.9 0 1.3.2 7.4 4.8 15.9 7.7 25.9 8.9.3 0 .5.1.7.3H149c.2-.1.5-.2.7-.3 10-1.2 18.5-4.1 25.9-8.9.4-.3.9-.3 1.3-.2.5.1.9.4 1.1.8l12.6 19.5c.5.8.3 1.9-.5 2.5-10 6.4-21.5 10.6-34.3 12.6-1.5 18.5-1.4 39.3.1 63.6 0 .5-.1 1-.5 1.3-.2.2-.7.4-1.2.4zm-55.4-3.6h53.5c-1.5-24.2-1.4-45.1.1-63.6.1-.8.7-1.5 1.5-1.6 12.2-1.7 23.2-5.5 32.7-11.3L176 244.7c-7.3 4.4-15.4 7.1-24.9 8.4-.3.3-.7.4-1.2.4h-48.8c-.4 0-.8-.2-1.2-.4-9.5-1.3-17.7-4-24.9-8.4l-10.6 16.5c9.5 5.8 20.5 9.6 32.7 11.3.9.1 1.5.8 1.5 1.7 1 17.2 1 37.4.2 63.5z" fill="#4D1D35"/>
  <path d="M1.8 348.4c0 4.6 3.7 8.3 8.3 8.3h452.6c4.6 0 8.3-3.7 8.3-8.3 0-4.6-3.7-8.3-8.3-8.3H10.1c-4.6 0-8.3 3.7-8.3 8.3z" fill="#F8DE6B"/>
  <path d="M462.8 358.5H10.1C4.5 358.5 0 354 0 348.4s4.5-10.1 10.1-10.1h452.6c5.6 0 10.1 4.5 10.1 10.1.1 5.6-4.4 10.1-10 10.1zM10.1 341.9c-3.6 0-6.6 2.9-6.6 6.6 0 3.6 2.9 6.6 6.6 6.6h452.6c3.6 0 6.6-2.9 6.6-6.6 0-3.6-2.9-6.6-6.6-6.6H10.1z" fill="#4D1D35"/>
  <path fill="#CC7B29" d="M163.3 257.3H243v32.9h-79.7z"/>
  <path fill="#AE6428" d="M163.3 271.2H243v7.3h-79.7z"/>
  <path d="M242.9 292.1h-79.7c-1 0-1.8-.8-1.8-1.8v-32.9c0-1 .8-1.8 1.8-1.8h79.7c1 0 1.8.8 1.8 1.8v32.9c0 1-.8 1.8-1.8 1.8zm-77.8-3.6h76.1v-29.3h-76.1v29.3z" fill="#4D1D35"/>
  <path d="M245.3 256.9c0-2.3-1.9-4.1-4.1-4.1H165c-2.3 0-4.1 1.9-4.1 4.1v1.6c0 2.3 1.9 4.1 4.1 4.1 1.5 0 2.6 1.2 2.6 2.6v7.3c0 1.9 1.5 3.4 3.4 3.4s3.4-1.5 3.4-3.4v-5.1c0-2.7 2.2-4.9 4.9-4.9h6.3c.8 0 1.5.7 1.5 1.5v12.6c0 1.9 1.5 3.4 3.4 3.4s3.4-1.5 3.4-3.4V264c0-.8.7-1.5 1.5-1.5h11c2.4 0 4.4 2 4.4 4.4v10.9c0 1.9 1.5 3.4 3.4 3.4s3.4-1.5 3.4-3.4v-10.9c0-2.4 2-4.4 4.4-4.4h1.6c1.8 0 3.2 1.4 3.2 3.2v.5c0 2.3 1.9 4.2 4.2 4.2 2.3 0 4.2-1.9 4.2-4.2v-.5c0-1.8 1.4-3.2 3.2-3.2h2.6c2.3 0 4.1-1.9 4.1-4.1v-1.5z" fill="#F17FB1"/>
  <path d="M214.3 283.1c-2.9 0-5.2-2.3-5.2-5.2V267c0-1.4-1.2-2.6-2.6-2.6h-10.7v12.2c0 2.9-2.3 5.2-5.2 5.2-2.9 0-5.2-2.3-5.2-5.2v-12.2h-6c-1.7 0-3.1 1.4-3.1 3.1v5.1c0 2.9-2.3 5.2-5.2 5.2-2.9 0-5.2-2.3-5.2-5.2v-7.3c0-.5-.4-.9-.9-.9-3.3 0-5.9-2.7-5.9-5.9v-1.6c0-3.3 2.7-5.9 5.9-5.9h76.2c3.3 0 5.9 2.7 5.9 5.9v1.6c0 3.3-2.7 5.9-5.9 5.9h-2.6c-.8 0-1.4.6-1.4 1.4v.5c0 3.3-2.7 6-6 6s-6-2.7-6-6v-.5c0-.8-.6-1.4-1.4-1.4h-1.6c-1.4 0-2.6 1.2-2.6 2.6v10.9c0 2.9-2.4 5.2-5.3 5.2zm-18.8-22.2h11c3.4 0 6.2 2.8 6.2 6.2V278c0 .9.7 1.6 1.6 1.6.9 0 1.6-.7 1.6-1.6v-10.9c0-3.4 2.8-6.2 6.2-6.2h1.6c2.8 0 5 2.2 5 5v.5c0 1.3 1.1 2.4 2.4 2.4 1.3 0 2.4-1.1 2.4-2.4v-.5c0-2.8 2.2-5 5-5h2.6c1.3 0 2.4-1.1 2.4-2.4v-1.6c0-1.3-1.1-2.4-2.4-2.4H165c-1.3 0-2.4 1.1-2.4 2.4v1.6c0 1.3 1.1 2.4 2.4 2.4 2.4 0 4.4 2 4.4 4.4v7.3c0 .9.7 1.6 1.6 1.6.9 0 1.6-.7 1.6-1.6v-5.1c0-3.7 3-6.7 6.7-6.7h6.3c1.8 0 3.2 1.5 3.2 3.2v12.6c0 .9.7 1.6 1.6 1.6.9 0 1.6-.7 1.6-1.6V264c.2-1.7 1.7-3.1 3.5-3.1z" fill="#4D1D35"/>
  <path d="M181.2 257.7h-14.3c-.7 0-1.2-.5-1.2-1.2s.5-1.2 1.2-1.2h14.3c.7 0 1.2.5 1.2 1.2s-.5 1.2-1.2 1.2zm11 0h-5c-.7 0-1.2-.5-1.2-1.2s.5-1.2 1.2-1.2h5c.7 0 1.2.5 1.2 1.2s-.6 1.2-1.2 1.2z" fill="#F2BCD6"/>
  <path d="M261 331.6H145.2c-2.3 0-4.2 1.9-4.2 4.2 0 2.3 1.9 4.2 4.2 4.2H261c2.3 0 4.2-1.9 4.2-4.2 0-2.3-1.9-4.2-4.2-4.2z" fill="#EEEDE8"/>
  <path d="M261 341.9H145.2c-3.3 0-6-2.7-6-6s2.7-6 6-6H261c3.3 0 6 2.7 6 6 0 3.2-2.7 6-6 6zm-115.8-8.5c-1.4 0-2.5 1.1-2.5 2.5s1.1 2.5 2.5 2.5H261c1.4 0 2.5-1.1 2.5-2.5s-1.1-2.5-2.5-2.5H145.2z" fill="#4D1D35"/>
  <path fill="#CC7B29" d="M151.2 296h103.9v35.6H151.2z"/>
  <path fill="#AE6428" d="M151.2 314h103.9v9.6H151.2z"/>
  <path d="M255 333.4H151.2c-1 0-1.8-.8-1.8-1.8V296c0-1 .8-1.8 1.8-1.8H255c1 0 1.8.8 1.8 1.8v35.6c0 1-.8 1.8-1.8 1.8zm-102-3.6h100.3v-32H153v32z" fill="#4D1D35"/>
  <path d="M258.2 295.4c0-3-2.4-5.4-5.4-5.4h-99.2c-3 0-5.4 2.4-5.4 5.4v2.1c0 3 2.4 5.4 5.4 5.4 1.9 0 3.5 1.5 3.5 3.5v6.8c0 2.5 2 4.5 4.5 4.5s4.5-2 4.5-4.5v-3.9c0-3.5 2.9-6.4 6.4-6.4h3.7c3.5 0 6.4 2.9 6.4 6.4v.1c0 2.5 2 4.5 4.5 4.5s4.5-2 4.5-4.5v-.1c0-3.5 2.9-6.4 6.4-6.4h9.9c3.2 0 5.8 2.6 5.8 5.8v4.5c0 2.5 2 4.5 4.5 4.5s4.5-2 4.5-4.5v-4.5c0-3.2 2.6-5.8 5.8-5.8h2.1c2.3 0 4.2 1.9 4.2 4.2v11.8c0 3 2.4 5.4 5.4 5.4 3 0 5.4-2.4 5.4-5.4v-11.8c0-2.3 1.9-4.2 4.2-4.2h3.4c3 0 5.4-2.4 5.4-5.4v-2.1z" fill="#F17FB1"/>
  <path d="M239.7 326.1c-4 0-7.2-3.2-7.2-7.2v-11.8c0-1.3-1.1-2.4-2.4-2.4H228c-2.2 0-4 1.8-4 4v4.5c0 3.5-2.8 6.3-6.3 6.3s-6.3-2.8-6.3-6.3v-4.5c0-2.2-1.8-4-4-4h-9.9c-2.5 0-4.6 2.1-4.6 4.6v.1c0 3.5-2.8 6.3-6.3 6.3s-6.3-2.8-6.3-6.3v-.1c0-2.5-2.1-4.6-4.6-4.6H172c-2.5 0-4.6 2.1-4.6 4.6v3.9c0 3.5-2.8 6.3-6.3 6.3s-6.3-2.8-6.3-6.3v-6.8c0-.9-.7-1.7-1.7-1.7-4 0-7.2-3.2-7.2-7.2v-2.1c0-4 3.2-7.2 7.2-7.2h99.3c4 0 7.2 3.2 7.2 7.2v2.1c0 4-3.2 7.2-7.2 7.2H249c-1.3 0-2.4 1.1-2.4 2.4v11.8c.3 4-2.9 7.2-6.9 7.2zm-11.7-25h2.1c3.3 0 6 2.7 6 6v11.8c0 2 1.6 3.7 3.7 3.7 2 0 3.7-1.6 3.7-3.7v-11.8c0-3.3 2.7-6 6-6h3.4c2 0 3.6-1.6 3.6-3.6v-2.1c0-2-1.6-3.6-3.6-3.6h-99.3c-2 0-3.6 1.6-3.6 3.6v2.1c0 2 1.6 3.6 3.6 3.6 2.9 0 5.2 2.4 5.2 5.2v6.8c0 1.5 1.2 2.7 2.7 2.7 1.5 0 2.7-1.2 2.7-2.7v-3.9c0-4.5 3.7-8.2 8.2-8.2h3.7c4.5 0 8.2 3.7 8.2 8.2v.1c0 1.5 1.2 2.7 2.7 2.7 1.5 0 2.7-1.2 2.7-2.7v-.1c0-4.5 3.7-8.2 8.2-8.2h9.9c4.2 0 7.5 3.4 7.5 7.5v4.5c0 1.5 1.2 2.7 2.7 2.7 1.5 0 2.7-1.2 2.7-2.7v-4.5c-.3-4 3.1-7.4 7.3-7.4z" fill="#4D1D35"/>
  <path d="M169.3 296.1H155c-.7 0-1.2-.5-1.2-1.2s.5-1.2 1.2-1.2h14.3c.7 0 1.2.5 1.2 1.2s-.6 1.2-1.2 1.2zm10.6 0h-4.5c-.7 0-1.2-.5-1.2-1.2s.5-1.2 1.2-1.2h4.5c.7 0 1.2.5 1.2 1.2s-.6 1.2-1.2 1.2z" fill="#F2BCD6"/>
  <path fill="#F8DE6B" d="M200.3 230.3h5.6v22.4h-5.6z"/>
  <path fill="#78ABDB" d="M200.3 242.7v3.4l5.6 4.6v-3.4m-5.6-12.7v3.5l5.6 4.6v-3.5"/>
  <path d="M205.9 254.5h-5.6c-1 0-1.8-.8-1.8-1.8v-22.4c0-1 .8-1.8 1.8-1.8h5.6c1 0 1.8.8 1.8 1.8v22.4c0 1-.8 1.8-1.8 1.8zm-3.8-3.6h2v-18.8h-2v18.8z" fill="#4D1D35"/>
  <path d="M203.1 209s-5.1 9.7-5.1 12.6c0 2.8 2.3 5.1 5.1 5.1s5.1-2.3 5.1-5.1c0-2.9-5.1-12.6-5.1-12.6z" fill="#F16D76"/>
  <path d="M203.1 228.5c-3.8 0-6.9-3.1-6.9-6.9 0-3.1 4.5-11.7 5.4-13.4.3-.6.9-1 1.6-1s1.3.4 1.6 1c.9 1.7 5.4 10.3 5.4 13.4-.2 3.8-3.3 6.9-7.1 6.9zm0-15.6c-1.8 3.7-3.4 7.5-3.4 8.6 0 1.9 1.5 3.4 3.4 3.4s3.4-1.5 3.4-3.4c0-1.1-1.6-4.9-3.4-8.6z" fill="#4D1D35"/>
  <path fill="#F16D76" d="M223.3 229.8h5.6v22.4h-5.6z"/>
  <path fill="#F8DE6B" d="M223.3 242.1v3.5l5.6 4.5v-3.4m-5.6-12.6v3.4l5.6 4.6v-3.4"/>
  <path d="M228.9 254h-5.6c-1 0-1.8-.8-1.8-1.8v-22.4c0-1 .8-1.8 1.8-1.8h5.6c1 0 1.8.8 1.8 1.8v22.4c0 1-.8 1.8-1.8 1.8zm-3.8-3.6h2v-18.8h-2v18.8z" fill="#4D1D35"/>
  <path d="M226.1 208.4s-5.1 9.7-5.1 12.6c0 2.8 2.3 5.1 5.1 5.1s5.1-2.3 5.1-5.1c.1-2.8-5.1-12.6-5.1-12.6z" fill="#F16D76"/>
  <path d="M226.1 227.9c-3.8 0-6.9-3.1-6.9-6.9 0-3.1 4.5-11.7 5.4-13.4.3-.6.9-1 1.6-1 .7 0 1.3.4 1.6 1 .9 1.7 5.4 10.3 5.4 13.4-.2 3.8-3.3 6.9-7.1 6.9zm0-15.5c-1.8 3.7-3.4 7.5-3.4 8.6 0 1.9 1.5 3.4 3.4 3.4s3.4-1.5 3.4-3.4c0-1.1-1.6-4.9-3.4-8.6z" fill="#4D1D35"/>
  <path fill="#F16D76" d="M177.3 229.8h5.6v22.4h-5.6z"/>
  <path fill="#F8DE6B" d="M177.3 242.1v3.5l5.6 4.5v-3.4m-5.6-12.6v3.4l5.6 4.6v-3.4"/>
  <path d="M182.9 254h-5.6c-1 0-1.8-.8-1.8-1.8v-22.4c0-1 .8-1.8 1.8-1.8h5.6c1 0 1.8.8 1.8 1.8v22.4c0 1-.8 1.8-1.8 1.8zm-3.8-3.6h2v-18.8h-2v18.8z" fill="#4D1D35"/>
  <path d="M180.1 208.4s-5.1 9.7-5.1 12.6c0 2.8 2.3 5.1 5.1 5.1s5.1-2.3 5.1-5.1-5.1-12.6-5.1-12.6z" fill="#F16D76"/>
  <path d="M180.1 227.9c-3.8 0-6.9-3.1-6.9-6.9 0-3.1 4.5-11.7 5.4-13.4.3-.6.9-1 1.6-1 .7 0 1.3.4 1.6 1 .9 1.7 5.4 10.3 5.4 13.4-.2 3.8-3.3 6.9-7.1 6.9zm0-15.5c-1.8 3.7-3.4 7.5-3.4 8.6 0 1.9 1.5 3.4 3.4 3.4s3.4-1.5 3.4-3.4c-.1-1.1-1.6-4.9-3.4-8.6z" fill="#4D1D35"/>
  <path d="M147.2 148.6c1.2-5.4-3.8-29.1-25.1-25.2s-23.7-.4-23.7-.4 5.9 6.7 8.1 7.5c-4 2.3-12.5 15.2-12.5 15.2s8.3-3 8.9-3c-1 1.6-1 19.3-1 19.3s44.1-8 45.3-13.4z" fill="#F8DE6B"/>
  <path d="M101.8 163.9c-1 0-1.8-.8-1.8-1.8 0-5.8.1-12.7.6-16.8-1.7.6-4 1.4-6.1 2.1-.7.3-1.5 0-2-.6s-.5-1.5-.1-2.1c.8-1.2 6.7-10 11-14.1-2.2-1.8-4.8-4.7-6.1-6.1-.3-.3-.5-.5-.6-.7-.4-.8-.2-1.8.5-2.3.7-.5 1.8-.4 2.4.3l.2.2c.5.4 4.6 2.9 21.9-.3 7.8-1.4 14.5.5 19.5 5.6 6.6 6.8 8.5 17.7 7.6 21.7-.2 1-1.2 1.6-2.1 1.4-1-.2-1.6-1.2-1.4-2.1.6-2.8-.9-12.5-6.7-18.4-4.2-4.3-9.6-5.8-16.3-4.6-8.5 1.6-14.1 1.9-18 1.6 1.2 1.1 2.1 1.9 2.6 2.1.6.2 1.1.8 1.1 1.5.1.7-.3 1.3-.9 1.7-1.9 1.1-5.7 5.8-8.8 10.1 3.6-1.2 4-1.2 4.3-1.2.6 0 1.2.3 1.6.9.3.5.3 1.2 0 1.7-.5 1.5-.8 10.5-.8 18.5.2.9-.6 1.7-1.6 1.7zm2.6-20.3c0 .1 0 .1 0 0 0 .1 0 .1 0 0z" fill="#4D1D35"/>
  <path d="M102.9 161.4v22.2h44.4v-22.2c0-12.2-9.9-22.2-22.2-22.2-12.3 0-22.2 9.9-22.2 22.2z" fill="#F16D76"/>
  <path d="M147.2 185.4h-44.4c-1 0-1.8-.8-1.8-1.8v-22.2c0-13.2 10.8-24 24-24s24 10.8 24 24v22.2c0 1-.8 1.8-1.8 1.8zm-42.6-3.6h40.8v-20.4c0-11.2-9.1-20.4-20.4-20.4-11.2 0-20.4 9.1-20.4 20.4v20.4z" fill="#4D1D35"/>
  <path d="M161.4 211.9c0 8.7-4 26 0 33.7-3-1.6-10.1-5.8-10.1-5.8s-6.5 7.5-5.8 10.9c-3.9-3.6-13.6-7.8-13.6-7.8l-14.3.4s-1.4 7.7-7.3 11c.5-3.5-2.7-12.2-2.7-12.2l-3.3 8.6-6.9-38.8c.2 0 64-8.7 64 0z" fill="#F8DE6B"/>
  <path d="M110.4 256.1c-.4 0-.7-.1-1-.3-.6-.4-.9-1-.8-1.7.2-1.3-.4-3.9-1.1-6.5l-1.4 3.8c-.3.8-1 1.2-1.8 1.1-.8-.1-1.5-.7-1.6-1.5l-6.9-38.8c-.2-1 .5-1.9 1.4-2.1 1-.2 1.9.5 2.1 1.4l5.8 32.4 1-2.5c.3-.7.9-1.2 1.7-1.2.7 0 1.4.5 1.7 1.2.2.7 1.9 5.4 2.6 9.4 3.1-3.2 3.9-7.8 3.9-7.8.1-.8.9-1.4 1.7-1.5l14.3-.4c.3 0 .5 0 .8.1.3.1 7 3 11.6 6.2 1.3-3.5 4.5-7.4 5.7-8.8.6-.7 1.5-.8 2.3-.4 0 0 3.1 1.9 6.1 3.6-1.1-5.8-.2-13.3.5-20.2.4-3.7.8-7.2.8-9.7 0-1 .8-1.8 1.8-1.8s1.8.8 1.8 1.8c0 2.8-.4 6.3-.8 10.1-.9 8-1.9 17.9.6 22.7.4.7.2 1.5-.3 2.1-.6.6-1.4.7-2.1.3-2.3-1.2-6.6-3.8-8.8-5-2.5 3.1-4.7 6.9-4.4 8.2.2.8-.2 1.5-.9 1.9-.7.4-1.5.3-2.1-.3-3.2-3-11-6.6-12.7-7.3l-12.5.4c-.7 2.6-2.8 8-7.8 10.8-.6.2-.9.3-1.2.3z" fill="#4D1D35"/>
  <path d="M116.8 242.1v9.6c0 4.2 3.4 7.6 7.6 7.6h1.2c4.2 0 7.6-3.4 7.6-7.6v-9.6h-16.4z" fill="#F0D0B3"/>
  <path d="M125.6 261.2h-1.2c-5.2 0-9.4-4.2-9.4-9.4v-9.6c0-1 .8-1.8 1.8-1.8h16.5c1 0 1.8.8 1.8 1.8v9.6c0 5.1-4.3 9.4-9.5 9.4zm-7-17.3v7.8c0 3.2 2.6 5.9 5.9 5.9h1.2c3.2 0 5.9-2.6 5.9-5.9v-7.8h-13z" fill="#4D1D35"/>
  <path d="M125.6 261.2h-1.2c-5.2 0-9.4-4.2-9.4-9.4v-9.6c0-1 .8-1.8 1.8-1.8h16.5c1 0 1.8.8 1.8 1.8v9.6c0 5.1-4.3 9.4-9.5 9.4zm-7-17.3v7.8c0 3.2 2.6 5.9 5.9 5.9h1.2c3.2 0 5.9-2.6 5.9-5.9v-7.8h-13z" fill="#4D1D35"/>
  <path d="M85.1 176.6V208H165v-31.3c0-17-13.8-30.9-30.9-30.9h-18.2c-17 0-30.8 13.8-30.8 30.8z" fill="#F8DE6B"/>
  <path d="M165 209.7H85.1c-1 0-1.8-.8-1.8-1.8v-31.3c0-18 14.6-32.6 32.6-32.6h18.2c18 0 32.6 14.6 32.6 32.6V208c.1.9-.7 1.7-1.7 1.7zm-78.1-3.5h76.4v-29.6c0-16-13-29.1-29.1-29.1H116c-16 0-29.1 13-29.1 29.1v29.6z" fill="#4D1D35"/>
  <path d="M137.2 163.2h-24.3c-11.8 0-21.4 9.6-21.4 21.4v30.7c0 16.7 13.6 30.3 30.3 30.3h6.4c16.7 0 30.3-13.6 30.3-30.3v-30.7c0-11.8-9.5-21.4-21.3-21.4z" fill="#F0D0B3"/>
  <path d="M128.2 247.4h-6.4c-17.7 0-32.1-14.4-32.1-32.1v-30.7c0-12.8 10.4-23.2 23.2-23.2h24.3c12.8 0 23.2 10.4 23.2 23.2v30.7c-.1 17.7-14.5 32.1-32.2 32.1zM112.9 165c-10.8 0-19.6 8.8-19.6 19.6v30.7c0 15.7 12.8 28.5 28.5 28.5h6.4c15.7 0 28.5-12.8 28.5-28.5v-30.7c0-10.8-8.8-19.6-19.6-19.6h-24.2z" fill="#4D1D35"/>
  <path d="M128.2 247.4h-6.4c-17.7 0-32.1-14.4-32.1-32.1v-30.7c0-12.8 10.4-23.2 23.2-23.2h24.3c12.8 0 23.2 10.4 23.2 23.2v30.7c-.1 17.7-14.5 32.1-32.2 32.1zM112.9 165c-10.8 0-19.6 8.8-19.6 19.6v30.7c0 15.7 12.8 28.5 28.5 28.5h6.4c15.7 0 28.5-12.8 28.5-28.5v-30.7c0-10.8-8.8-19.6-19.6-19.6h-24.2z" fill="#4D1D35"/>
  <path d="M145.6 204.6c-.4 0-.7-.1-1.1-.4-3.3-2.5-6.4-2.5-9.8 0-.8.6-1.9.4-2.5-.4-.6-.8-.4-1.9.4-2.5 4.6-3.4 9.4-3.4 14 0 .8.6 1 1.7.4 2.5-.3.5-.9.8-1.4.8zm-41.1 0c-.5 0-1.1-.3-1.4-.7-.6-.8-.4-1.9.4-2.5 4.6-3.4 9.4-3.4 14 0 .8.6 1 1.7.4 2.5s-1.7 1-2.5.4c-3.3-2.5-6.4-2.5-9.8 0-.4.1-.7.3-1.1.3zm43.7-10c-.2 0-.4 0-.6-.1-6.7-2.5-13.8-1.6-16.1-.5-.9.4-2 0-2.4-.9-.4-.9 0-2 .9-2.4 3.3-1.5 11.3-2.4 18.8.4.9.3 1.4 1.4 1.1 2.3-.3.8-.9 1.2-1.7 1.2zm-46.4 0c-.7 0-1.4-.4-1.7-1.2-.3-.9.1-2 1.1-2.3 7.5-2.8 15.5-1.9 18.8-.4.9.4 1.3 1.5.9 2.4-.4.9-1.5 1.3-2.4.9-2.3-1-9.4-2-16.1.5-.1.1-.4.1-.6.1z" fill="#4D1D35"/>
  <path d="M112.6 223.9c0 6.9 5.6 12.5 12.4 12.5 6.9 0 12.4-5.6 12.4-12.4v-.1h-24.8z" fill="#993944"/>
  <path d="M116.8 233.3c2.2 1.9 5.1 3.1 8.2 3.1 3.2 0 6-1.2 8.2-3.1-1.8-2.7-4.8-4.5-8.2-4.5-3.4 0-6.4 1.8-8.2 4.5z" fill="#F16D76"/>
  <path d="M125 238.2c-7.8 0-14.2-6.4-14.2-14.2v-.1c0-1 .8-1.8 1.8-1.8h24.9c1 0 1.8.8 1.8 1.8v.1c0 7.8-6.4 14.2-14.3 14.2zm-10.5-12.5c.8 5.1 5.2 8.9 10.5 8.9s9.7-3.9 10.5-8.9h-21z" fill="#4D1D35"/>
  <path d="M161.4 199h-2.9v12.9h2.9c3.6 0 6.4-2.9 6.4-6.4.1-3.6-2.8-6.5-6.4-6.5z" fill="#F0D0B3"/>
  <path d="M161.4 213.7h-2.9c-1 0-1.8-.8-1.8-1.8V199c0-1 .8-1.8 1.8-1.8h2.9c4.5 0 8.2 3.7 8.2 8.2 0 4.6-3.6 8.3-8.2 8.3zm-1.1-3.6h1.1c2.6 0 4.6-2.1 4.6-4.6 0-2.6-2.1-4.6-4.6-4.6h-1.1v9.2z" fill="#4D1D35"/>
  <path d="M161.4 213.7h-2.9c-1 0-1.8-.8-1.8-1.8V199c0-1 .8-1.8 1.8-1.8h2.9c4.5 0 8.2 3.7 8.2 8.2 0 4.6-3.6 8.3-8.2 8.3zm-1.1-3.6h1.1c2.6 0 4.6-2.1 4.6-4.6 0-2.6-2.1-4.6-4.6-4.6h-1.1v9.2z" fill="#4D1D35"/>
  <path d="M88.6 199h2.9v12.9h-2.9c-3.6 0-6.4-2.9-6.4-6.4 0-3.6 2.9-6.5 6.4-6.5z" fill="#F0D0B3"/>
  <path d="M91.5 213.7h-2.9c-4.5 0-8.2-3.7-8.2-8.2 0-4.5 3.7-8.2 8.2-8.2h2.9c1 0 1.8.8 1.8 1.8V212c0 .9-.8 1.7-1.8 1.7zm-2.9-12.9c-2.6 0-4.6 2.1-4.6 4.6 0 2.6 2.1 4.6 4.6 4.6h1.1v-9.3h-1.1z" fill="#4D1D35"/>
  <path d="M91.5 213.7h-2.9c-4.5 0-8.2-3.7-8.2-8.2 0-4.5 3.7-8.2 8.2-8.2h2.9c1 0 1.8.8 1.8 1.8V212c0 .9-.8 1.7-1.8 1.7zm-2.9-12.9c-2.6 0-4.6 2.1-4.6 4.6 0 2.6 2.1 4.6 4.6 4.6h1.1v-9.3h-1.1z" fill="#4D1D35"/>
  <path d="M110.6 155.8c2.3 10.1 17.4 27.3 37.7 33.1s21.6 25.9 21.6 25.9 13.6-42.9-18.5-57c-32.2-14.1-43.2-12.2-40.8-2z" fill="#F8DE6B"/>
  <path d="M169.8 216.5h-.2c-.9-.1-1.5-.8-1.6-1.7-.1-.8-1.5-18.9-20.3-24.3-21.4-6.1-36.6-24.3-38.9-34.4-.2-1 .4-1.9 1.3-2.1 1-.2 1.9.4 2.1 1.3 2.2 9.5 17.1 26.3 36.4 31.8 13 3.7 18.6 13 21.1 19.8.7-4.1 1.3-9.6 1.1-15.4-.8-15.8-7.6-26.6-20.2-32.1-.9-.4-1.3-1.5-.9-2.4.4-.9 1.5-1.3 2.4-.9 13.8 6 21.5 18.3 22.4 35.3.6 12.7-2.7 23.4-2.9 23.9-.3.7-1 1.2-1.8 1.2z" fill="#4D1D35"/>
  <path d="M111.9 159.5h-10l-15 15.4C76.3 210.3 92 245 99.7 247.3c-3.1-14.4-12.4-48.1 1.1-67.3 4.8-7 9.2-13.5 11.1-20.5z" fill="#F8DE6B"/>
  <path d="M99.7 249.1c-.2 0-.3 0-.5-.1-5-1.5-10.9-11.8-14.5-25-2.5-9.5-5.8-28.5.5-49.6.3-.9 1.3-1.5 2.2-1.2.9.3 1.5 1.3 1.2 2.2-8.9 29.8 1.2 58.2 8.2 67.3-3.7-16.3-10.1-45.8 2.5-63.7 5.1-7.2 9.1-13.3 10.8-19.8.3-1 1.2-1.5 2.2-1.3 1 .3 1.5 1.2 1.3 2.2-1.9 7.1-6.3 13.7-11.4 21-11.9 16.9-5.3 46-1.8 61.6.4 1.6.7 3 1 4.3.1.6-.1 1.3-.5 1.7-.4.2-.8.4-1.2.4z" fill="#4D1D35"/>
  <path d="M211.7 78.8l-6.5 7.8c-.7.8-.2 2 .8 2.2l10 1.8c1 .2 1.9-.8 1.5-1.8l-3.5-9.5c-.3-1.1-1.6-1.4-2.3-.5z" fill="#F16D76"/>
  <path d="M216.3 92.3h-.6l-10-1.8c-1.1-.2-2-1-2.4-2-.4-1.1-.2-2.2.5-3.1l6.5-7.8c.7-.9 1.8-1.3 3-1.1 1.1.2 2 1 2.4 2l3.5 9.5c.4 1.1.2 2.2-.5 3.1-.7.8-1.5 1.2-2.4 1.2zm-9.3-5.2l8.6 1.5-3-8.2-5.6 6.7zm6.1-7.2z" fill="#4D1D35"/>
  <path d="M226.4 2.3c-18.5-3.3-36.1 9.1-39.3 27.5-4 22.9 12.2 48.1 25.6 50.5 13.4 2.4 36.9-13.8 41.3-38.7 3.2-18.4-9.1-36-27.6-39.3z" fill="#F16D76"/>
  <path d="M215.4 82.4c-1 0-2.1-.1-3-.3-7.1-1.3-15-8.3-20.6-18.4-6-10.9-8.3-23.3-6.4-34.1 3.4-19.4 22-32.4 41.4-29 9.4 1.7 17.6 6.9 23.1 14.7 5.5 7.8 7.6 17.3 5.9 26.7-2.1 11.8-8.4 22.6-17.9 30.6-7.4 6.2-15.7 9.8-22.5 9.8zm5.1-78.8c-15.3 0-28.9 11-31.7 26.6-1.8 10 .4 21.6 6.1 31.8 5 9.1 12.1 15.6 18.1 16.7 6.3 1.1 14.9-2.2 22.6-8.7 8.8-7.5 14.7-17.6 16.7-28.5 1.5-8.5-.4-17-5.3-24-4.9-7-12.3-11.7-20.8-13.2-2-.6-3.9-.7-5.7-.7z" fill="#4D1D35"/>
  <path d="M197.3 21.8c-.4 0-.7-.1-1-.3-.8-.6-1-1.7-.4-2.5.8-1.1 1.7-2.2 2.7-3.3.7-.8 1.5-1.5 2.3-2.2.8-.6 1.9-.5 2.5.2.6.8.5 1.9-.2 2.5-.7.6-1.4 1.3-2.1 1.9-.9.9-1.7 1.9-2.4 2.9-.3.6-.8.8-1.4.8zm9.4-8.3c-.6 0-1.2-.3-1.6-.9-.5-.9-.2-2 .7-2.4 3.4-1.9 7.1-3 10.9-3.5 1-.1 1.9.6 2 1.6.1 1-.6 1.9-1.6 2-3.4.4-6.6 1.4-9.6 3.1-.2.1-.5.1-.8.1z" fill="#F7B6BD"/>
  <path d="M222.7 152.5c-.3 0-.5-.1-.8-.2-6.5-3.2-11.1-8.5-12.7-14.8-1.7-6.7-.4-14.1 3.5-19.8 1.6-2.3 3.5-4.3 5.4-6.2 1.5-1.5 3-3 4.2-4.6 2.4-3.1 4.4-7.8 2.6-11.5-1.2-2.4-3.7-4-6.3-5.7-3.4-2.2-6.8-4.4-8-8.5-.3-1 .3-1.9 1.2-2.2 1-.3 1.9.3 2.2 1.2.8 2.8 3.5 4.6 6.5 6.5 2.9 1.9 6 3.9 7.6 7.2 2.5 5.2.1 11.3-2.9 15.2-1.4 1.8-3 3.4-4.5 5-1.8 1.9-3.6 3.6-5 5.7-3.4 4.9-4.5 11.2-3 16.9 1.8 6.8 6.9 10.5 10.8 12.5.9.4 1.2 1.5.8 2.4-.3.5-.9.9-1.6.9z" fill="#4D1D35"/>
  <path d="M53.9 129.6l2.6-7.6-8.4 4.9c-.9.5-1.9.2-2.4-.6-.5-.9-.2-1.9.6-2.4l16.7-9.8-3.1 9.1 14.6-6.3c.9-.4 2 0 2.3.9.4.9 0 2-.9 2.3l-22 9.5zm-14.4-8c-.9 0-1.6-.6-1.8-1.5L35 103.3l-6.2 2.5V86.7c0-1 .8-1.8 1.8-1.8s1.8.8 1.8 1.8v13.8l5.4-2.2 3.5 21.3c.2 1-.5 1.9-1.5 2.1-.1-.1-.2-.1-.3-.1zm7.8-5.2c-.2 0-.3 0-.5-.1-.9-.3-1.5-1.3-1.2-2.2l5.7-19.7c.3-.9 1.3-1.5 2.2-1.2.9.3 1.5 1.3 1.2 2.2L49 115.1c-.3.8-1 1.3-1.7 1.3z" fill="#FFF"/>
  <path fill="#83B0DE" d="M23.2 297.6h66.3v42.5H23.2z"/>
  <path d="M89.5 341.9H23.2c-1 0-1.8-.8-1.8-1.8v-42.5c0-1 .8-1.8 1.8-1.8h66.3c1 0 1.8.8 1.8 1.8v42.5c0 1-.8 1.8-1.8 1.8zM25 338.3h62.7v-38.9H25v38.9z" fill="#4D1D35"/>
  <path fill="#F8DE6B" d="M77.6 307.6l.7-4.2-3.8 2-3.9-2 .8 4.2-3.1 3.1 4.3.6 1.9 3.9 1.9-3.9 4.3-.6m-44.9 20.1l3.2-1.1-2.7-1.9v-3.3l-2.7 2-3.2-1 1.1 3.1-2 2.8 3.4-.1 2 2.7m2.4-19.4l3.2-1.1-2.8-1.9v-3.4l-2.6 2.1-3.2-1.1 1.1 3.2-2 2.7h3.4l2 2.7m20.4 9.6l3.2-1.1-2.8-1.9V321l-2.7 2.1-3.2-1.1 1.1 3.2-2 2.8 3.4-.1 2 2.7m21.8 1l2.1-.7-1.8-1.2v-2.3l-1.8 1.4-2.2-.7.8 2.1-1.4 1.8h2.3l1.3 1.8m-25.2-25l2.6-.9-2.2-1.5v-2.8l-2.2 1.7-2.7-.9 1 2.6-1.7 2.3 2.8-.1 1.6 2.3"/>
  <path fill="#F16D76" d="M51.6 297.6h9.5v42.5h-9.5z"/>
  <path d="M61.1 341.9h-9.5c-1 0-1.8-.8-1.8-1.8v-42.5c0-1 .8-1.8 1.8-1.8h9.5c1 0 1.8.8 1.8 1.8v42.5c0 1-.8 1.8-1.8 1.8zm-7.7-3.6h6v-38.9h-6v38.9z" fill="#4D1D35"/>
  <path d="M73.4 299.4c-.7 0-1.3-.4-1.6-1-.4-.9-.1-2 .8-2.4 2.8-1.4 4.5-3.7 4.5-5.8 0-2.2-2-3.6-3.6-4.4-1.7-.8-3.6-.4-5.8 1.3-4.1 3.1-6.8 8.9-6.6 10.2.2 1-.5 1.9-1.5 2.1-1 .2-1.9-.5-2.1-1.5-.6-3.3 3.5-10.3 8-13.7 3.3-2.5 6.6-3 9.5-1.6 4.9 2.3 5.6 5.7 5.6 7.6 0 3.5-2.4 7-6.5 9.1-.1 0-.4.1-.7.1zm-34.1 0c-.3 0-.5-.1-.8-.2-4-2.1-6.5-5.5-6.5-9.1 0-1.8.8-5.2 5.6-7.6 2.9-1.4 6.2-.8 9.5 1.6 4.4 3.4 8.6 10.4 8 13.7-.2 1-1.1 1.6-2.1 1.5-1-.2-1.6-1.1-1.5-2.1.2-1.3-2.5-7.1-6.6-10.2-2.2-1.6-4.1-2.1-5.8-1.3-1.6.8-3.6 2.2-3.6 4.4 0 2.1 1.7 4.4 4.5 5.8.9.4 1.2 1.5.8 2.4-.2.7-.8 1.1-1.5 1.1z" fill="#4D1D35"/>
  <path d="M52.6 292.4v4.7h7.5v-4.7c0-2.1-1.7-3.7-3.7-3.7-2.1-.1-3.8 1.6-3.8 3.7z" fill="#F16D76"/>
  <path d="M60.1 298.9h-7.5c-1 0-1.8-.8-1.8-1.8v-4.7c0-3 2.5-5.5 5.5-5.5s5.5 2.5 5.5 5.5v4.7c.1 1-.7 1.8-1.7 1.8zm-5.7-3.6h3.9v-2.9c0-1.1-.9-1.9-1.9-1.9-1.1 0-1.9.9-1.9 1.9v2.9zM306.5 326c-3.7 0-7.1-1.6-9.5-4.3-2.4-2.7-3.5-6.4-3.1-10l2.6-19.8c.1-.9.9-1.6 1.8-1.6h16.5c.9 0 1.7.7 1.8 1.6l2.6 19.8c.5 3.6-.6 7.3-3.1 10s-6 4.3-9.6 4.3zm-6.7-32.2l-2.4 18.3c-.3 2.6.5 5.2 2.2 7.2 1.7 2 4.2 3.1 6.8 3.1 2.6 0 5.1-1.1 6.8-3.1 1.7-2 2.5-4.6 2.2-7.2l-2.4-18.3h-13.2z" fill="#4D1D35"/>
  <path d="M306.5 337.7c-1 0-1.8-.8-1.8-1.8v-11.8c0-1 .8-1.8 1.8-1.8s1.8.8 1.8 1.8v11.8c0 1-.8 1.8-1.8 1.8z" fill="#4D1D35"/>
  <path d="M311.1 335.2H302c-2.4 0-4.3 1.9-4.3 4.3h17.8c-.1-2.3-2.1-4.3-4.4-4.3z" fill="#EEEDE8"/>
  <path d="M315.4 341.4h-17.8c-1 0-1.8-.8-1.8-1.8 0-3.4 2.7-6.1 6.1-6.1h9.1c3.4 0 6.1 2.7 6.1 6.1.1 1-.7 1.8-1.7 1.8zm-15.3-3.6h12.7c-.5-.5-1.1-.7-1.8-.7h-9.1c-.7-.1-1.3.2-1.8.7z" fill="#4D1D35"/>
  <path d="M295.7 311.9c-.8 6.5 4.2 12.3 10.8 12.3 6.6 0 11.7-5.8 10.8-12.3l-.7-5.7h-20.2l-.7 5.7z" fill="#F8DE6B"/>
  <path d="M306.5 326c-3.7 0-7.1-1.6-9.5-4.3-2.4-2.7-3.5-6.4-3.1-10l.7-5.7c.1-.9.9-1.6 1.8-1.6h20.2c.9 0 1.7.7 1.8 1.6l.7 5.7c.5 3.6-.6 7.3-3.1 10-2.4 2.7-5.9 4.3-9.5 4.3zm-9-13.9c-.3 2.6.5 5.2 2.2 7.2 1.7 2 4.2 3.1 6.8 3.1 2.6 0 5.1-1.1 6.8-3.1 1.7-2 2.5-4.6 2.2-7.2l-.5-4.1h-17l-.5 4.1z" fill="#4D1D35"/>
  <circle cx="301.5" cy="310.7" r="1.5" fill="#FFF6D4"/>
  <circle cx="305.2" cy="316.8" r="2.2" fill="#FFF6D4"/>
  <path d="M332 326c-3.7 0-7.1-1.6-9.5-4.3-2.4-2.7-3.5-6.4-3.1-10l2.6-19.8c.1-.9.9-1.6 1.8-1.6h16.5c.9 0 1.7.7 1.8 1.6l2.6 19.8c.5 3.6-.6 7.3-3.1 10s-5.9 4.3-9.6 4.3zm-6.6-32.2l-2.4 18.3c-.3 2.6.5 5.2 2.2 7.2 1.7 2 4.2 3.1 6.8 3.1 2.6 0 5.1-1.1 6.8-3.1 1.7-2 2.5-4.6 2.2-7.2l-2.4-18.3h-13.2z" fill="#4D1D35"/>
  <path d="M332 337.7c-1 0-1.8-.8-1.8-1.8v-11.8c0-1 .8-1.8 1.8-1.8s1.8.8 1.8 1.8v11.8c0 1-.8 1.8-1.8 1.8z" fill="#4D1D35"/>
  <path d="M336.6 335.2h-9.1c-2.4 0-4.3 1.9-4.3 4.3H341c-.1-2.3-2-4.3-4.4-4.3z" fill="#EEEDE8"/>
  <path d="M340.9 341.4h-17.8c-1 0-1.8-.8-1.8-1.8 0-3.4 2.7-6.1 6.1-6.1h9.1c3.4 0 6.1 2.7 6.1 6.1.1 1-.7 1.8-1.7 1.8zm-15.2-3.6h12.7c-.5-.5-1.1-.7-1.8-.7h-9.1c-.7-.1-1.4.2-1.8.7z" fill="#4D1D35"/>
  <path d="M321.2 311.9c-.8 6.5 4.2 12.3 10.8 12.3 6.6 0 11.7-5.8 10.8-12.3l-.7-5.7h-20.2l-.7 5.7z" fill="#F8DE6B"/>
  <path d="M332 326c-3.7 0-7.1-1.6-9.5-4.3-2.4-2.7-3.5-6.4-3.1-10l.7-5.7c.1-.9.9-1.6 1.8-1.6h20.2c.9 0 1.7.7 1.8 1.6l.7 5.7c.5 3.6-.6 7.3-3.1 10-2.4 2.7-5.8 4.3-9.5 4.3zm-9-13.9c-.3 2.6.5 5.2 2.2 7.2 1.7 2 4.2 3.1 6.8 3.1 2.6 0 5.1-1.1 6.8-3.1 1.7-2 2.5-4.6 2.2-7.2l-.5-4.1h-17l-.5 4.1z" fill="#4D1D35"/>
  <circle cx="327.1" cy="310.7" r="1.5" fill="#FFF6D4"/>
  <circle cx="330.7" cy="316.8" r="2.2" fill="#FFF6D4"/>
  <path d="M4.4 188.3c-.9 0-1.7-.7-1.8-1.7-.2-4.3 1.1-8.4 4.1-12.1.6-.8 1.7-.9 2.5-.3.8.6.9 1.7.3 2.5-2.4 3.1-3.5 6.3-3.3 9.7.1 1-.7 1.8-1.7 1.9h-.1z" fill="#4D1D35"/>
</svg>
