<svg xmlns="http://www.w3.org/2000/svg" xmlns:xlink="http://www.w3.org/1999/xlink" viewBox="0 0 480.9 484.3">
  <path d="M394.6 343.3c-12.6 0-25 3.4-35.9 9.9l-54.9-64c25.2-31.2 26.9-75.3 4.1-108.3 1.1-.5 2.1-1.2 3-2l86.2-86.1c23.3 15.4 54.7 9.1 70.1-14.2s9.1-54.7-14.2-70.1-54.6-9.2-70 14.1c-11.2 16.9-11.2 38.9 0 55.9l-86.2 86.1c-.5.5-.9 1.1-1.2 1.8-36.1-34.4-93.3-33-127.7 3.2-.7.8-1.4 1.5-2.1 2.3l-65.6-37.5c1.3-4.3 1.9-8.7 2-13.2.3-28.2-22.3-51.4-50.4-51.7C23.5 69.3.3 91.8 0 120c-.3 28.2 22.3 51.4 50.4 51.7 15.7.2 30.8-6.9 40.6-19.2l62.8 36c-19.1 34.4-13.8 77.2 13.3 105.8l-63.6 63.3c-5.1-2.8-10.9-4.3-16.6-4.3-19.5 0-35.3 15.8-35.3 35.3 0 19.5 15.8 35.3 35.3 35.3 19.5 0 35.3-15.8 35.3-35.3 0-5.9-1.5-11.6-4.3-16.7l64.5-64.5c32.8 22.2 76.2 20.6 107.2-4.1l53.4 62.5c-26.6 28.5-24.9 73.1 3.7 99.7 28.5 26.6 73.1 24.9 99.7-3.7 26.6-28.5 24.9-73.1-3.7-99.7-13.2-12.1-30.3-18.8-48.1-18.8z" fill="#291C1D"/>
  <defs>
    <path id="a" d="M233.2 319c-48 0-86.8-38.9-86.8-86.9 0-48 38.9-86.8 86.9-86.8 48 0 86.8 38.9 86.8 86.9-.2 47.9-39.1 86.7-86.9 86.8z"/>
  </defs>
  <clipPath id="b">
    <use xlink:href="#a" overflow="visible"/>
  </clipPath>
  <g clip-path="url(#b)">
    <path d="M193.8 176.4c0 1.8-1.5 3.3-3.3 3.3s-3.3-1.5-3.3-3.3c0-1.8 1.5-3.3 3.3-3.3 1.9 0 3.3 1.4 3.3 3.3z" fill="#5D9CEC"/>
    <path d="M174.1 169.8c0 1.8-1.5 3.3-3.3 3.3-1.8 0-3.3-1.5-3.3-3.3s1.5-3.3 3.3-3.3 3.3 1.4 3.3 3.3z" fill="#4FC2E9"/>
    <path d="M193.8 156.7c0 1.8-1.5 3.3-3.3 3.3-1.8 0-3.3-1.5-3.3-3.3s1.5-3.3 3.3-3.3c1.9 0 3.3 1.4 3.3 3.3z" fill="#FC6E51"/>
    <path d="M285.8 261.8c0 1.8-1.5 3.3-3.3 3.3-1.8 0-3.3-1.5-3.3-3.3s1.5-3.3 3.3-3.3c1.8 0 3.3 1.5 3.3 3.3z" fill="#4FC2E9"/>
    <path d="M233.2 281.5c0 1.8-1.5 3.3-3.3 3.3s-3.3-1.5-3.3-3.3c0-1.8 1.5-3.3 3.3-3.3 1.8 0 3.3 1.5 3.3 3.3z" fill="#EC87C0"/>
    <path d="M206.9 274.9c0 1.8-1.5 3.3-3.3 3.3-1.8 0-3.3-1.5-3.3-3.3 0-1.8 1.5-3.3 3.3-3.3 1.8 0 3.3 1.5 3.3 3.3z" fill="#FC6E51"/>
    <path d="M167.5 248.6c0 1.8-1.5 3.3-3.3 3.3-1.8 0-3.3-1.5-3.3-3.3 0-1.8 1.5-3.3 3.3-3.3 1.8 0 3.3 1.5 3.3 3.3z" fill="#5D9CEC"/>
    <path d="M246.4 163.2c0 1.8-1.5 3.3-3.3 3.3-1.8 0-3.3-1.5-3.3-3.3 0-1.8 1.5-3.3 3.3-3.3 1.8 0 3.3 1.5 3.3 3.3z" fill="#4FC2E9"/>
    <path d="M259.5 183c0 1.8-1.5 3.3-3.3 3.3-1.8 0-3.3-1.5-3.3-3.3 0-1.8 1.5-3.3 3.3-3.3 1.9 0 3.3 1.4 3.3 3.3z" fill="#FC6E51"/>
    <path d="M285.8 209.3c0 1.8-1.5 3.3-3.3 3.3-1.8 0-3.3-1.5-3.3-3.3 0-1.8 1.5-3.3 3.3-3.3s3.3 1.4 3.3 3.3z" fill="#5D9CEC"/>
    <path d="M298.9 189.6c0 1.8-1.5 3.3-3.3 3.3-1.8 0-3.3-1.5-3.3-3.3s1.5-3.3 3.3-3.3c1.9 0 3.3 1.4 3.3 3.3zm-118.2 32.7c0 1.8-1.5 3.3-3.3 3.3-1.8 0-3.3-1.5-3.3-3.3 0-1.8 1.5-3.3 3.3-3.3 1.8 0 3.3 1.5 3.3 3.3z" fill="#EC87C0"/>
    <path fill="#AC92EB" d="M224.3 253.9l-20.2 13.9 2.1-24.4-24.3-2.3 17.3-17.3-17.2-17.5 24.4-2.1-2-24.4 20.1 14 14.2-19.9 6.3 23.6 23.7-6.1-10.4 22.1 22.2 10.6-22.2 10.3 10.2 22.3-23.7-6.4-6.5 23.6"/>
    <path d="M177.4 192.8h-3.3v-3.3c0-1.8-1.5-3.3-3.3-3.3s-3.3 1.5-3.3 3.3v3.3h-3.3c-1.8 0-3.3 1.5-3.3 3.3 0 1.8 1.5 3.3 3.3 3.3h3.3v3.3c0 1.8 1.5 3.3 3.3 3.3 1.8 0 3.3-1.5 3.3-3.3v-3.3h3.3c1.8 0 3.3-1.5 3.3-3.3s-1.5-3.3-3.3-3.3z" fill="#A0D468"/>
    <path d="M269.3 278.2H266v-3.3c0-1.8-1.5-3.3-3.3-3.3-1.8 0-3.3 1.5-3.3 3.3v3.3h-3.3c-1.8 0-3.3 1.5-3.3 3.3 0 1.8 1.5 3.3 3.3 3.3h3.3v3.3c0 1.8 1.5 3.3 3.3 3.3 1.8 0 3.3-1.5 3.3-3.3v-3.3h3.3c1.8 0 3.3-1.5 3.3-3.3 0-1.8-1.5-3.3-3.3-3.3z" fill="#ED5564"/>
    <path d="M302.2 232.3h-3.3v-3.2c0-1.8-1.5-3.3-3.3-3.3-1.8 0-3.3 1.5-3.3 3.3v3.2H289c-1.8 0-3.3 1.5-3.3 3.3 0 1.8 1.5 3.3 3.3 3.3h3.3v3.3c0 1.8 1.5 3.3 3.3 3.3 1.8 0 3.3-1.5 3.3-3.3v-3.3h3.3c1.8 0 3.3-1.5 3.3-3.3 0-1.9-1.5-3.3-3.3-3.3z" fill="#A0D468"/>
    <path d="M289.1 166.5h-3.3v-3.2c0-1.8-1.5-3.3-3.3-3.3-1.8 0-3.3 1.5-3.3 3.3v3.2h-3.3c-1.8 0-3.3 1.5-3.3 3.3 0 1.8 1.5 3.3 3.3 3.3h3.3v3.3c0 1.8 1.5 3.3 3.3 3.3s3.3-1.5 3.3-3.3v-3.3h3.3c1.8 0 3.3-1.5 3.3-3.3 0-1.8-1.5-3.3-3.3-3.3z" fill="#ED5564"/>
    <path d="M223.4 159.9h-3.3v-3.3c0-1.8-1.5-3.3-3.3-3.3-1.8 0-3.3 1.5-3.3 3.3v3.3h-3.3c-1.8 0-3.3 1.5-3.3 3.3 0 1.8 1.5 3.3 3.3 3.3h3.3v3.3c0 1.8 1.5 3.3 3.3 3.3 1.8 0 3.3-1.5 3.3-3.3v-3.3h3.3c1.8 0 3.3-1.5 3.3-3.3 0-1.8-1.5-3.3-3.3-3.3z" fill="#48CFAD"/>
    <path d="M228.2 219.5c-10.5 6.3-20.2 14.8-28.9 25.4-6.9 8.4-13.2 18-18.6 28.7-9.3 18.1-12.9 32.7-13.1 33.4-.1.3-.1.5-.1.8 0 1.8 1.5 3.3 3.3 3.3 1.5 0 2.8-1.1 3.2-2.5 0-.1 3.6-14.5 12.6-31.9 5.2-10.2 11.2-19.5 17.9-27.5 8.2-9.9 17.4-18 27.2-23.9l-3.5-5.8z" fill="#F6BB42"/>
    <path d="M239.8 222.4c0 5.4-4.4 9.9-9.9 9.8-5.4 0-9.9-4.4-9.8-9.9 0-5.4 4.4-9.9 9.9-9.8 5.4 0 9.8 4.4 9.8 9.9z" fill="#FFCE54"/>
  </g>
  <defs>
    <path id="c" d="M401.5 483.9c-43.8 0-79.3-35.6-79.3-79.4 0-43.8 35.6-79.3 79.4-79.3s79.3 35.6 79.3 79.4c-.2 43.8-35.6 79.2-79.4 79.3z"/>
  </defs>
  <clipPath id="d">
    <use xlink:href="#c" overflow="visible"/>
  </clipPath>
  <g clip-path="url(#d)">
    <path fill="#EAC6BB" d="M414.6 391.7l-6-8.3-16.9-6.2h-10.2l-7 14-1.7 10.2 8.3 9.9 11.1 10.9h10.2l10.3-6.9 6.1-8.8"/>
    <path fill="#FFCE54" d="M405.8 424.6l-13.3.4h-12.1l-11.4 4.1-12.2 8.3-1.4 15.3 21.3-.6.3-7.8 1.8-2.1 28.7-1 1.6-16.2"/>
    <path d="M424.9 369.3l-9.2-9.2-15.8-3.8-12.7 1.3-10.1 5.6-8 8-3 10.2 2.4 20.8 3.3.7 5.6-15.7 6.1-10h6.7l14.6 1.6 11.3 13 3.3 21s7.2-11 7.2-11.4 1.7-18.3 1.7-18.3l-3.4-13.8z" fill="#FC6E51"/>
    <path d="M385.4 418.6l-4.3 5.8 9.8 6.9 5.4-6.9M407 420l-8.8 3.3 5.3 8.6 4-3.7" fill="#F5F7FA"/>
    <path fill="#ED5564" d="M407.452 452.732l-31.6-.017.006-10.8 31.6.017z"/>
    <path fill="#A0D468" d="M436.415 452.813l-27.4-.015.018-32.7 27.4.015z"/>
    <path d="M422.6 446.7c4.7 0 8.5-4.7 8.5-10.5s-3.8-10.5-8.5-10.5-8.5 4.7-8.5 10.5c0 5.7 3.8 10.5 8.5 10.5zm2.7-15.3c1 1.2 1.5 3 1.5 4.8 0 1.5-.4 2.9-1 4.1 0-1.6-.3-3.4-1.5-5.1-1.1-1.8-.8-3.7-.5-4.9.7.2 1.2.7 1.5 1.1zm-6 .7c0 1.6.3 3.4 1.5 5.2 1.1 1.7.9 3.6.5 4.8-.6-.3-1.1-.8-1.4-1.2-1-1.2-1.6-3-1.5-4.8-.1-1.4.3-2.9.9-4z"/>
    <path d="M447.8 423.5h-8.4v-6.3h-22.3l2.3-1.9c5.1-4.3 8.6-10.4 10.2-17.7 1.4-6.5 1.2-13.7-.7-20.4-1.6-5.7-4.2-10.7-7.6-14.5-3.7-4.2-8.3-6.9-13.3-7.7-3.8-.6-7.3-.9-10.5-.9-9.5 0-14.2 2.6-16.2 4.3l-.2.1c-.2.1-4.4 2-8.7 5.9-5.7 5.3-8.7 11.9-8.7 19.1 0 17.5 6.2 27.3 6.4 27.7l3.8 5.9.1-7c0-1 0-2 .1-3 2.1 3.9 4.8 7.5 7.7 10.4v2.5s0 .1-.1.1c-.5 1.1-2.7 3.3-10.9 6.5-2.3.9-4.1 2.2-9.3 3.6l-.4.1c-4.8 1.6-7.9 6-7.9 10.9V455h84.1c1.2 0 2.1-.9 2.1-2.1v-4.2h8.4c1.2 0 2.1-.9 2.1-2.1v-21c0-1.1-.9-2.1-2.1-2.1zm-35-6.3c1.1-1.1 2.1-2.3 3.1-3.5l-.5 3.5h-2.6zm-21.4 17.4l5.8-7.6 5.8 7.6 2.8-2v6c-2.4-.2-5.3-.3-8.6-.3-6.5 0-11.2.4-14.6.9v-10.9l8.8 6.3zM384 424c.8-.8 1.2-1.5 1.5-2 .1-.1.1-.3.2-.3l.3-.6c2.5 1.9 5.1 3.2 7.5 4l-2.8 3.8-6.7-4.9zm21.8 3.4l-1.9 1.4-2.9-3.8c1.5-.5 3.2-1.2 4.8-2.2v4.6zm-19.5-67.1c2-.9 5.5-2 11.3-2 3 0 6.3.3 9.8.9 4 .6 7.7 2.8 10.8 6.3 3 3.4 5.3 7.8 6.7 12.8 1.7 6 1.9 12.6.6 18.4-.9 4.4-2.7 8.2-5.1 11.4 0-1.5-.1-3.1-.3-4.9-.8-8-3.5-14.7-7.7-19.5-5.3-6-12.8-9-22.5-9-1.6 0-3.3.1-5 .2l-.8-13.4c.5-.3 1.2-.7 2.2-1.2zm-15.9 40.8c-1.3-4.2-2.5-10.1-2.5-17.5 0-6 2.5-11.4 7.3-16 1.7-1.6 3.4-2.9 4.8-3.7l.7 12.4c-2.3 2.2-8.4 9.3-10.3 24.8zm4.7-3.1c1-5.7 2.7-9.8 4.1-12.6 1.8-3.4 3.6-5.4 4.5-6.2 2.2-.3 4.3-.4 6.2-.4 8.4 0 15 2.6 19.4 7.6 5 5.7 6.5 13.7 6.9 19.4-1.3 2.3-2.8 4.5-4.7 6.6-2.4 2.7-5.1 5.1-7.8 6.7-2.4 1.4-4.7 2.2-6.4 2.2-1.7 0-4-.8-6.4-2.2-2.7-1.6-5.4-3.9-7.8-6.7-4-4.3-6.7-9.3-8-14.4zm-.9 44.4v8.4h-16.8v-9.6c0-3.1 2-5.9 5-6.9l.2-.1c3.9-1.1 6.1-2.1 7.9-2.9.7-.3 1.3-.6 1.8-.8 2.5-.9 4.5-1.8 6.1-2.7v12.3c-3.8 1.1-4.2 2.3-4.2 2.3zm4.2 8.4v-6.3c.6-.3 1.6-.6 3.1-.9 3.8-.8 9-1.2 15.7-1.2 3.2 0 6 .1 8.6.3v8.1h-27.4zm56.8.1H410v-29.4h25.2v29.4zm10.5-6.3h-6.3v-16.8h6.3v16.8z"/>
  </g>
  <defs>
    <path id="e" d="M51.6 165.5c-24.6 0-44.4-19.9-44.4-44.4 0-24.6 19.9-44.4 44.4-44.4 24.6 0 44.4 19.9 44.4 44.4s-19.9 44.4-44.4 44.4z"/>
  </defs>
  <clipPath id="f">
    <use xlink:href="#e" overflow="visible"/>
  </clipPath>
  <g clip-path="url(#f)">
    <path d="M88.8 100.3L76.3 87.8c-.2-.2-.5-.3-.8-.3H27.9c-.6 0-1.2.5-1.2 1.2v68.8c0 .6.5 1.2 1.2 1.2H88c.6 0 1.2-.5 1.2-1.2v-56.3c-.1-.4-.2-.7-.4-.9z" fill="#F2F2F2"/>
    <path d="M89.1 101.1c0-.3-.1-.6-.3-.8L76.3 87.8c-.2-.2-.5-.3-.8-.3h-.1V100c0 .6.5 1.2 1.2 1.2l12.5-.1zM27.9 87.4c-.6 0-1.2.5-1.2 1.2v68.8c0 .6.5 1.2 1.2 1.2h55L34.1 87.4h-6.2z" fill="#E5E5E5"/>
    <path d="M45.6 83.7H17.7c-1.9 0-3.5 1.6-3.5 3.5v37.9c0 1.9 1.6 3.5 3.5 3.5h27.9c1.9 0 3.5-1.6 3.5-3.5V87.2c0-2-1.6-3.5-3.5-3.5z" fill="#666"/>
    <path d="M66.7 120c-9.6 0-17.5 7.8-17.5 17.4s7.8 17.5 17.4 17.5 17.5-7.8 17.5-17.4c0-9.7-7.8-17.5-17.4-17.5z" fill="#F7D04A"/>
    <path d="M70.1 151.4c-9.6 0-17.4-7.8-17.4-17.5 0-3.9 1.3-7.6 3.5-10.5-4.2 3.2-7 8.2-7 13.9 0 9.6 7.8 17.5 17.4 17.5 5.7 0 10.7-2.7 13.9-6.9-2.8 2.2-6.5 3.5-10.4 3.5z" fill="#F3B41B"/>
    <path d="M69.4 136.4l-1.8-.1v-6.5h4.1c.6 0 1.2-.5 1.2-1.2 0-.6-.5-1.2-1.2-1.2h-4.1v-1.3c0-.6-.5-1.2-1.2-1.2-.6 0-1.2.5-1.2 1.2v1.3H64c-1.9 0-3.5 1.6-3.5 3.5v4.1c0 1.9 1.6 3.5 3.5 3.5h1.2v6.4h-3.5c-.6 0-1.2.5-1.2 1.2 0 .6.5 1.2 1.2 1.2h3.5v1.3c0 .6.5 1.2 1.2 1.2s1.2-.5 1.2-1.2v-1.3h1.8c1.9 0 3.5-1.6 3.5-3.5v-3.9c0-1.9-1.6-3.5-3.5-3.5zm-5.4-.2c-.7 0-1.2-.5-1.2-1.2v-4.1c0-.6.5-1.2 1.2-1.2h1.2v6.4l-1.2.1zm6.5 7.6c0 .6-.5 1.2-1.2 1.2h-1.8v-6.3l1.8.1c.6 0 1.2.5 1.2 1.2v3.8z" fill="#EB6836"/>
    <path d="M44.2 87.4h-25c-.6 0-1.2.5-1.2 1.2v6.3c0 .6.5 1.2 1.2 1.2h25c.6 0 1.2-.5 1.2-1.2v-6.3c-.1-.7-.6-1.2-1.2-1.2z" fill="#F2F2F2"/>
    <path d="M19.1 87.4c-.6 0-1.2.5-1.2 1.2v6.3c0 .6.5 1.2 1.2 1.2h5.1l8.6-8.6-13.7-.1zm25.1 0h-4.4L31.2 96h13c.6 0 1.2-.5 1.2-1.2v-6.3c-.1-.6-.6-1.1-1.2-1.1z" fill="#62C9CC"/>
    <path d="M24.1 97.4h-5c-.6 0-1.2.5-1.2 1.2v5c0 .6.5 1.2 1.2 1.2h5c.6 0 1.2-.5 1.2-1.2v-5c0-.7-.5-1.2-1.2-1.2zm10 0h-5c-.6 0-1.2.5-1.2 1.2v5c0 .6.5 1.2 1.2 1.2h5c.6 0 1.2-.5 1.2-1.2v-5c-.1-.7-.6-1.2-1.2-1.2zm-10 10h-5c-.6 0-1.2.5-1.2 1.2v5c0 .6.5 1.2 1.2 1.2h5c.6 0 1.2-.5 1.2-1.2v-5c0-.6-.5-1.2-1.2-1.2zm10 0h-5c-.6 0-1.2.5-1.2 1.2v5c0 .6.5 1.2 1.2 1.2h5c.6 0 1.2-.5 1.2-1.2v-5c-.1-.6-.6-1.2-1.2-1.2zm-10 10h-5c-.6 0-1.2.5-1.2 1.2v5c0 .6.5 1.2 1.2 1.2h5c.6 0 1.2-.5 1.2-1.2v-5c0-.6-.5-1.2-1.2-1.2zm10 0h-5c-.6 0-1.2.5-1.2 1.2v5c0 .6.5 1.2 1.2 1.2h5c.6 0 1.2-.5 1.2-1.2v-5c-.1-.6-.6-1.2-1.2-1.2zm10-20h-5c-.6 0-1.2.5-1.2 1.2v5c0 .6.5 1.2 1.2 1.2h5c.6 0 1.2-.5 1.2-1.2v-5c0-.6-.6-1.2-1.2-1.2z" fill="#EF9D3C"/>
    <path d="M44.2 107.4h-5c-.6 0-1.2.5-1.2 1.2v15c0 .6.5 1.2 1.2 1.2h5c.6 0 1.2-.5 1.2-1.2v-15c-.1-.6-.6-1.2-1.2-1.2z" fill="#F7D04A"/>
    <path d="M57.8 97.3c-.3 0-.6-.1-.9-.4l-2.3-2.5c-.4-.5-.4-1.2.1-1.7.5-.4 1.2-.4 1.7.1l2.3 2.5c.4.5.4 1.2-.1 1.7-.2.2-.5.3-.8.3z" fill="#666"/>
    <g fill="#62C9CC">
      <path d="M82.1 115L63.4 96.3c-.2-.2-.4-.3-.6-.3l-4.4-.9c-.4-.1-.8 0-1.1.3-.3.3-.4.7-.3 1.1l.9 4.4c0 .2.2.4.3.6l18.7 18.7c.7.7 1.8 1.1 2.9 1 .9-.1 1.7-.6 2.3-1.2 1.4-1.4 1.4-3.6 0-5z"/>
      <path d="M71.08 114.3l-12.79-12.807 5.235-5.23 12.79 12.806z"/>
    </g>
    <path d="M58.4 95.1c-.8-.2-1.5.6-1.4 1.4l.9 4.4c0 .2.2.4.3.6l5.2-5.2c-.2-.2-.4-.3-.6-.3l-4.4-.9z" fill="#F7D04A"/>
    <path d="M82.1 115l-5.9-5.9-5.2 5.2 5.9 5.9c.7.7 1.8 1.1 2.8 1 1-.1 1.7-.6 2.4-1.2 1.4-1.4 1.4-3.6 0-5z" fill="#50A9A9"/>
    <path d="M80.3 116c-.3 0-.6-.1-.8-.3-.5-.5-.5-1.2 0-1.7l1.8-1.8-5.5-5.2c-.5-.4-.5-1.2 0-1.7.4-.5 1.2-.5 1.7 0l6.4 6.1c.2.2.4.5.4.8 0 .3-.1.6-.3.8l-2.7 2.7c-.4.2-.7.3-1 .3z" fill="#666"/>
    <path d="M43.2 139.8h-7.8c-.6 0-1.2-.5-1.2-1.2s.5-1.2 1.2-1.2h7.8c.6 0 1.2.5 1.2 1.2s-.5 1.2-1.2 1.2zm0 6.3h-7.8c-.6 0-1.2-.5-1.2-1.2s.5-1.2 1.2-1.2h7.8c.6 0 1.2.5 1.2 1.2s-.6 1.2-1.2 1.2z" fill="gray"/>
  </g>
  <defs>
    <path id="g" d="M425 8.6c23.3 0 42.1 18.8 42 42.1s-18.8 42.1-42.1 42c-23.3 0-42.1-18.8-42-42.1.1-23.2 18.9-42 42.1-42z"/>
  </defs>
  <clipPath id="h">
    <use xlink:href="#g" overflow="visible"/>
  </clipPath>
  <g clip-path="url(#h)">
    <path fill="#E7ECED" d="M450.672 76.96l-51.8-.03.022-41.9 51.8.03z"/>
    <path d="M427.9 25.6l-1 1.5c5.2 3.3 15.1 8.6 15.2 8.6l.8-1.6c.1.1-9.8-5.2-15-8.5zm-21.4 8.6l.8 1.6c.1-.1 10.1-5.4 15.3-8.6l-.9-1.5c-5.2 3.2-15.1 8.4-15.2 8.5zm0 0" fill="#7383BF"/>
    <path d="M419.4 49.3c0 .5-.4.9-.9.9s-.9-.4-.9-.9.4-.9.9-.9.9.4.9.9zm6.3 0c0 .5-.4.9-.9.9s-.9-.4-.9-.9.4-.9.9-.9.9.4.9.9zm6.2 0c0 .5-.4.9-.9.9s-.9-.4-.9-.9.4-.9.9-.9.9.4.9.9zm6.3 0c0 .5-.4.9-.9.9s-.9-.4-.9-.9.4-.9.9-.9.9.4.9.9zm6.2 0c0 .5-.4.9-.9.9s-.9-.4-.9-.9.4-.9.9-.9.9.4.9.9zm0 0" fill="#424A60"/>
    <path d="M406.9 56.4c0 .5-.4.9-.9.9s-.9-.4-.9-.9.4-.9.9-.9.9.4.9.9zm0 0" fill="#EFCE4A"/>
    <path d="M413.2 56.4c0 .5-.4.9-.9.9s-.9-.4-.9-.9.4-.9.9-.9.9.4.9.9zm0 0" fill="#ED7161"/>
    <path d="M406.9 49.3c0 .5-.4.9-.9.9s-.9-.4-.9-.9.4-.9.9-.9c.6 0 .9.4.9.9zm6.3 0c0 .5-.4.9-.9.9s-.9-.4-.9-.9.4-.9.9-.9.9.4.9.9zm0 0" fill="#949493"/>
    <path d="M419.4 56.4c0 .5-.4.9-.9.9s-.9-.4-.9-.9.4-.9.9-.9.9.4.9.9zm6.3 0c0 .5-.4.9-.9.9s-.9-.4-.9-.9.4-.9.9-.9.9.4.9.9zm6.2 0c0 .5-.4.9-.9.9s-.9-.4-.9-.9.4-.9.9-.9.9.4.9.9zm6.3 0c0 .5-.4.9-.9.9s-.9-.4-.9-.9.4-.9.9-.9.9.4.9.9zm6.2 0c0 .5-.4.9-.9.9s-.9-.4-.9-.9.4-.9.9-.9.9.4.9.9zm0 0" fill="#424A60"/>
    <path d="M406.9 62.7c0 .5-.4.9-.9.9s-.9-.4-.9-.9.4-.9.9-.9.9.4.9.9zm0 0" fill="#EFCE4A"/>
    <path d="M413.2 62.7c0 .5-.4.9-.9.9s-.9-.4-.9-.9.4-.9.9-.9.9.4.9.9zm0 0" fill="#ED7161"/>
    <path d="M419.4 62.7c0 .5-.4.9-.9.9s-.9-.4-.9-.9.4-.9.9-.9.9.4.9.9zm6.3 0c0 .5-.4.9-.9.9s-.9-.4-.9-.9.4-.9.9-.9.9.4.9.9zm6.2 0c0 .5-.4.9-.9.9s-.9-.4-.9-.9.4-.9.9-.9.9.4.9.9zm6.3 0c0 .5-.4.9-.9.9s-.9-.4-.9-.9.4-.9.9-.9.9.4.9.9zm6.2 0c0 .5-.4.9-.9.9s-.9-.4-.9-.9.4-.9.9-.9.9.4.9.9zm0 0" fill="#424A60"/>
    <path d="M438.2 69.8c0 .5-.4.9-.9.9s-.9-.4-.9-.9.4-.9.9-.9.9.4.9.9zm6.2 0c0 .5-.4.9-.9.9s-.9-.4-.9-.9.4-.9.9-.9.9.4.9.9zm0 0" fill="#949493"/>
    <path d="M406.9 69.8c0 .5-.4.9-.9.9s-.9-.4-.9-.9.4-.9.9-.9.9.4.9.9zm0 0" fill="#EFCE4A"/>
    <path d="M413.2 69.8c0 .5-.4.9-.9.9s-.9-.4-.9-.9.4-.9.9-.9.9.4.9.9zm0 0" fill="#ED7161"/>
    <path d="M419.4 69.8c0 .5-.4.9-.9.9s-.9-.4-.9-.9.4-.9.9-.9.9.4.9.9zm6.3 0c0 .5-.4.9-.9.9s-.9-.4-.9-.9.4-.9.9-.9.9.4.9.9zm6.2 0c0 .5-.4.9-.9.9s-.9-.4-.9-.9.4-.9.9-.9.9.4.9.9zm0 0" fill="#424A60"/>
    <path d="M428.4 28.8c0 2-1.6 3.6-3.6 3.6s-3.6-1.6-3.6-3.6 1.6-3.6 3.6-3.6 3.6 1.6 3.6 3.6zm0 0" fill="#F7E6A1"/>
    <defs>
      <path id="i" d="M451.123 78.026l-52.2-.028.03-54.6 52.2.028z"/>
    </defs>
    <clipPath id="j">
      <use xlink:href="#i" overflow="visible"/>
    </clipPath>
    <path d="M428.4 28.8c0 2-1.6 3.6-3.6 3.6s-3.6-1.6-3.6-3.6 1.6-3.6 3.6-3.6 3.6 1.6 3.6 3.6zm0 0" clip-path="url(#j)" fill="none" stroke="#D8A852" stroke-width="1.6" stroke-linejoin="round" stroke-miterlimit="10"/>
    <path fill="#424A60" d="M450.7 41.26l-51.8-.028.004-6.2 51.8.027z"/>
  </g>
  <defs>
    <path id="k" d="M86.8 416.9c-15.7 0-28.4-12.7-28.4-28.4s12.7-28.4 28.4-28.4 28.4 12.7 28.4 28.4-12.9 28.4-28.4 28.4z"/>
  </defs>
  <clipPath id="l">
    <use xlink:href="#k" overflow="visible"/>
  </clipPath>
  <path d="M98.2 370.3c-6.3-6.3-16.4-6.3-22.7 0-5.6 5.6-6.3 16.3-1.5 22.7l12.8 18.5L99.6 393c4.9-6.4 4.2-17.1-1.4-22.7zM87 386.8c-2.9 0-5.3-2.4-5.3-5.3s2.4-5.3 5.3-5.3 5.3 2.4 5.3 5.3-2.4 5.3-5.3 5.3zm0 0" clip-path="url(#l)" fill="#FFD107"/>
</svg>
