<svg xmlns="http://www.w3.org/2000/svg" xmlns:xlink="http://www.w3.org/1999/xlink" viewBox="0 0 476.6 281.1">
  <g opacity=".3" fill-rule="evenodd" clip-rule="evenodd" fill="#736459">
    <path d="M426.2 225.3c-.5-1.2-1.5-2.4-2.1-3.4-.6-.9-1.2-1.9-1.9-2.4s-.7-2.1-1.6-3.5c-.9-1.4-2.2-1.7-2.6-2.1-.4-.3-.2-1.3-.3-2.3-.1-1-.7-1.7-.7-1.7-.3-.4-.3-1.6-.4-2.2-.1-.6-.5-.6-1-1.1-.5-.5-.7.4-1.1.1-.4-.3.1-1.2.1-2.2 0-1-.6-.8-1-1.7-.4-1-1.1-2.3-1.1-2.3-.8-1-.7 1.4-.6 2.4.1 1-.4 3.3-.4 4.6.1 1.3-.5 3.9-1 4.7-.4.8-1.5-.3-1.9-1.3-.4-1-1.7-1.3-2.7-2.1-1-.8-1.5-1.9-1.3-2.9.2-1 .8-1.1.9-2.7.1-1.6-2.1-.8-3-.8-1 0-2.7.2-3.3.4-.6.3-2.4 1-2.8 1.9-.4.9-.8 2.3-1.5 2.4-.7.2-1.3-1-2-1.5-.7-.4-1.4.2-1.7.6-.3.4-2.3 2.6-3 3.1-.7.5-1.8 1.4-2.1 2.6-.3 1.2-1 2.3-2 3.1-1 .9-3.7.7-5.7 2.2-2 1.5-3.3 2.3-3.6 4.3-.4 2.1 0 5.6.5 6.9.5 1.4 1.3 5.5 1.7 7 .3 1.5-.3 4.5.9 5.6 1.3 1.1 4-1.1 4.9-1.3 1-.2 5-1.2 6.3-1.9 1.2-.7 3.6-1.8 5.6-1.7 2 .1 5.1-.1 6.7.7 1.6.8 1 2.8 2.4 3.6 1.4.8 2.3-2 2.3-2s.2 1.3.8 2.3c.6 1 1 1.9 1.9 2.6.9.7.6 3.1 1.7 4.2 1.1 1 3.2 1.4 4 1 .8-.3 1.5-.9 1.8-.3.3.5 1.1 1.6 2.3 1.2 1.2-.4 1-2 1-2s1.6-.2 2.8-1c1.2-.9 0-1.1.4-2.7s1.3-3.9 2.2-5.7c.9-1.8 1.7-2.1 2.2-4 .5-1.9.3-3.6-.1-4.7-.4-.9-.4-2.8-.9-4zm-8.7 27.9c-1 .1-2.1-.6-2.1-.6s-.1 2.9.3 3.7c.4.9 1.5 1.6 2.7 2 1.2.4 1.4-1 1.8-2.4.4-1.5.2-2.7-.3-3-.4-.4-1.4.2-2.4.3zm37 .5c-.5-.3-1.1-.9-1.1-.9-.7-.3-1.6 2.1-1.9 2.9-.3.9-1.6 2.4-2.4 3-.8.6-2.1 1.7-3.2 2.3-1.1.5-1.4 2.4-.9 2.3.5-.1 1.7.3 3 .8s1.7-.8 2.3-1.6c.6-.9 1.4-2 2.3-3.3.9-1.3 2.3-2.3 2.8-3.7.4-1.4-.3-1.5-.9-1.8zm4-5.8c-.6-.3-1.6-2-1.9-2.7-.3-.7-1.6-2.8-2.3-2.9-.8-.2-.8 1-.1 2 .7 1 1.8 1.6 1.7 2.6-.1 1 0 3.3-.6 3.6 0 0 .9.6 1.2 1.4.3.8-.6 1.8 0 2.3.6.4 1.7.3 2-.6.3-.9.8-2.3 1.3-2.9.5-.7 1.5-1.3 1.3-1.8-.1-.7-2-.7-2.6-1zm-60.7-63.4s.3.9 1.1 1.1c.9.3 2-.1 1.9.3-.1.4-1.5.3-1.6.9-.1.5.1 1.3.8 1.5.7.2 1.8 0 2.3.3.5.3 3.5 2 3.9 2.5.4.5 1.6 2.5 1.7 3.3.2.8.8.9 1.2 1.6.4.7 2.1 1.7 3.2 1.6 1.1-.2 1.6-1.9 2.1-1.7.4.2 2-.1 2.6.4.6.5 1.9 2.4 2.9 3.1 1 .7 2.9 1.9 3.1 1 .3-.9-1.8-3.6-2.5-4-.7-.4-1.6-1.9-1.6-2.3 0-.3 1.2-.3.9-.9-.3-.6-.5-1.3-1.4-1.7-.9-.4-1.5-1.9-2.4-2.4-1-.5-5.7-2.7-7-3-1.3-.3-2.6-.9-2.9-.9-.3 0-1.3 1.6-2.2 1.8-.9.3-1.6-.4-1.9-1-.3-.7.5-1.4-.3-2.2-.7-.7-3.8-1.1-3.9.7zm23.6 8c.4.2 2 .3 2.9.1.9-.2 2.2-1.3 2.4-2.1.3-.8.3-1.8-.3-2.3-.6-.4-1.3 0-1 .5.4.5-.3 1.6-.8 2.1s-3.5.6-3.5.6c-.6.3-.1.9.3 1.1zm-39.5-1.5c.6.5 1.6.6 1.6.1.1-.5-.3-2 .1-2.6.4-.6.7-.9 1-.3.3.6 0 1.6.7 1.9.7.3 1.6 0 1.7-.3.2-.3-.4-1.7-.9-2.3-.5-.6-1.4-1.5-1.4-1.5s1-.4 1.4-.9c.3-.4 1.4-.5 1.4-.9 0-.3-.7-.7-1.6-.5-1 .2-1.8.3-1.8.3l-.5-.7s-.3-1.9.4-1.7c.6.2 3 .2 3.6.3.6.2 1.6-.3 1.9-.7.3-.4 1.1-1.6.4-1.7-.7-.2-1.4.8-2.3 1-.9.2-2.3 0-2.8-.3-.4-.3-2.5.6-2.6 1.3-.1.7.2 2.2 0 2.8-.2.6-.3 2-.3 3-.1 1 .4 1.7.3 2.2-.1.4-.9 1-.3 1.5zm-13.6-9c.3.9.8 2.2.8 2.2s.4-.3.6.3c.2.6-.1 1.5.5 1.9.6.4 1.6.3 2 .5.3.3 1 .6 1.4.8.4.2 1.6-.3 1.6-.3s.8.8 1.7.6c.9-.2 1.6-1.2 1.9-1.9.3-.7.8-2.3 1-2.9.2-.6.2-1.3.5-1.8s1.3-.2 1-1c-.3-.9-.6-1-1-1.7-.3-.8-.7-1.8-.8-2.2-.1-.4-.3-1.2.2-1.1.4.1 1.1.3 1.1-.1 0-.3-.2-.9-.2-.9s.6.1.9-.3c.3-.4.2-.6-.4-1.2-.6-.6-1-1.4-1.6-1.8-.5-.4-1.6.3-1.9.9-.3.6.4 1.8-.6 2.2-1 .3-1.5.3-2 1.1-.5.9-.7 1.6-1.5 1.6-.8.1-1.7 1-1.9 1.2-.2.3 0 1.7-.6 1.3-.6-.4-1.3-1.1-1.9-.6-.5.4-1 2.4-.8 3.2zm10.4 15.5c.9.3 2.3.2 3 0 .7-.2-.5-.7-.9-.8-.4-.1-1.8.1-2.3-.1-.4-.2-1-.9-1.3-1.2-.3-.3-1.3-.8-1.6-1.4-.4-.6-1.2-.8-1.6-1.1-.4-.3-1.2-.3-2.1-.7-.9-.3-2.2.4-3.1.3-.9-.1-1.1-.8-2.1-.9-1-.1-2.5 0-2.5 0-1 .5-.6 1.5.1 1.9.7.4 2 1.2 2.4 1.2.4 0 2.3 0 3.2.2.9.2 4.5 1.1 5.5 1.2 1 .1 2.4 1.1 3.3 1.4zm6.6 0c.7-.1 1.8-.2 1.7-.5-.2-.3-3.7-1-3.7.1-.1 0 1.3.5 2 .4zm-2.8 1.8c.5.3 1.5.8 1.6.3.2-.5-1.6-1-1.6-1-.6-.1-.5.4 0 .7zm-18.5-8.9c.3-1 1.2-2.6.8-3.2-.4-.6-.5-1.1-1.1-1.8-.6-.7-.7-1.7-1.5-2.4-.8-.8-1-1.6-1.6-1.9-.6-.4-1.2-1.4-1.8-1.8-.6-.4-1.3-2.2-2.2-2.7-.9-.5-1.7-2.1-2.3-2.6-.5-.5-.5-.6-1.6-1-1-.4-1.6-1.1-2.2-1-.6.1-.6 1.3.2 2.5s2 2.8 2.4 3.2c.3.4 1.5.6 1.8 1.3.3.7.4 1.4.8 2.3.3.9 1.2 1.7 1.6 2.6.4.9 1.5 2.5 1.8 2.9.3.4.1 2 .9 2.5 0 0 1.2.8 1.9 1 .7.2 1.8 1.1 2.1.1zm26.8-23.7c-1 .1-1 .8-1.8 1-.9.2-1.6.2-2.1.2s-1.3.3-1.1 1c.1.2.4.6 1.2.9.8.3 1.1.3 1.3 1.3.2 1 .8 1.9 1.5 1.7.7-.2.9-.9 1-1.7.2-.9 1.2-.9.9-1.8-.4-1 .1-2.7-.9-2.6zm-1.8 33c.4-.3 1.3-1.1 2.3-1.6 1-.4 1.1-.9 1-1.3-.2-.4-.7 0-1.3.3-.6.3-1.4.3-2 .9-.6.5-2.1 2-2.1 2-.3 1.6 1.6 0 2.1-.3zm-5.4-44.7c0 .5-.9.2-.9.2-.3.4.7 1.8 1 2.3.4.5.1 1.1 0 1.5-.1.3-.6 1-.1 1.5.5.4 1 1.2 1.4 1.1.4-.1-.3-1.2-.5-1.5-.2-.3.3-1 .9-.9.6.1 1.2.5 1.8 1 .6.5 1.3.9 1.5.3.2-.6-.3-1.3-.6-1.9-.3-.6-1-.3-1.2-.4-.3-.1-1.1.2-1.5-.2-.4-.3-.4-1.3-.4-2-.1-.7 1-1.5 1.6-2.3.6-.8-.3-1.8-.6-3-.3-1.1-1.1-.3-1.6-.2-.5.2-.7 1-.7 1.6-.1.7-.1 2.4-.1 2.9zm3 8.7c.1-.4-.4-1.2-.4-1.2s-1 0-1.1.7c-.1.7-.3 1.8.3 1.6.5-.3 1.1-.6 1.2-1.1zm-56.6 2.6s-.8 1.9-1 2.3c-.2.4.1 2.5.6 3.4.5.9 1.3.3 2-.2s.7-1.5.2-3.2c-.5-1.6-1.8-2.3-1.8-2.3zm41.8-17.4c-.1-.6-1.3.3-2.3.7-1 .4-1.6 1-1.6 1s.6 1.1 1 1.5c.4.4 1.1-.2 1.9-.6.9-.4 1.1-2 1-2.6zm14-6.3c.4-.9.4-1.6.3-2.3-.1-.7-.1-1.1-.5-1-.4.2-1.5 1.6-1.7 2.3-.3.7-.2 2.8-.2 2.8s1.8-1 2.1-1.8zm12.1-18.2l-1.4 1s.9.6.7 1.3c-.2.7-1.2 2.1-.3 2.4.9.4 1.3.2 1.5-.3.2-.5 1.1-1.6.6-2.7-.6-1.1-1.1-1.7-1.1-1.7zm10.2-7.3c-.6.9-1.6 2.1-2.1 2.1s-1.1-.6-1.2-.3c-.1.3-.1 1.3-.5 1.9-.4.6-.7.3-1.5.4-.8.2-1.7.6-2.3 1-.5.3-1.5 1-1.5 1s1.6.1 2.4-.1c.8-.2 1.9.4 1.9.4s-.3 1.4.5 1.1c.8-.3 1.6-1 1.6-1s1.2-.1 2.2-.6c1-.5 2.2-.9 2.4-1.7.3-.9.7-2.8.7-3.6 0-.8.3-1.6.5-1.8.3-.2 1.4-2.3.9-2.9-.4-.7-.6-1.5-1.2-1.6-.6-.2-1.3-.2-1.4 1.6.1 1.6-.8 3.2-1.4 4.1z"/>
    <path d="M399.9 124.7s.3 2 .6 2.3c.4.3.5-.9.9-1.4.4-.5 1.1-.5 1.2-1.1.1-.6-.7-.6-1.4-.7-.7-.1-1.3.9-1.3.9zm11.5-17.9c-.6.2-1.2.3-1.2.3s-.6.9-.5 1.4c.1.5.5 1.2.5 1.2l.8-.3s-.5-.9.1-1.1c.6-.3.6.3 1.6.3 1 .1 1.8-.4 2.6-.9.8-.4 2-.2 1.9-.8-.1-.6.4-1-.9-1.5-1.4-.4-2.3-.5-3-1.6-.7-1-.7-2.3-1.1-1.4-.4.9-.3 1.2-.2 2.1 0 1.1 0 2.2-.6 2.3zm9.1-3.4c-.4.3-1.2 1-1.2 1s2.3-.7 2.4-1.3c.1-.6-.3-1.1-.3-1.1s-.4 1.1-.9 1.4zm2.7-2.6c-.4.1-.8 1.5-.8 1.5s1-.3 1.8-1.1c.8-.9-.5-.4-1-.4zm-10-.1l1.4.9s-.7-1.9-.7-2.9.5-3 .5-3l1.4-.2s-.4-1.8-.7-2.8c-.3-1 .1-2.4-.3-3.3-.3-.9-.6-1.5-.6-1.8 0-.3.3-1.7-.2-1.8-.4-.1-.9 1-.9 1.6 0 .6-.5.8-.5 2.1s.1 3.6.1 4.4c0 .9.1 3.2.1 3.9 0 .7-.2 3.4-.2 3.4l.6-.5zm-23.5-59.1c.9-.2 2.1-1 2.2-1.3.1-.3-1.5-1.6-2.7-1.6-1.2.1-2.3.5-1.7 1.3.1.3 1.4 1.8 2.2 1.6zm25.2-2.4c-.8-.5-1.7-1.4-2.4-.9-.8.4-1.7 1.9-1.7 1.9s1 .3 2.5.4c1.6 0 2.4-.9 1.6-1.4zm-119.7 6.2c.3.7-.4 1.7-.1 1.9.3.2 2.9 0 3.3.1.4.1 2.3-.4 2.3-.4s-2.3-1.4-2.6-2.4c-.3-1 .6-4.4 1-5 .3-.6 1.9-2.8 4.1-3.6 2.2-.9 6.3-1.9 7.9-2.5 1.6-.6 2.5-.8 2.5-1.5s1.2-1.8-1.3-1c-2.5.9-4.9 1.7-6.6 1.7-1.7 0-1.2.4-4.2 1.1-2.9.8-5.2 1.3-6.1 3-.9 1.7-.7 3.2-1.7 4.8-1 1.6-2.4 2.2-1.8 3.1.5 1 2.9 0 3.3.7zm-10 162.8c-1.4.6-3.9 1.7-3 3.3.8 1.7-.3 4.2-1.7 6.1-1.4 1.9 0 4.4 3.1 7.2 3 2.8 1.7-1.7 2.8-4.7 1.1-3 2.8-6.7 3.3-10s-.3-6.7-.3-6.7-2.8 4.3-4.2 4.8zM217 83.4s1.7 1.1 2.5 2.2-2.5 1.1-2.5 1.1.8 3.3 1.7 3.3c.8 0-2.2 3.1-2.2 3.1s3.3-1.1 4.4-1.7c1.1-.6 3.9-1.7 3.9-1.7s0-1.7-.6-3c-.6-1.4-2.5-3.6-3.6-5.5s.8-4.7.8-4.7l-2.5.6s-.3-3.3-1.4-3.3c-1.1 0-2.2 3.3-1.9 5.3.3 1.8 1.4 4.3 1.4 4.3zm-3.1 4.4c1.7-1.7.6-2.2 1.1-3.9.5-1.7-1.1-1.4-1.1-1.4l-1.9.3s-1.4 1.7-1.4 3.3c0 1.7-.8 2.8-.3 3.9.6 1.2 2-.5 3.6-2.2z"/>
    <path d="M476.1 59.6c-1-1-2.3-2.1-3.3-2.2-1-.1-1.5-.2-1.8.5-.3.7-1 .3-1-.2.1-.4.6-1.1-.2-1.4-.8-.3-4.2-3-5.6-4-1.4-1-1-1.7-2.2-2.1-1.1-.3-2.4.3-3-.1-.5-.3-.9-1.3-1.6-1.5-.8-.2-5.7-.2-6.2-.3-.5-.1-.3.5-.3 1.6 0 1 .3 2.2-.7 2.3-1 .1-1.7-.3-1.8-.6-.1-.3-.4-2-.7-2.1-.3-.1-5 .1-6.5.3-1.5.3-2.3 1.4-2.5 1.7-.2.3-.9-1.1-1.3-1.7-.4-.6.6-1.4-.8-2.1 0 0-5.1-1.2-6.2-1.2-1 0-6.7.9-7.5.8-.9-.1-.8-1.3-.7-1.9.1-.6.4-1.6-.8-1.9-1.2-.3-2.8 2.1-3.4 2.3-.6.3-.7-.7-1.1-1.4-.4-.7-.9-1.8-1.5-1.9-.6-.1-3.6-.3-4.7-.3s-1.8.7-1.6 1.6c.3.9 1.2 2.3.5 2.1-.7-.2-1.1-.7-2-.3-.9.3-1.4.5-2.2 0-.8-.5-1.6-1-2-1-.4 0-1.9 1.1-2.4 1.3-.5.2-1.8.4-1.9.9-.1.4.1 2.1-.6 1.6s-2-1.9-3.4-2.6c-1.4-.7-3.4-2.2-4.4-2.4-1-.3-5-1.3-6.2-1.3-1.2 0-3.1-.9-3.6-1.1-.4-.3.7-1-.5-1.3-1.2-.3-3.6-.8-4.4-.4-.8.3-1.6.8-2.3.9-.6.1-3.6.1-4.3.7-.7.6-1.1-1-1.1-1s.2-1.2.9-1.6c.8-.3 3.1-.9 4.4-1.2 1.3-.4 1.6-.4 1.4-1.2-.3-.8-.2-1.6-.7-2.3-.5-.7-1.1-2.2-2.2-2.4-1.1-.3-2.5.2-3.3.4-.8.3-2 .5-2 .5s.3-1.3-1-1.5c-1.3-.2-1.2-1.5-1.8-1.4-.6.1-3.2 0-4.1.5-.9.5-1.8 1.4-2.2 2-.4.6-1.8.5-2.1.9-.3.3-.5.8-1.3 1.2-.8.4-2.1.6-2.1.6s.6-1.1.3-1.3c-.4-.2-3 .4-4.5.5-1.6.1-4.6 1-5.4 1.3-.8.3-2.4 1.6-2.8 2.2-.3.6 0 1.2 0 1.8 0 .6-1.2 1-1.9.7-.7-.3-1-1.2-2.5-.6-1.6.6-3.2-.1-3.5 1.4-.3 1.5-.8 2.2 0 2.7.8.4 2-.3 2.2.9.3 1.2-.4 1.6-1 1.5-.7-.1-1.9-1-2.9-1.5-1-.4-1.7-.8-2.6 0-.9.8-1.9 1.1-2 1.4-.1.3-.8 2.1-1.3 1.5-.5-.6-1-2.1-1.8-1.5-.8.6-.7 1.6-.5 2.3.2.8 0 2.4.5 2.8.5.3 1.5-.2 2.3 0 .9.2 2 .3 2.5 1 .5.8.6 2.2.4 2.8-.2.6-1.1 1-1.3.3-.2-.7-1-3.2-1.8-2.7s-2 .4-1.8 1.4c.2 1 .2 2.3-.4 2.7-.6.4-1.6.1-1.6-.5s.7-1.7-.2-2.9c-.9-1.2-.7-2.6-1-3.9-.3-1.3-.1-2.2.3-3.2.3-1 1.9-2.7.3-3.4-1.6-.7-4.3 0-4.4.6-.2.6-3 3.1-2.7 4.3.3 1.2.8 2.8 1.2 4 .4 1.2 1 2 .3 2.9-.7.9-2.6-2.3-3.6-2.6-.9-.4-4.4-1.3-5.5-1-1.1.3-.8 1.8-1 2.3-.3.4-1.8.5-2.3.3-.4-.3-3.1.1-3.7.2-.6.1-8 .9-10 2.2-2 1.3-1.4 3-2.8 3s-.9-1.4-2.1-1.6c-1.2-.2-1.9.9-2.4 1.5s-1.3.1-1.9.1c-.6 0-2 .5-2.2 1.2-.2.7 1.4 1.9.1 2.1-1.3.2-5 2.1-5.9 1.6-.9-.5-.8-2.9-1.2-3.4-.4-.4-2.1-1.5-2.4-2.1-.3-.6.5-1.2 1.5-1 1 .3 3 1.2 4 1.5 1 .3 3.7-.3 4.2-1.3.4-1-.3-2.3-1.6-3.3-1.4-1-9.2-3.7-10.9-4.4-1.7-.7-5.6-1.6-6.2-1.3-.6.3-1 1.7-1.6 1.4-.5-.3-1.5-.9-2.1-.8-.6.1-2.6 1-3 1-.3.1-4.5 2.2-5.2 3.3-.7 1.1-3.6 6.2-4.9 7-1.3.9-3.4 4.5-4.9 4.9-1.5.4-3.3 1.7-4.3 3.3-1 1.6-1.7 3.5-1.5 4.8.2 1.3-1 3.1.5 3.6s3.5-.9 4.7-1.1c1.2-.3 2.4-.2 2.7.3.3.5 1.1 3.2 1.6 3.7.4.5-.1 1.5.9 1.7 1 .3 1.9.3 3-1.1 1.1-1.4 1.1-3 1.7-4.2.5-1.1 2.3-2.7 1.5-3.7-.8-1-.9-1.9-1.2-2.7-.3-.8 0-1.8.9-3 .9-1.1 4-2.5 4.2-3.5.3-1 .5-2.9 1.7-3.5 1.1-.5 2.6-1.4 3.1-.2s1.4 1.1-.6 3.6-3.1 1.2-2.5 3.7c.6 2.5 1.9 4.5 2.3 4.9.3.4 3.3-.3 4.3-.4 1-.2 2.4.3 3.1.3.7 0 1.1-1.8 1.8-2.3.7-.4 1.4.1 1.7.5.3.4.3 1.7 0 1.9-.3.2-6.1 1.7-7.4 2.2-1.3.5-3.7.5-3.9 1.4-.2.9 0 3.3-.9 3.6-.9.3-1-1.6-1.8-.6s-1.6 4.4-2.2 5.4c-.5 1-1.4 1.6-3.5 1.6-2.1.1-6 0-6.9.2-.7.1-1.3.2-2.1.1-.1-.6-.8-.8-1.1-1.7-.4-1.2.1-1.6.5-2.9.4-1.3.2-1.5-.1-2.1-.3-.6-.6-.6-1.3.1-.7.7-1.5.9-1.8 1.5-.4.7.4 2.4.9 3.7.3.8.2 1.7.1 2.3-2.4 1.3-5.7 3.4-6.5 4.1-1 1-3.6 1.8-4 2.9-.4 1.1-2.4 1.9-2.9 1.7-.4-.2-.4.5-1.3 1.1-.9.6-1.8-.3-2.6.4-.8.6.1 1.4 1.2 2.9 1.1 1.5 2.2 2 2.5 3.4.3 1.4 1 3.8-.5 3.7-1.6-.1-5.5-.6-7-.5-1.6.1-2.3 2-2.5 2.8-.3.8-.4 4.9-.5 5.8-.1.9-.5 2 .6 2.8 1.1.8 2.5.7 2.9 1 .3.3.2.9 1.4.9s2.4.4 3.6-.3c1.2-.7 3.1-2.3 3.4-3.1.3-.8.9-2.3 1.2-3 .3-.7 2.8-3 3.2-3.5.4-.4 0-1.6 1-2 1-.4 2.4-.3 3.2-.5.8-.2 2.5-1.9 3-2.1.5-.2 2.5 1.3 2.9 1.9.3.6 2.1 3.2 3.9 4.7 1.8 1.5 2.4 1.7 2.8 2.2.3.4.6 1.1.3 2-.3.9-.9 1.7-.9 1.9-.1.3 1.1 1 1.6.2s.9-2.6.9-2.6l-.4-2s.9.2 1.3.3c.4.1 1-1.2-.1-1.8-1.1-.6-3.5-1.3-4-1.9-.5-.6-2.1-2.8-2.5-3.6-.4-.9 0-2 .3-2.3.3-.3 1.6.1 2.2.9.6.8 2.3 2.4 3 3.1.7.7 2.5 1.6 2.9 2 .4.4.1 2.3.7 2.8.6.4 2.1 3 2.5 3.9.4 1-.1 2.6 1 2.3 1-.3 2.7-1.5 3-1.7.3-.3-.8-1.7-1.2-2.7-.4-1 .6-2.9 1.6-2.8 1 .2 3 .5 3 .5l1.6-2.1.6-2.8c.2-.7 1.3-4.3 2.4-5 1.1-.7 2.8-1.1 4.1-.7 1.3.4 4.3-.5 4.6-.6 0 0 1 .3 1.5 1.6.4 1.3 1.8 3.5 3 4.8 1.1 1.3 3.4 1.5 2 2.8-1.4 1.3-4.1 1.7-5.6 1-1.5-.6-2.7-2.2-4.7-1.3-2 .9-3.6.6-5.4 1.9-1.8 1.3-3 1.5-3.2 3.1-.2 1.6-.5 3 .4 3.8.9.9 2.3 2.5 3 2.2.7-.4 1.2-1.7 2.2-1.5.9.3 2.8.4 3.6.2.9-.3 1.6.1 1.9.2.3.1.2 2.4.3 2.8.1.4-1 4-1.6 5-.6 1-3.8 1.7-4.9 1.7-1.1 0-9.5-1.6-11.5-2.3-2-.8-3.4 1-3.8 2.1-.4 1.1-.4 3-1.8 2.1-1.4-.9-6.1-3.8-7.8-4.2-1.7-.4-2.6-2.3-3-3.6-.3-1.2-.7-4-.7-4s-2.5-.3-5.3 0-8.1 2.2-9.4 2.3c-1.4.2-3.9.4-5 .3-1-.2-1.5 1-2 1.4-.5.3-3 2.3-3.6 2.9-.6.6-.5 2.9-.6 4.3-.1 1.4-1.7 4.2-3 4.7s-4.6 5.7-5.6 7.9c-.9 2.2-1 3.1-.8 4.5.3 1.4.9 5.8.3 7.4-.5 1.6-1 2-.8 3.3.3 1.3 1.3 3.4 2.2 4.8.9 1.4 1.7 4.2 3.5 6.3 1.8 2.1 4.1 5.2 6.2 5.3 2.2.1 3.3-.8 4.7-.7 1.4.1 6.7-1.5 7.5-1.9.8-.4 3.7-.1 4.7-.1s.6 1.8 1.9 2.4c1.3.6 3.6.2 4.3.9.6.7.9 3 .4 4.9-.5 1.9-1 3.2-.4 3.9.5.7 4.1 4.8 4.6 8s1.7 5.8 1.6 7c-.1 1.2.2 4.1-1.2 6.3-1.4 2.3-1.7 5.2-1.5 6.2.2 1 2.1 5.2 2.9 7.1.8 1.9 1.6 5.8 1.6 7.2.1 1.4 1.6 3.3 2.2 5.4.6 2.1 1.7 3.7 1.6 4.8-.1 1-1 2.9.1 4.1 1 1.1 3.1 1.2 5 .8 1.9-.4 4.5-.9 6.2-2 1.6-1.1 4.2-4.2 5.5-6 1.3-1.7 2.2-3.9 2.3-4.9.2-1-.3-2.8.5-3.2.9-.4 3.1-1.2 3.3-1.7.2-.5-.3-4.1-.6-5-.3-.9 0-3.6.4-4.1.3-.5 1-1.7 1.6-2 .5-.3 3.9-2.3 4.4-3 .5-.7 1.4-4.6 1.2-6.2-.2-1.7-.6-4.5-.9-5.2-.3-.7-.2-2.3-.3-2.6-.1-.3-.4-1.7-.7-2.2-.3-.4 1-5.6 4-9.2 2.9-3.6 6.2-5.9 6.7-6.8.5-.9 2.3-4.5 3-6.2.8-1.6 2.3-4.1 2.1-5.6-.3-1.6-1.2-1.7-1.9-1.5-.7.2-3 1.1-4 1-1-.2-1.8.7-3-.1-1.1-.8-1.8-2.9-2.6-3.6-.8-.8-3-4.1-3.6-4.9-.5-.9 0-3-1.7-4.7-1.6-1.7-1-2.9-1.6-4.6-.7-1.7-1.5-4.5-2.2-5.6-.7-1-1.1-2.5-2-4.3 0 0-.7-2.3.3-2 1 .3 2.1-.2 2.8 1.7.7 1.9 2.9 4.4 3.6 6.7.7 2.2 2.1 4.5 2.9 5.8.9 1.3 2.1 4.6 2.4 6.4.3 1.8.6 3.6 1.2 4.3.6.7 4.2.3 5.9-.9 1.6-1.1 4.1-3.5 5.7-4.4 1.6-1 4-2.2 5.2-3.6 1.2-1.4 2-2.5 2.8-4 .8-1.5 2-1.9 1-2.9s-2.5-1.7-3.4-3c-.9-1.3-1.5-1.7-1.5-1.7s-1.4 2.3-2.8 2.4c-1.4.2-3.4-.3-3.4-.7 0-.4.1-1.9-.2-2.1-.3-.2-.9-.1-1.1-.6-.3-.5-2.1-4-2.3-4.6-.3-.6-.2-1.9.3-2.3.5-.3 2-.7 2.3-.2.3.5 1.4 2.4 2.2 3.6.8 1.1 2.8 2.5 4.1 2.3 1.3-.3 2.6-.8 3-.1.4.7 2.4 2.4 3.5 2.8 1 .3 6.8-.4 7.5-.3.7.1 1.6.1 2.8 1.6 1.1 1.6 2.8 2.5 3.1 2.6.4.1.1.3-.2 1.5-.3 1.2-.3 2.3 1 2.5 1.3.2 2.5-2.7 2.5-2.7s.9 2.4.6 3.1c-.3.7.5 6.6 1.1 8.5.6 1.9 2.3 7.2 2.9 8.4.5 1.2.5 3.2 1.7 2.9 1.2-.4 2.9-2.9 2.9-3.6.1-.7.8-3.3.5-4.9-.3-1.6.1-3.4.4-3.5.3-.1 5.1-4.7 6.8-5.8 1.6-1.1 1.3-1.9 2.6-2.9s3.3-1.5 4.1-1.9c.8-.4 1.9-.6 2.6.6.7 1.2 1.4 2.7 1.9 3.1.5.4 1.6 2.7 1.4 4.1-.2 1.4-1.3 2.3-.3 2.4 1 .1 2.1-1.5 2.3-1.6.3-.2 1.9.2 2.2 1.6.3 1.4 1.1 5.3 1.3 6.9.2 1.7.5 2.4.1 3.6-.4 1.2 0 2.5.7 3.6s1.1 2.9 1.5 3.8c.4.9.2 3 1 3.5.9.4 1.5 2 2.1 2.2.6.2 1.5.3 1.5 0s-.9-1.1-.8-2.7c.1-1.6.5-2.4-.5-3.2-1-.8-2.8-3.3-3.3-3.7-.5-.4-1.3-2.5-1.3-2.8 0-.3.9-3 .9-4.2.1-1.1.2-2.3.2-2.3s1 .1 1.6.9c.6.8 1.7 2.2 2.2 2.8.4.6 1.2 1 1.6 1.5.3.4.4 2 .4 2.3 0 .3 0 1 .5.5s.7-1.2.6-1.6c-.1-.4-.1-1.3-.1-1.3s1.4.6 2.3.2c.9-.4 2.5-1.5 2.6-2.3.1-.8.1-2.2-.2-3.3-.3-1.1-.9-3-1.6-4-.7-1-1.7-1.8-2.2-2.4-.4-.6-1.3-1.8-1.1-2.6.2-.8 1.1-2.2 1.6-2.7s1.7-1.7 2.4-1.8c.7-.1 1.2.2 1.3.8.1.6.4 1.6.7 1.7.3.1.4-1 .6-1.2.2-.3 1.7-1.2 2.3-1.5.5-.3 1.7-.7 1.8-1 .2-.3.7-1 .7-1s.2 1 .7.7c.5-.3 2-.2 2.2-.7.2-.5 1.1-1.5 1.1-1.5s1.1-1.2 2-1.6c.9-.4 1.3-.9 1.4-1.6.1-.8.2-2 .9-3.2.7-1.2 1.5-3 1.9-3.6.4-.5.6-1.3.1-1.6-.5-.3-1-.8-1-.8s-.5-1.9-.1-1.9.2-1.8-.4-2.6c-.6-.8-1.4-1.8-1.3-3 .1-1.1 1.5-2.6 1.9-3 .4-.4 3.3-.3 2-1.1-1.3-.9-2.3-.8-3-.4-.8.3-1.6 1.2-2 .7-.4-.5-1.4-2.3-1.4-2.6 0-.3 1-.4 1.6-1.2.6-.8 2.2-2 2.6-2.6.4-.6.8-.5 1.3-.4.5.1-.1 1-.3 1.6-.2.6-.9 2 0 1.7.9-.3 2.6-1.2 3-1.3.4-.1 1.8-.5 1.6.4-.2 1-1.1 1.9-.6 2.5.5.6 1.8 1.2 1.8 1.2l.8-.3s.4 1 .3 1.9c-.2.9 0 2.3-.3 3-.3.6-.6 1.6.2 1.3.8-.3 2.1-1.1 2.3-1.5.3-.3 1-1.6.7-2.9-.3-1.3-1-3-1.5-3.6-.4-.6-.5-1.8-.5-2.1 0-.3 1.6-1.1 2.1-1.9.5-.8.3-1.6.9-2.4.6-.9 1.9-1.7 2.3-2.2.4-.4 1 0 1.5.3s1 1.4 1.8.4c.8-1 4.2-5.1 5-6.1.8-1 2.1-3.7 2.6-4.8.5-1 1-3.3 1-4.1.1-.8.9-1.4.4-3.1-.5-1.7-1-3.3-1.8-3.3-.9 0-1.1 1.2-2.2 1.1-1-.1-1.4-2-1.6-2.3-.2-.3-1.7-.3-1.8-.6-.1-.3 4.8-5.4 6.6-7.3 1.8-1.9 2.9-3.7 4.8-4.1 1.9-.3 4.7-.3 5.6.2.9.4 2.8-.4 3.3-.6.5-.2 2.3-.5 2.6-.2.4.3-1 1.8-.3 2.1.7.3 2.7-.3 3.5-.9.8-.5-.4-1.8.3-2.6.8-.8 2.5-2.4 3.4-2.7.9-.3 3-.8 3.4-.4.4.3.4 1.5.8 2.1.4.6 2.2-1 2.6-1.6.4-.5.8-1.6 1.5-2.1s1.9-.3 2.2-.1c.3.2-.7.4-1.1 1.9-.4 1.5-.8 1.9-2.1 2.6-1.3.7-3.3 2.9-3.7 3.5-.4.6-2.7 1.9-3.2 3s-.4 2.3-.9 2.4c-.4.2-1.3.4-1.5 1.7-.2 1.4.4 4.6.5 5.4.1.8.3 2.5.5 3.4.2.9.1 1.9.8 1.7.7-.3 1.6-1 1.6-1.8.1-.8.4-1.8 1-2.1.6-.3.9-1.1 1-1.8.2-.7 1.1-.8 1.7-1.5.7-.7.2-2 .5-2.9.3-1 2-.6 1.7-1.6-.3-.9 0-2-.2-2.7-.2-.7-.5-1.9-.4-2.4.2-.5 1.7-3.1 1.7-3.1s1.6-.3 2.3-.8c.7-.5 1.7-.3 2.3-.4.5-.2 2.3-.2 2.8.2.4.3.5 1.9 1.3 1.5.8-.4 1.3-2.3 2.7-3.1 1.4-.8 5.3-2.5 6.2-2.6.9-.1 1.9.6 2.3.1.4-.5 0-.9-.4-2.1-.4-1.2-1.1-2.6-.5-2.6.6 0 2.2.1 2.5-.7.3-.8.5-2.3.7-2.5.2-.3.7-.3 1 .5.3.8 1.4.8 2.3.7.9-.1 1.7.9 2 1.3.3.4 1.5 1 2.5 1.4 1 .4 1.6 0 1.6-.9-.1-.9.3-1.5.7-1.4.4.1 1.5.3 1.7 0 .7-.4 1.7-.4.7-1.3z"/>
    <path d="M234.5 109.8c.2.5 1 .1 1.6-.7.6-.8-.1-2-.1-2-.8-.2-1.7 2.2-1.5 2.7zm.2 2s-.1 2.5.6 3.2c.7.7.8-.4 1.1-1.4.3-1 .2-1.8-.3-2.5-.5-.8-1.4.7-1.4.7zm-88.8-16.5c1.7 1.7 3.3.8 4.4 1.4 1.1.6 4.5 3 4.2 1.9-.3-1.1-1.7-4.4-3-4.7-1.4-.3-2.8-1.1-2.8-1.1v-2.2s-4.4 3-2.8 4.7zm-28.5 47.5c-1.1-.8-5.3-.6-5.3-.6l6.7 4.2s3.6 1.1 5 1.4c1.4.3-.5-1.1-1.4-1.7-.9-.6-3.9-2.5-5-3.3zm9.1 4.9s1.1 3.3 2.8 3c1.7-.3 2.8-1.7 1.9-2.2-.8-.5-3.8-1-4.7-.8zm11.7-87.9c1.1-1.4 2.5-4.2 2.5-4.2s-5-.6-6.4-1.7c-1.4-1.1-1.4-3.6-1.4-4.4 0-.8-.3-3.3-2.5-4.4-2.2-1.1-6.7-2.2-8-2.8-1.4-.6-.8-2.5-2.2-3.6-1.4-1.1-4.7-.8-4.7-.8l-3.1.6-2.5 3.9-.8-4.2s-2.8-.3-3.9 1.7c-1.1 1.9-1.9 3.3-.8 4.4 1.1 1.1 3.3 2.5 4.4 2.2 1.1-.3 6.1 2.2 6.1 2.2s.3-.8 2.2-.8c1.9 0 4.2.8 5.5 1.9 1.4 1.1 2.5 1.4 3.1 3.3.6 1.9 0 3.3-.3 4.7-.3 1.4-5.8 4.4-5.8 4.4s5.3-1.1 6.4 0c1.1 1.1 1.7 3 3.6 3.6 1.6.5 5.4.7 6.3.8-1.1-.3-6.2-4.9-3.8-4.1 2.5.8 4.7.8 3.6-.6s-3.1-3.1-3.1-3.1l-2.8-1.4 4.2-.3c0 .2 3.1 4.1 4.2 2.7zm-2.4 6.9zM192 46.2c-1.4-1.1-1.7-2.2 0-2.5 1.7-.3 3.1.3 2.8-1.7-.3-1.9 1.1-2.5 1.7-3.3.5-.8.8-2.8.8-2.8v-3.3s0-1.4-.3-2.2c-.3-.8.3-1.9.6-3s2.8-4.2 2.8-4.2l1.9-2.8s1.4-1.7 2.2-1.9c.8-.3 2.5-1.4 2.5-1.4s-3.6-1.4-6.4-.3c-2.8 1.1-5.6 2.5-6.9 1.9-1.4-.6 0-2.5-.8-2.5h-6.1s11.1-1.9 8.6-2.5c-2.5-.6-5.8-1.7-7.8-2.2-1.9-.6-6.1-1.7-10.3-1.1-4.2.6-6.1 1.4-8.3 1.7-2.2.3-4.7.6-5.8 1.4-1.1.8 0 2.8-.8 3.3-.8.6-2.2-.3-3.3-1.1-1.1-.8-3.1-.6-3.1-.6s-1.4 2.2-2.5 1.9c-1.1-.3-3.1-1.4-3.1-1.4s-6.4.8-7.5 1.1c-1.1.3-1.4 2.5-3 2.2-1.7-.3-4.7 1.4-5.3 2.2-.6.8 2.8-.6 2.8.8s.3 3-1.4 2.8c-1.7-.3-3.6-.3-5.8.6-2.2.8-5.3 1.9-3.3 2.2 1.9.3 8.9.6 8.9.6l-6.7 2.8 3.9 1.7s5.8-.8 7.8-.3c1.9.6 6.4 2.5 7.8 3.6 1.4 1.1 2.8 5.8 2.2 6.9-.6 1.1 2.2 0 3.3 1.7 1.1 1.7.8 2.8 0 3.3-.8.6-3.3.6-2.2 1.7 1.1 1.1 4.2.8 3.6 1.9-.5 1.1-2.8 1.7-2.8 3.1 0 1.4 2.2 6.7 2.8 8.1.6 1.4 2.8 5 3.6 5.5.8.6 2.8 1.9 2.8 1.9s1.7.8 3.3 1.4c1.7.5 2.5-4.7 3.3-6.4.8-1.7 6.9-8 8.6-8.6 1.7-.6 6.1-4.2 6.1-4.2 2.2-.3 6.7-2.5 8.9-3.3 2.1-.8 1.3-1.6-.1-2.7zm12.8 13.9c.6-1.9-.5-2.8-1.9-3-1.4-.3-5.8 2.8-5.8 2.8l-2.8-1.4c-2.5.6-2.8 1.7-2.5 2.8.3 1.1 4.2 3.1 6.7 2.8 2.4-.4 5.7-2.1 6.3-4zM62.7 42.9c1.1-.6 2.8 1.1 3.9 1.9 1.1.8 3 .8 5 1.7 1.9.8-4.2 1.7-4.2 1.7s1.9 1.1 3.1 1.7c1.1.6 4.2 1.7 5.8 1.7 1.7 0 5.8-2.5 5.8-2.5s1.9.8 4.2 1.1c2.2.3 2.2-1.7 1.4-3.1-.8-1.4-2.2-.8-3.3-1.4-1.1-.5-1.7-4.2-1.7-4.2l-2.2-2.2s-1.4 1.4-1.9.3c-.6-1.1-1.7.6-2.8 1.1-1.1.6-2.5.8-4.2-1.1-1.7-1.9-3-2.2-5-3.3-1.9-1.1-3.6-1.4-6.1-.8-2.5.6-3.3 1.1-3.6 2.2-.3 1.1.3 4.7 1.9 6.1 1.7 1.3 2.8-.4 3.9-.9zm29.1-5.6c-1.7.3-3.1.3-3.1 1.4v1.1L87 40.9s1.7 2.5 3.6 3.1c1.9.6 5.8-.8 4.4-1.9-1.4-1.1-2.8-3.1-2.8-3.1s1.3-2-.4-1.7zm9.5 2.2c-.5-1.4-4.2-1.4-4.2-1.4s.3 2.5 0 4.2c-.3 1.7-1.9 3.9-1.9 3.9s1.1 1.4 1.9 1.9c.8.6 3.6-1.7 3.6-1.7L98.2 44l.8-2.8s2.8-.3 2.3-1.7zm-6.1 10.3c.5-.8-2.2-1.4-2.2-1.4s-1.9 1.4-1.1 1.7c.8.3 2.7.5 3.3-.3zm1.5-19.3c-.9-.1-1.5-.1-1.5-.1.1.3.7.3 1.5.1z"/>
    <path d="M97.9 23.2c1.1.6 1.9 2.5 2.2 3.1.3.6.3 1.7 2.2.8 1.9-.8 4.4-.3 4.4-.3s-1.9 1.1-2.8 1.4c-.6.2-4.9 2-7.3 2.4 1.4.2 3.3.5 3.5 1.2.3 1.1.8 3.9 1.7 4.2.8.3 6.9-.6 6.9-.6s4.5-.3 5.6-.3c1.1 0 5-1.7 2.8-1.9-2.2-.3-8.1.3-9.2.3-1.1 0-3.3-1.1-3.3-1.1s1.7-1.9 3.1-1.7c1.4.3 5.6.3 7.5-.3 1.9-.6 3.3 0 3.3-1.1s.8-1.4 2.2-2.2c1.4-.8 2.2-1.9 2.2-1.9-.3-1.4-.6-3 .6-3 1.1 0 3.9-.6 3.9-.6s4.4-3.1 5.3-3.6c.8-.6 3.1-1.1 4.4-1.7 1.4-.6 3.6-1.4 3.6-1.4s-.8-.8-4.7-1.7c-3.9-.8-8.3 1.7-10.8 1.7s-5.5-.3-8.3.3c-2.8.6-5.3-1.1-8.3 0-3.1 1.1-4.4 1.4-5 2.2-.6.8-2.2.6-3.9.6-1.7 0-5 2.5-3.9 3.3 1 .8 1 1.3 2.1 1.9zm-.8 10s-2.2 1.9-1.4 2.2c.8.3 2.5.8 2.5.8l-1.1-3zm-13.6-2.8s.3 1.4.8 2.5 2.8.8 3.6 1.7c.8.8 3.3.6 4.7-.3 1.4-.8-1.1-3.3-1.1-3.3l-2.8.3-5.2-.9zm-12.2 3.9s.8 2.2 1.9 1.7c1.1-.6 3.6-1.4 4.7-1.1 1.1.3 3-.8 3-2.8 0-1.9-3-1.9-3-1.9l-2.2 2.5s-3.1-.8-4.4-1.4c-1.4-.6-3.1.6-2.8 1.9.3 1.3 2.8 1.1 2.8 1.1zm-11.6-1.1c1.9 1.4 2.5-.8 3.3-1.9.8-1.1 2.5.6 3.9-.8s1.1-3.3 1.1-3.3-6.4 1.7-7.8 2.5c-1.4.7-2.5 2.1-.5 3.5zm14.1-3.4c1.4.6 1.7-.6 2.8-1.7 1.1-1.1.8-2.5 0-3.1-.8-.6-5 1.9-5 1.9s.8 2.4 2.2 2.9zm9.4-3.3c1.1-.3 3.9.8 5.6 1.7 1.7.8 2.5.3 2.5-.8s-1.7-2.2-3.1-3.1c-1.4-.8-5-.3-5-.3s-1.1 2.8 0 2.5z"/>
    <path d="M97.7 29.3c1.9.3 2.2-1.7 1.4-2.2-.8-.6-2.2-1.4-2.2-1.4l-4.2-.8c0-.1 3 4.1 5 4.4zm72.7 158.1c-1.7-.8-6.4-3.1-8.6-4.4-2.2-1.4-5 .6-5 .6l-.3-4.2s-1.1-4.2-2.8-6.9c-1.7-2.8-4.7-1.4-7.2-1.1-2.5.3-3.1-2.5-4.2-3.1-1.1-.6-1.4-2.5-1.4-2.5s-2.8-.8-4.2-1.4c-1.4-.5-5.8-1.7-6.9-1.9-1.1-.3-1.7 3.1-2.5 2.8-.8-.3-.6-3.1-1.7-3.1s-4.7 4.4-4.7 4.4l-.3 1.7-2.8-2.8-4.4.6s-.8-1.9-1.9-3.3c-1.1-1.4 0-2.2.5-4.4.6-2.2-1.7-1.9-3.3-2.5-1.7-.6-3.6-.6-3.6-.6l.8-3.6s1.1-5 .8-5.8c-.3-.8-3.1 0-3.6.8-.6.8-2.5 3.3-2.5 3.3s-3.6 1.1-4.7.3-1.4-2.2-2.5-3.6-1.4-4.4-1.7-7.2c-.3-2.8.3-4.4.8-5.3.6-.8 3.6-2.5 5.3-3.3 1.7-.8 4.4 0 4.4 0s2.8-.6 5-1.1c2.2-.6 3.9 2.2 4.7 3.6.8 1.4 1.9 5 3.9 3.9 1.9-1.1 0-2.8-.3-4.2-.3-1.4.6-4.2.8-6.7.3-2.5 1.9-1.9 3.9-4.7 1.9-2.8.6-2.8.6-4.2 0-1.4.8-2.5 2.5-3.6s1.4-1.1 4.2-3.3c2.8-2.2 1.1-2.5 3-5.5 1.4-2.1 2.6-2.5 3.9-3.5l1.3 1s-.6 1.9-.3 3.3 1.9-1.4 2.8-2.2c.8-.8 2.5-1.9 2.8-3.3.3-1.4-1.7.6-2.5 0-.5-.3-1.2-.9-1.7-1.4 1.2-2.1-.4-2.7-1.4-4.4-1.1-1.9-4.7 1.4-4.7 1.4s2.5-3.1 3.3-3.6c.8-.6 4.2 0 7.2 0s3.6-3 6.1-3.9c2.5-.8 1.4-1.9.6-3.1-.8-1.1-3.6-1.9-5-3s-2.8-1.7-3.1-5.8c-.3-4.2-3.6-4.7-3.6-4.7s-2.8 3.3-4.7 2.8c-1.9-.6-1.1-3-1.9-4.7-.8-1.7-4.4-2.5-6.4-2.2-1.9.3-3.9-.3-4.7 1.7-.8 1.9.8 4.7 2.2 6.4 1.4 1.7-.8 6.1-1.7 6.9-.8.8-.6 6.4-2.8 6.9-2.2.6-2.8-6.7-3.9-7.2-1.1-.6-9.4-4.2-10.8-5.6-1.4-1.4-4.4-2.5-5.5-5-1.1-2.5 6.4-6.7 7.5-7.5 1.1-.8 3.1 0 4.7.6 1.7.6 2.5.3 3.3-.8.8-1.1.8-2.2.8-2.2s-6.4 0-5.3-.3c1.1-.3 3.3-2.2 3.3-2.2s2.5-2.2 4.7-4.2c2.2-1.9-.6-2.2-1.4-4.2-.8-1.9-3.3-.8-3.3-.8l-1.7 4.7s-2.2-.3-2.8-1.1c-.6-.8-3.1-3.3-4.7-4.2-1.7-.8-2.8.8-3.3 1.9-.6 1.1-4.7 1.1-4.7 1.1s-3.3.6-4.4 1.1c-.7.4-5.7-1.5-8-1.8-2.2-.3-.3 4.2-.8 5-.6.8-3.1-1.7-4.4-2.2-1.4-.6-4.7-1.4-4.7-1.4s-4.2-2.5-6.1-3.3c-1.9-.8-8-1.4-10-3.1-1.9-1.7-4.2.3-5.3 0-1.1-.3-3.9 2.5-5 2.8-1.1.3-3.9-.6-7.5-.6s-9.4-2.5-11.9-3.9-11.1 1.1-12.8 1.4c-1.7.3-5.8.8-6.1 3.1-.3 2.2-5 3.3-5 3.3L8 55.9s-1.7 1.4-2.5 1.4-3.3-2.2-4.4-1.4c-1.1.8-1.4 2.5-.8 3.6.6 1.1 3.9 1.1 6.4.6 2.5-.6 1.7 1.7 1.9 2.8.3 1.1-3.6.8-4.7 1.3-1.1.6-1.1 3.3 0 5 1.1 1.7 3.1 3.3 5 3.9 1.9.6 3.1 1.1 3.1 1.1s-2.5 3.6-1.7 4.7 3.1-2.5 4.2-3.3c1.1-.8 3.6-3.9 3.6-3.9l2.5-4.4-.6 4.4s1.4 1.4 3.6-.8 1.4-3.3 1.4-3.3 5.5 3 6.7 2.8c1.1-.3 5.3.8 6.9 2.5 1.7 1.7 3.6 5.3 4.4 5.3.8 0-.6-2.2.8-1.9 1.4.3 4.2 4.4 5.3 6.7 1.1 2.2 3.3 7.2 3.9 8.3.5 1.1 1.7.8 2.5 2.2.8 1.4 2.2 5 2.2 6.4 0 1.4-.6 6.1.6 10.6 1.1 4.4 2.5 10 5 11.9 2.5 1.9 3.9 5.3 4.4 6.4.6 1.1 2.5 6.4 3.9 9.2 1.4 2.8 3.3 4.7 3.6 2.8.3-1.9-6.1-12.8-6.1-12.8s1.1-1.1 1.9-1.1c.8 0 2.5 5.8 2.5 5.8s6.7 8.9 7.2 10c.6 1.1.6 5.3 2.2 7.5 1.7 2.2 13 4.4 13.9 4.2.8-.3 2.8 2.8 3.6 3.6.8.8 5.3 2.2 6.7 3.3 1.4 1.1 1.9 3.9 3.3 5.8s2.5 1.4 4.2 1.7c1.7.3 2.2-.8 2.2-.8l1.9 2.8s.3 3.9 0 4.7c-.3.8-1.7 3.9-2.8 6.1-1.1 2.2-.5 3.9-.5 5.3s-.3 4.7 1.7 6.7c1.9 1.9 3 7.8 3.9 9.7.8 1.9 4.4 5.5 5.8 6.7 1.4 1.1 1.9 4.2 2.5 6.4.5 2.2-.6 7.2-.6 8.3 0 1.1-1.1 14.7-1.4 16.1-.3 1.4-1.9 8-1.9 9.4 0 1.4-.8 5-.8 5s1.1 1.4.3 3.6-1.4 5-1.7 6.9c-.3 1.9 0 7.8.8 9.2.8 1.4 2.8 4.4 5.3 6.1 2.5 1.7 3.3-1.7 3.3-1.7s-1.7-3.9-2.2-5.5c-.6-1.7.8-3.1 2.5-5.8 1.7-2.8.8-2.5-.5-3.9-1.4-1.4 1.1-3.1 3.1-5.3 1.9-2.2.6-3 1.1-4.2.6-1.1 1.9-2.5 1.9-3.3 0-.8 3.6-1.4 5.8-2.2 2.2-.8 2.8-2.8 1.9-5.3-.8-2.5-1.1-4.7-1.1-4.7s3.6 1.9 6.4-.3c2.8-2.2 2.5-3.6 4.7-6.7 2.2-3 .8-4.2 1.1-6.7.3-2.5 4.2-3.6 7.5-5s3-1.1 5-4.4c1.9-3.3 1.4-7.2 1.1-9.4-.3-2.2 1.9-4.2 3.6-6.4 1.7-2.2 2.8-6.1 2.2-8.6-.5-2.8-4.7-3.3-6.3-4.2zM363.2 25.8c-1.3-1.3-3-1.3-3.7-1.4-.6-.2-2.6 2.9-2.6 2.9s2.7-.6 3.9-.8c1.1-.2 3.7.6 2.4-.7zm-14.4-1.7c.6-.2 1.4.5 2.6.5 1.1 0 3.1.6 3.1.6l2.2-1.1s-.2-.6-.8-1c-.6-.3-.6-1-1.3-1.5-.6-.5-.8-1-1.9-1.8-1.1-.8-.8-.5-1.8 0s-1.4 1.1-2.2 1.9c-.8.8-2.7.2-2.3 1.8.4 1.7 1.7.7 2.4.6zm-107.3 2.7c.6.3 1.6 1 1.6 1s-1.6 2.1-1.6 2.7c0 .6 1.6.8 3.9 1.4 2.2.6 2.9-1.4 2.9-1.4s.5-1.3 1-1.4c.5-.2 1.6.3 2.4 1.1.8.8 1.8.6 3.5-.2 1.8-.8-1.8-1.3-1.8-1.3s-2.3-1-2.9-1.9c-.6-1-1.9-1.6-2.6-2.1-.6-.5-1.9-2.3-1.9-2.3s-1.9.6-2.6.5c-.6-.2-1.3-1.1-2.1-.8-.8.3-1.6.6-1.5 2.1.3 1.5 1.1 2.3 1.7 2.6zm9.5-2.6c1 0 3.9.5 5.8.8 1.9.3 3.5-2.1 3.2-2.7-.3-.6-2.4.2-2.9.2s-3.2-.6-4.5-1.6c-1.3-1-3.1.5-3.1.5l-.8 1.1c.1-.1 1.3 1.7 2.3 1.7z"/>
  </g>
  <g opacity=".37" clip-rule="evenodd" fill="none" stroke="#00A99D" stroke-miterlimit="22.926">
    <path stroke-width="3.84" d="M134.1 83.4l76.8 41.2m130 38.9l-130-38.9"/>
    <path stroke-width="2" d="M255 239.7l-44.1-115.1m105.3-85.7l-105.3 85.7m98-84.1l72-8.8"/>
    <path stroke-width="3.84" d="M290.7 93.2l90.2-61.5m-92.5 59.8l-84.6-69M289 95l64 88.4"/>
    <path stroke-width="2" d="M340.9 163.5l40-131.8m-93.7 61.1l-102.9 36.3"/>
    <path stroke-width="3.84" d="M340.9 163.5l62.1 46m-62.1-46L255 239.7"/>
    <path stroke-width="2" d="M340.9 163.5L98.4 191M203.7 24.3L133.6 86"/>
    <path stroke-width="3.84" d="M73.7 112.9L133.6 86"/>
    <path stroke-width="2" d="M72.8 115.9L91 179m-17-65.2l136.4 8.8"/>
    <path stroke-width="3.84" d="M255 239.7L98.4 191"/>
    <path stroke-width="2" d="M255 239.7l148-31.8"/>
    <path stroke-width="3.84" d="M96 194.1l117.3-70.2m-1.2 8.3l-8.6-108.9"/>
    <path stroke-width="2" d="M311.3 39.9L203.6 22"/>
    <path stroke-width="3.84" d="M404.8 209.5L380.9 31.7"/>
  </g>
  <circle cx="339.5" cy="164.5" r="41" fill-rule="evenodd" clip-rule="evenodd" fill="#00A99D"/>
  <path d="M336.7 163.5c-.1-2.2-.3-4.5-.7-6.7-.1-.4-.2-.9-.2-1.3l-3.2-8.3h-5.9l-3.2 8.3c-.1.4-.2.9-.2 1.3-.4 2.2-.6 4.5-.7 6.7h14.1z" fill="#F2F2F2"/>
  <path d="M335.4 163.5c-.1-2.6-.4-5.2-.9-7.7l-2.7-7.4h-4.3l-2.7 7.4c-.5 2.6-.8 5.2-.9 7.7h11.5z" fill="#40596B"/>
  <path d="M336.7 163.5c-.1-2.2-.3-4.5-.7-6.7h-12.7c-.4 2.2-.6 4.5-.7 6.7h14.1z" fill="#FF7058"/>
  <path d="M327.7 163.5h3.8c1.2-.4 1.9-1.2 1.9-2.2 0-1.4-1.7-2.6-3.8-2.6-2.1 0-3.8 1.2-3.8 2.6 0 1 .7 1.7 1.9 2.2z" fill="#F2F2F2"/>
  <path d="M333.2 145.1c-.1-.3-.4-.6-.7-.6h-5.8c-.3 0-.7.2-.7.6l-.6 1.9h8.5l-.7-1.9z" fill="#FFD15C"/>
  <path d="M356.5 163.5c-.1-2.2-.3-4.5-.7-6.7-.1-.4-.2-.9-.2-1.3l-3.2-8.3h-6.1l-3.2 8.3c-.1.4-.2.9-.2 1.3-.4 2.2-.6 4.5-.7 6.7h14.3z" fill="#F2F2F2"/>
  <path d="M355.2 163.5c-.1-2.6-.4-5.2-.9-7.7l-2.7-7.4h-4.2l-2.8 7.4c-.5 2.6-.8 5.2-.9 7.7h11.5z" fill="#40596B"/>
  <path d="M356.5 163.5c-.1-2.2-.3-4.5-.7-6.7H343c-.4 2.2-.6 4.5-.7 6.7h14.2z" fill="#FF7058"/>
  <path d="M347.5 163.5h3.8c1.2-.4 1.9-1.2 1.9-2.2 0-1.4-1.7-2.6-3.8-2.6-2.1 0-3.8 1.2-3.8 2.6 0 1 .8 1.7 1.9 2.2z" fill="#F2F2F2"/>
  <path d="M353 145.1c-.1-.3-.4-.6-.7-.6h-5.8c-.3 0-.7.2-.7.6l-.7 2h8.5l-.6-2z" fill="#FFD15C"/>
  <path d="M357.8 163.3h-36.6c-.9 0-1.7.7-1.7 1.7v17.9c0 .9.7 1.7 1.7 1.7h36.6c.9 0 1.7-.7 1.7-1.7V165c-.1-1-.8-1.7-1.7-1.7z" fill="#84DBFF"/>
  <path fill="#FFF" d="M333.2 166.4h12.4v3.7h-12.4z"/>
  <circle cx="252" cy="242.1" r="29.7" fill-rule="evenodd" clip-rule="evenodd" fill="#E6615F"/>
  <path d="M264.9 238.4c-.3 0-.6-.2-.7-.5l-1.8-9.5c-.5-2.5-2.7-4.4-5.2-4.4h-6.9c-2.6 0-4.8 1.8-5.2 4.4l-1.8 9.5c-.1.4-.4.6-.8.5-.4-.1-.6-.4-.5-.8l1.8-9.5c.6-3.2 3.3-5.5 6.6-5.5h6.9c3.2 0 6 2.3 6.6 5.5l1.8 9.5c.1.4-.2.7-.5.8h-.3z" fill="gray"/>
  <path d="M267.9 259.5c-.3 0-.5-.2-.5-.5v-3c0-.3.2-.5.5-.5s.5.2.5.5v3c0 .3-.3.5-.5.5z" fill="#F76B4F"/>
  <path d="M245.9 251.5c0 3.6-2.9 6.5-6.5 6.5-1.2 0-2.3-.3-3.3-.9-1.9-1.1-3.2-3.2-3.2-5.6 0-3.6 2.9-6.5 6.5-6.5 1.2 0 2.3.3 3.3.9 1.9 1.2 3.2 3.2 3.2 5.6z" fill="gray"/>
  <path d="M245.9 251.5c0 3.6-2.9 6.5-6.5 6.5-1.2 0-2.3-.3-3.3-.9l6.6-11.1c1.9 1.1 3.2 3.1 3.2 5.5z" fill="#B3B3B3"/>
  <path d="M258 247.8h-8.5c-3.1 0-5.6 2.5-5.6 5.6v8.2h19.6v-8.2c0-3.1-2.5-5.6-5.5-5.6z" fill="#71C5F4"/>
  <path d="M252.9 247.8h-3.4c-3.1 0-5.6 2.5-5.6 5.6v8.2h3.4v-8.2c0-3.1 2.5-5.6 5.6-5.6z" fill="#64B4D8"/>
  <path d="M257.7 245.9v5.1c0 2.2-1.8 4-4 4s-4-1.8-4-4v-5.1h8z" fill="#E0B394"/>
  <path d="M257.7 245.9v5l-.2.2c-1.8 1.3-4.3 1.3-6.1 0l-1.6-1.2v-4h7.9z" fill="#D1A88C"/>
  <path d="M250.7 249.3l-3.7-2.7c-2-1.4-3-3.8-2.8-6.2l.6-6.6c.4-4.6 4.3-8.1 8.9-8.1 4.6 0 8.4 3.5 8.9 8.1l.6 6.6c.2 2.4-.8 4.8-2.8 6.2l-3.7 2.7c-1.8 1.3-4.2 1.3-6 0z" fill="#F7CBA4"/>
  <path d="M246.5 241.7c-.1 1.1.3 2.1 1 2.9l3.9 4.7c.2.2.4.4.7.6-.5-.2-.9-.4-1.3-.7l-3.7-2.7c-2-1.4-3-3.8-2.8-6.2l.6-6.6c.4-4.5 4.2-8 8.7-8.1-2.8.1-6 2.7-6.1 5.5l-1 10.6z" fill="#E8BA97"/>
  <path d="M244.3 233.6c-1.6-.2-3.1 1-3.2 2.7l-.2 1.6c-.2 1.6 1 3.1 2.7 3.2l.7-7.5zm18.8 0c1.6-.2 3.1 1 3.2 2.7l.2 1.6c.2 1.6-1 3.1-2.7 3.2l-.7-7.5z" fill="#F76B4F"/>
  <path d="M243.6 241.6c-.4 0-.7-.4-.7-.7l.7-7.3c0-.4.4-.6.7-.6.4 0 .6.4.6.7l-.7 7.3c0 .4-.3.6-.6.6zm20.3.2c-.3 0-.6-.3-.7-.6l-.7-7.5c0-.4.2-.7.6-.7.4 0 .7.2.7.6l.7 7.5c.1.4-.2.7-.6.7zm-2.2-11.1c-.5.4-1.1.6-1.7.6-.6 0-1.2-.2-1.7-.5-1.2 1.1-2.8 1.8-4.6 1.8-1.8 0-3.4-.7-4.6-1.8-.5.3-1.1.5-1.7.5-.6 0-1.2-.2-1.7-.6 1.4-2.9 4.3-4.8 7.7-4.9h.3c2.3 0 4.4.9 6 2.3.8.7 1.5 1.6 2 2.6z" fill="#666"/>
  <path d="M253.6 225.7c-2.8.1-6 2.7-6.1 5.5-.6 0-1.2-.2-1.7-.6 1.4-2.9 4.3-4.8 7.7-4.9h.1c-.1 0-.1 0 0 0z" fill="#4D4D4D"/>
  <path d="M241 251.5c0 .9-.7 1.6-1.6 1.6-.3 0-.6-.1-.8-.2-.5-.3-.8-.8-.8-1.4 0-.9.7-1.6 1.6-1.6.3 0 .6.1.8.2.5.3.8.8.8 1.4z" fill="#F7B239"/>
  <path d="M264.8 248.4h6.1c-.2.7-.6 1.3-1.2 1.7v5.6c0 .5-.2 1-.6 1.3-.3.3-.8.6-1.3.6-1 0-1.9-.8-1.9-1.9v-5.6c-.5-.5-.9-1-1.1-1.7z" fill="#F9C573"/>
  <path d="M271 247.5c0 .3 0 .6-.1.9h-6.1c-.1-.3-.1-.6-.1-.9 0-1.7 1.4-3.2 3.2-3.2 1.7.1 3.1 1.5 3.1 3.2z" fill="#666"/>
  <path d="M267.9 257.5c-1 0-1.9-.8-1.9-1.9V250c-.6-.4-1-1-1.2-1.7h2.1c.1.7.2 1.3.4 1.7v5.6c0 1.1.2 1.9.6 1.9z" fill="#E2AF66"/>
  <path d="M267.9 244.4c-.5 0-1 1.4-1 3.2v.9h-2.1c-.1-.3-.1-.6-.1-.9 0-1.8 1.4-3.2 3.2-3.2z" fill="#4D4D4D"/>
  <path fill="#29ABE2" d="M238 225.5l.9 2 2.1.3-1.5 1.5.4 2.1-1.9-1-2 1 .4-2.1-1.5-1.5 2.1-.3"/>
  <path d="M241 251.5c0 .9-.7 1.6-1.6 1.6-.3 0-.6-.1-.8-.2l1.6-2.7c.5.2.8.7.8 1.3z" fill="#F9C573"/>
  <path d="M257.2 243.5s-.1.1-.2.3c0 .1-.1.1-.1.2s-.1.1-.1.2-.1.1-.2.2c0 0 0 .1-.1.1l-.1.1c-.1.1-.2.1-.2.2-.1.1-.2.1-.3.2 0 0-.1.1-.2.1s-.1.1-.2.1c-.1.1-.2.1-.3.2-.2.1-.5.2-.8.2-.3.1-.5.1-.8.1-.3 0-.6 0-.8-.1-.3 0-.5-.1-.8-.2-.1-.1-.2-.1-.3-.2-.1 0-.1-.1-.2-.1s-.1-.1-.1-.1c-.1-.1-.2-.1-.3-.2-.1-.1-.2-.1-.2-.2l-.1-.1-.1-.1-.2-.2c0-.1-.1-.1-.1-.2s-.1-.1-.1-.2c-.1-.2-.2-.3-.2-.3s.1 0 .3.1c.1 0 .1 0 .2.1.1 0 .1 0 .2.1.1 0 .1.1.2.1s.2 0 .2.1c.1 0 .2.1.3.1.1 0 .2 0 .3.1h.2c.1 0 .2 0 .3.1.2 0 .4.1.6.1h1.2c.2 0 .4-.1.6-.1.1 0 .2 0 .3-.1h.2c.1 0 .2 0 .3-.1.1 0 .2-.1.3-.1.1 0 .2 0 .2-.1.1 0 .1-.1.2-.1s.1 0 .2-.1c.1 0 .1-.1.2-.1.5-.1.6-.1.6-.1z" fill="#F2F2F2"/>
  <path d="M256.6 244.4l-.1.1c-.1.1-.2.1-.2.2-.1.1-.2.1-.3.2 0 0-.1.1-.2.1s-.1.1-.2.1c-.1.1-.2.1-.3.2-.2.1-.5.2-.8.2-.3.1-.5.1-.8.1-.3 0-.6 0-.8-.1-.3 0-.5-.1-.8-.2-.1-.1-.2-.1-.3-.2-.1 0-.1-.1-.2-.1s-.1-.1-.1-.1c-.1-.1-.2-.1-.3-.2-.1-.1-.2-.1-.2-.2l-.1-.1h.1c.1 0 .1.1.2.1s.2 0 .2.1c.1 0 .2.1.3.1.1 0 .2 0 .3.1h.2c.1 0 .2 0 .3.1.2 0 .4.1.6.1h1.2c.2 0 .4-.1.6-.1.1 0 .2 0 .3-.1h.2c.1 0 .2 0 .3-.1.1 0 .2-.1.3-.1.1 0 .2 0 .2-.1.2 0 .3 0 .4-.1zm-6.9-3.9c-.4 0-.7-.3-.7-.7v-1.1c0-.4.3-.7.7-.7s.7.3.7.7v1.1c0 .3-.3.7-.7.7z" fill="#4D4D4D"/>
  <path d="M256.2 236.1v-.4s0-.1.1-.1l.1-.1.1-.1.1-.1c.1-.1.2-.1.3-.2.1 0 .2-.1.4-.1h.8c.1 0 .2.1.4.1.1.1.2.1.3.2l.1.1.1.1.1.1s0 .1.1.1v.3h-2.6c-.3.1-.3.1-.4.1zm-8 0v-.4s0-.1.1-.1l.1-.1.1-.1.1-.1c.1-.1.2-.1.3-.2.1 0 .2-.1.4-.1h.8c.1 0 .2.1.4.1.1.1.2.1.3.2l.1.1.1.1.1.1s0 .1.1.1v.3h-2.6c-.3.1-.4.1-.4.1z" fill="#666"/>
  <path d="M257.7 240.5c-.4 0-.7-.3-.7-.7v-1.1c0-.4.3-.7.7-.7s.7.3.7.7v1.1c0 .3-.3.7-.7.7z" fill="#4D4D4D"/>
  <g fill="#E0B394">
    <path d="M254.8 237.7v3.2c0 .6-.5 1-1 1-.6 0-1-.5-1-1v-3.2"/>
    <circle cx="253.7" cy="247.4" r=".7"/>
  </g>
  <circle cx="92.5" cy="192.5" r="28.9" fill-rule="evenodd" clip-rule="evenodd" fill="#FFCD61"/>
  <path d="M79.9 181.8v20.6c.3 2.7 5.8 4.8 12.6 4.8 6.7 0 12.3-2.1 12.6-4.8v-20.6H79.9zm0 0" fill="#324D5B"/>
  <path d="M79.9 192.6c3.3 1.3 7.7 2.1 12.6 2.1 4.9 0 9.3-.8 12.6-2.1v-10.8H79.9v10.8zm0 0" fill="#2D4552"/>
  <path d="M90.6 207.2l-.1-15.6h-5.7v14.6c1.6.5 3.6.8 5.8 1zm0 0" fill="#3B5562"/>
  <path d="M90.5 194.6v-3h-5.7v2.4c1.8.3 3.7.5 5.7.6zm0 0" fill="#354C58"/>
  <path d="M92.5 178.4c10.1 0 18.3 3.3 18.3 7.4 0 4.1-8.2 7.4-18.3 7.4-10.1 0-18.3-3.3-18.3-7.4 0-4.1 8.2-7.4 18.3-7.4zm0 0" fill="#465765"/>
  <defs>
    <path id="a" d="M74.2 177.8h36.6v29.6H74.2z"/>
  </defs>
  <clipPath id="b">
    <use xlink:href="#a" overflow="visible"/>
  </clipPath>
  <path d="M92.5 181.2c6.9 0 12.6 1.9 12.6 4.3s-5.6 4.3-12.6 4.3c-6.9 0-12.6-1.9-12.6-4.3s5.6-4.3 12.6-4.3zm0 0" clip-path="url(#b)" fill="#2B414D"/>
  <path d="M101.3 178c.4.3.5.8.2 1.2L90.9 192c-.3.4-.9.5-1.2.2-.4-.3-.5-.8-.2-1.2l10.5-12.8c.3-.4.9-.5 1.3-.2zm0 0" clip-path="url(#b)" fill="#EFEFEF"/>
  <path d="M90.9 189.3l1.5 1 7.8-9.5-1.5-.9-7.8 9.4zm0 0" fill="#D07C40"/>
  <circle cx="206.5" cy="118.9" r="40.9" fill-rule="evenodd" clip-rule="evenodd" fill="#4D4D4D"/>
  <path d="M218.1 90.3c-.5 0-.9.4-.9.9v3h1.8v-3c0-.5-.4-.9-.9-.9z" fill="#5CA8D3"/>
  <path d="M195 100.3l-6.1 6.1 6.1-2.4c2 0 3.7-1.6 3.7-3.7H195z" fill="#FDA162"/>
  <path d="M182.8 100.3H195c0 2-1.6 3.7-3.7 3.7l-2.4 2.4-2.4-2.4c-2.1 0-3.7-1.7-3.7-3.7z" fill="#FDCE6E"/>
  <path d="M195 104l-6.1 6.1 6.1-2.4c2 0 3.7-1.6 3.7-3.7H195z" fill="#FDA162"/>
  <path d="M182.8 104H195c0 2-1.6 3.7-3.7 3.7l-2.4 2.4-2.4-2.4c-2.1-.1-3.7-1.7-3.7-3.7z" fill="#FDCE6E"/>
  <path d="M195 107.6l-6.1 6.1 6.1-2.4c2 0 3.7-1.6 3.7-3.7H195z" fill="#FDA162"/>
  <path d="M182.8 107.6H195c0 2-1.6 3.7-3.7 3.7l-2.4 2.4-2.4-2.4c-2.1 0-3.7-1.7-3.7-3.7z" fill="#FDCE6E"/>
  <path d="M195 111.3l-6.1 6.1 6.1-2.4c2 0 3.7-1.6 3.7-3.7H195z" fill="#FDA162"/>
  <path d="M182.8 111.3H195c0 2-1.6 3.7-3.7 3.7l-2.4 2.4-2.4-2.4c-2.1-.1-3.7-1.7-3.7-3.7z" fill="#FDCE6E"/>
  <path d="M218.1 93v13.4l11-2.4c-.1-6.1-5-11-11-11z" fill="#66C6FE"/>
  <path d="M225.4 104l-9.1 2.4-9.1-2.4c0-6.1 4.9-11 11-11 3.9 0 7.2 4.9 7.2 11z" fill="#99D9FF"/>
  <path fill="#5CA8D3" d="M205.9 104h20.7v3.7h-20.7z"/>
  <path fill="#5389A9" d="M226.6 104h3.7v3.7h-3.7z"/>
  <path d="M198.9 112.2h-16.4c-.5 0-.9-.4-.9-.9s.4-.9.9-.9h16.4c.5 0 .9.4.9.9s-.4.9-.9.9zm0-3.7h-16.4c-.5 0-.9-.4-.9-.9s.4-.9.9-.9h16.4c.5 0 .9.4.9.9s-.4.9-.9.9zm0-3.6h-16.4c-.5 0-.9-.4-.9-.9s.4-.9.9-.9h16.4c.5 0 .9.4.9.9s-.4.9-.9.9zm0-3.7h-16.4c-.5 0-.9-.4-.9-.9s.4-.9.9-.9h16.4c.5 0 .9.4.9.9s-.4.9-.9.9z" fill="#FDFA7B"/>
  <path fill="#5389A9" d="M205 104h1.8v13.4H205z"/>
  <path fill="#496A7E" d="M229.4 104h1.8v13.4h-1.8z"/>
  <path d="M228.4 138.5v8.1c0 .5.4.9.9.9s.9-.4.9-.9v-8.1h-1.8z" fill="#B1786B"/>
  <path d="M182.8 138.5v8.1c0 .5.4.9.9.9s.9-.4.9-.9v-8.1h-1.8z" fill="#CB9385"/>
  <path d="M206.5 117.4l-26.5 4.9v3.6l45 8.9 4.2 7.4c.9.5 2 .8 3.7.8v-20.7l-26.4-4.9z" fill="#FDA162"/>
  <path fill="#99D9FF" d="M233.3 114.9v7.3h-3.6l-2.6-3.3 2.6-4"/>
  <path fill="#CCECFF" d="M179.7 114.9h49.9v7.3h-49.9z"/>
  <path d="M229.3 125.9H180v17c4.4 0 4.4-2.4 8.8-2.4s4.4 2.4 8.8 2.4 4.4-2.4 8.8-2.4 4.4 2.4 8.8 2.4 4.4-2.4 8.8-2.4c2.7 0 3.7.9 5.1 1.6l.2-16.2z" fill="#FDCE6E"/>
  <g fill="#FDA162">
    <circle cx="226.6" cy="132" r=".9"/>
    <circle cx="222.9" cy="135.6" r=".9"/>
  </g>
  <path d="M231.5 104.9h-26.8c-.5 0-.9-.4-.9-.9s.4-.9.9-.9h26.8c.5 0 .9.4.9.9s-.4.9-.9.9z" fill="#5389A9"/>
  <circle cx="288.4" cy="91" r="20.3" fill-rule="evenodd" clip-rule="evenodd" fill="#E6615F"/>
  <path d="M283.5 79.9v5.5c0 .4-.2.8-.6.9-1.2.5-1.9 1.7-1.9 3v14.9c0 .7.6 1.3 1.3 1.3h7.1c.7 0 1.3-.6 1.3-1.3V89.4c0-1.3-.8-2.5-1.9-3-.4-.2-.6-.5-.6-.9V80h-4.7z" fill="#00A155"/>
  <path d="M290.5 90.8h-9.6v13.5c0 .7.6 1.3 1.3 1.3h7.1c.7 0 1.3-.6 1.3-1.3l-.1-13.5z" fill="#006539"/>
  <path d="M288 79.9h.2c.2 0 .3-.2.3-.3v-.9c0-.2-.2-.3-.3-.3h-.2v-.8c0-.6-.5-1.1-1.1-1.1h-2.3c-.6 0-1.1.5-1.1 1.1v.8h-.2c-.2 0-.3.2-.3.3v.9c0 .2.2.3.3.3h.2v1.5h4.5v-1.5z" fill="#FDD05F"/>
  <path opacity=".05" d="M283.5 79.9h4.5v.8h-4.5zm0-2.4h4.5v.8h-4.5z"/>
  <g fill="#FFF">
    <path d="M288.6 86.4c-.3-.2-.6-.5-.6-.9-1.3.6-2.3 1.9-2.3 3.5 0 2.1 1.7 3.8 3.8 3.8.3 0 .7 0 1-.1v-3.3c0-1.3-.7-2.5-1.9-3z" opacity=".15"/>
    <path d="M288.7 93.5h-5.9c-.3 0-.5.2-.5.5v4.5c0 .3.2.5.5.5h5.9c.3 0 .5-.2.5-.5V94c0-.2-.3-.5-.5-.5z"/>
  </g>
  <path d="M287 100.8h-2.4c-.1 0-.1.1-.1.1v1.1c0 .1.1.1.1.1h2.4c.1 0 .1-.1.1-.1v-1.1l-.1-.1zm.5-4.8h-3.6c-.3 0-.5-.2-.5-.5s.2-.5.5-.5h3.6c.3 0 .5.2.5.5s-.2.5-.5.5zm-.8 1.4h-1.9c-.3 0-.5-.2-.5-.5s.2-.5.5-.5h1.9c.3 0 .5.2.5.5s-.3.5-.5.5z" fill="#FDD05F"/>
  <circle cx="284.2" cy="91" r=".9" opacity=".25" fill="#FFF"/>
  <path d="M294.6 90.3h-6.1c-.4 0-.7.3-.7.7l-.4 3.5c-.2 1.7.8 3.4 2.5 3.9.4.1.7.5.7 1v5h2v-5c0-.4.3-.8.7-1 1.6-.6 2.7-2.2 2.5-3.9l-.4-3.5c-.1-.4-.4-.7-.8-.7z" fill="#54C7D8"/>
  <path opacity=".1" d="M290.5 103.5h2v.8h-2z"/>
  <path d="M294.1 104.3h-5c-.3 0-.6.3-.6.6s.3.6.6.6h5c.3 0 .6-.3.6-.6s-.3-.6-.6-.6z" fill="#54C7D8"/>
  <path d="M294.1 104.3H293c.1.4.5.8 1 .8.3 0 .5-.1.7-.2-.1-.4-.3-.6-.6-.6z" opacity=".25" fill="#FFF"/>
  <path d="M295.8 94.4l-.1-1.1h-8.2l-.1 1.1c-.2 1.7.8 3.4 2.5 3.9.8.2 1.3.3 1.7.3s.9-.1 1.7-.3c1.6-.5 2.7-2.1 2.5-3.9z" fill="#DE2A4E"/>
  <g fill="#FFF">
    <path d="M295.8 94.4l-.4-3.5c0-.4-.4-.7-.7-.7h-2c-.3.5-.5 1-.5 1.6 0 1.7 1.4 3.1 3.1 3.1h.5v-.5z" opacity=".25"/>
    <circle cx="292.2" cy="96" r=".9" opacity=".25"/>
  </g>
  <path d="M294.1 103.8h-1v-4.5c0-.2.2-.5.4-.5 1.8-.6 3-2.5 2.8-4.4l-.4-3.5c-.1-.6-.6-1.1-1.2-1.1H291v-.4c0-1.5-.9-2.8-2.2-3.5-.2-.1-.3-.3-.3-.5v-5.1c.3-.1.5-.4.5-.8v-.9c0-.3-.2-.6-.5-.8v-.4c0-.9-.7-1.6-1.6-1.6h-2.3c-.9 0-1.6.7-1.6 1.6v.4c-.3.1-.5.4-.5.8v.9c0 .3.2.6.5.8v5.1c0 .2-.1.4-.3.5-1.3.6-2.2 2-2.2 3.5v14.9c0 1 .8 1.7 1.7 1.7H294c.6 0 1.1-.5 1.1-1.1.1-.6-.4-1.1-1-1.1zm.5-13c.1 0 .3.1.3.2l.4 3.5c.2 1.5-.7 2.9-2.2 3.4-.6.2-1 .8-1 1.4v4.5H291v-4.5c0-.7-.4-1.2-1-1.4-1.4-.5-2.3-1.9-2.2-3.4l.4-3.5c0-.1.1-.2.3-.2h6.1zm-5.9 7.5v.2h-5.9V94h4.1v.4c-.2 1.5.5 3.1 1.8 3.9zm-4.8-20.7c0-.4.3-.6.6-.6h2.3c.4 0 .6.3.6.6v.3h-3.6v-.3zm-.5 1.2h4.6v.6h-4.6v-.6zm4.1 1.6v.6h-3.6v-.6h3.6zm.5 24.7h-5.7c-.4 0-.8-.4-.8-.8V89.4c0-1.1.7-2.1 1.7-2.6.5-.2.9-.8.9-1.3V82h3.6v3.5c0 .6.3 1.1.9 1.3 1 .5 1.7 1.5 1.7 2.6v.4h-1.6c-.6 0-1.1.5-1.2 1.1l-.3 2.2H283c-.5 0-.9.4-.9.9v4.5c0 .5.4.9.9.9h5.9c.4 0 .8-.3.9-.7h.1c.2.1.4.3.4.5v4.5h-1c-.6 0-1.1.5-1.1 1.1-.3.2-.3.2-.2.3zm6.1 0h-5c-.1 0-.2-.1-.2-.2s.1-.2.2-.2h5c.1 0 .2.1.2.2l-.2.2z"/>
  <circle cx="129" cy="82.4" r="25.4" fill-rule="evenodd" clip-rule="evenodd" fill="#E6615F"/>
  <g fill="#283238">
    <path d="M120.9 71.4c-.3 0-.6-.2-.6-.6l-.1-.6c-.1-.4.2-.7.6-.7.4-.1.7.2.7.6l.1.6c0 .3-.3.6-.7.7m2.2 1.7c-.3 0-.6-.2-.6-.6-.1-.4.2-.7.6-.7l.6-.1c.4-.1.7.2.7.6.1.4-.2.7-.6.7l-.7.1m-4.5.6c-.3 0-.6-.2-.6-.6-.1-.4.2-.7.6-.7l.6-.1c.4-.1.7.2.7.6.1.4-.2.7-.6.7l-.7.1m3.7-1.9c-.1 0-.3 0-.4-.1-.3-.2-.3-.6-.1-.9l.4-.5c.2-.3.6-.3.9-.1s.3.6.1.9l-.4.5c-.1.1-.3.2-.5.2m-2.7.3c-.1 0-.3 0-.4-.1l-.5-.4c-.3-.2-.3-.6-.1-.9.2-.3.6-.3.9-.1l.5.4c.3.2.3.6.1.9-.1.1-.3.2-.5.2"/>
    <path d="M119.4 73.4l3.7-.7v-.4c-.1-1.1-1.1-1.8-2.2-1.7s-1.8 1.1-1.7 2.2c0 .3.1.5.2.6"/>
  </g>
  <path d="M146.6 75.3l-6-2.5c-.7-.3-1.1-.8-1.4-1.5-.3-.8-.5-1.6-.5-2.4 0-1.1-.9-2-2-2h-7.9c-1 0-1.8.8-1.8 1.8v.3c0 .8-.2 1.7-.6 2.4-.3.6-.8 1-1.5 1.1l-9.8 1.8c-3 .7-5.1 3.3-5.1 6.4v14.1c0 .9.7 1.6 1.6 1.6h15.9c-3.8-2-6.4-5.9-6.4-10.4 0-6.5 5.3-11.8 11.8-11.8 6.5 0 11.8 5.3 11.8 11.8 0 4.6-2.6 8.5-6.4 10.4h8.3c1.7-.2 1.7-21.1 0-21.1" fill="#38454F"/>
  <path d="M146.6 75.3l-6-2.5c-.5-.2-.8-.5-1-.8.4-1.1 1.6-1.6 2.7-1.1l3.4 1.4c1.1.4 1.6 1.6 1.1 2.7l-.1.3h-.1m-27 5c.6-1.1.6-2.4 0-3.6l-1.4-2.8h-2.1l-1 .2c-3 .7-5.1 3.3-5.1 6.4v14.1c0 .9.7 1.6 1.6 1.6h7.6V82.1c0-.6.1-1.2.4-1.8" fill="#283238"/>
  <path d="M144.6 85.7c0 6.5-5.3 11.8-11.8 11.8-6.5 0-11.8-5.3-11.8-11.8 0-6.5 5.3-11.8 11.8-11.8 6.6.1 11.8 5.4 11.8 11.8" fill="#50508A"/>
  <g fill="#283238">
    <path d="M132.9 98c-6.8 0-12.3-5.5-12.3-12.3 0-6.8 5.5-12.3 12.3-12.3 6.8 0 12.3 5.5 12.3 12.3S139.6 98 132.9 98zm0-23.5c-6.2 0-11.2 5-11.2 11.2s5 11.2 11.2 11.2c6.2 0 11.2-5 11.2-11.2 0-6.2-5-11.2-11.2-11.2z"/>
    <path d="M144.3 77.3H143c-.6 0-1 .5-1 1v.1c.5.7 1 1.4 1.4 2.2h.9c.6 0 1-.5 1-1v-1.2c0-.7-.5-1.1-1-1.1"/>
  </g>
  <path d="M132.9 94.9c-5 0-9.1-4.1-9.1-9.1s4.1-9.1 9.1-9.1 9.1 4.1 9.1 9.1-4.1 9.1-9.1 9.1" fill="#434C6D"/>
  <path d="M114.6 93.6c-1.1 0-2-.9-2-2s.9-2 2-2 2 .9 2 2-.9 2-2 2m.6-5.9c0 .4-.3.7-.7.7-.4 0-.7-.3-.7-.7 0-.4.3-.7.7-.7.5.1.7.3.7.7" fill="#38454F"/>
  <path d="M133.5 70.7h-1.3c-1.1 0-2-.9-2-2v-2h5.2v2c.1 1.1-.8 2-1.9 2" fill="#ECBA16"/>
  <path d="M117.2 80.5h-3.9c-.4 0-.7-.3-.7-.7 0-.4.3-.7.7-.7h3.9c.4 0 .7.3.7.7 0 .4-.3.7-.7.7m0-2.6h-3.3c-.4 0-.7-.3-.7-.7s.3-.7.7-.7h3.3c.4 0 .7.3.7.7s-.3.7-.7.7m-.6 5.2h-3.9c-.4 0-.7-.3-.7-.7 0-.4.3-.7.7-.7h3.9c.4 0 .7.3.7.7-.1.4-.4.7-.7.7m0 2.6h-3.9c-.4 0-.7-.3-.7-.7 0-.4.3-.7.7-.7h3.9c.4 0 .7.3.7.7-.1.5-.4.7-.7.7" fill="#38454F"/>
  <path d="M141.2 90.9c.1-.1.1-.2.2-.3.8-1.4 1.3-3.1 1.3-4.8 0-.8-.1-1.6-.3-2.4 0-.1 0-.1-.1-.2-.7-2.4-2.2-4.5-4.3-5.8-.1-.1-.2-.2-.3-.2-1.4-.8-3-1.2-4.8-1.2-.8 0-1.6.1-2.3.3-.1 0-.2 0-.3.1-2.4.7-4.4 2.2-5.7 4.3-.1.1-.2.2-.2.4-.8 1.4-1.2 3-1.2 4.7 0 .8.1 1.5.3 2.2 0 .1 0 .3.1.4.7 2.4 2.2 4.4 4.3 5.7.1.1.2.1.3.2 1.4.8 3.1 1.3 4.8 1.3.8 0 1.5-.1 2.2-.3.1 0 .2 0 .3-.1 2.4-.7 4.4-2.3 5.7-4.3zm-4.6 2.7c.3-.7.5-1.5.5-2.3 0-1.4-.5-2.7-1.5-3.7-.3-.3-.7-.3-.9 0-.3.3-.3.7 0 .9 1.5 1.5 1.5 4.1 0 5.6-.1.1-.1.1-.1.2-.5.1-1.1.2-1.7.2-1 0-2-.2-2.9-.5.7-.3 1.4-.7 2-1.2 1-1 1.6-2.3 1.6-3.7 0-.4-.3-.7-.7-.7-.4 0-.7.3-.7.7 0 1.1-.4 2-1.2 2.8-.8.7-1.7 1.2-2.8 1.2h-.2c-1.3-.9-2.3-2.1-3-3.5.7.3 1.5.5 2.3.5 1.4 0 2.7-.5 3.7-1.5.3-.3.3-.7 0-.9s-.7-.3-.9 0c-.7.7-1.7 1.1-2.8 1.1-1.1 0-2.1-.4-2.8-1.2 0-.1-.1-.1-.2-.1-.1-.6-.2-1.1-.2-1.7 0-1 .2-2 .5-2.9.3.7.7 1.4 1.3 2 1 1 2.3 1.5 3.7 1.5.3 0 .7-.3.7-.7 0-.4-.3-.7-.7-.7-2.1 0-4-1.8-4-4v-.2c.9-1.3 2-2.3 3.4-3-.9 2-.6 4.4 1 6 .1.1.3.2.5.2s.3-.1.5-.2c.3-.3.3-.7 0-.9-1.5-1.5-1.5-4.1 0-5.6.1-.1.1-.1.1-.2.6-.1 1.1-.2 1.7-.2 1 0 2 .2 2.9.5-2 .7-3.5 2.7-3.5 5 0 .4.3.7.7.7.4 0 .7-.3.7-.7 0-2.2 1.8-4 4-4h.2c1.3.9 2.4 2.1 3 3.5-2-.9-4.4-.6-6 1-.3.3-.3.7 0 .9.1.1.3.2.5.2s.3-.1.5-.2c1.5-1.5 4.1-1.5 5.6 0 .1.1.1.1.2.1.1.6.2 1.1.2 1.7 0 1-.2 2-.5 2.9-.3-.7-.7-1.4-1.2-2-1-1-2.3-1.6-3.7-1.6-.4 0-.7.3-.7.7 0 .4.3.7.7.7 1.1 0 2 .4 2.8 1.2.7.8 1.2 1.8 1.2 2.8v.2c-1.2 1.4-2.4 2.4-3.8 3.1z" fill="#7383BF"/>
  <path d="M132.9 89c-1.8 0-3.3-1.5-3.3-3.3 0-1.8 1.5-3.3 3.3-3.3s3.3 1.5 3.3 3.3c-.1 1.8-1.5 3.3-3.3 3.3" fill="#FFF"/>
  <circle cx="132.9" cy="85.7" r=".7" fill="#7383BF"/>
  <circle cx="199.8" cy="21.7" r="21.7" fill-rule="evenodd" clip-rule="evenodd" fill="#736459"/>
  <path d="M199.8 14.5c-1.6 0-2.9-1.3-2.9-2.9 0-.5.1-1 .4-1.5l1.7-2.9c.2-.3.5-.5.8-.5s.7.2.8.5l1.7 2.9c.3.4.4.9.4 1.5 0 1.6-1.3 2.9-2.9 2.9z" fill="#FFC033"/>
  <path d="M202.7 11.6c0-.5-.1-1-.4-1.5l-1.7-2.9c-.2-.3-.5-.5-.8-.5v7.8c1.6 0 2.9-1.3 2.9-2.9z" fill="#F9A926"/>
  <path d="M199.8 16.8c-.5 0-1-.4-1-1v-2.3c0-.5.4-1 1-1 .5 0 1 .4 1 1v2.3c-.1.6-.5 1-1 1z" fill="#FFEFD9"/>
  <path d="M200.7 15.8v-2.3c0-.5-.4-1-1-1v4.2c.6.1 1-.3 1-.9z" fill="#FFD9B3"/>
  <path d="M208.5 18.1v5.1c-2 .7-3.2-.9-4.1-1.8-.5-.5-1.1-.4-1.4 0-1.1 1.1-1.7 2-3.2 2-1.5 0-2.2-1-3.2-2-.4-.4-1-.4-1.4 0-.9.9-2.2 2.6-4.3 1.8v-5c0-1.6 1.3-2.9 2.9-2.9h11.7c1.7-.1 3 1.2 3 2.8z" fill="#F26D76"/>
  <path d="M205.6 15.2h-5.9v8.1h.1c1.5 0 2.1-.9 3.2-2 .3-.3 1-.4 1.4 0 .9.9 2.1 2.5 4.1 1.8V18c0-1.5-1.3-2.8-2.9-2.8z" fill="#E65C64"/>
  <path d="M208.5 20.9v5c0 .5-.4 1-1 1h-15.6c-.5 0-1-.4-1-1v-5.2l.4.4c.4.4 1 .4 1.4 0l1.1-1.1c.6-.6 1.3-.9 2.1-.9s1.5.3 2.1.9l1.1 1.1c.2.2.4.3.6.3.3 0 .6-.1.8-.3l1.1-1.1c.6-.6 1.3-.9 2.1-.9s1.5.3 2.1.9l1.1 1.1c.4.4 1 .4 1.4 0l.2-.2z" fill="#FFC033"/>
  <path d="M208.5 20.9v5c0 .5-.4 1-1 1h-7.8v-5.5c.3 0 .6-.1.8-.3l1.1-1.1c.6-.6 1.3-.9 2.1-.9s1.5.3 2.1.9l1.1 1.1c.4.4 1 .4 1.4 0l.2-.2z" fill="#F9A926"/>
  <path d="M212.5 27.9v3.4l-.2-.2c-.4-.4-1-.4-1.4 0l-1.1 1.1c-.6.6-1.3.9-2.1.9-1.5 0-2.2-1-3.2-2-.5-.5-1.1-.4-1.4 0l-1.1 1.1c-.6.6-1.3.9-2.1.9-1.5 0-2.2-1-3.2-2-.4-.4-1-.4-1.4 0l-1.1 1.1c-.6.6-1.3.9-2.1.9s-1.5-.3-2.1-.9l-1.1-1.1c-.4-.4-1-.4-1.4 0l-.4.4v-3.6c0-1.6 1.3-2.9 2.9-2.9h19.5c1.6-.1 3 1.3 3 2.9z" fill="#F26D76"/>
  <path d="M209.5 24.9h-9.8V33h.1c.8 0 1.5-.3 2.1-.9L203 31c.3-.3 1-.4 1.4 0 1 1 1.7 2 3.2 2 .8 0 1.5-.3 2.1-.9l1.1-1.1c.4-.4 1-.4 1.4 0l.2.2v-3.4c.1-1.5-1.3-2.9-2.9-2.9z" fill="#E65C64"/>
  <path d="M212.5 29v6.7c0 .1 0 .2-.1.3h-25.3c0-.1-.1-.2-.1-.3v-6.6c.3-.1.7-.2 1.1-.2.3 0 .6 0 .9.1.4.1.8.4 1.2.7l1.1 1.1c.4.4 1 .4 1.4 0l1.1-1.1c.6-.6 1.3-.9 2.1-.9s1.5.3 2.1.9l1.1 1.1c.2.2.4.3.6.3.3 0 .6-.1.8-.3l1.1-1.1c.6-.6 1.3-.9 2.1-.9s1.5.3 2.1.9l1.1 1.1c.4.4 1 .4 1.4 0l1.1-1.1c.3-.3.6-.5 1-.7.3-.1.7-.2 1.1-.2.4.1.7.1 1 .2z" fill="#FFC033"/>
  <path d="M212.5 29v6.7c0 .1 0 .2-.1.3h-12.6v-4.9c.3 0 .6-.1.8-.3l1.1-1.1c.6-.6 1.3-.9 2.1-.9s1.5.3 2.1.9l1.1 1.1c.4.4 1 .4 1.4 0l1.1-1.1c.3-.3.6-.5 1-.7.3-.1.7-.2 1.1-.2.3.1.6.1.9.2z" fill="#F9A926"/>
  <path d="M213.8 36.7h-28c-.5 0-1-.4-1-1s.4-1 1-1h28c.5 0 1 .4 1 1s-.5 1-1 1z" fill="#D7EBFF"/>
  <path d="M213.8 34.7h-14v2h14c.5 0 1-.4 1-1s-.5-1-1-1z" fill="#BDDEFF"/>
  <circle cx="380.2" cy="30.3" r="21.2" fill-rule="evenodd" clip-rule="evenodd" fill="#FFCD61"/>
  <path fill="#E87B5A" d="M390.8 33.7l2.8 2.6-.6-3.8"/>
  <path d="M371 40h14.6v-6.3H371V40zm5.1-4.8c.4-.4 1.1-.5 1.6-.2l.7.4.6-.4c.5-.3 1.1-.3 1.6.2s.5 1.3 0 1.8l-1.9 1.9c-.1.1-.2.1-.3.1-.1 0-.2 0-.3-.1l-1.9-1.9c-.6-.5-.6-1.3-.1-1.8z" fill="#EEC97B"/>
  <path d="M378.3 37.8l1.6-1.6c.1-.1.1-.3 0-.4-.1-.1-.2-.1-.3 0l-.9.6c-.2.1-.4.1-.5 0l-.9-.6h-.1c-.1 0-.1 0-.2.1s-.1.3 0 .4l1.3 1.5z" fill="#E87B5A"/>
  <path d="M382.4 24.7l1.7.9V23c-.4.6-1 1.2-1.7 1.7zm4.7-1.6l2-2.7c-1.3-.1-2.6-.1-3.8-.2l1.8 2.9zm-6.7-.4l3.3-2.6c-1.6-.1-3.2-.3-4.7-.4l1.4 3zm12 .4l1.9-2.5c-1.2 0-2.4 0-3.5-.1l1.6 2.6zm-23.6-2l2.6-2.6c-1.5-.3-2.7-.7-3.7-1.1l1.1 3.7zm4.4-2.3l1 3.3 3-2.7c-1-.1-2.1-.3-3-.5-.4 0-.7-.1-1-.1zm.5 11.6l1.3-2.9c-1.2.2-2.6.4-4 .5l2.7 2.4zm-5.7.7l1.3-2.9c-.9.1-1.9.1-2.9.1l1.6 2.8zm11.5-2.5l1.3-2.9c-1 .5-2.3 1-3.7 1.3l2.4 1.6z" fill="#9FC7D1"/>
  <g fill="#3C4A53">
    <path d="M378.4 18.6h-.1c-2.1-.3-4-.6-5.6-.9l-.1-.1h-.2c-4.3-.9-6.5-2-6.5-2.9h-1c0 .7.5 1.4 1.6 2l-1.8 3.6.9.4L367 18l1.1 4.1c0 .2.2.3.3.3.2 0 .3 0 .5-.1l3.3-3.3 1.2 4.1c0 .2.2.3.3.3.2 0 .3 0 .5-.1l3.9-3.4 1.7 3.8.3.3c.1 0 .3 0 .4-.1l3.3-2.6c-.8 2.4-3.5 4.1-7.9 5.1h-.3c-2.9.6-6.6.9-11 .9v1h.7l2.3 4.1c.1.2.2.2.4.2s.3-.1.4-.3l1.7-3.8 3.4 3c.1.1.3.1.4.1.2 0 .3-.1.3-.3l1.7-3.9 3.4 2.1c.1.1.3.1.4.1.1 0 .2-.1.3-.3l1.7-3.9 2.5 1.2c.2.1.3.1.5 0 .1-.1.2-.2.2-.4v-4.6l1.5 2.4c.1.1.2.2.4.2s.3-.1.4-.2l2.5-3.3 2.1 3.3c.1.1.2.2.4.2s.3-.1.4-.2l2.8-3.7h.2v-1c-6.8.3-12.6-.1-17.2-.7zm-9.6 2.5l-1-3.7c1 .4 2.2.8 3.7 1.1l-2.7 2.6zm5.4 1l-1-3.3c.3.1.7.1 1 .2.9.2 2 .3 3 .5l-3 2.6zm6.2.6l-1.3-3c1.5.2 3 .3 4.7.4l-3.4 2.6zM368 31.1l-1.6-2.8c1 0 2-.1 2.9-.1l-1.3 2.9zm5.7-.7L371 28c1.4-.1 2.8-.3 4-.5l-1.3 2.9zm5.8-1.8l-2.4-1.5c1.4-.4 2.6-.8 3.7-1.3l-1.3 2.8zm4.6-3l-1.7-.9c.7-.5 1.3-1.1 1.7-1.8v2.7zm3-2.5l-1.8-2.9c1.2.1 2.5.1 3.8.2l-2 2.7zm5.3 0l-1.6-2.6c1.2 0 2.3.1 3.5.1l-1.9 2.5zm-6.3 9.6h-15.5c-.3 0-.5.2-.5.5v12.6h1v-4.9h14.6v4.9h1V33.2c-.1-.3-.4-.5-.6-.5zm-.5 7.3H371v-6.3h14.6V40z"/>
    <path d="M377.9 38.9c.1.1.2.1.3.1.1 0 .2 0 .3-.1l1.9-1.9c.5-.5.5-1.3 0-1.8-.4-.4-1.1-.5-1.6-.2l-.7.4-.7-.4c-.5-.3-1.1-.3-1.6.2s-.5 1.3 0 1.8l2.1 1.9zm-1.2-3c.1-.1.1-.1.2-.1h.1l.9.6c.2.1.4.1.5 0l.9-.6c.1-.1.3-.1.3 0 .1.1.1.3 0 .4l-1.6 1.6-1.6-1.6c.2 0 .2-.2.3-.3zm1.4-18.4l.7-.6.7.6.7-.6-.7-.7.7-.7-.7-.7-.7.7-.7-.7-.7.7.7.7-.7.7m-9.6 22.7l-.7.6-.7-.6-.7.6.7.7-.7.7.7.7.7-.7.7.7.7-.7-.7-.7.7-.7m14.4 1.8l-.7.7-.7-.7-.7.7.7.7-.7.7.7.6.7-.6.7.6.7-.6-.7-.7.7-.7m7.6-25.2l.7-.6.7.6.7-.6-.7-.7.7-.7-.7-.7-.7.7-.7-.7-.7.7.7.7-.7.7M370 23h1v1h-1zm19 2.4h1v1h-1zm-2.9-9.2h1v1h-1zm-18 17.9h1v1h-1zm21.4 7.3h1v1h-1zm-22.9 2.5h1v1h-1zm20.9-8.3h1v1h-1zm6.3-9.2h1v1h-1zm-8.7 1.9h1v1h-1zm-1.5-11.2h1v1h-1zm9.1 23.6l.6-.3.6-.3c1-.6 1-1.5.8-2.2.1-.1.1-.2.1-.3l-1-5.8c0-.2-.1-.3-.3-.4-.1-.1-.3-.1-.4 0l-3.4 1.9c-.1.1-.2.2-.2.4s0 .3.2.4l4 3.6c.3.8.3 1.2-.3 1.6-.2.1-.3.2-.5.3-.3.1-.5.2-.8.4-.5.4-.9 1.1-.7 1.8.1.4.5.7 1 .9.2.1.4.1.5.2.1 0 .3.1.4.1h.1c-.6.6-1.3 1.1-2.1 1.5l.5.8c.8-.5 1.6-1 2.2-1.6.1-.1.3-.3.4-.6.1-.4-.2-.9-.8-1.1-.2-.1-.4-.1-.5-.2-.1 0-.3-.1-.4-.1-.2-.1-.4-.2-.4-.3-.1-.3.1-.6.4-.7zm-1.9-7l2.2-1.3.6 3.8-2.8-2.5zm2.496-5.737l-.49 2.45-.98-.195.49-2.45zm-2.414 2.513l-.857.515-1.44-2.4.856-.51zm-1.79.786l-.196.98-2.45-.49.195-.98zM373.9 41.9h1v1h-1zm2 0h1v1h-1zm-3.9 0h1v1h-1z"/>
  </g>
</svg>
