<svg xmlns="http://www.w3.org/2000/svg" viewBox="0 0 15.94 20"><defs><style>.cls-1{fill:#736459;}</style></defs><title>file_icon</title><g id="Layer_2" data-name="Layer 2"><g id="Forum"><g id="New_discussion"><g id="Bottom_bar"><path class="cls-1" d="M12.19,7.5H4.38a.31.31,0,0,0,0,.63h7.81a.31.31,0,0,0,0-.62Z"/><path class="cls-1" d="M4.38,5.63H7.5A.31.31,0,0,0,7.5,5H4.38a.31.31,0,0,0,0,.63Z"/><path class="cls-1" d="M12.19,10H4.38a.31.31,0,0,0,0,.63h7.81a.31.31,0,0,0,0-.62Z"/><path class="cls-1" d="M12.19,12.5H4.38a.31.31,0,0,0,0,.63h7.81a.31.31,0,0,0,0-.62Z"/><path class="cls-1" d="M12.19,15H4.38a.31.31,0,0,0,0,.63h7.81a.31.31,0,0,0,0-.62Z"/><path class="cls-1" d="M15.94,20H0V0H11l4.92,4.92ZM1.25,18.75H14.69V5.44L10.5,1.25H1.25Z"/></g></g></g></g></svg>