<svg xmlns="http://www.w3.org/2000/svg" viewBox="0 0 20 20">
	<path class="cls-1" d="M16.51,2.42a10,10,0,0,0-14,14.18h0a10,10,0,0,0,15,0l.07-.08A10,10,0,0,0,16.51,2.42ZM7.78,1.1A8.66,8.66,0,0,0,6,4.42a13,13,0,0,1-2.54-.83A9.19,9.19,0,0,1,7.78,1.1ZM2.87,4.21a13.35,13.35,0,0,0,2.87,1,19,19,0,0,0-.57,4.4H.82A9.14,9.14,0,0,1,2.87,4.21Zm0,11.57a9.14,9.14,0,0,1-2-5.38H5.17a19,19,0,0,0,.57,4.39A13.35,13.35,0,0,0,2.87,15.78Zm.56.63h0A13,13,0,0,1,6,15.58,8.66,8.66,0,0,0,7.78,18.9,9.19,9.19,0,0,1,3.43,16.41ZM9.6,19.14c-1.14-.28-2.16-1.69-2.83-3.72a18.79,18.79,0,0,1,2.83-.27Zm0-4.8a19.55,19.55,0,0,0-3.05.29A18.24,18.24,0,0,1,6,10.4H9.6v3.94Zm0-4.75H6a18.24,18.24,0,0,1,.57-4.23,19.56,19.56,0,0,0,3.05.29V9.6Zm0-4.75a18.8,18.8,0,0,1-2.83-.27c.67-2,1.69-3.45,2.83-3.72Zm7.53-.63a9.14,9.14,0,0,1,2,5.38H14.83a19,19,0,0,0-.57-4.39A13.35,13.35,0,0,0,17.13,4.22Zm-.57-.64A13,13,0,0,1,14,4.42,8.66,8.66,0,0,0,12.22,1.1,9.19,9.19,0,0,1,16.56,3.57ZM10.4.86c1.14.28,2.16,1.69,2.83,3.72a18.8,18.8,0,0,1-2.83.27v-4Zm0,4.8a19.55,19.55,0,0,0,3.05-.29A18.24,18.24,0,0,1,14,9.6H10.4V5.66Zm0,4.75H14a18.24,18.24,0,0,1-.57,4.23,19.56,19.56,0,0,0-3.05-.29V10.4Zm0,8.74v-4a18.8,18.8,0,0,1,2.83.27C12.56,17.45,11.55,18.86,10.4,19.14Zm1.82-.24A8.66,8.66,0,0,0,14,15.58a13,13,0,0,1,2.54.83A9.19,9.19,0,0,1,12.22,18.9Zm4.91-3.11a13.35,13.35,0,0,0-2.87-1,19,19,0,0,0,.57-4.4h4.34A9.14,9.14,0,0,1,17.13,15.79Z"/>
</svg>