<svg xmlns="http://www.w3.org/2000/svg" xmlns:xlink="http://www.w3.org/1999/xlink" viewBox="0 0 277.8 536.9">
  <g fill-rule="evenodd" clip-rule="evenodd">
    <path fill="#D5B8C2" d="M277.847 476.042l-100.95 55.503-72.22-131.357 100.95-55.504z"/>
    <path fill="#E2C3CD" d="M274.364 475.104l-96.48 53.046-69.765-126.888 96.48-53.046z"/>
    <path fill="#B46072" d="M228.383 386.194l-100.95 55.504-2.698-4.908 100.95-55.503z"/>
    <path fill="#B66578" d="M247.45 492.765l-7.885 4.337-72.222-131.358 7.887-4.336z"/>
    <path d="M194.8 403.9c-.8-.5-1.3-1.9-2.1-2.3-.8-.4-2.1.2-3-.1-7.3 5.9-19.5 7.3-25.8 2.2-.1.2-1-.7-1.1-.4-.1.3.6 1.9.5 2.2 5 10.1 24 8 31.5-1.6z" fill="#B66578"/>
    <path d="M189.7 401.5c1.8.7 3.5 1.5 5.1 2.4.8-1 1.5-2.2 2-3.4-1.2-.9-2.5-1.7-3.8-2.5-12.5-6.8-32-6.7-30.7 4.1.1.6.2 1.2.4 1.8.2.6.4 1.1.7 1.7.1-.7.3-1.3.6-1.9 2.8-5.9 15.3-6.2 25.7-2.2z" fill="#C86F80"/>
    <path d="M192.6 400.3c.8.5 1.3 1.9 2.1 2.3.8.4 2.1-.2 3 .1 7.3-5.9 19.5-7.3 25.8-2.2.1-.2 1 .7 1.1.4.1-.3-.6-1.9-.5-2.2-5-10-24-8-31.5 1.6z" fill="#B66578"/>
    <path d="M197.7 402.8c-1.8-.7-3.5-1.5-5.1-2.4-.8 1-1.5 2.2-2 3.4 1.2.9 2.5 1.7 3.8 2.5 12.5 6.8 32 6.7 30.7-4.1-.1-.6-.2-1.2-.4-1.8-.2-.6-.4-1.1-.7-1.7-.1.7-.3 1.3-.6 1.9-2.8 5.9-15.3 6.1-25.7 2.2z" fill="#C86F80"/>
    <path d="M195.7 403.2c-.3-.9-1.6-1.6-1.9-2.6-.2-.9.6-2 .5-2.9 7.3-6 11-17.7 7.3-24.9.2-.1-.5-1.1-.2-1.1s1.8.9 2.1 1c8.9 6.9 3.1 25.1-7.8 30.5z" fill="#B06073"/>
    <path d="M194.4 397.7c.3 1.9.8 3.7 1.4 5.5-1.2.6-2.4 1-3.7 1.3-5.3-10.6-4.6-37.9 8.3-33.5.5.2 1.1.4 1.7.7.5.3 1 .6 1.5 1-.7 0-1.3 0-1.9.2-6.5 1.6-9.2 13.9-7.3 24.8z" fill="#C86F80"/>
    <path d="M191.7 401c.3.9 1.6 1.6 1.9 2.6.2.9-.6 2-.5 2.9-7.3 6-11 17.7-7.3 24.9-.2.1.5 1.1.2 1.1s-1.8-.9-2.1-1c-8.9-6.8-3.1-25 7.8-30.5z" fill="#B06073"/>
    <path d="M193 406.5c-.3-1.9-.8-3.7-1.4-5.5 1.2-.6 2.4-1 3.7-1.3.7 1.3 1.2 2.7 1.7 4.2 4.2 13.6.2 32.7-10 29.3-.5-.2-1.1-.4-1.7-.7-.5-.3-1-.6-1.5-1 .7 0 1.3 0 1.9-.2 6.5-1.6 9.2-13.9 7.3-24.8z" fill="#C86F80"/>
    <path d="M190.8 400.8s-1.3 3.5.6 10.5 5.2 10.8 7.3 18.3c2.1 7.5 1.4 17.9 1.4 17.9l1.7-3.8 4.1 5.4s1-11.3-1.3-20.8c-1.4-5.8-10.7-24.7-9.1-26.9l-4.7-.6z" fill="#C86F80"/>
    <path d="M193.7 397.9s3.7.7 8.5 6.1c4.9 5.3 6.4 10.2 11.6 16 5.2 5.8 14.4 10.8 14.4 10.8l-4.1-.6 2.3 6.4s-10-5.2-16.9-12.2c-4.2-4.2-15.2-22.2-17.8-22.1l2-4.4z" fill="#D17689"/>
    <path d="M196.8 405.8s3.8 2.7 5.4 6.1c1.6 3.5.6 5.1.5 5.2-.2.1-.3-.3-.3-.4 0 0 .8-1.3-.7-4.6s-5.2-5.9-5.2-5.9l.3-.4z" fill="#D17689"/>
    <path d="M200.8 457l-1.1-43.5 27.6-.7 1.1 43.5-27.6.7zm1.7-40c-.4.8-.2 1.8.6 2.2.8.5 1.8.2 2.2-.6.4-.8.2-1.8-.6-2.2-.4-.2-.8-.3-1.2-.2-.4.1-.8.4-1 .8z" fill="#FFF"/>
    <path d="M202.7 417.1s-4.2-.1-7.9-3c-3.7-3-3.1-11.2-3.1-11.2h.4s-.6 8 2.9 10.9c3.6 2.9 7.7 2.9 7.7 2.9.1 0 .2.4 0 .4z" fill="#C86F80"/>
  </g>
  <g fill-rule="evenodd" clip-rule="evenodd">
    <path d="M65.6 383.9l2.7-.3c.4 0 .7.2.8.6l3 25.1c0 .4-.2.7-.6.8l-2.7.3c-.4 0-.7-.2-.8-.6l-3-25.1c-.1-.4.2-.8.6-.8z" fill="#EF5B72"/>
    <path d="M69.3 386.4l.1 1.4-4.2-1.2-.2-1.4m4.6 4.3l.2 1.5-4.2-1.3-.2-1.4m4.6 4.1l.2 1.5-4.3-1.2-.1-1.5m4.5 4.1l.2 1.5-4.2-1.2-.2-1.5m4.6 4.1l.2 1.5-4.3-1.2-.1-1.5m4.5 4.1l.2 1.5-4.2-1.2-.2-1.5m4.6 4.1l.2 1.5-4.3-1.2-.1-1.5m4.5 4.1l.2 1.5-4.2-1.2-.2-1.5" fill="#F495A6"/>
    <path d="M66.9 383.7s.8-1.7 1.4-2.8c2.2-4.2-2.5-7-3.3-9.9 0 0-1.2 3-1.7 5.4-.5 2.3-.1 4.1 1.1 5.1 1.2.9 2.5 2.2 2.5 2.2z" fill="#FFDD15"/>
    <path d="M66.9 382.9s.4-.9.8-1.6c1.3-2.4-1.4-4-1.9-5.6 0 0-.7 1.7-1 3.1-.3 1.3 0 2.3.6 2.9.7.4 1.5 1.2 1.5 1.2z" fill="#F48120"/>
    <path d="M66.8 382.2l.5-1c.8-1.5-.9-2.5-1.2-3.5 0 0-.4 1.1-.6 1.9-.2.8 0 1.5.4 1.8.4.4.9.8.9.8z" fill="#EC1C24"/>
    <path d="M67.6 383.4c-.2 0-1.1.1-1.6.1-.5-.1-.9.1-1.1.4-.2.3 0 1.2 0 2 0 .9.3.9.2 1.9-.1 1.1.1 1.3.2 2.2.1.9.4 1 .3 1.7-.1.7-.2.7.1 1.1.2.3.5.3.6-.1.1-.4-.2-5.3-.4-6.2-.2-.9-.5-1.2-.2-1.5.2-.2.7-.7 1.1-.6.4.2.6.4.6 1s-.1.6.1 1.2.3 1.1.6.7c.2-.4.2-.8.2-1.1 0-.3-.3-1.1-.2-1.3.1-.2.5-.6.8 0 .3.6.1 1.5.2 2.3.1.8 0 .1.2 1.2.2 1.1.2 1.9.6 1.8.4-.1-.1-5-.3-5.8-.2-.8-.5-.9-.8-1.1-.6-.1-1.2.1-1.2.1z" fill="#F27E90"/>
    <path d="M125.4 382.5l2.7.3c.4 0 .6.4.6.8l-3.1 25.1c0 .4-.4.6-.8.6l-2.7-.3c-.4 0-.6-.4-.6-.8l3.1-25.1c.1-.3.4-.6.8-.6z" fill="#EF5B72"/>
    <path d="M128.4 385.8l-.2 1.5-3.8-2.2.2-1.4m3.4 5.2l-.2 1.5-3.8-2.2.2-1.4m3.4 5.1l-.2 1.4-3.8-2.2.2-1.4m3.5 5.1l-.2 1.4-3.8-2.1.2-1.5m3.4 5.1l-.2 1.4-3.8-2.1.2-1.5m3.4 5.1l-.1 1.5-3.8-2.2.1-1.5m3.5 5.1l-.2 1.5-3.8-2.2.2-1.5m3.4 5.1l-.2 1.5-3.8-2.2.2-1.5" fill="#F495A6"/>
    <path d="M126.7 382.7s1.1-1.4 2-2.4c3.2-3.6-.8-7.4-.8-10.4 0 0-1.9 2.7-2.9 4.8-1.1 2.1-1.1 3.9-.1 5.2.8 1.2 1.8 2.8 1.8 2.8z" fill="#FFDD15"/>
    <path d="M126.9 381.9s.6-.8 1.1-1.4c1.8-2-.4-4.2-.5-5.9 0 0-1.1 1.5-1.7 2.7-.6 1.2-.6 2.2-.1 2.9.6.8 1.2 1.7 1.2 1.7z" fill="#F48120"/>
    <path d="M127 381.2s.4-.5.7-.9c1.1-1.3-.3-2.6-.3-3.7 0 0-.7.9-1 1.7-.4.8-.4 1.4-.1 1.9.3.5.7 1 .7 1z" fill="#EC1C24"/>
    <path d="M127.5 382.6c-.2-.1-1.1-.2-1.6-.3-.5-.2-.9-.1-1.2.1-.3.2-.3 1.2-.5 2s.1.9-.3 1.9c-.3 1-.2 1.3-.3 2.2-.1.9.2 1.1-.1 1.7-.3.6-.3.7-.2 1 .1.4.4.4.6 0 .2-.4 1.1-5.2 1.1-6.1 0-.9-.2-1.3.1-1.5.3-.2.8-.6 1.2-.3.4.3.4.5.3 1.1-.1.5-.2.6-.1 1.2s0 1.2.4.8c.3-.4.4-.7.4-1 0-.3 0-1.1.1-1.3.2-.2.6-.5.7.2.1.7-.3 1.4-.4 2.3-.1.8 0 .1-.1 1.2-.1 1.1-.3 1.9.1 1.9s1.1-4.9 1.1-5.6c0-.8-.3-1-.5-1.3-.2-.2-.8-.2-.8-.2z" fill="#F27E90"/>
    <path d="M99 382.6l2.7.3c.4 0 .6.4.6.8l-3.1 25.1c0 .4-.4.6-.8.6l-2.7-.3c-.4 0-.6-.4-.6-.8l3.1-25.1c.1-.4.4-.7.8-.6z" fill="#EF5B72"/>
    <path d="M101.9 385.9l-.1 1.5-3.8-2.2.1-1.5m3.5 5.3l-.2 1.5-3.8-2.2.2-1.5m3.4 5.1l-.2 1.5-3.8-2.2.2-1.5m3.4 5.1l-.1 1.5-3.9-2.2.2-1.5m3.5 5.1l-.2 1.5-3.8-2.2.2-1.5m3.4 5.1l-.2 1.5-3.8-2.2.2-1.5m3.5 5.1l-.2 1.5-3.8-2.2.1-1.4m3.5 5l-.2 1.5-3.8-2.2.2-1.4" fill="#F495A6"/>
    <path d="M100.3 382.8s1.1-1.4 2-2.4c3.2-3.6-.8-7.4-.8-10.4 0 0-1.9 2.7-2.9 4.8-1.1 2.1-1.1 3.9-.1 5.2.8 1.2 1.8 2.8 1.8 2.8z" fill="#FFDD15"/>
    <path d="M100.5 381.9s.6-.8 1.1-1.4c1.8-2-.4-4.2-.5-5.9 0 0-1.1 1.5-1.7 2.7-.6 1.2-.6 2.2-.1 2.9.6.8 1.2 1.7 1.2 1.7z" fill="#F48120"/>
    <path d="M100.6 381.3s.4-.5.7-.9c1.1-1.3-.3-2.6-.3-3.7 0 0-.7.9-1 1.7-.4.8-.4 1.4-.1 1.9.3.4.7 1 .7 1z" fill="#EC1C24"/>
    <path d="M101 382.6c-.2-.1-1.1-.2-1.6-.3-.5-.2-.9-.1-1.2.1-.3.2-.3 1.2-.5 2s.1.9-.3 1.9c-.3 1-.2 1.3-.3 2.2-.1.9.2 1.1-.1 1.7-.3.6-.3.7-.2 1 .1.4.4.4.6 0 .2-.4 1.1-5.2 1.1-6.1 0-.9-.2-1.3.1-1.5.3-.2.8-.6 1.2-.3.4.3.4.5.3 1.1-.1.5-.2.6-.1 1.2s0 1.2.4.8c.3-.4.4-.7.4-1 0-.3 0-1.1.1-1.3.2-.2.6-.5.7.2.1.7-.3 1.4-.4 2.3-.1.8 0 .1-.1 1.2-.1 1.1-.3 1.9.1 1.9s1.1-4.9 1.1-5.6c0-.8-.3-1-.5-1.3-.2-.2-.8-.2-.8-.2z" fill="#F27E90"/>
    <path d="M114.3 382l2.7.3c.4 0 .6.4.6.8l-3.1 25.1c0 .4-.4.6-.8.6l-2.7-.3c-.4 0-.6-.4-.6-.8l3.1-25.1c.1-.3.4-.6.8-.6z" fill="#EF5B72"/>
    <path d="M117.2 385.4l-.1 1.4-3.8-2.2.1-1.4m3.5 5.3l-.2 1.4-3.8-2.1.2-1.5m3.4 5.1l-.2 1.4-3.8-2.1.2-1.5m3.4 5.1l-.1 1.5-3.9-2.2.2-1.5m3.5 5.1l-.2 1.5-3.8-2.2.2-1.5m3.4 5.1l-.2 1.5-3.8-2.2.2-1.5m3.5 5.1l-.2 1.5-3.8-2.2.1-1.5m3.5 5.1l-.2 1.5-3.8-2.2.2-1.5" fill="#F495A6"/>
    <path d="M115.6 382.2s1.1-1.4 2-2.4c3.2-3.6-.8-7.4-.8-10.4 0 0-1.9 2.7-2.9 4.8-1.1 2.1-1.1 3.9-.1 5.2.8 1.2 1.8 2.8 1.8 2.8z" fill="#FFDD15"/>
    <path d="M115.8 381.4s.6-.8 1.1-1.4c1.8-2-.4-4.2-.5-5.9 0 0-1.1 1.5-1.7 2.7-.6 1.2-.6 2.2-.1 2.9.6.8 1.2 1.7 1.2 1.7z" fill="#F48120"/>
    <path d="M115.9 380.8s.4-.5.7-.9c1.1-1.3-.3-2.6-.3-3.7 0 0-.7.9-1 1.7-.4.8-.4 1.4-.1 1.9.3.4.7 1 .7 1z" fill="#EC1C24"/>
    <path d="M116.3 382.1c-.2-.1-1.1-.2-1.6-.3-.5-.2-.9-.1-1.2.1-.3.2-.3 1.2-.5 2s.1.9-.3 1.9c-.3 1-.2 1.3-.3 2.2-.1.9.2 1.1-.1 1.7-.3.6-.3.7-.2 1 .1.4.4.4.6 0 .2-.4 1.1-5.2 1.1-6.1 0-.9-.2-1.3.1-1.5.3-.2.8-.6 1.2-.3.4.3.4.5.3 1.1-.1.5-.2.6-.1 1.2s0 1.2.4.8c.3-.4.4-.7.4-1 0-.3 0-1.1.1-1.3.2-.2.6-.5.7.2.1.7-.3 1.4-.4 2.3-.1.8 0 .1-.1 1.2-.1 1.1-.3 1.9.1 1.9s1.1-4.9 1.1-5.6-.3-1-.5-1.3c-.2-.2-.8-.2-.8-.2z" fill="#F27E90"/>
    <path d="M83.8 384.6l-2.7.3c-.4 0-.6.4-.6.8l3.1 25.1c0 .4.4.6.8.6l2.6-.4c.4 0 .6-.4.6-.8l-3.1-25.1c0-.3-.4-.6-.7-.5z" fill="#EF5B72"/>
    <path d="M80.8 387.9l.2 1.5 3.8-2.2-.2-1.5m-3.4 5.3l.1 1.5 3.8-2.2-.1-1.5m-3.5 5.1l.2 1.5 3.8-2.2-.2-1.5m-3.4 5.1l.2 1.5 3.8-2.2-.2-1.5m-3.5 5.1l.2 1.5 3.8-2.2-.2-1.5m-3.4 5.1l.2 1.5 3.8-2.2-.2-1.5m-3.4 5.1l.1 1.5 3.9-2.2-.2-1.5m-3.5 5.1l.2 1.5 3.8-2.2-.2-1.5" fill="#F495A6"/>
    <path d="M82.4 384.7s-1.1-1.4-2-2.4c-3.2-3.6.8-7.4.8-10.4 0 0 1.9 2.7 2.9 4.8 1.1 2.1 1.1 3.9.1 5.2-.8 1.3-1.8 2.8-1.8 2.8z" fill="#FFDD15"/>
    <path d="M82.2 383.9s-.6-.8-1.1-1.4c-1.8-2 .4-4.2.5-5.9 0 0 1.1 1.5 1.7 2.7.6 1.2.6 2.2.1 2.9-.6.8-1.2 1.7-1.2 1.7z" fill="#F48120"/>
    <path d="M82.1 383.3s-.4-.5-.7-.9c-1.1-1.3.3-2.6.3-3.7 0 0 .7.9 1 1.7.4.8.4 1.4.1 1.9-.3.4-.7 1-.7 1z" fill="#EC1C24"/>
    <path d="M81.7 384.6c.2-.1 1.1-.2 1.6-.3.5-.2.9-.1 1.2.1.3.2.3 1.2.5 2s-.1.9.3 1.9c.3 1 .2 1.3.3 2.2.1.9-.2 1.1.1 1.7.3.6.3.7.2 1-.1.4-.4.4-.6 0-.2-.4-1.1-5.2-1.1-6.1 0-.9.2-1.3-.1-1.5-.3-.2-.8-.6-1.2-.3-.4.3-.4.5-.3 1.1.1.5.2.6.1 1.2s0 1.2-.4.8c-.3-.4-.4-.7-.4-1 0-.3 0-1.1-.1-1.3-.2-.2-.6-.5-.7.2-.1.7.3 1.4.4 2.3.1.8 0 .1.1 1.2.1 1.1.3 1.9-.1 1.9s-1.1-4.9-1.1-5.6c0-.8.3-1 .5-1.3.2-.2.8-.2.8-.2z" fill="#F27E90"/>
    <path d="M136.5 385.6l2.7.3c.4 0 .6.4.6.8l-3.1 25.1c0 .4-.4.6-.8.6l-2.7-.3c-.4 0-.6-.4-.6-.8l3.1-25.1c0-.4.4-.7.8-.6z" fill="#EF5B72"/>
    <path d="M139.4 388.9l-.1 1.5-3.9-2.2.2-1.5m3.5 5.3l-.2 1.5-3.8-2.2.1-1.5m3.5 5.1l-.2 1.5-3.8-2.2.2-1.5m3.4 5.1l-.2 1.5-3.8-2.2.2-1.5m3.5 5.1l-.2 1.5-3.8-2.2.2-1.5m3.4 5.1l-.2 1.5-3.8-2.2.2-1.5m3.4 5.1l-.1 1.5-3.8-2.2.1-1.5m3.5 5.1l-.2 1.5-3.8-2.2.2-1.4" fill="#F495A6"/>
    <path d="M137.8 385.8s1.1-1.4 2-2.4c3.2-3.6-.8-7.4-.8-10.4 0 0-1.9 2.7-2.9 4.8-1.1 2.1-1.1 3.9-.1 5.2.8 1.2 1.8 2.8 1.8 2.8z" fill="#FFDD15"/>
    <path d="M138 384.9s.6-.8 1.1-1.4c1.8-2-.4-4.2-.5-5.9 0 0-1.1 1.5-1.7 2.7-.6 1.2-.6 2.2-.1 2.9.6.8 1.2 1.7 1.2 1.7z" fill="#F48120"/>
    <path d="M138.1 384.3s.4-.5.7-.9c1.1-1.3-.3-2.6-.3-3.7 0 0-.7.9-1 1.7-.4.8-.4 1.4-.1 1.9.3.4.7 1 .7 1z" fill="#EC1C24"/>
    <path d="M138.5 385.6c-.2-.1-1.1-.2-1.6-.3-.5-.2-.9-.1-1.2.1-.3.2-.3 1.2-.5 2s.1.9-.3 1.9c-.3 1-.2 1.3-.3 2.2-.1.9.2 1.1-.1 1.7-.3.6-.3.7-.2 1 .1.4.4.4.6 0 .2-.4 1.1-5.2 1.1-6.1 0-.9-.2-1.3.1-1.5.3-.2.8-.6 1.2-.3.4.3.4.5.3 1.1-.1.5-.2.6-.1 1.2s0 1.2.4.8c.3-.4.4-.7.4-1 0-.3 0-1.1.1-1.3.2-.2.6-.5.7.2.1.7-.3 1.4-.4 2.3-.1.8 0 .1-.1 1.2-.1 1.1-.3 1.9.1 1.9s1.1-4.9 1.1-5.6c0-.8-.3-1-.5-1.3-.2-.2-.8-.2-.8-.2z" fill="#F27E90"/>
    <path d="M53.4 391.2l-2.7.3c-.4 0-.6.4-.6.8l3.1 25.1c0 .4.4.6.8.6l2.7-.3c.4 0 .6-.4.6-.8l-3.1-25.1c-.1-.4-.4-.6-.8-.6z" fill="#EF5B72"/>
    <path d="M50.4 394.5l.2 1.5 3.8-2.2-.2-1.5m-3.4 5.3l.2 1.5 3.8-2.2-.2-1.5m-3.5 5.1l.2 1.5 3.8-2.2-.1-1.5m-3.5 5.1l.2 1.5 3.8-2.2-.2-1.4m-3.4 5l.2 1.5 3.8-2.2-.2-1.4m-3.5 5.1l.2 1.4 3.8-2.2-.2-1.4m-3.4 5.1l.2 1.4 3.8-2.1-.2-1.5m-3.4 5.1l.1 1.5 3.8-2.2-.1-1.5" fill="#F495A6"/>
    <path d="M52 391.4s-1.1-1.4-2-2.4c-3.2-3.6.8-7.4.8-10.4 0 0 1.9 2.7 2.9 4.8 1.1 2.1 1.1 3.9.1 5.2-.8 1.2-1.8 2.8-1.8 2.8z" fill="#FFDD15"/>
    <path d="M51.9 390.6s-.6-.8-1.1-1.4c-1.8-2 .4-4.2.5-5.9 0 0 1.1 1.5 1.7 2.7.6 1.2.6 2.2.1 2.9-.7.8-1.2 1.7-1.2 1.7z" fill="#F48120"/>
    <path d="M51.8 389.9s-.4-.5-.7-.9c-1.1-1.3.3-2.6.3-3.7 0 0 .7.9 1 1.7.4.8.4 1.4.1 1.9-.4.5-.7 1-.7 1z" fill="#EC1C24"/>
    <path d="M51.3 391.3c.2-.1 1.1-.2 1.6-.3.5-.2.9-.1 1.2.1.3.2.3 1.2.5 2s-.1.9.3 1.9c.3 1 .2 1.3.3 2.2.1.9-.2 1.1.1 1.7.3.6.3.7.2 1-.1.4-.4.4-.6 0s-1.1-5.2-1.1-6.1c0-.9.2-1.3-.1-1.5-.3-.2-.8-.6-1.2-.3-.4.3-.4.5-.3 1.1.1.5.2.6.1 1.2s0 1.2-.4.8c-.3-.4-.4-.7-.4-1 0-.3 0-1.1-.1-1.3-.2-.2-.6-.5-.7.2-.1.7.3 1.4.4 2.3.1.8 0 .1.1 1.2.1 1.1.3 1.9-.1 1.9s-1.1-4.9-1.1-5.6c0-.8.3-1 .5-1.3.2-.3.8-.2.8-.2z" fill="#F27E90"/>
  </g>
  <path d="M20.3 456.4h145.4c2.8 0 5.1 2.3 5.1 5.1v66.7c0 2.8-2.3 5.1-5.1 5.1H20.3c-2.8 0-5.1-2.3-5.1-5.1v-66.7c.1-2.9 2.4-5.1 5.1-5.1z" fill-rule="evenodd" clip-rule="evenodd" fill="#A34626"/>
  <defs>
    <path id="a" d="M20.3 456.4h145.4c2.8 0 5.1 2.3 5.1 5.1v66.7c0 2.8-2.3 5.1-5.1 5.1H20.3c-2.8 0-5.1-2.3-5.1-5.1v-66.7c.1-2.9 2.4-5.1 5.1-5.1z"/>
  </defs>
  <clipPath id="b">
    <use xlink:href="#a" overflow="visible"/>
  </clipPath>
  <g fill-rule="evenodd" clip-rule="evenodd" fill="#B9502C" clip-path="url(#b)">
    <path d="M10.5 518h167.9v11.5H10.5zm0-16.8h167.9v11.5H10.5zm0-16.9h167.9v11.5H10.5zm0-16.8h167.9V479H10.5z"/>
  </g>
  <path d="M45.5 409.8h95.1c3.3 0 6.1 2.7 6.1 6.1v44.5c0 3.3-2.7 6.1-6.1 6.1H45.5c-3.3 0-6.1-2.7-6.1-6.1v-44.5c0-3.3 2.7-6.1 6.1-6.1z" fill-rule="evenodd" clip-rule="evenodd" fill="#FBD2C0"/>
  <defs>
    <path id="c" d="M45.5 409.8h95.1c3.3 0 6.1 2.7 6.1 6.1v44.5c0 3.3-2.7 6.1-6.1 6.1H45.5c-3.3 0-6.1-2.7-6.1-6.1v-44.5c0-3.3 2.7-6.1 6.1-6.1z"/>
  </defs>
  <clipPath id="d">
    <use xlink:href="#c" overflow="visible"/>
  </clipPath>
  <g fill-rule="evenodd" clip-rule="evenodd" fill="#F8A98E" clip-path="url(#d)">
    <path d="M24.1 455.5v-8.6c46.1-26.8 92.2 17.9 138.3-8.9v8.6c-46.1 26.8-92.2-17.9-138.3 8.9z"/>
    <path d="M23.7 438.3v-8.6c46.1-26.8 92.2 17.9 138.3-8.9v8.6c-46.1 26.8-92.2-17.9-138.3 8.9z"/>
  </g>
  <path d="M33.6 452.6c-1.9-.3-16.2-3.4-19.6 2.4-3.4 5.7-1.9 10.8-1.6 21.6.3 10.8-.8 22.6 1.1 22.6 1.9 0 2.7-9.4 5.8-13.5 3.2-4 3.7-4.4 6.6 5.7 2.9 10.1 5.6 13.5 8.2 5.7 2.7-7.8 1.6-15.2 5.6-13.1 4 2 1.3 6.4 6.6 11.5s8 0 9.6-5.1c1.6-5.1 3.4-10.4 6.9-9.1 3.4 1.3 2.7 19.2 9 19.2 6.4 0 7.2-8.4 7.7-13.8s6.1-12.5 7.4-9.8c1.3 2.7-.3 4.4 2.9 11.1 3.2 6.7 5.6 16.9 8.5 7.4 2.9-9.4 1.6-17.2 5.3-14.8 3.7 2.4 2.4 17.9 6.1 19.9 3.7 2 7.7-1 7.7-6.6s2.9-17.4 6-15c3.1 2.4 2.5 5.9 5.8 11.3s7.2 6.4 8.9 2.9c1.7-3.5.8-11.6 2.4-13.5 1.6-1.9 9.7-6.7 12.2 0s-.7 10.1 3.4 15.8c4.1 5.7 9.3-1.7 10.5-6.4 1.2-4.7 1.6-2.4 4.1-1.3 2.5 1 4.9-9.1 4.5-17-.4-7.9-1.1-14-5.4-16.7-4.4-2.7-7.9-2-15.5-1-7.7 1-14.9-.7-27.9-.2-13 .5-37.7-1.3-47.4-2-9.7-.7-14.5 1.5-24.1 2.2-9.6.7-21.3-.4-21.3-.4z" fill-rule="evenodd" clip-rule="evenodd" fill="#E65776"/>
  <path d="M39.6 407c-2.9 1.7-3.7 7.1-4 15.8-.3 8.8.7 16.2 3.8 15.3 3.1-.8 2.3-4.9 3.3-8.9 1.1-4 5.8-10.8 7.2-3.7 1.3 7.1 3.7 15.2 5.6 9.8.8-2.4 4.1-22 9.8-13.5 1.6 2.4-.3 19.6 4.1 19.9 4.4.3 5.2-9.8 7-14.8 1.9-5.1 5-8.4 6.9-4.4 1.9 4 .1 23.6 4.1 22.2 4-1.3 4.1-14.8 7.6-21.9 3.4-7.1 8.5-9.6 10.9-3.4 2.4 6.2 2 13.1 2.5 19.2 2 22.3 5.1 2 5.6-7.9.3-5.4 2.4-11.6 3.2-11.6.8 0 3.8-3 8 3.5 4.1 6.6 1.5 19.4 4.8 23.1 3.3 3.7 8.5-7.2 7.7-13-.8-5.7-.8-12.1 1.6-12.5 2.4-.3 3.7-.8 4.5 4.6.8 5.4.2 10.8 3 11.3 2.7.5 3.4.2 3.9-6.9.5-7.1 1.3-19-1.9-21.6-3.2-2.5-16.5-4.2-24.8-4.6-15.9-.6-24.7 3.7-46.2 1.3-12.2-1.3-12.3-.8-20.8.5-8.5 1.5-17.4 2.2-17.4 2.2z" fill-rule="evenodd" clip-rule="evenodd" fill="#F5ACCC"/>
  <path d="M19.9 536.9h146.2l19.9-7.4H0l19.9 7.4zm-9.9-3.7" fill-rule="evenodd" clip-rule="evenodd" fill="#BBBDBF"/>
  <path d="M26 518.5c2 0 3.7-1.7 3.7-3.7s-1.7-3.7-3.7-3.7-3.7 1.7-3.7 3.7 1.7 3.7 3.7 3.7zm19.7-7.2c1.8 0 3.2-1.4 3.2-3.2 0-1.8-1.4-3.2-3.2-3.2-1.8 0-3.2 1.4-3.2 3.2 0 1.8 1.5 3.2 3.2 3.2zm17.5-11.1c1.8 0 3.3-1.5 3.3-3.3 0-1.8-1.5-3.3-3.3-3.3-1.8 0-3.3 1.5-3.3 3.3 0 1.8 1.5 3.3 3.3 3.3zM86 520.7c1.9 0 3.4-1.5 3.4-3.4s-1.5-3.4-3.4-3.4-3.4 1.5-3.4 3.4 1.5 3.4 3.4 3.4zm20.8-5.5c2 0 3.6-1.6 3.6-3.6s-1.6-3.6-3.6-3.6-3.6 1.6-3.6 3.6c0 1.9 1.6 3.6 3.6 3.6zm27.3-8.1c1.7 0 3.1-1.4 3.1-3.1 0-1.7-1.4-3.1-3.1-3.1-1.7 0-3.1 1.4-3.1 3.1 0 1.7 1.4 3.1 3.1 3.1zm27.7 10.9c2.5 0 4.5-2 4.5-4.5s-2-4.5-4.5-4.5-4.5 2-4.5 4.5 2 4.5 4.5 4.5zM151 494.6c1.3 0 2.3-1 2.3-2.3 0-1.3-1-2.3-2.3-2.3-1.3 0-2.3 1-2.3 2.3 0 1.3 1 2.3 2.3 2.3zm-97.8 27.8c1.1 0 1.9-.9 1.9-1.9s-.9-1.9-1.9-1.9c-1.1 0-1.9.9-1.9 1.9s.9 1.9 1.9 1.9z" fill-rule="evenodd" clip-rule="evenodd" fill="#DA827B"/>
  <path d="M39.7 484c4 2 1.3 6.4 6.6 11.5s8 0 9.6-5.1c1.6-5.1 3.4-10.4 6.9-9.1 3.4 1.3 2.7 19.2 9 19.2 6.4 0 7.2-8.4 7.7-13.8s6.1-12.5 7.4-9.8c1.3 2.7-.3 4.4 2.9 11.1 3.2 6.7 5.6 16.9 8.5 7.4 2.9-9.4 1.6-17.2 5.3-14.8 3.7 2.4 2.4 17.9 6.1 19.9 3.7 2 7.7-1 7.7-6.6s2.9-17.4 6-15c3.1 2.4 2.5 5.9 5.8 11.3s7.2 6.4 8.9 2.9c1.7-3.5.8-11.6 2.4-13.5 1.6-1.9 9.7-6.7 12.2 0s-.7 10.1 3.4 15.8c4.1 5.7 9.3-1.7 10.5-6.4 1.2-4.7 1.6-2.4 4.1-1.3 1.4.6 2.7-2.2 3.6-6.1-1.1-.5-2.3-.6-3.6-.7-1.1-.1-2.3-.1-3.4-.1-3.4 0-3.9 5.1-5.2 9.3-1.3 4.2-2.7 1.7-4.7-3.2s-2-9.1-5.2-15.3c-3.2-6.2-10.1-.5-13 3.5-2.9 4-1.7 10.4-2.2 14.3-.5 3.9-1.5 4-4.2-.7s-3.7-9.6-7.4-13.5c-3.7-3.9-7.6 1.7-8.6 8.9s-3.2 11.5-5.2 11.1c-2-.3-1.9-11.8-2.4-16.2-.5-4.4-7.1-7.1-9.4-2.9-2.4 4.2-1.9 13.1-2.7 15.3-.8 2.2-2.2 0-2.9-2.9-.7-2.9-2.2-10.6-3.7-15s-5.2-2.7-8.9 0-4.6 7.9-5.7 14-3.2 6.4-4.2 5.9-2.4-8.9-4-13.5c-1.7-4.6-3.4-4.2-7.9-3.7-4.6.5-7.6 11.8-9.3 13.7-1.7 1.9-3.4-1.5-5.2-5.4-1.9-3.9-1.9-6.1-5.6-8.4-3.7-2.4-3.7 2.4-4.7 6.6-1 4.2-1.7 9.8-4.6 11-2.9 1.2-3-4.9-3-11s-.2-10.3-.8-12.1c-.7-1.9-3-.2-4.7 4.4-1.7 4.6-2.4 5.4-4.6 6.7-.6.4-1.3 1.6-2 3.1-1 2.2-2 5.2-3 7.8 0 3.8.3 6.4 1.1 6.4.7 0 1.3-1.4 1.9-3.3 1-3.1 2-7.7 4-10.2 3.2-4 3.7-4.4 6.6 5.7 2.9 10.1 5.6 13.5 8.2 5.7 2.7-7.5 1.6-14.9 5.6-12.9z" fill-rule="evenodd" clip-rule="evenodd" fill="#CE4E69"/>
  <path d="M65.3 421.8c1.6 2.4-.3 19.6 4.1 19.9 4.4.3 5.2-9.8 7-14.8 1.9-5.1 5-8.4 6.9-4.4 1.9 4 .1 23.6 4.1 22.2 4-1.3 4.1-14.8 7.6-21.9 3.4-7.1 8.5-9.6 10.9-3.4 2.4 6.2 2 13.1 2.5 19.2 2 22.3 5.1 2 5.6-7.9.3-5.4 2.4-11.6 3.2-11.6.8 0 3.8-3 8 3.5 4.1 6.6 1.5 19.4 4.8 23.1 3.3 3.7 8.5-7.2 7.7-13-.8-5.7-.8-12.1 1.6-12.5 2.4-.3 3.7-.8 4.5 4.6.8 5.4.2 10.8 3 11.3 2.4.4 3.2.2 3.7-4.2-2-.6-2.9-3.2-3.7-6.4-.6-2.7-1.2-5.7-2.2-8.1-2.2-5.2-4.9-2.5-8.6 1.5-3.7 4-.7 16-1.7 19s-2.9 1.9-3.7-2.4c-.8-4.2-2.7-13.7-3.9-17.5-1.2-3.9-6.4-4.9-9.6-3.2-3.2 1.7-3.7 11-5.1 13.5-1.3 2.5-1-2.5-2-7.8-1-5.2-4.4-6.6-8.6-6.9-4.2-.3-6.7 2.5-8.6 6.1-1.9 3.5-3 13.1-4.6 15.5-1.5 2.4-.3-7.1-1.2-12.1s-2.4-6.4-7.6-5.9c-5.2.5-6.2 11.6-7.1 14.7-.8 3-2 3.2-3-.5s-.3-11.3-1.5-14.3-5.2-1.9-8.4.7c-3.2 2.5-3.7 10.4-5.1 13.3-1.3 2.9-1.5-7.1-2.4-10.4-.8-3.4-4-2.9-7.4 0-3.4 2.9-5.1 11.1-5.1 13.8 0 1.5-1.3 1.1-3.1 0 .6 2.6 1.6 4.1 3.1 3.7 3.1-.8 2.3-4.9 3.3-8.9 1.1-4 5.8-10.8 7.2-3.7 1.3 7.1 3.7 15.2 5.6 9.8.8-2.5 4-22.1 9.8-13.6z" fill-rule="evenodd" clip-rule="evenodd" fill="#F399C0"/>
  <g fill-rule="evenodd" clip-rule="evenodd">
    <path d="M144.7 16.5C99.3-34.3 39.2 44.7 60.2 82.8c-.9.2-2.2.4-2.5.4-.6.1-.9.1-1 1.1-.1.9.5.6.3 1.3-.2.6.8.9 1.4 1.2l-.9.9c.2.5.4 1 .4 1.5.4-.4.8-.9 1.2-1.2 0 .3 0 .6.3.9.5.7 1.4.2 2 .6.6.4.9 1.4 1.1 1.2.1-.1.9-1.7 1.5-2.8 32.8 30.3 124.6-17.6 80.7-71.4z" fill="#7FCBEC"/>
    <path d="M147.8 35.8c-.3-2.5-7.9-18.3-16.2-19.7-8.3-1.4-16.5 2.1-17.2 11.5-.6 9.4.6 22.7-4.4 33.6-5.1 10.9-11.9 21.5 2.2 21.1 14.1-.4 24.3-4.6 32.1-18.3 7.9-13.6 3.5-28.2 3.5-28.2z" fill="#A9DCF1"/>
    <path d="M75.5 78.8c-.1 0-24.5 5.3-38.4 25-7.6 10.8-7.9 19-8.2 27.1-.3 6.7-.7 13.3-5.1 21.3-2.1 3.8-3.6 6.3-6.6 8v2.1c3-1.8 5.4-4.6 8-9.3 4.6-8.4 5-15.2 5.2-22 .3-7.9.6-15.8 8-26.2C52 85.6 75.8 80.5 75.8 80.4l-.3-1.6z" fill="#7FCBEC"/>
  </g>
</svg>
