<svg xmlns="http://www.w3.org/2000/svg" viewBox="0 0 700.7 429.8">
  <path d="M530.4 173.1s.8-2.1 3.8-3.4c3-1.3 4.9-.9 4.9-.9l-2-6.4s-3.8.1-6.6 2-3.4 3.4-3.4 3.4l3.3 5.3zm-13.8 68.7s-1.2-2-.3-5.2c.8-3.2 2.3-4.5 2.3-4.5l-6.2-2.2s-2.3 3.2-2.5 6.6c-.2 3.4.6 4.8.6 4.8l6.1.5zm12.2 188s-1.2-2-.3-5.2c.8-3.2 2.3-4.5 2.3-4.5l-6.2-2.2s-2.3 3.2-2.5 6.6c-.2 3.4.6 4.8.6 4.8l6.1.5zM428.7 209.9s-2.2.1-4.6-2.1c-2.4-2.3-2.8-4.1-2.8-4.1l-4.8 4.5s1.7 3.5 4.5 5.3c2.9 1.8 4.5 1.7 4.5 1.7l3.2-5.3zm-43.5 46.8s-2.2 0-4.5-2.4c-2.2-2.4-2.5-4.3-2.5-4.3l-5.1 4.2s1.4 3.6 4.2 5.6c2.7 2 4.3 2 4.3 2l3.6-5.1zm2.8-139.6s-2.1.9-5.1-.4c-3-1.3-4-3-4-3l-3.1 5.9s2.7 2.8 6 3.5c3.3.7 4.8.1 4.8.1l1.4-6.1zm124.7-36.4s-.2-2.3 2-4.8 4-3 4-3l-4.5-4.9s-3.4 1.8-5.1 4.7c-1.7 3-1.6 4.6-1.6 4.6l5.2 3.4zm-181.2-5s.6-2.2 3.5-3.8c2.9-1.6 4.8-1.3 4.8-1.3l-2.6-6.2s-3.8.4-6.4 2.6c-2.6 2.2-3.1 3.7-3.1 3.7l3.8 5zM140.8 30.8s-.8-2.2-3.7-3.6c-3-1.4-4.8-1-4.8-1l2.2-6.3s3.8.2 6.6 2.2c2.7 2 3.3 3.5 3.3 3.5l-3.6 5.2zm-114.4 99s-1.2-2-.3-5.2c.8-3.2 2.3-4.5 2.3-4.5l-6.2-2.2s-2.3 3.2-2.5 6.6c-.2 3.4.6 4.8.6 4.8l6.1.5zm99.2 92.6s1.2-2 .3-5.2c-.8-3.2-2.3-4.5-2.3-4.5l6.2-2.2s2.3 3.2 2.5 6.6c.2 3.4-.6 4.8-.6 4.8l-6.1.5zM12.4 318.2s-2.2.4-4.8-1.7c-2.6-2-3.2-3.9-3.2-3.9l-4.4 5s2 3.3 5 4.8 4.6 1.3 4.6 1.3l2.8-5.5zM97.6 331s.4-2.3 3.1-4.1c2.7-1.8 4.6-1.8 4.6-1.8l-3.1-5.9s-3.7.8-6.1 3.2c-2.4 2.4-2.7 4-2.7 4l4.2 4.6zm16.8-119.8s-2.2-.3-4.1-3.1c-1.9-2.7-1.9-4.7-1.9-4.7l-5.6 3.4s.9 3.8 3.4 6.2c2.4 2.4 4 2.6 4 2.6l4.2-4.4zm101.6 2.9s-1.2-2-.3-5.2c.8-3.2 2.3-4.5 2.3-4.5l-6.2-2.2s-2.3 3.2-2.5 6.6c-.2 3.4.6 4.8.6 4.8l6.1.5zM43.5 84.3s0-2.3 2.4-4.6 4.3-2.6 4.3-2.6l-4-5.3s-3.6 1.4-5.5 4.2c-2 2.8-2 4.4-2 4.4l4.8 3.9zM344.7 36s-.5-2.2-3.3-4c-2.8-1.7-4.7-1.6-4.7-1.6l2.9-6s3.8.7 6.3 3 2.8 3.9 2.8 3.9l-4 4.7z" fill-rule="evenodd" clip-rule="evenodd" fill="#EC4E6E"/>
  <path d="M258.1 216.7s-1.4-2.4-.4-6.3c1-3.9 2.7-5.4 2.7-5.4l-7.5-2.7s-2.7 3.8-3 8c-.2 4.2.7 5.9.7 5.9l7.5.5zM42.2 94.6s1.4-2.4.4-6.3c-1-3.9-2.7-5.4-2.7-5.4l7.5-2.7s2.7 3.8 3 8c.2 4.2-.7 5.9-.7 5.9l-7.5.5zM15.4 211.2s1.1-2.5 4.9-3.9c3.7-1.3 5.9-.7 5.9-.7l-2-7.9s-4.6-.2-8.1 1.9-4.3 3.9-4.3 3.9l3.6 6.7zM59.7 424s1.3-2.5 5-3.6c3.8-1.1 6-.4 6-.4l-1.6-7.9s-4.6-.4-8.2 1.5c-3.6 1.9-4.5 3.7-4.5 3.7l3.3 6.7zm499.9-204.5s-1.4-2.4-.4-6.3c1-3.9 2.7-5.4 2.7-5.4l-7.5-2.7s-2.7 3.8-3 8c-.2 4.2.7 5.9.7 5.9l7.5.5zM431.1 64.9s-1.4-2.4-.4-6.3c1-3.9 2.7-5.4 2.7-5.4l-7.5-2.7s-2.7 3.8-3 8c-.2 4.2.7 5.9.7 5.9l7.5.5zm44.8-5.6s-2.6-.6-4.7-4.1c-2-3.5-1.9-5.8-1.9-5.8l-7.1 3.6s.8 4.7 3.5 7.8c2.7 3.1 4.6 3.5 4.6 3.5l5.6-5zM294.1 89.2s-2.6-.7-4.6-4.2c-1.9-3.5-1.7-5.9-1.7-5.9l-7.2 3.4s.6 4.7 3.3 7.9c2.7 3.2 4.5 3.7 4.5 3.7l5.7-4.9zm12.1 171.2s-1.4-2.4-.4-6.3c1-3.9 2.7-5.4 2.7-5.4L301 246s-2.7 3.8-3 8c-.2 4.2.7 5.9.7 5.9l7.5.5zm-121.8 50s-1.4-2.4-.4-6.3c1-3.9 2.7-5.4 2.7-5.4l-7.5-2.7s-2.7 3.8-3 8c-.2 4.2.7 5.9.7 5.9l7.5.5zm332.2-95.7s1.4-2.4.4-6.3c-1-3.9-2.7-5.4-2.7-5.4l7.5-2.7s2.7 3.8 3 8c.2 4.2-.7 5.9-.7 5.9l-7.5.5zM96.7 104.5s-2.5-1.1-3.9-4.8c-1.4-3.8-.9-6-.9-6L84.3 96s0 4.7 2.1 8.3c2.2 3.5 4 4.3 4 4.3l6.3-4.1zM313.3 11s-2.7-.4-5-3.7C306 4 306 1.6 306 1.6l-6.9 4.1s1.1 4.6 4 7.5 4.8 3.2 4.8 3.2l5.4-5.4zM569 140.7s-1.4-2.4-.4-6.3c1-3.9 2.7-5.4 2.7-5.4l-7.5-2.7s-2.7 3.8-3 8c-.2 4.2.7 5.9.7 5.9l7.5.5z" fill-rule="evenodd" clip-rule="evenodd" fill="#E88D49"/>
  <path d="M178.6 61.9s-.1-2.5 2.4-5.2 4.5-3.1 4.5-3.1l-4.8-5.5s-3.8 1.8-5.8 5-1.9 5-1.9 5l5.6 3.8zm-143.2 105s1.3-2.2.4-5.7c-.9-3.6-2.5-4.9-2.5-4.9l6.8-2.5s2.5 3.5 2.7 7.3c.2 3.8-.7 5.3-.7 5.3l-6.7.5zm.7 138.2s.3-2.5 3.1-4.7c2.9-2.2 4.9-2.3 4.9-2.3l-3.9-6.2s-4.1 1.2-6.5 4c-2.5 2.8-2.7 4.6-2.7 4.6l5.1 4.6zM604 192.8s-.5-2.5-3.6-4.4c-3-1.9-5.1-1.8-5.1-1.8l3.3-6.6s4.1.8 6.9 3.3c2.7 2.6 3.1 4.3 3.1 4.3l-4.6 5.2zM385.3 12.5s.6-2.4 3.8-4.2c3.1-1.8 5.2-1.6 5.2-1.6l-3-6.7s-4.2.5-7 3c-2.8 2.4-3.3 4.2-3.3 4.2l4.3 5.3zm54.5 100.9s-1.3-2.2-.4-5.7c.9-3.6 2.5-4.9 2.5-4.9l-6.8-2.5s-2.5 3.5-2.7 7.3c-.2 3.8.7 5.3.7 5.3l6.7.5zM77.5 27.7s-1.3-2.2-.4-5.7c.9-3.6 2.5-4.9 2.5-4.9l-6.8-2.5s-2.5 3.5-2.7 7.3c-.2 3.8.7 5.3.7 5.3l6.7.5zm108.1 186s-1.3-2.2-.4-5.7c.9-3.6 2.5-4.9 2.5-4.9l-6.8-2.5s-2.5 3.5-2.7 7.3c-.2 3.8.7 5.3.7 5.3l6.7.5zM345.5 113s-.1-2.5 2.4-5.2 4.5-3.1 4.5-3.1l-4.8-5.5s-3.8 1.8-5.8 5-1.9 5-1.9 5l5.6 3.8zm42.2 30.4s-.1-2.5 2.4-5.2 4.5-3.1 4.5-3.1l-4.8-5.5s-3.8 1.8-5.8 5-1.9 5-1.9 5l5.6 3.8zm-15.6 25.9s1.3-2.2.4-5.7c-.9-3.6-2.5-4.9-2.5-4.9l6.8-2.5s2.5 3.5 2.7 7.3c.2 3.8-.7 5.3-.7 5.3l-6.7.5zm.7 138.2s.3-2.5 3.1-4.7c2.9-2.2 4.9-2.3 4.9-2.3l-3.9-6.2s-4.1 1.2-6.5 4c-2.5 2.8-2.7 4.6-2.7 4.6l5.1 4.6zM606 282.4s-.5-2.5-3.6-4.4c-3-1.9-5.1-1.8-5.1-1.8l3.3-6.6s4.1.8 6.9 3.3c2.7 2.6 3.1 4.3 3.1 4.3l-4.6 5.2zM691.7 23s.6-2.4 3.8-4.2c3.1-1.8 5.2-1.6 5.2-1.6l-2.9-6.7s-4.2.5-7 3c-2.8 2.4-3.3 4.2-3.3 4.2l4.2 5.3zM569.4 123.9s-1.3-2.2-.4-5.7c.9-3.6 2.5-4.9 2.5-4.9l-6.8-2.5s-2.5 3.5-2.7 7.3c-.2 3.8.7 5.3.7 5.3l6.7.5zM212.6 25.1s-1.3-2.2-.4-5.7c.9-3.6 2.5-4.9 2.5-4.9l-6.8-2.5s-2.5 3.5-2.7 7.3c-.2 3.8.7 5.3.7 5.3l6.7.5zm309.7 191s-1.3-2.2-.4-5.7c.9-3.6 2.5-4.9 2.5-4.9l-6.8-2.5s-2.5 3.5-2.7 7.3c-.2 3.8.7 5.3.7 5.3l6.7.5zM652 123.4s-.1-2.5 2.4-5.2 4.5-3.1 4.5-3.1l-4.8-5.5s-3.8 1.8-5.8 5-1.9 5-1.9 5l5.6 3.8z" fill-rule="evenodd" clip-rule="evenodd" fill="#3EA1A4"/>
  <path d="M532.4 262.7s.8-2.1 3.8-3.4c3-1.3 4.9-.9 4.9-.9l-2-6.4s-3.8.1-6.6 2-3.4 3.4-3.4 3.4l3.3 5.3zm-13.7 68.7s-1.2-2-.3-5.2c.8-3.2 2.3-4.5 2.3-4.5l-6.2-2.2s-2.3 3.2-2.5 6.6c-.2 3.4.6 4.8.6 4.8l6.1.5zm47.2-72.4s-1.2-2-.3-5.2c.8-3.2 2.3-4.5 2.3-4.5l-6.2-2.2s-2.3 3.2-2.5 6.6c-.2 3.4.6 4.8.6 4.8l6.1.5zm-135.1 40.5s-2.2.1-4.6-2.1c-2.4-2.3-2.8-4.1-2.8-4.1l-4.8 4.5s1.7 3.5 4.5 5.3c2.9 1.8 4.5 1.7 4.5 1.7l3.2-5.3zm-43.5 46.7s-2.2 0-4.5-2.4c-2.2-2.4-2.5-4.3-2.5-4.3l-5.1 4.2s1.4 3.6 4.2 5.6c2.7 2 4.3 2 4.3 2l3.6-5.1zm307.2-218.6s-2.1.9-5.1-.4c-3-1.3-4-3-4-3l-3.1 5.9s2.7 2.8 6 3.5c3.3.7 4.8.1 4.8.1l1.4-6.1zM559.4 221s-.2-2.3 2-4.8 4-3 4-3l-4.5-4.9s-3.4 1.8-5.1 4.7c-1.7 3-1.6 4.6-1.6 4.6l5.2 3.4zM638 86.1s.6-2.2 3.5-3.8c2.9-1.6 4.8-1.3 4.8-1.3l-2.6-6.2s-3.8.4-6.4 2.6c-2.6 2.2-3.1 3.7-3.1 3.7l3.8 5zm-74 15.4s-.8-2.2-3.7-3.6c-3-1.4-4.8-1-4.8-1l2.2-6.3s3.8.2 6.6 2.2c2.7 2 3.3 3.5 3.3 3.5l-3.6 5.2zm-200.9 30.7s-1.2-2-.3-5.2c.8-3.2 2.3-4.5 2.3-4.5l-6.2-2.2s-2.3 3.2-2.5 6.6c-.2 3.4.6 4.8.6 4.8l6.1.5zm99.2 92.6s1.2-2 .3-5.2c-.8-3.2-2.3-4.5-2.3-4.5l6.2-2.2s2.3 3.2 2.5 6.6c.2 3.4-.6 4.8-.6 4.8l-6.1.5zm-113.2 95.8s-2.2.4-4.8-1.7c-2.6-2-3.2-3.9-3.2-3.9l-4.4 5s2 3.3 5 4.8 4.6 1.3 4.6 1.3l2.8-5.5zm85.2 12.8s.4-2.3 3.1-4.1c2.7-1.8 4.6-1.8 4.6-1.8l-3.1-5.9s-3.7.8-6.1 3.2c-2.4 2.4-2.7 4-2.7 4l4.2 4.6zm16.8-119.8s-2.2-.3-4.1-3.1c-1.9-2.7-1.9-4.7-1.9-4.7l-5.6 3.4s.9 3.8 3.4 6.2c2.4 2.4 4 2.6 4 2.6l4.2-4.4zm101.6 2.9s-1.2-2-.3-5.2c.8-3.2 2.3-4.5 2.3-4.5l-6.2-2.2s-2.3 3.2-2.5 6.6c-.2 3.4.6 4.8.6 4.8l6.1.5zM318.8 95.3s0-2.3 2.4-4.6 4.3-2.6 4.3-2.6l-4-5.3s-3.6 1.4-5.5 4.2c-2 2.8-2 4.4-2 4.4l4.8 3.9zm332.4-48.9s-.5-2.2-3.3-4c-2.8-1.7-4.7-1.6-4.7-1.6l2.9-6s3.8.7 6.3 3 2.8 3.9 2.8 3.9l-4 4.7z" fill-rule="evenodd" clip-rule="evenodd" fill="#EC4E6E"/>
  <path d="M438.9 94.9s-1.4-2.4-.4-6.3c1-3.9 2.7-5.4 2.7-5.4l-7.5-2.7s-2.7 3.8-3 8c-.2 4.2.7 5.9.7 5.9l7.5.5zm26.4 70.4s1.4-2.4.4-6.3c-1-3.9-2.7-5.4-2.7-5.4l7.5-2.7s2.7 3.8 3 8c.2 4.2-.7 5.9-.7 5.9l-7.5.5zm-113.2 48.3s1.1-2.5 4.9-3.9c3.7-1.3 5.9-.7 5.9-.7l-2-7.9s-4.6-.2-8.1 1.9-4.3 3.9-4.3 3.9l3.6 6.7zm44.3 212.7s1.3-2.5 5-3.6c3.8-1.1 6-.4 6-.4l-1.6-7.9s-4.6-.4-8.2 1.5c-3.6 1.9-4.5 3.7-4.5 3.7l3.3 6.7zm165.2-117.2s-1.4-2.4-.4-6.3c1-3.9 2.7-5.4 2.7-5.4l-7.5-2.7s-2.7 3.8-3 8c-.2 4.2.7 5.9.7 5.9l7.5.5zm130.3-114.6s-1.4-2.4-.4-6.3c1-3.9 2.7-5.4 2.7-5.4l-7.5-2.7s-2.7 3.8-3 8c-.2 4.2.7 5.9.7 5.9l7.5.5zm-169.3 5.1s-2.6-.6-4.7-4.1c-2-3.5-1.9-5.8-1.9-5.8l-7.1 3.6s.8 4.7 3.5 7.8c2.7 3.1 4.6 3.5 4.6 3.5l5.6-5zm78-99.9s-2.6-.7-4.6-4.2c-1.9-3.5-1.7-5.9-1.7-5.9l-7.2 3.4s.6 4.7 3.3 7.9c2.7 3.2 4.5 3.7 4.5 3.7l5.7-4.9zM487 138.6s-1.4-2.4-.4-6.3c1-3.9 2.7-5.4 2.7-5.4l-7.5-2.7s-2.7 3.8-3 8c-.2 4.2.7 5.9.7 5.9l7.5.5z" fill-rule="evenodd" clip-rule="evenodd" fill="#E88D49"/>
  <path d="M177.5 137.7s-2.1.9-5.1-.4c-3-1.3-4-3-4-3l-3.1 5.9s2.7 2.8 6 3.5c3.3.7 4.8.1 4.8.1l1.4-6.1zm124.7-36.5s-.2-2.3 2-4.8 4-3 4-3l-4.5-4.9s-3.4 1.8-5.1 4.7c-1.7 3-1.6 4.6-1.6 4.6l5.2 3.4zm-181.1-5s.6-2.2 3.5-3.8c2.9-1.6 4.8-1.3 4.8-1.3l-2.6-6.2s-3.8.4-6.4 2.6c-2.6 2.2-3.1 3.7-3.1 3.7l3.8 5z" fill-rule="evenodd" clip-rule="evenodd" fill="#EC4E6E"/>
  <path d="M189.5 86s-1.4-2.4-.4-6.3c1-3.9 2.7-5.4 2.7-5.4l-7.5-2.7s-2.7 3.8-3 8c-.2 4.2.7 5.9.7 5.9l7.5.5zm75.9-6.1s-2.6-.6-4.7-4.1c-2-3.5-1.9-5.8-1.9-5.8l-7.1 3.6s.8 4.7 3.5 7.8c2.7 3.1 4.6 3.5 4.6 3.5l5.6-5zM83.6 109.8s-2.6-.7-4.6-4.2c-1.9-3.5-1.7-5.9-1.7-5.9l-7.2 3.4s.6 4.7 3.3 7.9c2.7 3.2 4.5 3.7 4.5 3.7l5.7-4.9z" fill-rule="evenodd" clip-rule="evenodd" fill="#E88D49"/>
  <path d="M198.1 134.5s-1.3-2.2-.4-5.7c.9-3.6 2.5-4.9 2.5-4.9l-6.8-2.5s-2.5 3.5-2.7 7.3c-.2 3.8.7 5.3.7 5.3l6.7.5zm-63.1-1s-.1-2.5 2.4-5.2 4.5-3.1 4.5-3.1l-4.8-5.5s-3.8 1.8-5.8 5-1.9 5-1.9 5l5.6 3.8zm11.1 31s-.1-2.5 2.4-5.2 4.5-3.1 4.5-3.1l-4.8-5.5s-3.8 1.8-5.8 5-1.9 5-1.9 5l5.6 3.8zm124-33.6s-.1-2.5 2.4-5.2 4.5-3.1 4.5-3.1l-4.8-5.5s-3.8 1.8-5.8 5-1.9 5-1.9 5l5.6 3.8z" fill-rule="evenodd" clip-rule="evenodd" fill="#3EA1A4"/>
  <path d="M312.6 135s-2.1.9-5.1-.4c-3-1.3-4-3-4-3l-3.1 5.9s2.7 2.8 6 3.5c3.3.7 4.8.1 4.8.1l1.4-6.1zm-56.5-41.4s.6-2.2 3.5-3.8c2.9-1.6 4.8-1.3 4.8-1.3l-2.6-6.2s-3.8.4-6.4 2.6c-2.6 2.2-3.1 3.7-3.1 3.7l3.8 5zm-147.8 39.8s-.8-2.2-3.7-3.6c-3-1.4-4.8-1-4.8-1l2.2-6.3s3.8.2 6.6 2.2c2.7 2 3.3 3.5 3.3 3.5l-3.6 5.2z" fill-rule="evenodd" clip-rule="evenodd" fill="#EC4E6E"/>
  <path d="M197.3 116s-1.4-2.4-.4-6.3c1-3.9 2.7-5.4 2.7-5.4l-7.5-2.7s-2.7 3.8-3 8c-.2 4.2.7 5.9.7 5.9l7.5.5zm57.6 69.8s1.4-2.4.4-6.3c-1-3.9-2.7-5.4-2.7-5.4l7.5-2.7s2.7 3.8 3 8c.2 4.2-.7 5.9-.7 5.9l-7.5.5zm-36.2-78.6s-2.6-.7-4.6-4.2c-1.9-3.5-1.7-5.9-1.7-5.9l-7.2 3.4s.6 4.7 3.3 7.9c2.7 3.2 4.5 3.7 4.5 3.7l5.7-4.9zm26.7 52.6s-1.4-2.4-.4-6.3c1-3.9 2.7-5.4 2.7-5.4l-7.5-2.7s-2.7 3.8-3 8c-.2 4.2.7 5.9.7 5.9l7.5.5zm275.7 153s-1.4-2.4-.4-6.3c1-3.9 2.7-5.4 2.7-5.4l-7.5-2.7s-2.7 3.8-3 8c-.2 4.2.7 5.9.7 5.9l7.5.5z" fill-rule="evenodd" clip-rule="evenodd" fill="#E88D49"/>
  <path d="M518.6 304.3s1.4-2.4.4-6.3c-1-3.9-2.7-5.4-2.7-5.4l7.5-2.7s2.7 3.8 3 8c.2 4.2-.7 5.9-.7 5.9l-7.5.5zM231.8 101.9s-2.5-1.1-3.9-4.8c-1.4-3.8-.9-6-.9-6l-7.6 2.3s0 4.7 2.1 8.3c2.2 3.5 4 4.3 4 4.3l6.3-4.1zm388-80.4s-2.7-.4-5-3.7c-2.3-3.3-2.3-5.7-2.3-5.7l-6.9 4.1s1.1 4.6 4 7.5 4.8 3.2 4.8 3.2l5.4-5.4zm-48.7 208.8s-1.4-2.4-.4-6.3c1-3.9 2.7-5.4 2.7-5.4l-7.5-2.7s-2.7 3.8-3 8c-.2 4.2.7 5.9.7 5.9l7.5.5z" fill-rule="evenodd" clip-rule="evenodd" fill="#E88D49"/>
  <path d="M542 85l-6.6 1.8-2.5.7c.2.8.5 1.5.9 2.1l2.3-1.3L542 85zm0 0l-5.9-3.4-2.3-1.3c-.4.7-.7 1.4-.9 2.1l2.5.7L542 85zm0 0l6.6-1.8 2.5-.7c-.2-.8-.5-1.5-.9-2.1l-2.3 1.3L542 85zm0 0l-3.4 5.9-1.3 2.3c.7.4 1.4.7 2.1.9l.7-2.5L542 85zm0 0l-1.8-6.6-.7-2.5c-.8.2-1.5.5-2.1.9l1.3 2.3L542 85zm0 0l3.4-5.9 1.3-2.3c-.7-.4-1.4-.7-2.1-.9l-.7 2.5L542 85zm0 0l5.9 3.4 2.3 1.3c.4-.7.7-1.4.9-2.1l-2.5-.7L542 85zm0 0l1.8 6.6.7 2.5c.8-.2 1.5-.5 2.1-.9l-1.3-2.3L542 85z" fill="#C23747"/>
  <path d="M542 85l-1.8 6.6-.7 2.5c.8.2 1.6.3 2.5.3s1.7-.1 2.5-.3l-.7-2.5L542 85z" fill="#F3E3EE"/>
  <path d="M542 85l3.4 5.9 1.3 2.3c1.5-.8 2.7-2.1 3.6-3.6l-2.3-1.3-6-3.3zm9.1-2.5l-2.5.7L542 85l6.6 1.8 2.5.7c.2-.8.3-1.6.3-2.5 0-.8-.1-1.7-.3-2.5zM542 85l5.9-3.4 2.3-1.3c-.8-1.5-2.1-2.7-3.6-3.6l-1.3 2.3-3.3 6zm0 0l1.8-6.6.7-2.5c-.8-.2-1.6-.3-2.5-.3s-1.7.1-2.5.3l.7 2.5L542 85z" fill="#F3E3EE"/>
  <path d="M542 85l-3.4-5.9-1.3-2.3c-1.5.8-2.7 2.1-3.6 3.6l2.3 1.3 6 3.3zm0 0l-6.6-1.8-2.5-.7c-.2.8-.3 1.6-.3 2.5 0 .9.1 1.7.3 2.5l2.5-.7L542 85zm0 0l-5.9 3.4-2.3 1.3c.8 1.5 2.1 2.7 3.6 3.6l1.3-2.3 3.3-6z" fill="#F3E3EE"/>
  <path d="M354.1 147.5l-12.5 3.5-4.8 1.3c.4 1.4 1 2.8 1.7 4.1l4.4-2.5 11.2-6.4zm0 0l-11.3-6.4-4.4-2.5c-.7 1.3-1.3 2.6-1.7 4.1l4.8 1.3 12.6 3.5z" fill="#C23747"/>
  <path d="M354.1 147.5l12.5-3.5 4.8-1.3c-.4-1.4-1-2.8-1.7-4.1l-4.4 2.5-11.2 6.4zm0 0l-6.4 11.3-2.5 4.4c1.3.7 2.6 1.3 4.1 1.7l1.3-4.8 3.5-12.6zm0 0l-3.5-12.5-1.3-4.8c-1.4.4-2.8 1-4.1 1.7l2.5 4.4 6.4 11.2z" fill="#C23747"/>
  <path d="M354.1 147.5l6.4-11.3 2.5-4.4c-1.3-.7-2.6-1.3-4.1-1.7l-1.3 4.8-3.5 12.6zm0 0l11.3 6.4 4.4 2.5c.7-1.3 1.3-2.6 1.7-4.1l-4.8-1.3-12.6-3.5z" fill="#C23747"/>
  <path d="M354.1 147.5l3.5 12.5 1.3 4.8c1.4-.4 2.8-1 4.1-1.7l-2.5-4.4-6.4-11.2z" fill="#C23747"/>
  <path d="M354.1 147.5l-3.5 12.5-1.3 4.8c1.5.4 3.1.7 4.8.7 1.7 0 3.3-.2 4.8-.7l-1.3-4.8-3.5-12.5zm0 0l6.4 11.3 2.5 4.4c2.8-1.6 5.2-4 6.8-6.8l-4.4-2.5-11.3-6.4zm17.4-4.8l-4.8 1.3-12.5 3.5 12.5 3.5 4.8 1.3c.4-1.5.7-3.1.7-4.8-.1-1.7-.3-3.3-.7-4.8zm-17.4 4.8l11.3-6.4 4.4-2.5c-1.6-2.8-4-5.2-6.8-6.8l-2.5 4.4-6.4 11.3zm0 0l3.5-12.5 1.3-4.8c-1.5-.4-3.1-.7-4.8-.7-1.7 0-3.3.2-4.8.7l1.3 4.8 3.5 12.5zm0 0l-6.4-11.3-2.5-4.4c-2.8 1.6-5.2 4-6.8 6.8l4.4 2.5 11.3 6.4zm0 0l-12.5-3.5-4.8-1.3c-.4 1.5-.7 3.1-.7 4.8 0 1.7.2 3.3.7 4.8l4.8-1.3 12.5-3.5zm0 0l-11.3 6.4-4.4 2.5c1.6 2.8 4 5.2 6.8 6.8l2.5-4.4 6.4-11.3z" fill="#F3E3EE"/>
  <path d="M158.2 103.2l-8.6 2.4-3.3.9c.3 1 .7 1.9 1.2 2.8l3-1.7 7.7-4.4zm0 0l-7.8-4.4-3-1.7c-.5.9-.9 1.8-1.2 2.8l3.3.9 8.7 2.4zm0 0l8.6-2.4 3.3-.9c-.3-1-.7-1.9-1.2-2.8l-3 1.7-7.7 4.4zm0 0l-4.4 7.8-1.7 3c.9.5 1.8.9 2.8 1.2l.9-3.3 2.4-8.7z" fill="#C23747"/>
  <path d="M158.2 103.2l-2.4-8.6-.9-3.3c-1 .3-1.9.7-2.8 1.2l1.7 3 4.4 7.7z" fill="#C23747"/>
  <path d="M158.2 103.2l4.4-7.8 1.7-3c-.9-.5-1.8-.9-2.8-1.2l-.9 3.3-2.4 8.7zm0 0l7.8 4.4 3 1.7c.5-.9.9-1.8 1.2-2.8l-3.3-.9-8.7-2.4z" fill="#C23747"/>
  <path d="M158.2 103.2l2.4 8.6.9 3.3c1-.3 1.9-.7 2.8-1.2l-1.7-3-4.4-7.7z" fill="#C23747"/>
  <path d="M158.2 103.2l-2.4 8.6-.9 3.3c1.1.3 2.2.5 3.3.5 1.1 0 2.3-.2 3.3-.5l-.9-3.3-2.4-8.6z" fill="#F3E3EE"/>
  <path d="M158.2 103.2l4.4 7.8 1.7 3c2-1.1 3.6-2.7 4.7-4.7l-3-1.7-7.8-4.4z" fill="#F3E3EE"/>
  <path d="M170.1 99.9l-3.3.9-8.6 2.4 8.6 2.4 3.3.9c.3-1.1.5-2.2.5-3.3 0-1.2-.2-2.3-.5-3.3zm-11.9 3.3l7.8-4.4 3-1.7c-1.1-2-2.7-3.6-4.7-4.7l-1.7 3-4.4 7.8zm0 0l2.4-8.6.9-3.3c-1.1-.3-2.2-.5-3.3-.5-1.1 0-2.3.2-3.3.5l.9 3.3 2.4 8.6z" fill="#F3E3EE"/>
  <path d="M158.2 103.2l-4.4-7.8-1.7-3c-2 1.1-3.6 2.7-4.7 4.7l3 1.7 7.8 4.4z" fill="#F3E3EE"/>
  <path d="M158.2 103.2l-8.6-2.4-3.3-.9c-.3 1.1-.5 2.2-.5 3.3 0 1.1.2 2.3.5 3.3l3.3-.9 8.6-2.4zm0 0l-7.8 4.4-3 1.7c1.1 2 2.7 3.6 4.7 4.7l1.7-3 4.4-7.8z" fill="#F3E3EE"/>
  <path d="M660.7 46.1l-9 .3-3.5.1c0 1 .2 2 .5 3l3.3-1 8.7-2.4zm0 0l-6.6-6.1-2.5-2.4c-.7.7-1.3 1.6-1.8 2.5l3 1.7 7.9 4.3zm0 0l9-.3 3.5-.1c0-1-.2-2-.5-3l-3.3 1-8.7 2.4zm0 0l-6.1 6.6-2.4 2.5c.7.7 1.6 1.3 2.5 1.8l1.7-3 4.3-7.9zm0 0l-.3-9-.1-3.5c-1 0-2 .2-3 .5l1 3.3 2.4 8.7zm0 0l6.1-6.6 2.4-2.5c-.7-.7-1.6-1.3-2.5-1.8l-1.7 3-4.3 7.9zm0 0l6.6 6.1 2.5 2.4c.7-.7 1.3-1.6 1.8-2.5l-3-1.7-7.9-4.3zm0 0l.3 9 .1 3.5c1 0 2-.2 3-.5l-1-3.3-2.4-8.7z" fill="#1C95CF"/>
  <path d="M660.7 46.1l-4.3 7.8-1.7 3c1 .5 2 .9 3.1 1.2 1.1.3 2.2.4 3.3.3l-.1-3.5-.3-8.8z" fill="#96C6D9"/>
  <path d="M660.7 46.1l2.5 8.6 1 3.3c2.2-.6 4.1-1.8 5.7-3.5l-2.5-2.4-6.7-6zm12.5-.4l-3.5.1-9 .3 7.8 4.3 3 1.7c.5-1 .9-2 1.2-3.1.4-1.1.5-2.2.5-3.3zm-12.5.4l8.6-2.5 3.3-1c-.6-2.2-1.8-4.1-3.5-5.7l-2.4 2.5-6 6.7z" fill="#96C6D9"/>
  <path d="M660.7 46.1l4.3-7.8 1.7-3c-1-.5-2-.9-3.1-1.2-1.1-.3-2.2-.4-3.3-.3l.1 3.5.3 8.8z" fill="#96C6D9"/>
  <path d="M660.7 46.1l-2.5-8.6-1-3.3c-2.2.6-4.1 1.8-5.7 3.5l2.5 2.4 6.7 6zm0 0l-7.8-4.3-3-1.7c-.5 1-.9 2-1.2 3.1-.3 1.1-.4 2.2-.3 3.3l3.5-.1 8.8-.3zm0 0l-8.6 2.5-3.3 1c.6 2.2 1.8 4.1 3.5 5.7l2.4-2.5 6-6.7z" fill="#96C6D9"/>
  <path d="M639.6 157.6l-9 .3-3.5.1c0 1 .2 2 .5 3l3.3-1 8.7-2.4zm0 0l-6.6-6.1-2.5-2.4c-.7.7-1.3 1.6-1.8 2.5l3 1.7 7.9 4.3zm0 0l9-.3 3.5-.1c0-1-.2-2-.5-3l-3.3 1-8.7 2.4zm0 0l-6.1 6.6-2.4 2.5c.7.7 1.6 1.3 2.5 1.8l1.7-3 4.3-7.9zm0 0l-.3-9-.1-3.5c-1 0-2 .2-3 .5l1 3.3 2.4 8.7zm0 0l6.1-6.6 2.4-2.5c-.7-.7-1.6-1.3-2.5-1.8l-1.7 3-4.3 7.9zm0 0l6.6 6.1 2.5 2.4c.7-.7 1.3-1.6 1.8-2.5l-3-1.7-7.9-4.3zm0 0l.3 9 .1 3.5c1 0 2-.2 3-.5l-1-3.3-2.4-8.7z" fill="#1C95CF"/>
  <path d="M639.6 157.6l-4.3 7.8-1.7 3c1 .5 2 .9 3.1 1.2 1.1.3 2.2.4 3.3.3l-.1-3.5-.3-8.8zm0 0l2.5 8.6 1 3.3c2.2-.6 4.1-1.8 5.7-3.5l-2.5-2.4-6.7-6zm12.4-.5l-3.5.1-9 .3 7.8 4.3 3 1.7c.5-1 .9-2 1.2-3.1.5-1 .6-2.2.5-3.3z" fill="#96C6D9"/>
  <path d="M639.6 157.6l8.6-2.5 3.3-1c-.6-2.2-1.8-4.1-3.5-5.7l-2.4 2.5-6 6.7zm0 0l4.3-7.8 1.7-3c-1-.5-2-.9-3.1-1.2-1.1-.3-2.2-.4-3.3-.3l.1 3.5.3 8.8zm0 0l-2.5-8.6-1-3.3c-2.2.6-4.1 1.8-5.6 3.5l2.5 2.4 6.6 6zm0 0l-7.8-4.3-3-1.7c-.5 1-.9 2-1.2 3.1-.3 1.1-.4 2.2-.3 3.3l3.5-.1 8.8-.3zm0 0l-8.6 2.5-3.3 1c.6 2.2 1.8 4.1 3.5 5.7l2.4-2.5 6-6.7z" fill="#96C6D9"/>
  <path d="M51.3 180.3l-3.6 1-1.4.4c.1.4.3.8.5 1.2l1.3-.7 3.2-1.9zm0 0l-3.3-1.9-1.3-.7c-.2.4-.4.8-.5 1.2l1.4.4 3.7 1z" fill="#1C95CF"/>
  <path d="M51.3 180.3l3.6-1 1.4-.4c-.1-.4-.3-.8-.5-1.2l-1.3.7-3.2 1.9zm0 0l-1.9 3.3-.7 1.3c.4.2.8.4 1.2.5l.4-1.4 1-3.7zm0 0l-1-3.6-.4-1.4c-.4.1-.8.3-1.2.5l.7 1.3 1.9 3.2zm0 0l1.9-3.3.7-1.3c-.4-.2-.8-.4-1.2-.5l-.4 1.4-1 3.7z" fill="#1C95CF"/>
  <path d="M51.3 180.3l3.3 1.9 1.3.7c.2-.4.4-.8.5-1.2l-1.4-.4-3.7-1z" fill="#1C95CF"/>
  <path d="M51.3 180.3l1 3.6.4 1.4c.4-.1.8-.3 1.2-.5l-.7-1.3-1.9-3.2z" fill="#1C95CF"/>
  <path d="M51.3 180.3l-1 3.6-.4 1.4c.4.1.9.2 1.4.2.5 0 1-.1 1.4-.2l-.4-1.4-1-3.6z" fill="#96C6D9"/>
  <path d="M51.3 180.3l1.9 3.3.7 1.3c.8-.5 1.5-1.2 2-2l-1.3-.7-3.3-1.9zm5-1.4l-1.4.4-3.6 1 3.6 1 1.4.4c.1-.4.2-.9.2-1.4 0-.5 0-1-.2-1.4z" fill="#96C6D9"/>
  <path d="M51.3 180.3l3.3-1.9 1.3-.7c-.5-.8-1.2-1.5-2-2l-.7 1.3-1.9 3.3zm0 0l1-3.6.4-1.4c-.4-.1-.9-.2-1.4-.2-.5 0-1 .1-1.4.2l.4 1.4 1 3.6z" fill="#96C6D9"/>
  <path d="M51.3 180.3l-1.9-3.3-.7-1.3c-.8.5-1.5 1.2-2 2l1.3.7 3.3 1.9zm0 0l-3.6-1-1.4-.4c-.1.4-.2.9-.2 1.4 0 .5.1 1 .2 1.4l1.4-.4 3.6-1z" fill="#96C6D9"/>
  <path d="M51.3 180.3l-3.3 1.9-1.3.7c.5.8 1.2 1.5 2 2l.7-1.3 1.9-3.3z" fill="#96C6D9"/>
  <path d="M201.9 123s-.8-2.2-3.7-3.6c-3-1.4-4.8-1-4.8-1l2.2-6.3s3.8.2 6.6 2.2c2.7 2 3.3 3.5 3.3 3.5l-3.6 5.2zM87.4 222s-1.2-2-.3-5.2c.8-3.2 2.3-4.5 2.3-4.5l-6.2-2.2s-2.3 3.2-2.5 6.6c-.2 3.4.6 4.8.6 4.8l6.1.5zm99.3 92.6s1.2-2 .3-5.2c-.8-3.2-2.3-4.5-2.3-4.5l6.2-2.2s2.3 3.2 2.5 6.6c.2 3.4-.6 4.8-.6 4.8l-6.1.5zM73.4 410.3s-2.2.4-4.8-1.7c-2.6-2-3.2-3.9-3.2-3.9l-4.4 5s2 3.3 5 4.8 4.6 1.3 4.6 1.3l2.8-5.5zm85.2 12.9s.4-2.3 3.1-4.1c2.7-1.8 4.6-1.8 4.6-1.8l-3.1-5.9s-3.7.8-6.1 3.2c-2.4 2.4-2.7 4-2.7 4l4.2 4.6zm16.8-119.9s-2.2-.3-4.1-3.1c-1.9-2.7-1.9-4.7-1.9-4.7l-5.6 3.4s.9 3.8 3.4 6.2c2.4 2.4 4 2.6 4 2.6l4.2-4.4zm101.7 3s-1.2-2-.3-5.2c.8-3.2 2.3-4.5 2.3-4.5l-6.2-2.2s-2.3 3.2-2.5 6.6c-.2 3.4.6 4.8.6 4.8l6.1.5z" fill-rule="evenodd" clip-rule="evenodd" fill="#EC4E6E"/>
  <path d="M103.2 186.7s1.4-2.4.4-6.3c-1-3.9-2.7-5.4-2.7-5.4l7.5-2.7s2.7 3.8 3 8c.2 4.2-.7 5.9-.7 5.9l-7.5.5zM76.4 303.3s1.1-2.5 4.9-3.9c3.7-1.3 5.9-.7 5.9-.7l-2-7.9s-4.6-.2-8.1 1.9-4.3 3.9-4.3 3.9l3.6 6.7zm79.4-47.5s1.3-2.5 5-3.6c3.8-1.1 6-.4 6-.4l-1.6-7.9s-4.6-.4-8.2 1.5c-3.6 1.9-4.5 3.7-4.5 3.7l3.3 6.7zm89.6 146.7s-1.4-2.4-.4-6.3c1-3.9 2.7-5.4 2.7-5.4l-7.5-2.7s-2.7 3.8-3 8c-.2 4.2.7 5.9.7 5.9l7.5.5z" fill-rule="evenodd" clip-rule="evenodd" fill="#E88D49"/>
  <path d="M239.6 154.1s-.1-2.5 2.4-5.2 4.5-3.1 4.5-3.1l-4.8-5.5s-3.8 1.8-5.8 5-1.9 5-1.9 5l5.6 3.8zm-143.2 105s1.3-2.2.4-5.7c-.9-3.6-2.5-4.9-2.5-4.9l6.8-2.5s2.5 3.5 2.7 7.3c.2 3.8-.7 5.3-.7 5.3l-6.7.5zm.7 138.2s.3-2.5 3.1-4.7c2.9-2.2 4.9-2.3 4.9-2.3l-3.9-6.2s-4.1 1.2-6.5 4c-2.5 2.8-2.7 4.6-2.7 4.6l5.1 4.6zm149.5-91.5s-1.3-2.2-.4-5.7c.9-3.6 2.5-4.9 2.5-4.9l-6.8-2.5s-2.5 3.5-2.7 7.3c-.2 3.8.7 5.3.7 5.3l6.7.5z" fill-rule="evenodd" clip-rule="evenodd" fill="#3EA1A4"/>
  <path d="M219.2 195.3l-8.6 2.4-3.3.9c.3 1 .7 1.9 1.2 2.8l3-1.7 7.7-4.4z" fill="#C23747"/>
  <path d="M219.2 195.3l-7.8-4.4-3-1.7c-.5.9-.9 1.8-1.2 2.8l3.3.9 8.7 2.4zm0 0l8.6-2.4 3.3-.9c-.3-1-.7-1.9-1.2-2.8l-3 1.7-7.7 4.4z" fill="#C23747"/>
  <path d="M219.2 195.3l-4.4 7.8-1.7 3c.9.5 1.8.9 2.8 1.2l.9-3.3 2.4-8.7zm0 0l-2.4-8.6-.9-3.3c-1 .3-1.9.7-2.8 1.2l1.7 3 4.4 7.7z" fill="#C23747"/>
  <path d="M219.2 195.3l4.4-7.8 1.7-3c-.9-.5-1.8-.9-2.8-1.2l-.9 3.3-2.4 8.7z" fill="#C23747"/>
  <path d="M219.2 195.3l7.8 4.4 3 1.7c.5-.9.9-1.8 1.2-2.8l-3.3-.9-8.7-2.4zm0 0l2.4 8.6.9 3.3c1-.3 1.9-.7 2.8-1.2l-1.7-3-4.4-7.7z" fill="#C23747"/>
  <path d="M219.2 195.3l-2.4 8.6-.9 3.3c1.1.3 2.2.5 3.3.5 1.1 0 2.3-.2 3.3-.5l-.9-3.3-2.4-8.6z" fill="#F3E3EE"/>
  <path d="M219.2 195.3l4.4 7.8 1.7 3c2-1.1 3.6-2.7 4.7-4.7l-3-1.7-7.8-4.4zm12-3.3l-3.3.9-8.6 2.4 8.6 2.4 3.3.9c.3-1.1.5-2.2.5-3.3-.1-1.1-.2-2.2-.5-3.3z" fill="#F3E3EE"/>
  <path d="M219.2 195.3l7.8-4.4 3-1.7c-1.1-2-2.7-3.6-4.7-4.7l-1.7 3-4.4 7.8zm0 0l2.4-8.6.9-3.3c-1.1-.3-2.2-.5-3.3-.5-1.1 0-2.3.2-3.3.5l.9 3.3 2.4 8.6z" fill="#F3E3EE"/>
  <path d="M219.2 195.3l-4.4-7.8-1.7-3c-2 1.1-3.6 2.7-4.7 4.7l3 1.7 7.8 4.4zm0 0l-8.6-2.4-3.3-.9c-.3 1.1-.5 2.2-.5 3.3 0 1.1.2 2.3.5 3.3l3.3-.9 8.6-2.4z" fill="#F3E3EE"/>
  <path d="M219.2 195.3l-7.8 4.4-3 1.7c1.1 2 2.7 3.6 4.7 4.7l1.7-3 4.4-7.8z" fill="#F3E3EE"/>
  <path d="M112.3 272.4l-3.6 1-1.4.4c.1.4.3.8.5 1.2l1.3-.7 3.2-1.9zm0 0l-3.3-1.9-1.3-.7c-.2.4-.4.8-.5 1.2l1.4.4 3.7 1z" fill="#1C95CF"/>
  <path d="M112.3 272.4l3.6-1 1.4-.4c-.1-.4-.3-.8-.5-1.2l-1.3.7-3.2 1.9zm0 0l-1.9 3.3-.7 1.3c.4.2.8.4 1.2.5l.4-1.4 1-3.7zm0 0l-1-3.6-.4-1.4c-.4.1-.8.3-1.2.5l.7 1.3 1.9 3.2zm0 0l1.9-3.3.7-1.3c-.4-.2-.8-.4-1.2-.5l-.4 1.4-1 3.7z" fill="#1C95CF"/>
  <path d="M112.3 272.4l3.3 1.9 1.3.7c.2-.4.4-.8.5-1.2l-1.4-.4-3.7-1z" fill="#1C95CF"/>
  <path d="M112.3 272.4l1 3.6.4 1.4c.4-.1.8-.3 1.2-.5l-.7-1.3-1.9-3.2z" fill="#1C95CF"/>
  <path d="M112.3 272.4l-1 3.6-.4 1.4c.4.1.9.2 1.4.2.5 0 1-.1 1.4-.2l-.4-1.4-1-3.6z" fill="#96C6D9"/>
  <path d="M112.3 272.4l1.9 3.3.7 1.3c.8-.5 1.5-1.2 2-2l-1.3-.7-3.3-1.9zm5.1-1.4l-1.4.4-3.6 1 3.6 1 1.4.4c.1-.4.2-.9.2-1.4 0-.4-.1-.9-.2-1.4z" fill="#96C6D9"/>
  <path d="M112.3 272.4l3.3-1.9 1.3-.7c-.5-.8-1.2-1.5-2-2l-.7 1.3-1.9 3.3zm0 0l1-3.6.4-1.4c-.4-.1-.9-.2-1.4-.2-.5 0-1 .1-1.4.2l.4 1.4 1 3.6z" fill="#96C6D9"/>
  <path d="M112.3 272.4l-1.9-3.3-.7-1.3c-.8.5-1.5 1.2-2 2l1.3.7 3.3 1.9zm0 0l-3.6-1-1.4-.4c-.1.4-.2.9-.2 1.4 0 .5.1 1 .2 1.4l1.4-.4 3.6-1z" fill="#96C6D9"/>
  <path d="M112.3 272.4l-3.3 1.9-1.3.7c.5.8 1.2 1.5 2 2l.7-1.3 1.9-3.3z" fill="#96C6D9"/>
  <path d="M154.7 198.8s-.8-2.2-3.7-3.6c-3-1.4-4.8-1-4.8-1l2.2-6.3s3.8.2 6.6 2.2c2.7 2 3.3 3.5 3.3 3.5l-3.6 5.2zm-114.4 99s-1.2-2-.3-5.2c.8-3.2 2.3-4.5 2.3-4.5l-6.2-2.2s-2.3 3.2-2.5 6.6c-.2 3.4.6 4.8.6 4.8l6.1.5zm99.2 92.6s1.2-2 .3-5.2c-.8-3.2-2.3-4.5-2.3-4.5l6.2-2.2s2.3 3.2 2.5 6.6c.2 3.4-.6 4.8-.6 4.8l-6.1.5zM61.4 225.8s-2.2.4-4.8-1.7c-2.6-2-3.2-3.9-3.2-3.9l-4.4 5s2 3.3 5 4.8 4.6 1.3 4.6 1.3l2.8-5.5zm85.2 12.9s.4-2.3 3.1-4.1c2.7-1.8 4.6-1.8 4.6-1.8l-3.1-5.9s-3.7.8-6.1 3.2c-2.4 2.4-2.7 4-2.7 4l4.2 4.6zm-49.7 33.4s-2.2-.3-4.1-3.1c-1.9-2.7-1.9-4.7-1.9-4.7l-5.6 3.4s.9 3.8 3.4 6.2c2.4 2.4 4 2.6 4 2.6l4.2-4.4zm101.6 3s-1.2-2-.3-5.2c.8-3.2 2.3-4.5 2.3-4.5l-6.2-2.2s-2.3 3.2-2.5 6.6c-.2 3.4.6 4.8.6 4.8l6.1.5z" fill-rule="evenodd" clip-rule="evenodd" fill="#EC4E6E"/>
  <path d="M56.1 262.6s1.4-2.4.4-6.3c-1-3.9-2.7-5.4-2.7-5.4l7.5-2.7s2.7 3.8 3 8c.2 4.2-.7 5.9-.7 5.9l-7.5.5zM29.3 379.1s1.1-2.5 4.9-3.9c3.7-1.3 5.9-.7 5.9-.7l-2-7.9s-4.6-.2-8.1 1.9-4.3 3.9-4.3 3.9l3.6 6.7zm79.4-47.5s1.3-2.5 5-3.6c3.8-1.1 6-.4 6-.4l-1.6-7.9s-4.6-.4-8.2 1.5c-3.6 1.9-4.5 3.7-4.5 3.7l3.3 6.7zM233.4 218s-1.4-2.4-.4-6.3c1-3.9 2.7-5.4 2.7-5.4l-7.5-2.7s-2.7 3.8-3 8c-.2 4.2.7 5.9.7 5.9l7.5.5z" fill-rule="evenodd" clip-rule="evenodd" fill="#E88D49"/>
  <path d="M192.5 229.9s-.1-2.5 2.4-5.2 4.5-3.1 4.5-3.1l-4.8-5.5s-3.8 1.8-5.8 5-1.9 5-1.9 5l5.6 3.8zm-143.2 105s1.3-2.2.4-5.7c-.9-3.6-2.5-4.9-2.5-4.9l6.8-2.5s2.5 3.5 2.7 7.3c.2 3.8-.7 5.3-.7 5.3l-6.7.5zm35.8-122.1s.3-2.5 3.1-4.7c2.9-2.2 4.9-2.3 4.9-2.3l-3.9-6.2s-4.1 1.2-6.5 4c-2.5 2.8-2.7 4.6-2.7 4.6l5.1 4.6zm114.4 168.9s-1.3-2.2-.4-5.7c.9-3.6 2.5-4.9 2.5-4.9l-6.8-2.5s-2.5 3.5-2.7 7.3c-.2 3.8.7 5.3.7 5.3l6.7.5z" fill-rule="evenodd" clip-rule="evenodd" fill="#3EA1A4"/>
  <path d="M172.1 271.2l-8.6 2.4-3.3.9c.3 1 .7 1.9 1.2 2.8l3-1.7 7.7-4.4zm0 0l-7.8-4.4-3-1.7c-.5.9-.9 1.8-1.2 2.8l3.3.9 8.7 2.4zm0 0l8.6-2.4 3.3-.9c-.3-1-.7-1.9-1.2-2.8l-3 1.7-7.7 4.4zm0 0l-4.4 7.8-1.7 3c.9.5 1.8.9 2.8 1.2l.9-3.3 2.4-8.7zm0 0l-2.4-8.6-.9-3.3c-1 .3-1.9.7-2.8 1.2l1.7 3 4.4 7.7z" fill="#C23747"/>
  <path d="M172.1 271.2l4.4-7.8 1.7-3c-.9-.5-1.8-.9-2.8-1.2l-.9 3.3-2.4 8.7zm0 0l7.8 4.4 3 1.7c.5-.9.9-1.8 1.2-2.8l-3.3-.9-8.7-2.4zm0 0l2.4 8.6.9 3.3c1-.3 1.9-.7 2.8-1.2l-1.7-3-4.4-7.7z" fill="#C23747"/>
  <path d="M172.1 271.2l-2.4 8.6-.9 3.3c1.1.3 2.2.5 3.3.5 1.1 0 2.3-.2 3.3-.5l-.9-3.3-2.4-8.6z" fill="#F3E3EE"/>
  <path d="M172.1 271.2l4.4 7.8 1.7 3c2-1.1 3.6-2.7 4.7-4.7l-3-1.7-7.8-4.4zm12-3.4l-3.3.9-8.6 2.4 8.6 2.4 3.3.9c.3-1.1.5-2.2.5-3.3-.1-1.1-.3-2.2-.5-3.3z" fill="#F3E3EE"/>
  <path d="M172.1 271.2l7.8-4.4 3-1.7c-1.1-2-2.7-3.6-4.7-4.7l-1.7 3-4.4 7.8zm0 0l2.4-8.6.9-3.3c-1.1-.3-2.2-.5-3.3-.5-1.1 0-2.3.2-3.3.5l.9 3.3 2.4 8.6z" fill="#F3E3EE"/>
  <path d="M172.1 271.2l-4.4-7.8-1.7-3c-2 1.1-3.6 2.7-4.7 4.7l3 1.7 7.8 4.4zm0 0l-8.6-2.4-3.3-.9c-.3 1.1-.5 2.2-.5 3.3 0 1.1.2 2.3.5 3.3l3.3-.9 8.6-2.4z" fill="#F3E3EE"/>
  <path d="M172.1 271.2l-7.8 4.4-3 1.7c1.1 2 2.7 3.6 4.7 4.7l1.7-3 4.4-7.8z" fill="#F3E3EE"/>
  <path d="M65.2 348.3l-3.6 1-1.4.4c.1.4.3.8.5 1.2l1.3-.7 3.2-1.9zm0 0l-3.3-1.9-1.3-.7c-.2.4-.4.8-.5 1.2l1.4.4 3.7 1zm0 0l3.6-1 1.4-.4c-.1-.4-.3-.8-.5-1.2l-1.3.7-3.2 1.9zm0 0l-1.9 3.3-.7 1.3c.4.2.8.4 1.2.5l.4-1.4 1-3.7zm0 0l-1-3.6-.4-1.4c-.4.1-.8.3-1.2.5l.7 1.3 1.9 3.2zm0 0L67 345l.7-1.3c-.4-.2-.8-.4-1.2-.5l-.4 1.4-.9 3.7z" fill="#1C95CF"/>
  <path d="M65.2 348.3l3.3 1.9 1.3.7c.2-.4.4-.8.5-1.2l-1.4-.4-3.7-1z" fill="#1C95CF"/>
  <path d="M65.2 348.3l1 3.6.4 1.4c.4-.1.8-.3 1.2-.5l-.7-1.3-1.9-3.2z" fill="#1C95CF"/>
  <path d="M65.2 348.3l-1 3.6-.4 1.4c.4.1.9.2 1.4.2.5 0 1-.1 1.4-.2l-.4-1.4-1-3.6z" fill="#96C6D9"/>
  <path d="M65.2 348.3l1.9 3.3.7 1.3c.8-.5 1.5-1.2 2-2l-1.3-.7-3.3-1.9zm5-1.4l-1.4.4-3.6 1 3.6 1 1.4.4c.1-.4.2-.9.2-1.4 0-.5 0-1-.2-1.4zm-5 1.4l3.3-1.9 1.3-.7c-.5-.8-1.2-1.5-2-2L67 345l-1.8 3.3zm0 0l1-3.6.4-1.4c-.4-.1-.9-.2-1.4-.2-.5 0-1 .1-1.4.2l.4 1.4 1 3.6z" fill="#96C6D9"/>
  <path d="M65.2 348.3l-1.9-3.3-.7-1.3c-.8.5-1.5 1.2-2 2l1.3.7 3.3 1.9zm0 0l-3.6-1-1.4-.4c-.1.4-.2.9-.2 1.4 0 .5.1 1 .2 1.4l1.4-.4 3.6-1z" fill="#96C6D9"/>
  <path d="M65.2 348.3l-3.3 1.9-1.3.7c.5.8 1.2 1.5 2 2l.7-1.3 1.9-3.3z" fill="#96C6D9"/>
  <path d="M100.1 45.1l-8.6 2.4-3.3.9c.3 1 .7 1.9 1.2 2.8l3-1.7 7.7-4.4z" fill="#C23747"/>
  <path d="M100.1 45.1l-7.8-4.4-3-1.7c-.5.9-.9 1.8-1.2 2.8l3.3.9 8.7 2.4z" fill="#C23747"/>
  <path d="M100.1 45.1l8.6-2.4 3.3-.9c-.3-1-.7-1.9-1.2-2.8l-3 1.7-7.7 4.4z" fill="#C23747"/>
  <path d="M100.1 45.1l-4.4 7.8-1.7 3c.9.5 1.8.9 2.8 1.2l.9-3.3 2.4-8.7z" fill="#C23747"/>
  <path d="M100.1 45.1l-2.4-8.6-.9-3.3c-1 .3-1.9.7-2.8 1.2l1.7 3 4.4 7.7zm0 0l4.4-7.8 1.7-3c-.9-.5-1.8-.9-2.8-1.2l-.9 3.3-2.4 8.7zm0 0l7.8 4.4 3 1.7c.5-.9.9-1.8 1.2-2.8l-3.3-.9-8.7-2.4z" fill="#C23747"/>
  <path d="M100.1 45.1l2.4 8.6.9 3.3c1-.3 1.9-.7 2.8-1.2l-1.7-3-4.4-7.7z" fill="#C23747"/>
  <path d="M100.1 45.1l-2.4 8.6-1 3.3c1.1.3 2.2.5 3.3.5 1.1 0 2.3-.2 3.3-.5l-.9-3.3-2.3-8.6zm0 0l4.4 7.8 1.7 3c2-1.1 3.6-2.7 4.7-4.7l-3-1.7-7.8-4.4zm11.9-3.3l-3.3.9-8.6 2.4 8.6 2.4 3.3.9c.3-1.1.5-2.2.5-3.3 0-1.2-.2-2.3-.5-3.3zm-11.9 3.3l7.8-4.4 3-1.7c-1.1-2-2.7-3.6-4.7-4.7l-1.7 3-4.4 7.8z" fill="#F3E3EE"/>
  <path d="M100.1 45.1l2.4-8.6.9-3.3c-1.1-.3-2.2-.5-3.3-.5-1.1 0-2.3.2-3.3.5l.9 3.3 2.4 8.6zm0 0l-4.4-7.8-1.7-3c-2 1.1-3.6 2.7-4.7 4.7l3 1.7 7.8 4.4z" fill="#F3E3EE"/>
  <path d="M100.1 45.1l-8.6-2.4-3.3-.9c-.3 1.1-.5 2.2-.5 3.3 0 1.1.2 2.3.5 3.3l3.3-.9 8.6-2.4zm0 0l-7.8 4.4-3 1.7c1.1 2 2.7 3.6 4.7 4.7l1.7-3 4.4-7.8z" fill="#F3E3EE"/>
  <path d="M380.1 95.3l-9.3 2.6-3.6 1c.3 1.1.7 2.1 1.3 3l3.2-1.8 8.4-4.8zm0 0l-8.4-4.8-3.2-1.8c-.5.9-1 2-1.3 3l3.6 1 9.3 2.6z" fill="#1C95CF"/>
  <path d="M380.1 95.3l9.3-2.6 3.6-1c-.3-1.1-.7-2.1-1.3-3l-3.2 1.8-8.4 4.8zm0 0l-4.8 8.4-1.8 3.2c.9.5 2 1 3 1.3l1-3.6 2.6-9.3z" fill="#1C95CF"/>
  <path d="M380.1 95.3l-2.6-9.3-1-3.6c-1.1.3-2.1.7-3 1.3l1.8 3.2 4.8 8.4zm0 0l4.8-8.4 1.8-3.2c-.9-.5-2-1-3-1.3l-1 3.6-2.6 9.3z" fill="#1C95CF"/>
  <path d="M380.1 95.3l8.4 4.8 3.2 1.8c.5-.9 1-2 1.3-3l-3.6-1-9.3-2.6z" fill="#1C95CF"/>
  <path d="M380.1 95.3l2.6 9.3 1 3.6c1.1-.3 2.1-.7 3-1.3l-1.8-3.2-4.8-8.4z" fill="#1C95CF"/>
  <path d="M380.1 95.3l-2.6 9.3-1 3.6c1.1.3 2.3.5 3.6.5s2.4-.2 3.6-.5l-1-3.6-2.6-9.3zm0 0l4.8 8.4 1.8 3.2c2.1-1.2 3.9-2.9 5.1-5.1l-3.2-1.8-8.5-4.7z" fill="#96C6D9"/>
  <path d="M393 91.8l-3.6 1-9.3 2.6 9.3 2.6 3.6 1c.3-1.1.5-2.3.5-3.6 0-1.3-.2-2.5-.5-3.6zm-12.9 3.5l8.4-4.8 3.2-1.8c-1.2-2.1-2.9-3.9-5.1-5.1l-1.8 3.2-4.7 8.5z" fill="#96C6D9"/>
  <path d="M380.1 95.3l2.6-9.3 1-3.6c-1.1-.3-2.3-.5-3.6-.5s-2.4.2-3.6.5l1 3.6 2.6 9.3zm0 0l-4.8-8.4-1.8-3.2c-2.1 1.2-3.9 2.9-5.1 5.1l3.2 1.8 8.5 4.7zm0 0l-9.3-2.6-3.6-1c-.3 1.1-.5 2.3-.5 3.6 0 1.2.2 2.4.5 3.6l3.6-1 9.3-2.6zm0 0l-8.4 4.8-3.2 1.8c1.2 2.1 2.9 3.9 5.1 5.1l1.8-3.2 4.7-8.5z" fill="#96C6D9"/>
</svg>
