<svg xmlns="http://www.w3.org/2000/svg" viewBox="0 0 195 370.9">
  <g fill-rule="evenodd" clip-rule="evenodd">
    <path d="M82.8 6.8c-68.2 38 5.1 125.1 53 111.1 0 1.1-.1 2.5-.2 2.9-.1.7-.1 1 .9 1.4 1 .3.8-.4 1.6 0 .6.3 1.2-.6 1.7-1.3.2.4.5.8.8 1.2.6-.1 1.2-.1 1.8-.1-.4-.6-.7-1.2-1.1-1.7.3.1.7.1 1.1-.1.9-.4.6-1.5 1.1-2.1.5-.6 1.7-.6 1.6-.9-.1-.2-1.6-1.4-2.8-2.3C184.5 85.9 154-28.9 82.8 6.8z" fill="#EE6323"/>
    <path d="M105.1 8.1c-2.9-.2-22.4 4.3-26.1 13.2-3.6 9-1.8 19 8.6 22.1 10.4 3 25.6 5 36.5 13.4 10.9 8.4 21.1 18.7 24.2 2.8 3-15.9 1-28.4-12.4-40.6-13.4-12.1-30.8-10.9-30.8-10.9z" fill="#F47F41"/>
    <path d="M190.1 299.2c0-.1 8-23-1.3-44.6-5-11.7-11.7-16.1-18.3-20.4-5.7-3.8-11.4-7.6-16.1-15.8-5.9-10.4-3.9-15.7-1-23.8 2.2-6 5-13.5 5.4-25.8.9-28.5-21.9-52.2-21.9-52.3l1.2-1.1c.1.1 23.3 24.3 22.4 53.5-.4 12.6-3.2 20.3-5.5 26.3-2.8 7.6-4.7 12.7.8 22.4 4.5 7.9 10 11.6 15.6 15.3 6.8 4.5 13.6 9 18.9 21.2 9.6 22.2 1.4 45.7 1.3 45.8l-1.5-.7z" fill="#EE6323"/>
    <path d="M83.5 235.3c.6-1.3-.5-3.4.3-4.8.7-1.3 3.4-1.8 4.2-3 18.1-.4 37.7-10.8 40.6-22.8.4.1.6-1.8 1.1-1.5.5.3 1.5 2.8 2 3.1 5 16.3-25.4 32.6-48.2 29z" fill="#D9B9AF"/>
    <path d="M87.9 227.5c-1.8 2.5-3.3 5.1-4.5 7.8-2.5-.4-4.9-1-7.1-1.9.6-2.2 1.4-4.4 2.5-6.6 9.9-20.1 38.8-39 50.1-25.5.6.7 1.2 1.5 1.7 2.4.5.8.8 1.7 1.1 2.6-1-.7-2-1.2-3.1-1.6-11.7-3.9-30.4 8.2-40.7 22.8z" fill="#E9C6BA"/>
    <path fill="#56C4CF" d="M169.94 367.824L4.973 370.92 2.576 243.145l164.967-3.095z"/>
    <path fill="#7FCFDB" d="M170.285 265.37L.52 268.555l-.572-30.394 169.766-3.182z"/>
    <path fill="#6BC4CC" d="M170.05 249.96L.286 253.145l-.28-14.997 169.765-3.185z"/>
    <path fill="#4CBCC4" d="M168.04 266.97L3.073 270.063l-.03-1.6 164.967-3.095z"/>
    <path fill="#E4BEB2" d="M168.97 315.882L4.003 318.977l-.24-12.798 164.967-3.098z"/>
    <path fill="#E9C6BA" d="M91.325 236.42l2.492 132.773-12.798.24-2.494-132.773z"/>
    <path d="M91.3 237.6c-11.7-21.7-47.1-7.9-60.5 20.4l10.5-6.5.9 12.1c8.9-15.9 16.3-23.5 34.8-25.8l14.3-.2z" fill="#E9C6BA"/>
    <path d="M78.5 237.8c10.9-22.1 46.7-9.6 61.2 18.2l-10.7-6.1-.4 12.2c-9.5-15.6-17.1-22.9-35.7-24.5l-14.4.2zm6.1 4.8s-3.1 4.7-7.2 6.6c-4.1 2-6.2.9-6.2.8-.1-.3.3-.3.5-.3 0 0 1.6.9 5.5-.9 4-1.9 7-6.4 7-6.4l.4.2z" fill="#E9C6BA"/>
    <path d="M27.7 271.7l44.1-28.2 17.9 28-44.1 28.2-17.9-28zM70 248.5c-1.1 0-1.9.9-1.9 2s.9 2 2 2 1.9-.9 1.9-2c0-.5-.2-1-.6-1.4-.4-.4-.9-.6-1.4-.6z" fill="#FFF"/>
    <path d="M71.1 249.9s0-5.1 3.4-9.6c3.5-4.6 13.4-4 13.4-4v.5s-9.7-.5-13 3.8c-3.3 4.4-3.3 9.3-3.3 9.3 0 .2-.4.2-.5 0z" fill="#E9C6BA"/>
    <path d="M79.9 235.9c-.7-1.3.4-3.4-.4-4.7-.8-1.2-3.4-1.6-4.3-2.8-18.1.3-38.1-9.4-41.5-21.2-.4.2-.7-1.8-1.2-1.5-.5.3-1.4 2.8-1.9 3.2-4.4 16.3 26.6 31.5 49.3 27z" fill="#D9B9AF"/>
    <path d="M75.2 228.3c1.9 2.5 3.5 5 4.8 7.6 2.5-.5 4.8-1.2 7-2.2-.7-2.2-1.6-4.3-2.8-6.5-10.6-19.7-40.2-37.5-51-23.6-.6.7-1.1 1.6-1.6 2.5-.4.9-.8 1.7-1 2.6.9-.7 2-1.3 3.1-1.7 11.5-4.3 30.7 7.1 41.5 21.3z" fill="#E9C6BA"/>
  </g>
</svg>
