<svg xmlns="http://www.w3.org/2000/svg" viewBox="0 0 12.32 16"><style>.cls-1{fill:#736459;}</style>
	<path class="cls-1" d="M3.5,4.61H6.36a.45.45,0,1,0,0-.9H3.5a.45.45,0,0,0,0,.9Z"/>
	<path class="cls-1" d="M9,6.63H3.5a.45.45,0,0,0,0,.9H9a.45.45,0,0,0,0-.9Z"/>
	<path class="cls-1" d="M9,9.54H3.5a.45.45,0,0,0,0,.9H9a.45.45,0,0,0,0-.9Z"/>
	<path class="cls-1" d="M12.32,15.72a.17.17,0,0,1-.28.12L10.5,14.33a.18.18,0,0,0-.25,0h0L8.42,16a.17.17,0,0,1-.22,0L6.43,14.34a.26.26,0,0,0-.32,0L4.33,16a.17.17,0,0,1-.22,0L2.29,14.34a.29.29,0,0,0-.37,0L.28,15.8A.17.17,0,0,1,0,15.68V1.37A1.5,1.5,0,0,1,1.44,0h9.65a1.3,1.3,0,0,1,1.23,1.41ZM2.11,13.38a1.19,1.19,0,0,1,.75.27h0L4.1,14.75a.17.17,0,0,0,.22,0l1.22-1.1h0a1.16,1.16,0,0,1,1.45,0l0,0L8.2,14.74a.17.17,0,0,0,.22,0l1.22-1.08a1.07,1.07,0,0,1,1.49,0h0a.17.17,0,0,0,.28-.12V1.41c0-.2-.09-.51-.33-.51H1.47a.6.6,0,0,0-.57.52V13.68a.17.17,0,0,0,.28.13l.14-.12A1.18,1.18,0,0,1,2.11,13.38Z"/>
</svg>