<svg xmlns="http://www.w3.org/2000/svg" viewBox="0 0 64 64"><defs><style>.cls-1{fill:#736459;}.cls-2{fill:#fff;}.cls-3{fill:#ec4b53;}.cls-4{fill:#15bdb1;}.cls-5{fill:#ff5b61;}.cls-6{fill:#f0b97d;}.cls-7{fill:#807d7d;}.cls-8{fill:#fed198;}.cls-9{fill:#ffba1b;}.cls-10{fill:#20d0c2;}.cls-11{fill:#dfe1e3;}.cls-12{fill:#ecf0f1;}</style></defs><title>Launch</title><g id="Layer_2" data-name="Layer 2"><g id="Merchant_home"><g id="Features"><path class="cls-1" d="M32,64A32,32,0,1,0,0,32,32.06,32.06,0,0,0,32,64Z"/><path class="cls-2" d="M27.14,12.87A2.86,2.86,0,0,1,28,13a4.66,4.66,0,0,1,9.22,1l.29,0a2.32,2.32,0,1,1-1.95,3.59,4.66,4.66,0,0,1-6.12-.1,2.84,2.84,0,1,1-2.27-4.55Z"/><path class="cls-2" d="M33.84,45a2.2,2.2,0,0,1,.64.09,3.57,3.57,0,0,1,7.07.73h.22a1.78,1.78,0,1,1-1.5,2.75,3.57,3.57,0,0,1-4.69-.08A2.18,2.18,0,1,1,33.84,45Z"/><path class="cls-2" d="M11,19.3a1.06,1.06,0,0,1,.31,0,1.74,1.74,0,0,1,3.44.36h.11A.87.87,0,1,1,14.13,21a1.74,1.74,0,0,1-2.28,0A1.06,1.06,0,1,1,11,19.3h0Z"/><path class="cls-3" d="M58,12.72,52.29,7,36,23.29,41.72,29Z"/><path class="cls-2" d="M40.33,30.37l-5.68-5.68L36,23.29,41.72,29l-1.39,1.39h0Z"/><path class="cls-4" d="M40.33,30.37l-5.68-5.68-2,2a1,1,0,0,0,0,1.35l4.33,4.33a1,1,0,0,0,1.35,0l2-2h0Z"/><path class="cls-5" d="M56.42,11.16,53.85,8.6,37.6,24.85l2.57,2.56Z"/><path class="cls-6" d="M58,12.72,52.29,7l5.94-2.28,2,2L58,12.72Z"/><path class="cls-7" d="M61.27,3.94l-.2-.2-2.84,1,2,2,1-2.84Z"/><path class="cls-8" d="M56.42,11.16,53.85,8.6l4.94-3.29.91.91-3.29,4.94h0Z"/><path class="cls-9" d="M45.67,34.64s.22.91-1.48,2.29A8.68,8.68,0,0,1,41,38.66a8.69,8.69,0,0,1,1.72-3.22C44.07,33.73,45,34,45,34l.4.29Z"/><path class="cls-9" d="M48.3,31.26l-.13-8.74-5.42,5.42,2.6,6.54Z"/><path class="cls-10" d="M49.67,32.17l-.06.05-.06.05-.06.05-.07.06-.07.06-.07.06h0l-.07.06-.07.06-.07.06h0l-.07.06-.07.06h0l-.07.06-.07.06L48.7,33l-.07.06h0l-.08.06h0l-.08.06-.08.06-.08.06h0l-.08.06h0l-.08.06-.08.06h0l-.08.06h0l-.07.06-.07.06h0l-.07.06h0l-.07.06h0l-.07.06-.07.06h0l-.07.06-.07.06h0l-.07.06h0l-.07.06-.07.05-.07.05h0l-.07.05h0l-.06.05-.06.05-.06,0h0l-.06,0-.06,0h0l-.06,0h0l-.05,0h0l-.05,0h0l-.05,0h0l0,0,0,0h0l0,0h0l0,0h0l0,0h0l0,0h0l0,0h0l0,0,0,0h0l0,0h0l0,0h0l0,0h0l0,0H46l-.77-.77-.77-.77s1.83-2.31,2.94-3.62c.58-.68,2.43-1.7,3.14-.92l0,0,0,0h0l0,0,0,0,0,0,0,0h0l0,0h0l0,0,0,0v0h0v0h0v0h0v0h0v.1h0v.05h0v.05h0v.05h0v.05h0V30h0v.17h0v.17l0,.06,0,.06h0l0,.06,0,.06h0l0,.06h0l0,.06,0,.06h0l0,.06,0,.06,0,.06h0l0,.06,0,.06,0,.06,0,.06,0,.06,0,.05,0,.05h0l0,.05,0,.05,0,.05,0,.05,0,.05,0,0,0,0,0,0,0,0,0,0,0,0,0,0,0,0,0,0,0,0,0,0,0,0,0,0,0,0,0,0,0,0Zm1-3.1h0l0,0Z"/><path class="cls-2" d="M46.27,35.16l-1.81-1.81a.11.11,0,0,0-.15,0l-.58.58a.11.11,0,0,0,0,.15l1.81,1.81a.11.11,0,0,0,.15,0l.58-.58A.11.11,0,0,0,46.27,35.16Z"/><path class="cls-4" d="M48.57,29.72a3.54,3.54,0,0,0-.77.63c-.89,1-2.23,2.71-2.74,3.34l-.12.15-.36-.36.28-.35c.59-.73,1.78-2.22,2.58-3.17a3.89,3.89,0,0,1,1.14-.84c.73-.37,1.57-.55,2-.08l0,0,0,0,.06.08,0,0,0,0v0c-.52-.37-1.47,0-2.19.43Z"/><path class="cls-9" d="M30.38,19.35s-.91-.22-2.29,1.48a8.69,8.69,0,0,0-1.72,3.22,8.68,8.68,0,0,0,3.22-1.72c1.7-1.38,1.48-2.29,1.48-2.29l-.29-.4-.4-.29h0Z"/><path class="cls-9" d="M33.75,16.71l8.74.13-5.42,5.42-6.54-2.6,3.22-2.95Z"/><path class="cls-10" d="M32.84,15.35l-.05.06-.05.06-.05.07-.06.07-.06.07-.06.07h0l-.06.07-.06.07-.06.07h0l-.06.07-.06.07h0l-.06.07-.06.07-.06.07-.06.08-.06.08h0l-.06.08-.06.08h0l-.06.08-.06.08h0l-.06.08-.06.08h0l-.06.08h0l-.06.07h0l-.06.07h0l-.06.07h0l-.06.07h0l-.06.07-.06.07h0l-.06.07-.06.07h0l-.06.07h0l-.06.07-.05.07h0l-.05.07h0l-.05.07h0l-.05.06-.05.06h0l0,.06,0,.06h0l0,.06h0l0,.06h0l0,.05h0l0,.05,0,.05h0l0,0h0l0,0h0l0,0h0l0,0h0l0,0h0l0,0h0l0,0h0l0,0h0l0,0h0l0,0,0,0h0l0,0h0l0,0h0v0h0l.77.77.77.77s2.31-1.83,3.62-2.94c.68-.58,1.7-2.43.92-3.14l0,0,0,0h0l0,0,0,0h0l0,0h0l0,0h0l0,0h0l0,0,0,0h-.91l-.06,0-.06,0-.06,0-.06,0h0l-.06,0h0l-.06,0-.06,0h0l-.06,0-.06,0-.06,0h0l-.06,0-.06,0-.06,0-.06,0-.06,0-.05,0-.05,0h0l-.05,0-.05,0-.05,0-.05,0-.05,0,0,0,0,0,0,0,0,0,0,0,0,0,0,0,0,0,0,0,0,0,0,0,0,0,0,0,0,0,0,0,0,0Zm3.1-1h0l0,0Z"/><path class="cls-2" d="M29.86,18.74l1.81,1.81a.11.11,0,0,1,0,.15l-.58.58a.11.11,0,0,1-.15,0l-1.81-1.81a.11.11,0,0,1,0-.15l.58-.58a.11.11,0,0,1,.15,0Z"/><path class="cls-4" d="M35.3,16.44a3.55,3.55,0,0,1-.63.77c-1,.89-2.71,2.23-3.34,2.74l-.15.12.36.36.35-.28c.74-.59,2.22-1.77,3.17-2.58a3.9,3.9,0,0,0,.84-1.14c.37-.73.55-1.57.08-2l0,0,0,0-.08-.06,0,0,0,0h0c.37.52,0,1.47-.43,2.19h0Z"/><path class="cls-10" d="M38.65,28.69l-2.33-2.33-2.13,2.13a.82.82,0,0,0,0,1.16l1.17,1.17a.82.82,0,0,0,1.16,0l2.13-2.13Z"/><path class="cls-2" d="M29.41,43.14a.79.79,0,1,1-.79.79A.79.79,0,0,1,29.41,43.14Z"/><path class="cls-2" d="M22.93,35.69a.16.16,0,1,1-.16.16A.16.16,0,0,1,22.93,35.69Z"/><path class="cls-2" d="M20.08,36.44a.45.45,0,1,1-.45.45A.45.45,0,0,1,20.08,36.44Z"/><path class="cls-2" d="M12.51,39.83a.8.8,0,1,1-.8.8A.8.8,0,0,1,12.51,39.83Z"/><path class="cls-2" d="M24.08,34.27a.44.44,0,1,1-.44.44A.44.44,0,0,1,24.08,34.27Z"/><path class="cls-2" d="M26.13,48.26a.58.58,0,1,1-.58.58A.58.58,0,0,1,26.13,48.26Z"/><path class="cls-2" d="M29.65,41.15a.3.3,0,1,1-.3.3A.3.3,0,0,1,29.65,41.15Z"/><path class="cls-2" d="M27.5,60.77a3.17,3.17,0,0,0-1.16-.53,2.83,2.83,0,0,0-3.57-3.69A2.58,2.58,0,0,0,21.6,53a2.4,2.4,0,0,0,.35-2.89,2.35,2.35,0,0,0,1.63-2.83,2,2,0,0,0,1.83-1.65,1.6,1.6,0,0,0,1.11-1.93,1.17,1.17,0,0,0,.87-.4,1.33,1.33,0,0,0,.21-1.72l8.09-10.47-.92-.92-.92-.92-10.73,8a1.36,1.36,0,0,0-1.85,1.18,1.6,1.6,0,0,0-1.93,1.11,2,2,0,0,0-1.65,1.83,2.35,2.35,0,0,0-2.84,1.66,2.4,2.4,0,0,0-2.79.41,2.58,2.58,0,0,0-3.51-1.18,2.83,2.83,0,0,0-3.69-3.57,3.18,3.18,0,0,0-.53-1.16A4.07,4.07,0,1,0,0,30.87c0,.38,0,.75,0,1.13A32,32,0,0,0,32,64q1.54,0,3-.14a4.07,4.07,0,1,0-7.54-3.08Z"/><path class="cls-11" d="M27.5,60.77a3.17,3.17,0,0,0-1.16-.53,2.83,2.83,0,0,0-3.57-3.69A2.58,2.58,0,0,0,21.6,53a2.4,2.4,0,0,0,.35-2.89,2.35,2.35,0,0,0,1.63-2.83,2,2,0,0,0,1.83-1.65,1.6,1.6,0,0,0,1.11-1.93,1.37,1.37,0,0,0,1.08-2.11l8.09-10.47-8.52,10.4a1.27,1.27,0,0,1-1.11,1.9,1.23,1.23,0,0,1-1.14,1.82c.32,1.08-.71,1.69-1.62,1.61.13,1.41-.37,2.71-1.81,3.06A2.15,2.15,0,0,1,21,53a2.6,2.6,0,0,1,1,4c2.14-.53,4.4.48,3.85,3.39a2.7,2.7,0,0,1,1.75,1s2.13-3.89,5.2-2.31c2.29,1.18,1.92,3.63,1.58,4.8l.6-.05a4.07,4.07,0,1,0-7.54-3.08h0Z"/><path class="cls-12" d="M8.53,44.85a3.68,3.68,0,0,1,3.59,2.87,2.6,2.6,0,0,1,3,1.34,2.36,2.36,0,0,1,3.37,3.19,3.34,3.34,0,0,1,.2,3.62,2.36,2.36,0,0,1,1.89,3.64h.19a1.43,1.43,0,0,1,1.38,1.06A1.43,1.43,0,0,1,23,62.71,32.07,32.07,0,0,1,4.87,49v-.1h0A31.84,31.84,0,0,1,1.3,41l.35,0a2.22,2.22,0,0,1,2.15,2.78,2.64,2.64,0,0,1,.49,0,2.6,2.6,0,0,1,2.4,1.6,3.66,3.66,0,0,1,1.84-.49Z"/><path class="cls-2" d="M18.88,61.19A32.13,32.13,0,0,1,4.87,49v-.1h0q-.46-.74-.88-1.5a2.61,2.61,0,0,1,.65.93A3.68,3.68,0,0,1,10,50.7,2.6,2.6,0,0,1,13,52a2.36,2.36,0,0,1,3.37,3.19,3.35,3.35,0,0,1,.2,3.62,2.36,2.36,0,0,1,2.26,2.35h0Z"/><path class="cls-2" d="M30.34,30.9l2.31-2.12.49.54Z"/><path class="cls-2" d="M34,34.69l1.86-2.61.53.49L34,34.69Z"/><path class="cls-2" d="M35.32,34.53l1.3-1.74.39.33-1.68,1.41Z"/><path class="cls-2" d="M30.41,29.83l1.75-1.61.22.3-2,1.31h0Z"/></g></g></g></svg>