<svg xmlns="http://www.w3.org/2000/svg" viewBox="0 0 20 20">
	<path class="cls-1" d="M18.45,9.06l-3.75,3.75a5.25,5.25,0,0,1-8.31-1.07L8.12,10a1.25,1.25,0,0,1,.28-.19,2.61,2.61,0,0,0,.66,1.13,2.66,2.66,0,0,0,3.75,0l3.75-3.75a2.65,2.65,0,0,0-3.75-3.75L11.48,4.77A6.66,6.66,0,0,0,8.09,4.4l2.84-2.84a5.31,5.31,0,0,1,7.51,7.51ZM8.52,15.23,7.18,16.57a2.65,2.65,0,0,1-3.75-3.75L7.18,9.06a2.66,2.66,0,0,1,3.75,0,2.63,2.63,0,0,1,.66,1.12,1.27,1.27,0,0,0,.28-.19l1.74-1.74a5.22,5.22,0,0,0-.81-1.07,5.31,5.31,0,0,0-7.51,0L1.55,10.94a5.31,5.31,0,0,0,7.51,7.51l2.84-2.84A6.66,6.66,0,0,1,8.52,15.23Z"/>
</svg>