<svg xmlns="http://www.w3.org/2000/svg" viewBox="0 0 63.88 64"><defs><style>.cls-1{fill:#736459;}</style></defs><title>Logistics</title><g id="Layer_2" data-name="Layer 2"><g id="Merchant_home"><g id="Services"><g id="Row_1"><g id="Logistics"><path class="cls-1" d="M63.34,10.42,32.35.1a.89.89,0,0,0-.82,0L.95,10.16A1.47,1.47,0,0,0,0,11.52V52.83a1.34,1.34,0,0,0,.95,1.36l30.2,9.65a2.14,2.14,0,0,0,1.6,0l30.19-9.65a1.65,1.65,0,0,0,.95-1.36V11.52a1.25,1.25,0,0,0-.54-1.09ZM31.94,2.95l26.23,8.43-9.9,3.18L22.42,6l9.52-3.1ZM30.58,60.71,2.72,51.87V13.44l27.86,8.91ZM31.94,19.8,5.71,11.52l12.36-4L43.82,16ZM33.3,60.71V22.25l13.86-4.39v4.26L49.87,21V17l11.28-3.56v38.3h0l-27.86,9Z"/></g></g></g></g></g></svg>