<svg xmlns="http://www.w3.org/2000/svg" viewBox="0 0 189 189"><defs><style>.cls-1{fill:#bc8a39;}.cls-2{fill:#00a99d;}.cls-3{fill:#b44e3a;}.cls-4{fill:#f5f5f5;}</style></defs><title>logomark</title><g id="Layer_2" data-name="Layer 2"><g id="Style_guide"><g id="Logomark"><path class="cls-1" d="M173.29,138.79A7.61,7.61,0,0,1,166.4,128,79.29,79.29,0,0,0,48.69,29.77,7.6,7.6,0,0,1,39.9,17.36a94.53,94.53,0,0,1,140.29,117A7.6,7.6,0,0,1,173.29,138.79Z"/><path class="cls-2" d="M94.5,189a94.7,94.7,0,0,1-44.12-10.91,7.6,7.6,0,0,1,7.11-13.44,79.36,79.36,0,0,0,89-10.23,7.6,7.6,0,0,1,10,11.49A94.47,94.47,0,0,1,94.5,189Z"/><path class="cls-3" d="M28.06,158.1a7.59,7.59,0,0,1-5.82-2.7A94.39,94.39,0,0,1,18.9,37.79a7.6,7.6,0,1,1,12.16,9.14,79.31,79.31,0,0,0,2.8,98.68,7.6,7.6,0,0,1-5.81,12.51Z"/><path class="cls-4" d="M51.73,137.61a60.84,60.84,0,0,1,67.93-98.52,59.8,59.8,0,0,1,6.53,3.42,6.52,6.52,0,1,1-6.75,11.15A47.1,47.1,0,0,0,114.33,51a47.79,47.79,0,1,0,23.06,22,47.58,47.58,0,0,0-3.87-6.35A6.52,6.52,0,0,1,144.08,59a60.83,60.83,0,0,1-92.35,78.6Z"/></g></g></g></svg>