<svg xmlns="http://www.w3.org/2000/svg" viewBox="0 0 64 64"><defs><style>.cls-1{fill:#736459;}</style></defs><title>Makeover</title><g id="Layer_2" data-name="Layer 2"><g id="Merchant_home"><g id="Services"><g id="Row_2"><g id="Makeup"><path class="cls-1" d="M61.47,34.77a4.13,4.13,0,0,0-1.6-7.94H54.71V15.69l5-11.88A2.75,2.75,0,0,0,57.12,0H44A2.75,2.75,0,0,0,41.5,3.81l4.95,11.88V26.84H42.32V9.43a3.11,3.11,0,0,0-1.5-2.65L37,4.51a2.65,2.65,0,0,0-4,2.27v5.8a3.06,3.06,0,0,0-1-.19H27.87a3.1,3.1,0,0,0-3.1,3.1v2.29A11.33,11.33,0,0,0,8.31,26.84H4.13a4.13,4.13,0,0,0-1.6,7.94A7.21,7.21,0,0,0,0,40.26v8.26A15.5,15.5,0,0,0,15.48,64h33A15.5,15.5,0,0,0,64,48.52V40.26A7.21,7.21,0,0,0,61.47,34.77ZM43.41,3a.7.7,0,0,1-.05-.27A.69.69,0,0,1,44,2.06h1.38V7.23h2.06V2.06h2.06v8.26h2.06V2.06h2.06V7.23h2.06V2.06h1.38a.69.69,0,0,1,.69.69.7.7,0,0,1-.05.26L53,14.45H48.17Zm9.24,13.5V26.84H48.52V16.52ZM47.91,29a2.17,2.17,0,0,1,.47-.05,2.12,2.12,0,0,1,2.06,1.65,2.26,2.26,0,0,1-1.59,2.68,2.2,2.2,0,0,1-2.54-1.74A2.12,2.12,0,0,1,47.91,29ZM46.31,38a2,2,0,0,1,2.54-1.45A2,2,0,0,1,50.44,39,2.12,2.12,0,0,1,46.31,38Zm.48,8.67a2.12,2.12,0,0,1-3,.33A2.19,2.19,0,0,1,43,45.55a2.25,2.25,0,0,1,.45-1.63,2.12,2.12,0,0,1,3-.34A2.3,2.3,0,0,1,46.79,46.7ZM44.3,37.57a4.16,4.16,0,0,0,.81,3.5,4,4,0,0,0-.44,0,4.16,4.16,0,0,0-2.8,1.55,4.06,4.06,0,0,0-.78,3.66,4.19,4.19,0,0,0-5.74,2.29,4,4,0,0,0-.11.43,4.27,4.27,0,0,0-6.47,0,3.72,3.72,0,0,0-.11-.43,4.19,4.19,0,0,0-5.74-2.29,4.38,4.38,0,0,0,.11-.52,4.32,4.32,0,0,0-.89-3.14,4.16,4.16,0,0,0-2.8-1.55c-.14,0-.27,0-.4,0a4,4,0,0,0,.77-3.36,4.38,4.38,0,0,0-1.78-2.61h7a5.17,5.17,0,0,0,5.06,4.13h4.13a5.17,5.17,0,0,0,5.06-4.13H46A3.94,3.94,0,0,0,44.3,37.57Zm-3,13.08a2.13,2.13,0,0,1-3.91.16,1.92,1.92,0,0,1-.1-1.53,2.14,2.14,0,0,1,3.91-.16A1.93,1.93,0,0,1,41.29,50.65Zm-7.18.91a2.12,2.12,0,0,1-4.24,0,2.12,2.12,0,0,1,4.24,0Zm-7.5-.74a2.14,2.14,0,0,1-3.91-.16,1.94,1.94,0,0,1,.1-1.53,2.14,2.14,0,0,1,3.91.16A1.93,1.93,0,0,1,26.62,50.82ZM15.15,36.43a2.2,2.2,0,0,1,2.54,1.74,2,2,0,0,1-1.59,2.39,2.12,2.12,0,1,1-.94-4.13Zm-1.59-5.88a2.12,2.12,0,0,1,4.13.94A2,2,0,0,1,16.58,33h-.06v0a2.4,2.4,0,0,1-1.37,0A2.12,2.12,0,0,1,13.56,30.55Zm4,13a2.1,2.1,0,0,1,1.32-.46h.24a2.1,2.1,0,0,1,1.42.78A2.24,2.24,0,0,1,21,45.55,2.2,2.2,0,0,1,20.19,47a2.12,2.12,0,0,1-3-.33A2.31,2.31,0,0,1,17.55,43.58Zm9.29-9.51a1,1,0,0,1,1-1h8.26a1,1,0,0,1,1,1,3.1,3.1,0,0,1-3.1,3.1H29.94A3.1,3.1,0,0,1,26.84,34.06ZM35.1,6.78a.6.6,0,0,1,.88-.5l3.77,2.26a1,1,0,0,1,.5.89v5H35.1Zm0,9.74h5.16V26.84H35.1Zm0,12.39h9.69a4.16,4.16,0,0,0-.49,3A4.29,4.29,0,0,0,44.72,33H39A3.09,3.09,0,0,0,36.13,31H27.87A3.09,3.09,0,0,0,25,33H19.31A5.09,5.09,0,0,0,19.7,32a4.16,4.16,0,0,0-.49-3H35.1ZM26.84,15.48a1,1,0,0,1,1-1H32a1,1,0,0,1,1,1V26.84H30.92a11.35,11.35,0,0,0-4.08-7.72Zm-7.23,3.1a9.3,9.3,0,0,1,9.23,8.26H10.38A9.3,9.3,0,0,1,19.61,18.58ZM2.06,31A2.07,2.07,0,0,1,4.13,28.9H12A4,4,0,0,0,12,33H4.13A2.07,2.07,0,0,1,2.06,31ZM61.94,48.52A13.43,13.43,0,0,1,48.52,61.94h-33A13.43,13.43,0,0,1,2.06,48.52V40.26A5.17,5.17,0,0,1,7.23,35.1h6a4.18,4.18,0,0,0,2.38,7.58,4.35,4.35,0,0,0,0,5.31,4.15,4.15,0,0,0,5,1.17,3.93,3.93,0,0,0,.14,2.21,4.25,4.25,0,0,0,3.94,2.72,4.22,4.22,0,0,0,1.38-.24,4.14,4.14,0,0,0,1.85-1.31,4.17,4.17,0,0,0,8.11,0,4.15,4.15,0,0,0,1.85,1.31,4.23,4.23,0,0,0,5.32-2.48,3.93,3.93,0,0,0,.14-2.21,4.15,4.15,0,0,0,5-1.17,4.35,4.35,0,0,0,0-5.31,4.19,4.19,0,0,0,4-3.25,4,4,0,0,0-1.86-4.33h3.08V33H52.06a4.33,4.33,0,0,0,.4-2.94A4.12,4.12,0,0,0,52,28.9h7.91a2.06,2.06,0,1,1,0,4.13H55.74V35.1h1a5.17,5.17,0,0,1,5.16,5.16Z"/></g></g></g></g></g></svg>