<svg xmlns="http://www.w3.org/2000/svg" viewBox="0 0 20.01 20">
	<path class="cls-1" d="M20,15.78a1,1,0,0,1-.3.85l-2.82,2.8a1.59,1.59,0,0,1-.5.36,2.06,2.06,0,0,1-.6.19h-.4a9.77,9.77,0,0,1-1.3-.14,9.9,9.9,0,0,1-2.2-.68,18.49,18.49,0,0,1-3-1.62,22,22,0,0,1-3.52-3,23.22,23.22,0,0,1-2.46-2.8A19.93,19.93,0,0,1,1.38,9.33,13.29,13.29,0,0,1,.49,7.28a10.9,10.9,0,0,1-.4-1.59,5.25,5.25,0,0,1-.08-1q0-.38,0-.42a2.06,2.06,0,0,1,.19-.6,1.59,1.59,0,0,1,.36-.5L3.39.3A.93.93,0,0,1,4.07,0a.79.79,0,0,1,.49.16,1.47,1.47,0,0,1,.36.39l2.27,4.3a1,1,0,0,1,.11.74,1.32,1.32,0,0,1-.36.68l-1,1a.35.35,0,0,0-.07.14.52.52,0,0,0,0,.16,3.83,3.83,0,0,0,.38,1A9.34,9.34,0,0,0,7,9.86a13.76,13.76,0,0,0,1.5,1.68,14,14,0,0,0,1.69,1.51,9.79,9.79,0,0,0,1.24.79,3.29,3.29,0,0,0,.76.31l.26.05.14,0a.35.35,0,0,0,.14-.07l1.21-1.23a1.3,1.3,0,0,1,.89-.34,1.11,1.11,0,0,1,.57.13h0l4.09,2.42A1.07,1.07,0,0,1,20,15.78Z"/>
</svg>