<svg xmlns="http://www.w3.org/2000/svg" viewBox="0 0 22.76 24"><defs><style>.cls-1{fill:#736459;}</style></defs><title>profile_icon</title><g id="Layer_2" data-name="Layer 2"><g id="Home_Chat" data-name="Home+Chat"><g id="Home_lander"><g id="Bottom_nav"><g id="Profile"><g class="cls-1"><path class="cls-2" d="M22.7,22.14l-1.09-3.77a.56.56,0,0,0-.13-.21A6.33,6.33,0,0,0,17.07,14L16.76,14a1.29,1.29,0,0,0-1.32.41c-1.14,1.29-2.58,1.4-4.11,1.4s-3-.1-4.11-1.4A1.29,1.29,0,0,0,5.91,14L5.6,14a6.41,6.41,0,0,0-3.77,2.76h0c-.08.15-.63,1.4-.68,1.58L0,22.17A1.48,1.48,0,0,0,.3,23.43,1.44,1.44,0,0,0,1.44,24H21.31a1.41,1.41,0,0,0,1.14-.57A1.44,1.44,0,0,0,22.7,22.14Zm-1.06.67a.45.45,0,0,1-.34.16H1.44a.45.45,0,0,1-.34-.16A.47.47,0,0,1,1,22.45l1.09-3.77A5.28,5.28,0,0,1,5.86,15L6.17,15a.33.33,0,0,1,.28.1c1.42,1.63,3.18,1.76,4.88,1.76s3.46-.13,4.88-1.76a.33.33,0,0,1,.31-.1l.31.08a5.32,5.32,0,0,1,3.75,3.64l.47,1.6a.42.42,0,0,0,.1.18l.57,2A.51.51,0,0,1,21.64,22.81Z"/><path class="cls-2" d="M11.54,0A5.81,5.81,0,0,0,6.66,2.66a7.7,7.7,0,0,0-.49.93,5.91,5.91,0,0,0-.44,2.25c0,4.42,2.66,8.14,5.81,8.14s5.84-3.8,5.84-8.14A5.83,5.83,0,0,0,11.54,0ZM7.28,3.67a.36.36,0,0,0,.08-.1s0-.08.05-.1A4.72,4.72,0,0,1,11.54,1a4.82,4.82,0,0,1,4.57,3.36,2.43,2.43,0,0,1-2.43-1,.51.51,0,0,0-.72-.1.44.44,0,0,0-.18.26s0,.05-.05.08C12,5.14,9.58,5.76,6.81,5.22A5.38,5.38,0,0,1,7.28,3.67Zm4.26,9.27c-2.45,0-4.6-3.07-4.78-6.69a10.48,10.48,0,0,0,2,.18c2.07,0,3.77-.65,4.65-1.86a3.45,3.45,0,0,0,2.3.88,2.76,2.76,0,0,0,.65-.08,2.51,2.51,0,0,1,0,.44C16.35,9.61,14.1,12.94,11.54,12.94Z"/></g></g></g></g></g></g></svg>