<svg xmlns="http://www.w3.org/2000/svg" viewBox="0 0 109.9 64"><defs><style>.cls-1{fill:#736459;}</style></defs><title>Rentals</title><g id="Layer_2" data-name="Layer 2"><g id="Merchant_home"><g id="Services"><g id="Row_1"><g id="Rentals"><path class="cls-1" d="M90.89,12.21H80.25v-2A10.21,10.21,0,0,0,70,0H34.62a10.21,10.21,0,0,0-10.2,10.2V41.87a1.74,1.74,0,0,0,1.74,1.74h82a1.74,1.74,0,0,0,1.74-1.74V31.23A19,19,0,0,0,90.89,12.21Zm-63,27.91V10.2a6.71,6.71,0,0,1,6.71-6.71H70a6.72,6.72,0,0,1,6.71,6.71V40.12Zm78.5,0H80.25V15.7H90.89a15.55,15.55,0,0,1,15.53,15.53Z"/><path class="cls-1" d="M92.46,19.19H83.74A1.74,1.74,0,0,0,82,20.93V31.4a1.74,1.74,0,0,0,1.74,1.74h19.19a1.74,1.74,0,0,0,1.74-1.74A12.22,12.22,0,0,0,92.46,19.19Zm-7,10.47v-7h7a8.74,8.74,0,0,1,8.55,7Z"/><path class="cls-1" d="M109.9,47.84v-6a1.75,1.75,0,0,0-1.74-1.74h-82a1.74,1.74,0,0,0-1.74,1.74V54.08a1.74,1.74,0,0,0,1.74,1.74h5.41a8.68,8.68,0,0,0,1.47,3.35H1.74c-1,0-1.74,1.08-1.74,2.41S.78,64,1.74,64H108.16c1,0,1.74-1.08,1.74-2.41s-.78-2.41-1.74-2.41h-6.88a8.69,8.69,0,0,0,1.48-3.4A8,8,0,0,0,109.9,47.84Zm-75,6.24a5.23,5.23,0,1,1,6.4,5.1H39A5.24,5.24,0,0,1,34.89,54.08Zm12.31,5.1a8.68,8.68,0,0,0,1.47-3.35h37a8.68,8.68,0,0,0,1.47,3.35Zm45.84,0a5.23,5.23,0,1,1,6.38-5.49,1.63,1.63,0,0,0,0,.78,5.24,5.24,0,0,1-4.05,4.71ZM94.2,45.36a8.74,8.74,0,0,0-8.55,7h-37a8.72,8.72,0,0,0-17.09,0H27.91V43.61h78.5v4.23a4.5,4.5,0,0,1-3.68,4.42A8.74,8.74,0,0,0,94.2,45.36Z"/></g></g></g></g></g></svg>