<svg xmlns="http://www.w3.org/2000/svg" viewBox="0 0 55.47 64"><defs><style>.cls-1{fill:#736459;}</style></defs><title>Security</title><g id="Layer_2" data-name="Layer 2"><g id="Merchant_home"><g id="Services"><g id="Row_2"><g id="Security"><path class="cls-1" d="M28.88,28.51H26.59a1.14,1.14,0,1,0,0,2.29h2.29a1.14,1.14,0,0,0,0-2.29Z"/><path class="cls-1" d="M30,33.08H25.45a1.14,1.14,0,1,0,0,2.29H30a1.14,1.14,0,0,0,0-2.29Z"/><path class="cls-1" d="M55.3,59.52l-1.53-4.78a14,14,0,0,0-3.2-5,28,28,0,0,0-3-2.26l-.11-.07a12.46,12.46,0,0,0-1.44-.71,14.05,14.05,0,0,0-5.33-1.06L37,42a24.71,24.71,0,0,1,.18-3.11c.13-1.12.33-2.3.59-3.52a9.63,9.63,0,0,0,2.51-5.68,2,2,0,0,0,.44.07,1.93,1.93,0,0,0,.61-.1c.59-.2,2.38-.79,2.38-8,0-.76,0-3.07-1.54-3.8a2,2,0,0,0-.75-.18v-4a13.71,13.71,0,1,0-27.43,0v4a2,2,0,0,0-.75.18c-1.54.73-1.54,3-1.54,3.8s0,1.65.08,2.34H10.59a3.43,3.43,0,0,0-3.43,3.43v2.29a3.43,3.43,0,0,0,3.43,3.43,1.14,1.14,0,0,1,1.14,1.14v1.14a1.14,1.14,0,0,1-1.14,1.14H7.16a3.43,3.43,0,0,0,0,6.86H8.31v3.43a1.12,1.12,0,0,0,.07.35l-.4.21-.11.07a28.19,28.19,0,0,0-3,2.26,14,14,0,0,0-3.22,5L.17,59.52A3.44,3.44,0,0,0,3.44,64H52a3.44,3.44,0,0,0,3.27-4.48ZM38.62,46.79l-6.26,5.37-1.71-1.71h0l-1.24-1.24,6.26-5.36ZM26.05,49.21l-3,2.95-6.26-5.36,3-2.95ZM20.5,38.33c.69.64,1.42,1.28,2.24,1.95a7.93,7.93,0,0,0,10,0c.82-.66,1.55-1.31,2.24-1.95,0,.08,0,.17,0,.25a27.53,27.53,0,0,0-.19,3l-7,6-.06-.06,0,0-6.95-6a27.44,27.44,0,0,0-.19-3C20.53,38.51,20.51,38.42,20.5,38.33Zm5.77,13.89,1.44-1.44L29,52.05l.06.06,1.63,1.63-2.93,2.93-3-3ZM36,34a1.1,1.1,0,0,0-.18.22,32,32,0,0,1-4.49,4.32,5.64,5.64,0,0,1-7.11,0A32,32,0,0,1,19.7,34.2a1.09,1.09,0,0,0-.18-.22,7.66,7.66,0,0,1-2.07-4.35c0-.25,0-.51,0-.73,0-.45.07-.92.1-1.41,0-.34,0-.66,0-1a8.46,8.46,0,0,0,3.85.92,7.82,7.82,0,0,0,6.29-2.94A7.82,7.82,0,0,0,34,27.43a8.46,8.46,0,0,0,3.85-.92c0,.34,0,.67,0,1s0,.92.09,1.35c0,.24,0,.5,0,.75A7.67,7.67,0,0,1,36,34Zm4.23-9.27.94-4.7.09,0a4.09,4.09,0,0,1,.24,1.69c0,3.58-.5,5.18-.78,5.68a3.61,3.61,0,0,1-.5-.54C40.15,26.08,40.15,25.37,40.18,24.71Zm-23.88-11a11.43,11.43,0,0,1,22.86,0v1.14H16.31Zm0,3.43H39.16v1l-1.07,5.36A5.67,5.67,0,0,1,34,25.14a5,5,0,0,1-5-3.05,3.13,3.13,0,0,1-.16-.95,1.14,1.14,0,1,0-2.29,0,3.1,3.1,0,0,1-.15.94,5,5,0,0,1-5,3.06,5.67,5.67,0,0,1-4.07-1.61l-1.07-5.36v-1ZM14.26,20l.09,0,.94,4.7c0,.67,0,1.37,0,2.09a3.6,3.6,0,0,1-.5.54c-.28-.5-.78-2.1-.78-5.68A4.08,4.08,0,0,1,14.26,20ZM7.16,41.14a1.14,1.14,0,1,1,0-2.29h3.43A3.43,3.43,0,0,0,14,35.43V34.29a3.43,3.43,0,0,0-3.43-3.43,1.14,1.14,0,0,1-1.14-1.14V27.43a1.14,1.14,0,0,1,1.14-1.14H12.1c.56,2.83,1.59,3.19,2,3.33a1.93,1.93,0,0,0,.61.1,2,2,0,0,0,.44-.07,9.63,9.63,0,0,0,2.51,5.68c.26,1.22.47,2.41.6,3.53a24.63,24.63,0,0,1,.18,3.1l-3.7,3.7a13.93,13.93,0,0,0-4.16.64v-4a1.14,1.14,0,0,0-1.14-1.14H7.16Zm7.29,20.57h-11a1.13,1.13,0,0,1-.92-.47,1.15,1.15,0,0,1-.17-1l1.49-4.67a11.65,11.65,0,0,1,.93-1.92,11.8,11.8,0,0,1,1.75-2.25c.1-.1.39-.34,2.65-2a9.89,9.89,0,0,1,1.12-.55,11.91,11.91,0,0,1,2.77-.75L9.57,53.65a2.29,2.29,0,0,0,1.94,3.5h5.23Zm8.06,0H17l1.77-3.55a2.29,2.29,0,0,0-2-3.31H11.51l3.92-6.27,7,6,2.76,2.76Zm7.22,0H25.18l1.75-2.91a2.22,2.22,0,0,0,1.61,0l1.75,2.91Zm6.66-3.55,1.77,3.55H33l-2.64-4.39,2.77-2.76,6.77-5.81,3.82,6.11H38.44a2.29,2.29,0,0,0-2,3.31ZM53,61.25a1.13,1.13,0,0,1-.92.47H40.73l-2.29-4.57h5.23a2.29,2.29,0,0,0,1.94-3.5L42.1,48a11.88,11.88,0,0,1,3.08.8,10.05,10.05,0,0,1,1.12.55c2.27,1.65,2.55,1.89,2.66,2a11.79,11.79,0,0,1,2.66,4.12l1.51,4.72A1.15,1.15,0,0,1,53,61.25Z"/></g></g></g></g></g></svg>