<svg xmlns="http://www.w3.org/2000/svg" viewBox="0 0 58.78 64"><defs><style>.cls-1{fill:#736459;}</style></defs><title>Venue</title><g id="Layer_2" data-name="Layer 2"><g id="Merchant_home"><g id="Services"><g id="Row_4"><g id="Venue"><path class="cls-1" d="M56.54,22.89A59.49,59.49,0,0,1,44.21,15,.94.94,0,0,0,43,16.48a61.12,61.12,0,0,0,10.71,7.1H38.38a143.78,143.78,0,0,1-4.84-17A58.38,58.38,0,0,0,40.2,14a.94.94,0,1,0,1.28-1.37,55.08,55.08,0,0,1-9-10.9,3.66,3.66,0,0,0-6.21,0,57.5,57.5,0,0,1-24,21.16A4,4,0,0,0,0,26.43v1.95A3.79,3.79,0,0,0,2.85,32v29.6a2.36,2.36,0,1,0,4.72,0V50.25a.94.94,0,0,0-1.87,0V61.64a.49.49,0,1,1-1,0v-14a17.93,17.93,0,0,0,6.42-2.81c3-2.1,6.61-6.07,7.63-13.3a3.78,3.78,0,0,0,4.93-.66,3.78,3.78,0,0,0,5.69,0,3.78,3.78,0,0,0,5.69,0,3.78,3.78,0,0,0,4.93.66c1,7.24,4.63,11.21,7.63,13.3a18.08,18.08,0,0,0,3.57,1.93V61.64a2.36,2.36,0,0,0,4.72,0V32a3.79,3.79,0,0,0,2.85-3.66V26.43A4,4,0,0,0,56.54,22.89ZM3.78,30.28a1.91,1.91,0,0,1-1.91-1.91V26.43a2,2,0,0,1,.25-1H5.69v2.92A1.91,1.91,0,0,1,3.78,30.28ZM4.72,32a3.79,3.79,0,0,0,1.91-1.17,3.77,3.77,0,0,0,4.34,1A27.94,27.94,0,0,1,4.72,44.46Zm2.85-3.66V25.45h3.82v2.92a1.91,1.91,0,0,1-3.82,0Zm2.57,14.87a16.16,16.16,0,0,1-3.52,1.88A29.65,29.65,0,0,0,13,31.45a3.77,3.77,0,0,0,3.89.32C16,36.81,13.78,40.67,10.13,43.25Zm6.94-14.87h0a1.91,1.91,0,0,1-3.82,0V25.45h3.82ZM5,23.58a60,60,0,0,0,20.18-17,143.78,143.78,0,0,1-4.84,17Zm17.71,4.8a1.91,1.91,0,0,1-3.82,0V25.45h3.82Zm5.69,0a1.91,1.91,0,0,1-3.82,0V25.45h3.82Zm-6.07-4.8A153,153,0,0,0,28,2.58a1.78,1.78,0,0,1,2.85,0,153,153,0,0,0,5.58,21Zm17.45,4.8a1.91,1.91,0,0,1-3.82,0,.94.94,0,1,0-1.87,0,1.91,1.91,0,0,1-3.82,0V25.45h9.51Zm7.57-2.92h3.82v2.92h0a1.91,1.91,0,0,1-3.82,0V25.45Zm-5.69,0h3.82v2.92a1.91,1.91,0,0,1-3.82,0Zm6.94,17.8c-3.65-2.58-5.9-6.44-6.71-11.49a3.77,3.77,0,0,0,3.89-.32,29.64,29.64,0,0,0,6.34,13.68A16.16,16.16,0,0,1,48.64,43.25Zm5.41,18.39a.49.49,0,0,1-1,0V47.41c.37.1.7.18,1,.24Zm0-17.18a27.93,27.93,0,0,1-6.25-12.61,3.77,3.77,0,0,0,4.34-1A3.79,3.79,0,0,0,54.06,32ZM55,30.28a1.91,1.91,0,0,1-1.91-1.91V25.45h3.56a2,2,0,0,1,.25,1v1.95h0A1.91,1.91,0,0,1,55,30.28Z"/></g></g></g></g></g></svg>